<svg id="Layer_1" data-name="Layer 1" xmlns="http://www.w3.org/2000/svg" xmlns:xlink="http://www.w3.org/1999/xlink" viewBox="0 0 1296 792">
  <defs>
    <style>
      .cls-1 {
        fill: none;
      }

      .cls-2 {
        clip-path: url(#clip-path);
      }

      .cls-3 {
        clip-path: url(#clip-path-2);
      }

      .cls-4 {
        clip-path: url(#clip-path-3);
      }
    </style>
    <clipPath id="clip-path">
      <path class="cls-1" d="M622.03519,132.711l1.88277-5.50172a32.74216,32.74216,0,0,1,13.65336-17.18166l12.73223-7.93964,13.56882-4.71787,22.6147-6.45307,37.31425-6.41391h30.52984l32.79131,4.31532L830.09039,102.088l12.43808,2.74509,12.43808,2.242,18.09176,9.11514,28.26837,19.74807,4.52294,9.99664-4.52294,19.5112-2.26147,27.20077-1.13073,11.42944,7.91514,8.22118,20.35323,18.01637,9.04588,18.14854h0a25.27883,25.27883,0,0,1-6.97152,17.43163L914.89549,279.948l-12.43808,4.88734-18.09176,11.5021-46.36013,19.86024-26.0069,16.71217-5.65367,6.98469,33.922,11.04483,42.96792,40.84423,2.26147-13.56489-9.04588-23.61539,3.3922-13.3881,10.17661-8.30537h16.961l18.09176-11.07268,27.13763-3.47311,13.56882,3.01746,5.65367,4.79975v15.03395l-4.52294,6.03371-9.7997,4.43049H955.225l-1.50765,3.76912v6.4075l-.37691,4.146-2.26147,2.63838-1.13073,2.26147.75382,8.669-3.76912,5.65367s-4.146,1.88456-5.27676,2.63838-18.46867,3.92067-18.46867,3.92067l-12.815-1.6592.37691,5.65367h7.91514l-2.26147,16.58411-4.146,10.17661-5.65367,9.04588-5.27676,2.26147-1.50765,3.3922,19.97631,22.23778,2.63838,4.89985-12.815,15.45338-13.94573,4.146-10.93044,3.76912-3.76912,1.88456-4.89985,10.55352-8.29206,18.09176-11.68426,36.93734-13.56882,45.22939-9.04588,39.95263-1.50765,3.3922-5.65367,3.01529h-8.669l-4.52294-2.26147,7.53823-15.45338,13.94573-43.72174,11.68426-45.22939,7.91514-38.82189-1.50765-4.146L838.38244,520.1589l-33.922,83.67437-7.72669,30.52984L793.153,654.33943H772.046l12.815-30.15293,14.69955-41.46028,10.55352-40.70645,10.55352-48.6216-18.46867,15.83029-5.46522,3.01529H786.36864l-15.07646-4.146-12.815-8.29206-13.56882-16.2072-6.4075-7.53823-4.146-3.01529-3.3922-2.63838-1.13073-21.107-61.8135-17.71484-5.27676-6.4075.37691-16.58411,64.45188-54.65218,9.42279-4.89985,12.43808-1.13073,6.03059-2.63838,3.76912-3.3922-7.16132-11.30735-10.55352-16.58411L723.4244,296.27341l-10.55352-9.04588-13.19191.11489-26.38381-1.42011-21.86087-8.168L622.03519,260.615l-17.33793-18.92129-6.03059-18.1642,4.52294-17.33793L609.974,200.161l-5.27676-13.56048-6.03059-12.034v-10.589l3.01529-12.815,4.52294-9.04588,8.29206-6.78441Z"/>
    </clipPath>
    <clipPath id="clip-path-2">
      <path class="cls-1" d="M766.95769,669.039h25.25308L795.603,686H781.28033l7.17956-13.00345-12.07941,4.52294L763.9424,686h-10.742a6.219,6.219,0,0,1-6.219-6.219v-2.26148l8.48051-4.52294L763.377,669.039Z"/>
    </clipPath>
    <clipPath id="clip-path-3">
      <polygon class="cls-1" points="814.099 657.732 806.184 674.693 820.884 677.519 818.057 662.82 828.799 670.17 841.802 677.519 849.152 677.519 856.502 677.519 856.502 674.693 851.979 666.212 835.018 661.124 827.103 657.732 814.099 657.732"/>
    </clipPath>
    <image id="image" width="442" height="332" xlink:href="Bean4.png"/>
  </defs>
  <title>Bean4</title>
  <g class="cls-2">
    <use transform="translate(280.94843 -0.5604) scale(2.26147)" xlink:href="#image"/>
  </g>
  <g class="cls-3">
    <use transform="translate(288.67511 -1.47242) scale(2.26147)" xlink:href="#image"/>
  </g>
  <g class="cls-4">
    <use transform="translate(277.77234 -4.29925) scale(2.26147)" xlink:href="#image"/>
    <path class="cls-1" d="M756.05492,666.21214H781.308l3.3922,16.961H770.37756l7.17956-13.00345-12.07941,4.52294-12.43808,8.48051h-10.742a6.219,6.219,0,0,1-6.219-6.219v-2.26148l8.48051-4.52294,7.91514-3.95757Z"/>
  </g>
</svg>
