<?xml version="1.0" encoding="utf-8"?>
<!-- Generator: Adobe Illustrator 16.0.0, SVG Export Plug-In . SVG Version: 6.00 Build 0)  -->
<!DOCTYPE svg PUBLIC "-//W3C//DTD SVG 1.1//EN" "http://www.w3.org/Graphics/SVG/1.1/DTD/svg11.dtd">
<svg version="1.1" id="Layer_1" xmlns="http://www.w3.org/2000/svg" xmlns:xlink="http://www.w3.org/1999/xlink" x="0px" y="0px"
	 width="425px" height="300px" viewBox="0 0 425 300" enable-background="new 0 0 425 300" xml:space="preserve">
<g>
	<path fill="#EEBBAA" stroke="#000000" stroke-width="2" stroke-miterlimit="10" d="M310.521,159.085
		c21.008,1.711,41.961,0.095,62.787-2.737c8.791-1.195,18.688-3.228,27.52-1.273c5.105,1.131,11.363,5.96,10.314,11.912
		c-1.297,7.344-10.627,12.263-16.637,15.071c-10.201,4.768-21.879,7.379-33.156,6.572c-13.063-0.935-26.328-4.559-39.104-7.326
		c-6.715-1.454-13.422-2.957-20.104-4.553"/>
	<g>
		<path fill="#E86327" stroke="#000000" stroke-width="2" stroke-miterlimit="10" d="M142.415,152.085c0,0-4.809,9.863-28.309,9.863
			s-36.5-7.53-40-8.363c-3.5-0.834-28.627-10.058-51.832,3.432c0,0,22.166,15.235,20,33.984
			c-2.168,18.749,8.666,22.609,8.666,22.609l46.252,5.891l65.75-13.301l5.5-29.949l-18-25.31L142.415,152.085z"/>
		
			<line fill="none" stroke="#000000" stroke-width="2" stroke-linecap="round" stroke-miterlimit="10" x1="40.942" y1="178.126" x2="56.567" y2="178.126"/>
		
			<line fill="none" stroke="#000000" stroke-width="2" stroke-linecap="round" stroke-miterlimit="10" x1="43.567" y1="200.001" x2="59.567" y2="200.001"/>
		<path stroke="#000000" stroke-miterlimit="10" d="M152.146,167.079c0,0-4.119,4.464-23.16,1.672
			c-18.566-2.723,12.582,10.125,12.582,10.125L152.146,167.079z"/>
	</g>
	<path fill="#EEBBAA" stroke="#000000" stroke-width="2" stroke-miterlimit="10" d="M151.61,157.085c0,0-32-9.667-52.5-8
		c-20.5,1.666-45.834-4.834-35-19.168c10.832-14.332,31.834-21.999,48-16.332c16.166,5.666,34,18.281,39.5,21.807"/>
	<g>
		<g>
			<path d="M37.985,258.47c-13.318,0-21.525-5.058-24.393-15.032c-1.74-6.054-0.808-11.535,2.773-16.29
				c11.238-14.924,44.88-18.283,55.779-18.283c8.538,0,19.619-0.235,29.603-2.071c7.563-1.391,41.817-30.429,58.874-45.588
				l0.839-0.746l28.7,40.967L79.405,248.158C78.509,248.568,56.602,258.47,37.985,258.47z"/>
			<path d="M161.286,161.952l27.346,39.033L79.017,247.237c0,0-22.418,10.232-41.031,10.232c-10.795,0-20.307-3.438-23.432-14.309
				c-7.736-26.91,41.973-33.297,57.592-33.297c9.195,0,19.949-0.279,29.783-2.088C111.765,205.968,161.286,161.952,161.286,161.952
				 M161.636,158.966l-1.679,1.491c-19.738,17.544-51.577,44.1-58.39,45.353c-9.903,1.821-20.926,2.055-29.422,2.055
				c-11.028,0-45.095,3.433-56.578,18.682c-3.78,5.02-4.768,10.796-2.936,17.168c2.963,10.308,11.73,15.756,25.354,15.756
				c18.68,0,40.574-9.827,41.835-10.4l109.589-46.241l2.281-0.963l-1.421-2.027l-27.346-39.033L161.636,158.966L161.636,158.966z"/>
		</g>
		<g>
			<path d="M106.466,204.389l1.163-0.724c16.254-10.104,52.629-42.39,52.995-42.714l0.839-0.746l28.698,40.973l-58.464,24.67
				L106.466,204.389z"/>
			<path d="M161.288,161.698l27.344,39.039l-56.756,23.949l-23.719-20.172C124.671,194.248,161.288,161.698,161.288,161.698
				 M161.638,158.711l-1.679,1.492c-0.364,0.324-36.678,32.554-52.857,42.613l-2.327,1.446l2.087,1.775l23.719,20.172l0.938,0.798
				l1.135-0.479l56.756-23.949l2.281-0.963l-1.421-2.027l-27.344-39.039L161.638,158.711L161.638,158.711z"/>
		</g>
		<path fill="#FFFFFF" d="M73.423,249.541c-4.902,1.996-10.025,3.582-15.143,4.923c-6.395,1.674-15.805,4.604-22.34,2.599
			c-5.963-1.831-10.445-9.671-6.008-14.899c6.359-7.495,19.129-10.157,28.371-11.912C59.394,238.367,64.505,247.991,73.423,249.541
			C73.202,249.631,72.962,249.461,73.423,249.541z"/>
		<path fill="#FFFFFF" d="M131.876,224.937l-52.859,22.298c0,0-2.119,0.969-5.584,2.308c0,0,0,0-0.01,0.002
			c-0.465-0.088-12.875-2.555-15.119-19.294c-0.053-0.336-0.096-0.685-0.131-1.044c-0.02-0.271-0.051-0.549-0.072-0.83
			c-1.5-17.955,16.92-17.479,18.52-17.406c0.07,0.008,0.111,0.01,0.111,0.01c7.813,1.014,17.035-1.699,25.197-3.199
			c1.379-0.254,3.539-1.332,6.229-3.016L131.876,224.937z"/>
		<path fill="#E97C7D" d="M108.157,204.765c4.689-2.917,11.002-7.627,17.641-12.883l10.77,4.853l18.375,18.476l-23.066,9.727"/>
		<line fill="#6FCDE5" x1="131.876" y1="224.937" x2="108.157" y2="204.765"/>
		<path fill="#E97C7D" d="M176.269,206.2l12.363-5.213l-27.344-39.039c0,0-4.447,3.957-10.947,9.546l8.703,14.312l8.961,12.633
			l4.453,4.328L176.269,206.2z"/>
		<g>
			<path fill="#FFFFFF" d="M137.444,223.418l-58.428,23.816c0,0-2.119,0.969-5.594,2.31c-0.477-0.096-13.379-2.654-15.25-20.338
				c-0.02-0.271-0.051-0.549-0.072-0.83c-1.332-15.871,10.885-18.338,17.393-18.338c8.379,0.289,17.773-0.665,26.436-2.258
				c1.379-0.254,3.539-1.332,6.229-3.016l14.264,5.973L137.444,223.418z"/>
		</g>
		<path fill="none" stroke="#000000" stroke-width="2" stroke-linecap="square" stroke-miterlimit="10" d="M73.427,250.079
			c0,0-14.215-2.516-16.113-20.534c-0.027-0.272-0.059-0.548-0.08-0.827c-1.123-15.107,9.367-19.383,9.367-19.383"/>
		<path fill="none" stroke="#000000" stroke-width="2" stroke-linecap="square" stroke-miterlimit="10" d="M114.159,202.767
			c0,0,13.648,14.1,23.719,20.166"/>
		<path fill="none" stroke="#000000" stroke-width="2" stroke-linecap="square" stroke-miterlimit="10" d="M149.567,171.126
			c0,0,8.127,17.813,27.016,35.625"/>
		<path fill="none" stroke="#000000" stroke-width="2" stroke-linecap="square" stroke-miterlimit="10" d="M135.245,192.679
			c0,0,10.377,15.73,20.752,22.727"/>
	</g>
	<g>
		<g>
			<path d="M102.632,214.61c-12.225-0.001-20.661-5.041-23.147-13.828c-3.13-11.054,8.313-23.959,26.053-29.381
				c5.505-1.684,10.651-2.536,15.296-2.536c11.402,0,19.681,5.344,22.144,14.296c3.122,11.346-8.579,24.526-26.083,29.383
				C111.949,213.915,107.151,214.61,102.632,214.61L102.632,214.61z"/>
			<path d="M120.833,169.865c11.821,0,19.004,5.655,21.18,13.562c2.98,10.832-8.387,23.438-25.387,28.153
				c-4.857,1.348-9.605,2.03-13.994,2.03c-10.972,0-19.687-4.271-22.186-13.101c-3.061-10.81,8.51-22.995,25.383-28.152
				C111.454,170.638,116.46,169.865,120.833,169.865 M120.833,167.865c-4.744,0-9.988,0.868-15.589,2.579
				c-8.588,2.625-16.065,7.071-21.057,12.519c-5.314,5.802-7.326,12.227-5.666,18.092c2.618,9.25,11.405,14.556,24.11,14.556
				c4.609,0,9.498-0.708,14.528-2.103c8.584-2.382,16.091-6.775,21.137-12.371c5.269-5.843,7.273-12.32,5.645-18.24
				C141.351,173.484,132.712,167.865,120.833,167.865L120.833,167.865z"/>
		</g>
		<g>
			<path fill="#FFFFFF" d="M119.353,210.741c-0.891,0.3-1.799,0.58-2.73,0.84c-8.479,2.359-16.639,2.68-23.109,0.88
				c-1.18-0.33-2.311-0.729-3.369-1.21c-2.141-1.29-4.201-3.939-2.371-9.25c3.25-9.42,18.291-11,18.291-11
				C107.542,204.921,119.353,210.741,119.353,210.741z"/>
		</g>
		<g>
			<path fill="#FFFFFF" d="M119.353,210.741c0,0-11.811-5.82-13.289-19.74c-0.051-0.49-0.09-0.99-0.121-1.5
				c-0.73-14.55,10.309-19.16,10.98-19.43c0.02-0.01,0.029-0.01,0.029-0.01c14.141-1.36,22.66,4.619,25.061,13.369
				C144.833,193.671,134.821,205.491,119.353,210.741z"/>
		</g>
		<path fill="none" stroke="#000000" stroke-width="2" stroke-linecap="square" stroke-miterlimit="10" d="M117.642,169.366
			c0,0-12.449,5.135-11.699,20.135s13.412,21.236,13.412,21.236"/>
	</g>
	<g>
		<path fill="#D12029" stroke="#000000" stroke-width="2" stroke-miterlimit="10" d="M278.11,93.751
			c9.303-2.799,18.822-6.521,26.852-12.049c3.975-2.736,8.992-6.866,8.859-12.207c-0.17-6.818-8.502-11.682-14.119-13.577
			c-16.133-5.446-34.438,3.18-48.156,11.194c-9.205,5.379-18.066,11.617-26.104,18.639C242.999,88.417,260.554,91.085,278.11,93.751
			z"/>
		<path fill="#D12029" stroke="#000000" stroke-width="2" stroke-miterlimit="10" d="M268.11,88.417c0,0,38.547-21.604-34.5-25.332
			c-75.602-3.859-14.834,8.832-14.834,8.832v9.668"/>
		<g>
			<path fill="#EEBBAA" d="M235.365,213.729c-5.291,0-10.511-0.359-15.513-1.068c-18.222-2.587-35.438-10.088-48.476-21.12
				c-14.561-12.32-23.033-28.212-24.502-45.958c-2.111-25.401,7.582-45.269,27.292-55.942c14.063-7.621,32.118-11.649,52.217-11.649
				c2.327,0,4.707,0.054,7.074,0.161c32.064,1.44,70.09,20.081,80.727,52.92l0.019,0.057l0.012,0.059
				c0.004,0.007,0.011,0.024,0.018,0.049c0.19,0.566,0.363,1.142,0.523,1.717c0.052,0.172,0.107,0.363,0.151,0.553
				c0.068,0.212,0.145,0.494,0.21,0.776c0.093,0.319,0.187,0.698,0.271,1.064c0.088,0.349,0.17,0.707,0.252,1.077
				c0.145,0.683,0.277,1.359,0.402,2.034l0.041,0.085l0.006,0.167c0.127,0.712,0.246,1.433,0.345,2.155
				c0.024,0.173,0.149,1.124,0.149,1.124l0.004,0.081c0.081,0.73,0.152,1.458,0.213,2.198c0.095,1.181,0.152,2.353,0.172,3.485
				c0.072,3.724-0.207,7.547-0.831,11.359c-0.113,0.697-0.243,1.396-0.376,2.095c-0.271,1.381-0.582,2.743-0.925,4.057
				c0.003,0.008-0.027,0.127-0.063,0.243l-0.068,0.271c-0.168,0.613-0.32,1.169-0.491,1.714c-0.17,0.58-0.355,1.169-0.563,1.748
				c-0.031,0.107-0.079,0.253-0.14,0.407c-0.145,0.447-0.327,0.94-0.511,1.434c-0.067,0.183-0.105,0.28-0.153,0.39
				c-0.187,0.489-0.401,1.019-0.624,1.549c-0.066,0.165-0.132,0.325-0.207,0.486c-0.224,0.518-0.461,1.054-0.721,1.579
				c-0.233,0.511-0.492,1.038-0.771,1.564c-0.012,0.037-0.066,0.146-0.125,0.258l-0.046,0.091c-0.275,0.521-0.55,1.039-0.834,1.539
				l-0.14,0.243c-0.287,0.498-0.583,0.995-0.886,1.492c-0.281,0.455-0.567,0.906-0.863,1.348c-0.107,0.18-0.249,0.398-0.402,0.617
				c-0.281,0.414-0.52,0.768-0.768,1.11c-0.821,1.141-1.666,2.239-2.51,3.262c-0.354,0.434-0.723,0.863-1.09,1.282
				c-0.234,0.267-0.47,0.521-0.705,0.776c-0.305,0.335-0.611,0.672-0.927,0.998c-0.863,0.895-1.724,1.741-2.558,2.519
				C283.912,205.877,260.838,213.729,235.365,213.729z"/>
			<g>
				<path d="M226.384,78.992c2.359,0,4.704,0.055,7.029,0.16c33.82,1.52,69.77,21.199,79.82,52.229
					c0.01,0.05,0.029,0.091,0.039,0.14c0.189,0.561,0.361,1.131,0.52,1.701c0.051,0.17,0.102,0.34,0.141,0.51
					c0.08,0.26,0.15,0.52,0.211,0.779c0.1,0.35,0.189,0.711,0.27,1.061c0.09,0.359,0.17,0.709,0.25,1.07
					c0.15,0.709,0.289,1.42,0.42,2.129c0.01,0.021,0.01,0.041,0.01,0.051c0.129,0.72,0.25,1.449,0.35,2.18
					c0.051,0.35,0.09,0.71,0.141,1.061c0,0.049,0.01,0.09,0.01,0.119c0.08,0.721,0.15,1.44,0.211,2.17
					c0.09,1.121,0.148,2.26,0.168,3.42c0.07,3.61-0.189,7.34-0.818,11.181c-0.111,0.69-0.24,1.38-0.371,2.069
					c-0.26,1.32-0.561,2.65-0.91,3.99c-0.01,0.061-0.029,0.131-0.051,0.2c-0.029,0.12-0.059,0.229-0.088,0.34
					c-0.15,0.55-0.301,1.101-0.471,1.64c-0.17,0.58-0.35,1.15-0.551,1.711c-0.039,0.129-0.078,0.25-0.129,0.379
					c-0.17,0.521-0.361,1.031-0.551,1.541c-0.029,0.08-0.061,0.16-0.1,0.25c-0.199,0.52-0.41,1.039-0.629,1.56
					c-0.061,0.149-0.121,0.3-0.191,0.45c-0.229,0.529-0.459,1.05-0.711,1.561c-0.238,0.52-0.488,1.029-0.758,1.539
					c-0.051,0.12-0.111,0.23-0.172,0.35c-0.27,0.511-0.539,1.021-0.818,1.511c-0.051,0.08-0.09,0.16-0.131,0.229
					c-0.289,0.5-0.58,0.99-0.879,1.48c-0.271,0.439-0.551,0.88-0.84,1.311c-0.121,0.199-0.25,0.399-0.391,0.6
					c-0.25,0.369-0.5,0.74-0.76,1.1c-0.791,1.1-1.611,2.17-2.471,3.211c-0.35,0.43-0.711,0.85-1.07,1.26
					c-0.229,0.26-0.459,0.51-0.689,0.76c-0.301,0.33-0.602,0.66-0.91,0.98c-0.82,0.85-1.66,1.68-2.52,2.479
					c-15.992,14.835-40.324,21.278-62.628,21.278c-5.284,0-10.454-0.361-15.372-1.059c-34.859-4.949-69.021-28.71-72.121-66.17
					c-1.91-22.98,6.051-43.76,26.771-54.98C190.192,82.094,208.657,78.992,226.384,78.992 M226.387,76.992v2V76.992
					c-20.268,0-38.488,4.071-52.696,11.771c-20.08,10.874-29.958,31.083-27.812,56.904c1.49,18.015,10.084,34.142,24.852,46.638
					c13.181,11.152,30.576,18.733,48.981,21.347c5.049,0.716,10.315,1.078,15.653,1.078c25.722,0,49.045-7.95,63.988-21.813
					c0.85-0.79,1.723-1.649,2.598-2.556c0.322-0.335,0.636-0.678,0.948-1.021c0.235-0.254,0.476-0.516,0.715-0.787
					c0.378-0.432,0.755-0.87,1.12-1.318c0.849-1.029,1.707-2.145,2.543-3.306c0.25-0.347,0.495-0.708,0.739-1.068l0.053-0.078
					c0.139-0.197,0.283-0.419,0.419-0.643c0.295-0.439,0.58-0.889,0.856-1.338c0.313-0.514,0.612-1.017,0.909-1.53
					c0.018-0.029,0.045-0.078,0.073-0.13l0.025-0.04l0.038-0.07c0.29-0.509,0.57-1.037,0.85-1.567l0.051-0.098
					c0.054-0.105,0.106-0.208,0.154-0.314c0.265-0.503,0.515-1.012,0.762-1.551c0.272-0.553,0.512-1.096,0.73-1.602
					c0.077-0.167,0.146-0.334,0.213-0.5c0.219-0.521,0.433-1.048,0.635-1.574c0.048-0.112,0.088-0.215,0.125-0.317l0.03-0.079
					c0.182-0.488,0.363-0.978,0.526-1.476c0.055-0.143,0.101-0.28,0.145-0.423c0.189-0.531,0.376-1.113,0.57-1.777
					c0.168-0.53,0.324-1.103,0.476-1.655l0.002-0.007l0.015-0.055c0.025-0.097,0.051-0.193,0.077-0.296
					c0.03-0.104,0.055-0.198,0.073-0.289c0.341-1.313,0.65-2.673,0.92-4.045c0.138-0.721,0.27-1.428,0.384-2.137
					c0.633-3.867,0.917-7.75,0.844-11.538c-0.02-1.149-0.078-2.342-0.175-3.541c-0.059-0.716-0.127-1.418-0.204-2.12v-0.014
					l-0.01-0.085v-0.054l-0.021-0.143c-0.023-0.163-0.045-0.328-0.065-0.492c-0.024-0.191-0.048-0.381-0.075-0.569
					c-0.088-0.642-0.198-1.336-0.346-2.164c-0.011-0.08-0.024-0.158-0.044-0.235c-0.129-0.695-0.266-1.392-0.413-2.087
					c-0.088-0.396-0.172-0.763-0.266-1.14c-0.075-0.331-0.169-0.708-0.273-1.077c-0.063-0.267-0.136-0.535-0.216-0.802
					c-0.046-0.186-0.101-0.373-0.156-0.559c-0.163-0.589-0.336-1.157-0.518-1.7c-0.004-0.013-0.007-0.025-0.011-0.038l-0.007-0.033
					l-0.037-0.114c-4.903-15.138-15.914-28.37-31.844-38.264c-14.672-9.113-32.354-14.564-49.789-15.347
					C231.121,77.046,228.727,76.992,226.387,76.992L226.387,76.992z"/>
			</g>
		</g>
		<g>
			<path fill="none" stroke="#000000" stroke-width="2" stroke-miterlimit="10" d="M312.649,128.677c0,0-5.539-1.099-21.539,6.237
				S279.86,131,279.86,131"/>
			<g>
				<path fill="#FFFFFF" d="M304.699,183.143c-6.542,0-22.337-1.82-27.71-18.678c-4.767-14.975,2.886-23.509,7.871-27.263
					l0.164-0.124l0.199-0.049c1.518-0.372,3.357-1.054,5.471-2.027c12.118-5.552,18.367-6.381,21.013-6.381
					c0.714,0,1.076,0.065,1.142,0.078l0.555,0.11l0.191,0.532c4.066,11.309,4.485,23.394,1.245,35.918
					c0.003,0.011-0.027,0.13-0.063,0.246l-0.166,0.64c-1.63,5.94-4.211,11.499-7.674,16.531l-0.281,0.408l-0.495,0.023
					C305.77,183.128,305.277,183.143,304.699,183.143z"/>
				<path d="M311.707,129.622c0.651,0,0.946,0.059,0.946,0.059c3.779,10.51,4.568,22.381,1.219,35.33
					c-0.01,0.061-0.029,0.131-0.051,0.2c-0.029,0.12-0.059,0.229-0.088,0.34c-0.031,0.12-0.061,0.229-0.09,0.341
					c-1.66,6.049-4.242,11.439-7.531,16.219c-0.377,0.018-0.854,0.032-1.413,0.032c-6.002,0-21.55-1.643-26.757-17.981
					c-4.59-14.42,2.791-22.6,7.52-26.16c1.51-0.37,3.371-1.04,5.65-2.09C303.419,130.273,309.538,129.622,311.707,129.622
					 M311.708,127.622L311.708,127.622c-2.729,0-9.14,0.841-21.429,6.471c-2.059,0.948-3.838,1.609-5.294,1.966l-0.398,0.098
					l-0.328,0.247c-5.197,3.913-13.176,12.802-8.222,28.364c5.572,17.487,21.9,19.375,28.662,19.375
					c0.521,0,1.027-0.012,1.508-0.034l0.991-0.048l0.562-0.816c3.526-5.124,6.155-10.784,7.813-16.823l0.037-0.141l0.06-0.226
					c0.03-0.112,0.056-0.211,0.082-0.314c0.03-0.104,0.055-0.2,0.073-0.292c3.273-12.7,2.84-24.962-1.289-36.444l-0.383-1.064
					l-1.109-0.22C312.896,127.69,312.473,127.622,311.708,127.622L311.708,127.622z"/>
			</g>
			<g>
				<path fill="#E97C7D" d="M313.872,165.011c-0.01,0.061-0.029,0.131-0.051,0.2c-0.029,0.12-0.059,0.229-0.088,0.34
					c-0.031,0.12-0.061,0.229-0.09,0.341c-1.34,4.889-3.291,9.35-5.73,13.409c-5.541-1.12-16.971-2.22-23.971-17.05
					s5.93-25.79,5.93-25.79c0.4-0.17,0.811-0.351,1.24-0.55c16-7.33,21.541-6.23,21.541-6.23
					C316.433,140.19,317.222,152.062,313.872,165.011z"/>
			</g>
			<g>
				<path d="M304.456,171.19c-8.434,0-14.338-6.151-16.197-16.878c-2.641-15.169,11.443-22.231,12.045-22.525
					c6.34-2.2,9.863-2.524,11.408-2.524c0.664,0,0.977,0.059,1.01,0.065l0.199,0.039l0.07,0.192
					c4.023,11.186,4.438,23.144,1.23,35.541c-0.006,0.041-0.029,0.127-0.055,0.212l-0.176,0.674
					c-0.307,1.108-0.641,2.192-0.998,3.222l-0.055,0.155l-0.152,0.062C309.896,170.597,307.093,171.19,304.456,171.19z"/>
			</g>
			<path fill="#FFFFFF" d="M315.884,152.341c-1.24,1.439-2.9,2.32-4.74,2.32c-3.881,0-7.01-3.939-7.01-8.801
				c0-4.859,3.129-8.799,7.01-8.799c1.449,0,2.789,0.549,3.91,1.489C315.862,142.951,316.163,147.551,315.884,152.341z"/>
		</g>
		<g>
			<g>
				<path fill="#FFFFFF" d="M202.112,173.081c-45.997,0-54.147-32.49-55.314-39.003l-0.021-0.123l0.009-0.125
					c0.93-13.094,5.303-24.15,12.997-32.862l0.299-0.338h44.947l0.103-0.103l0.555,0.121c7.593,1.82,14.898,6.199,21.714,13.016
					c11.917,11.917,21.243,18.106,27.717,18.398l0.924,0.042l0.03,0.924c0.11,3.294-1.742,14.938-11.372,24.895
					C234.972,167.981,220.644,173.081,202.112,173.081z"/>
				<path d="M205.452,101.621c6.01,1.44,13.441,4.95,21.24,12.75c12.971,12.97,22.141,18.409,28.379,18.69
					c0.191,5.719-6.148,39.02-52.959,39.02c-45.07,0-53.119-31.42-54.33-38.18c0.871-12.26,4.951-23.44,12.75-32.271h44.91
					L205.452,101.621 M204.83,99.415l-0.216,0.216h-44.082h-0.902l-0.597,0.676c-7.843,8.88-12.3,20.135-13.246,33.453l-0.018,0.249
					l0.044,0.246c1.191,6.651,9.505,39.827,56.299,39.827c18.813,0,33.382-5.202,43.305-15.463
					c9.871-10.207,11.767-22.22,11.653-25.624l-0.062-1.848l-1.848-0.083c-4.274-0.192-12.438-3.49-27.055-18.106
					c-6.948-6.949-14.413-11.417-22.188-13.281L204.83,99.415L204.83,99.415z"/>
			</g>
			<path fill="none" stroke="#000000" stroke-width="2" stroke-linecap="round" stroke-miterlimit="10" d="M191.442,101.631
				c0,0,16.563-5.942,35.25,12.745s30.168,20.637,35.668,15.137"/>
			<g>
				<path fill="#E97C7D" d="M202.923,172.071c-8.939-3.36-18.859-6.2-25.521-13.49c-7.479-8.2-11.559-22.551-9.859-33.46
					c1.811-11.681,11.721-19.601,22.471-23.49h15.43l0.01-0.01c6.01,1.44,13.441,4.95,21.24,12.75
					c12.971,12.97,22.141,18.409,28.379,18.69C255.263,138.751,248.993,171.69,202.923,172.071z"/>
			</g>
			<g>
				<path d="M228.901,164.519c-14.125,0-27.145-5.46-33.979-14.248c-4.627-5.951-6.082-12.99-4.209-20.358
					c4.055-15.956,18.246-21.642,26.344-23.61l0.146-0.037l0.131,0.082c3.283,2.06,6.518,4.674,9.613,7.77
					c12.033,12.034,21.502,18.287,28.141,18.585l0.332,0.015l0.012,0.333c0.131,3.904-2.756,20.598-19.268,30.947l-0.066,0.042
					l-0.078,0.01C233.675,164.36,231.28,164.519,228.901,164.519z"/>
			</g>
			<path fill="#FFFFFF" d="M255.071,133.062c0.031,0.77-0.068,2.029-0.359,3.649c-1.391,4.25-5.779,7.351-10.979,7.351
				c-6.32,0-11.43-4.57-11.43-10.201c0-3.899,2.439-7.289,6.039-9.01C245.401,130.371,250.894,132.871,255.071,133.062z"/>
		</g>
		<g>
			<path fill="#E86327" d="M284.311,115.751l-14.958-20.477l-6.295,15.099l-45.91-8.011l8.672-14.081l-20.056,14.35h-47.446
				l1.465-1.662c3.952-4.481,8.792-8.292,14.385-11.328c14.063-7.622,32.118-11.65,52.217-11.65c2.327,0,4.707,0.054,7.074,0.161
				c33.868,1.527,65.93,20.432,77.969,45.972l1.052,2.231L284.311,115.751z"/>
			<g>
				<path d="M226.384,78.992c2.36,0,4.704,0.055,7.029,0.16c31.27,1.41,64.35,18.33,77.109,45.399l-25.58-9.63l-15.83-21.67
					l-6.67,16l-43.67-7.62l10.5-17.05l-23.83,17.05h-44.91c3.801-4.31,8.49-8.06,14.111-11.11
					C190.192,82.094,208.657,78.992,226.384,78.992 M226.387,76.992v2V76.992c-20.268,0-38.488,4.071-52.696,11.771
					c-5.696,3.092-10.628,6.976-14.658,11.546l-2.931,3.323h4.431h44.91h0.642l0.522-0.374l15.76-11.276l-5.297,8.601l-1.547,2.512
					l2.906,0.507l43.67,7.62l1.575,0.275l0.614-1.476l5.304-12.722l13.735,18.802l0.353,0.482l0.558,0.21l25.58,9.63l4.618,1.738
					l-2.104-4.462c-6.25-13.259-17.467-24.743-32.438-33.21c-13.93-7.878-30.404-12.613-46.391-13.334
					C231.121,77.046,228.727,76.992,226.387,76.992L226.387,76.992z"/>
			</g>
		</g>
		<path fill="#231F20" d="M224.63,72.362c0,0,4.188,3.82,10.063,4.806c6.709,1.125-13.25,0.257-13.25,0.257"/>
		<path fill="none" stroke="#000000" stroke-width="2" stroke-linecap="round" stroke-miterlimit="10" d="M247.944,162.914
			c-4.65,9.368-3.689,17.448,1.275,19.912s12.672-2.306,17.322-11.673"/>
		<path fill="#D12029" stroke="#000000" stroke-width="2" stroke-miterlimit="10" d="M121.442,77.501
			c17.234,5.449,36.84,10.823,55.027,9.131c12.703-1.182,25.527-4,37.773-7.506c9.449-2.704,21.535-5.903,28.189-13.717
			c4.201-4.934,6.885-13.023,1.66-18.26c-8.203-8.223-24.572-3.99-34.355-2.155c-19.801,3.714-38.527,10.535-57.826,16.005
			c-10.758,3.048-21.969,2.422-32.84,4.504c-3.545,0.678-13.348,2.229-7.502,6.67C114.53,74.421,118.038,76.041,121.442,77.501z"/>
	</g>
</g>
</svg>
