<?xml version="1.0" encoding="utf-8"?>
<!-- Generator: Adobe Illustrator 16.0.0, SVG Export Plug-In . SVG Version: 6.00 Build 0)  -->
<!DOCTYPE svg PUBLIC "-//W3C//DTD SVG 1.1//EN" "http://www.w3.org/Graphics/SVG/1.1/DTD/svg11.dtd">
<svg version="1.1" id="Layer_1" xmlns="http://www.w3.org/2000/svg" xmlns:xlink="http://www.w3.org/1999/xlink" x="0px" y="0px"
	 width="425px" height="300px" viewBox="0 0 425 300" enable-background="new 0 0 425 300" xml:space="preserve">
<g>
	<path fill="#F5B736" stroke="#000000" stroke-width="2" stroke-miterlimit="10" d="M230.934,88.273c0,0,6.814-32.578-41.436-36.578
		s-72,40-72,40s29.75-5.75,47.75,9.75s38.748,10.405,38.748,10.405L230.934,88.273z"/>
	<path fill="#F5B736" stroke="#000000" stroke-width="2" stroke-miterlimit="10" d="M353.617,140.979
		c0,0,28.131,3.466,22.631-22.284s-56-21-56-21L353.617,140.979z"/>
	<path fill="#EEBBAA" stroke="#000000" stroke-width="2" stroke-miterlimit="10" d="M319.386,213.725c0,0,3.446,5.055,2.279,18.888
		s13.166,17.333,19.833,15.5s29.182-19.534-1.271-49.988L319.386,213.725z"/>
	<path fill="#EEBBAA" stroke="#000000" stroke-width="2" stroke-miterlimit="10" d="M194.489,136.752
		c0,0-20.992-26.473-42.158-28.64s-37.332,8.499-41.166,20.833s26.167,14.167,32.5,14.167s32.332,5.38,38.666,8.523
		s15.667,5.644,15.667,5.644L194.489,136.752z"/>
	<g>
		<g>
			<path d="M81.127,230.947c-20.92,0-32.663-6.999-33.958-20.238c-0.618-6.319,0.97-11.62,4.72-15.755
				c7.775-8.572,23.11-10.372,34.604-10.372c9.862,0,19.457,1.371,24.59,2.73c8.033,2.127,18.479,3.299,29.414,3.299
				c7.689,0,46.631-22.362,66.149-34.188l0.96-0.582l20.816,45.479l-117.379,25.935C110.925,227.286,96.188,230.947,81.127,230.947z
				"/>
			<path d="M207.165,157.279l19.833,43.333l-116.17,25.667c0,0-14.59,3.668-29.701,3.668c-15.451,0-31.446-3.832-32.962-19.336
				c-1.961-20.046,19.366-25.029,38.329-25.029c10.046,0,19.429,1.398,24.334,2.697c8.888,2.354,19.67,3.332,29.67,3.332
				S207.165,157.279,207.165,157.279 M208.049,154.405l-1.92,1.163c-22.587,13.685-58.705,34.043-65.631,34.043
				c-10.851,0-21.206-1.159-29.158-3.266c-5.196-1.376-14.894-2.764-24.846-2.764c-11.697,0-27.324,1.856-35.345,10.7
				c-3.948,4.353-5.621,9.912-4.975,16.523c0.944,9.645,7.773,21.142,34.953,21.142c15,0,29.234-3.49,30.16-3.722l116.142-25.66
				l2.417-0.534l-1.03-2.251l-19.833-43.333L208.049,154.405L208.049,154.405z"/>
		</g>
		<g>
			<path d="M81.134,230.944c-20.92,0-32.664-6.996-33.961-20.231c-0.618-6.32,0.97-11.622,4.721-15.758
				c7.778-8.576,23.114-10.376,34.611-10.376c9.859,0,19.449,1.371,24.579,2.729c1.041,0.274,2.123,0.533,3.215,0.769l-0.325,1.971
				c-0.972-0.111-1.973-0.168-2.975-0.168c-6.816,0-15.183,2.457-16.336,14.163c0,0-0.065,0.696-0.082,0.844
				c-1.262,16.467,9.468,21.229,10.695,21.719l3.201,1.274l-3.385,0.638C99.209,229.625,90.276,230.944,81.134,230.944z"/>
			<path d="M86.505,185.579c10.043,0,19.42,1.397,24.323,2.696c1.06,0.279,2.15,0.54,3.26,0.779
				c-0.769-0.089-1.838-0.175-3.089-0.175c-5.96,0-16.041,1.965-17.331,15.065c-0.03,0.279-0.05,0.561-0.08,0.83
				c-1.359,17.73,10.869,22.58,11.32,22.76c-5.64,1.061-14.612,2.409-23.774,2.409c-15.45,0-31.447-3.83-32.966-19.329
				C46.207,190.564,67.541,185.58,86.505,185.579 M86.508,183.579v2V183.579c-11.702,0.001-27.332,1.857-35.355,10.704
				c-3.948,4.354-5.622,9.914-4.976,16.526c0.945,9.642,7.777,21.135,34.957,21.135c9.218,0,18.218-1.329,24.144-2.443l6.772-1.274
				l-6.402-2.55c-1.159-0.461-11.263-4.953-10.069-20.716c0.016-0.143,0.029-0.288,0.042-0.435c0.011-0.121,0.021-0.243,0.035-0.365
				c1.082-10.981,8.94-13.281,15.342-13.281c0.951,0,1.94,0.056,2.861,0.162l0.65-3.942c-1.078-0.232-2.146-0.487-3.172-0.758
				C106.528,185.067,97.136,183.579,86.508,183.579L86.508,183.579z"/>
		</g>
		<g>
			<path d="M145.527,189.346l1.275-0.501c17.814-6.997,59.429-32.171,59.848-32.425l0.96-0.582l20.812,45.486l-61.96,13.69
				L145.527,189.346z"/>
			<path d="M207.168,157.275l19.83,43.34l-60.15,13.29l-19.68-24.13C165.268,182.666,207.168,157.275,207.168,157.275
				 M208.052,154.401l-1.921,1.163c-0.417,0.254-41.961,25.384-59.695,32.35l-2.55,1.002l1.732,2.123l19.68,24.13l0.778,0.955
				l1.203-0.266l60.15-13.29l2.417-0.534l-1.03-2.251l-19.83-43.34L208.052,154.401L208.052,154.401z"/>
		</g>
		<path fill="#FFFFFF" d="M104.908,227.535c-7.3,1.37-20.18,3.23-31.83,2.02c-18.41-24.469,20.45-23.729,20.45-23.729
			C92.708,222.695,104.468,227.365,104.908,227.535z"/>
		<path fill="#FFFFFF" d="M166.848,213.905l-56.02,12.37c0,0-2.26,0.57-5.91,1.26c0,0,0,0-0.01,0c-0.44-0.17-12.2-4.84-11.38-21.71
			c0.01-0.34,0.029-0.69,0.06-1.05c0.03-0.27,0.05-0.551,0.08-0.83c1.771-17.93,19.8-14.13,21.36-13.77
			c0.069,0.02,0.109,0.029,0.109,0.029c7.5,2.41,17.061,1.41,25.36,1.41c1.4,0,3.72-0.67,6.67-1.84L166.848,213.905z"/>
		<path fill="#6FCDE5" d="M147.168,189.775c5.139-2.02,12.2-5.51,19.68-9.48l22.83,28.561l-22.83,5.05"/>
		<line fill="#6FCDE5" x1="166.848" y1="213.905" x2="147.168" y2="189.775"/>
		<path fill="#6FCDE5" d="M226.998,200.615l-11.947,2.636l-27.378-35.381c11.96-6.819,19.495-10.595,19.495-10.595L226.998,200.615z
			"/>
		<g>
			<path fill="#FFFFFF" d="M166.848,213.905l-56.02,12.37c0,0-2.26,0.57-5.92,1.26c-0.451-0.18-12.68-5.029-11.32-22.76
				c0.03-0.27,0.05-0.551,0.08-0.83c1.561-15.85,15.99-15.4,20.42-14.891c8.19,1.801,17.601,2.561,26.41,2.561
				c1.4,0,3.72-0.67,6.67-1.84L166.848,213.905z"/>
		</g>
		<path fill="none" stroke="#000000" stroke-width="2" stroke-linecap="square" stroke-miterlimit="10" d="M105.727,227.883
			c0,0-13.524-5.044-12.134-23.109c0.021-0.273,0.045-0.549,0.072-0.828c1.849-18.75,22-15.583,22-15.583"/>
		
			<line fill="none" stroke="#000000" stroke-width="2" stroke-linecap="square" stroke-miterlimit="10" x1="166.845" y1="213.902" x2="147.164" y2="189.779"/>
	</g>
	<g>
		<g>
			<path d="M160.062,199.772c-16.568,0-27.806-7.132-28.629-18.169c-0.809-10.836,12.274-20.604,29.783-22.239
				c1.965-0.183,3.89-0.276,5.719-0.276c18.871,0,26.231,9.463,26.827,18.317c0.746,11.104-12.627,21.079-29.811,22.235
				c-1.305,0.087-2.613,0.132-3.887,0.132C160.063,199.772,160.062,199.772,160.062,199.772z"/>
			<path d="M166.935,160.088c16.771,0,25.187,7.828,25.829,17.385c0.71,10.572-12.221,20.049-28.881,21.17
				c-1.292,0.087-2.567,0.13-3.821,0.13c-14.915,0-26.8-6.097-27.632-17.243c-0.788-10.566,12.253-19.617,28.879-21.169
				C163.279,160.177,165.153,160.088,166.935,160.088 M166.935,158.088c-1.86,0-3.815,0.095-5.812,0.281
				c-18.358,1.713-31.551,11.734-30.688,23.309c0.865,11.6,12.495,19.095,29.626,19.095c1.297,0,2.628-0.045,3.956-0.135
				c8.432-0.567,16.246-3.203,22.002-7.423c6.027-4.417,9.13-10.056,8.74-15.876C194.133,168.032,186.495,158.088,166.935,158.088
				L166.935,158.088z"/>
		</g>
		<path fill="#FFFFFF" d="M163.877,198.646c-0.429,0.03-0.849,0.05-1.279,0.069c8.99-9,10.67-16.869,9.41-23.109h-0.01
			c-1.91-9.54-10.691-15.24-10.691-15.24c20.521-1.92,30.741,6.54,31.461,17.109C193.479,188.045,180.538,197.525,163.877,198.646z"
			/>
		<path fill="#FFFFFF" d="M162.598,198.715c-6.02,0.271-11.63-0.41-16.35-2.01c0,0-7.56-23.27,25.75-21.1h0.01
			C173.268,181.846,171.588,189.715,162.598,198.715z"/>
		<path fill="none" stroke="#000000" stroke-width="2" stroke-linecap="square" stroke-miterlimit="10" d="M161.309,160.36
			c0,0,24.032,15.606,1.285,38.353"/>
	</g>
	<g>
		<path fill="#EEBBAA" d="M282.033,223.511c-6.563-0.001-13.023-0.773-19.202-2.298c-25.524-6.294-49.772-24.176-61.776-45.557
			c-8.611-15.338-10.517-31.825-5.51-47.678c5.241-16.597,14.984-29.199,28.959-37.458c11.91-7.039,26.924-10.759,43.417-10.759
			c9.543,0,19.27,1.206,28.908,3.583c39.615,9.769,67.406,52.273,58.307,89.175c-3.736,15.151-13.173,28.105-27.288,37.463
			c-13.162,8.725-29.431,13.529-45.81,13.529C282.036,223.511,282.035,223.511,282.033,223.511z"/>
		<path d="M267.921,80.761c9.75,0,19.521,1.297,28.669,3.553c37.537,9.257,66.831,50.43,57.575,87.965
			c-7.729,31.338-39.88,50.231-72.132,50.231c-6.378,0-12.766-0.74-18.963-2.269c-37.535-9.256-80.572-47.63-66.572-91.963
			C207.562,93.241,237.665,80.761,267.921,80.761 M267.921,78.761c-16.672,0-31.861,3.769-43.926,10.898
			c-14.194,8.388-24.087,21.179-29.404,38.018c-5.092,16.123-3.158,32.883,5.592,48.468c6.146,10.946,15.546,21.14,27.188,29.479
			c10.811,7.744,23.319,13.625,35.221,16.56c6.259,1.544,12.8,2.327,19.441,2.327c16.575,0,33.042-4.864,46.367-13.697
			c14.328-9.497,23.909-22.656,27.706-38.056c4.479-18.161,0.279-38.638-11.522-56.182c-11.524-17.132-28.843-29.599-47.516-34.204
			C287.352,79.977,277.545,78.761,267.921,78.761L267.921,78.761z"/>
	</g>
	<path fill="none" stroke="#000000" stroke-width="2" stroke-linecap="round" stroke-miterlimit="10" d="M274.063,182.992
		c-4.092,8.246-2.101,15.926,3.691,18.801c5.795,2.875,13.808-0.712,17.899-8.957"/>
	<g>
		<g>
			<path fill="#FFFFFF" d="M242.472,175.312c-19.047,0-37.243-7.508-48.674-20.084l-0.198-0.219l-0.048-0.291
				c-1.47-8.915-0.799-17.913,1.993-26.744c4.3-13.619,11.688-24.612,21.957-32.675l0.567-0.446l0.603,0.399
				c1.96,1.299,20.086,12.695,52.549,12.695c4.906,0,9.976-0.261,15.067-0.776l0.675-0.068l0.313,0.602
				c8.717,16.76,8.462,34.791-0.68,48.233c-7.065,10.392-15.614,14.314-27.117,17.276
				C254.047,174.605,248.325,175.312,242.472,175.312z"/>
			<path d="M218.118,96.086c2.305,1.528,20.397,12.861,53.102,12.861c4.751,0,9.805-0.238,15.168-0.781
				c7.801,15,9.181,32.799-0.62,47.209c-6.779,9.971-14.85,13.86-26.539,16.87c-5.379,1.379-11.043,2.066-16.757,2.066
				c-17.742,0-35.997-6.625-47.934-19.757c-1.38-8.369-0.911-17.199,1.96-26.279C200.988,114.055,208.618,103.545,218.118,96.086
				 M218.02,93.621l-1.137,0.892c-10.43,8.189-17.93,19.346-22.292,33.161c-2.84,8.981-3.521,18.136-2.026,27.207l0.096,0.583
				l0.397,0.438c11.617,12.78,30.089,20.411,49.414,20.411c5.938,0,11.742-0.716,17.254-2.129
				c11.73-3.021,20.454-7.032,27.696-17.683c4.92-7.235,7.362-15.489,7.256-24.532c-0.095-8.162-2.349-16.711-6.516-24.725
				l-0.626-1.204l-1.35,0.137c-5.058,0.512-10.094,0.771-14.967,0.771c-32.17,0-50.063-11.246-51.996-12.528L218.02,93.621
				L218.02,93.621z"/>
		</g>
		<path fill="#6FCDE5" d="M285.768,155.375c-6.779,9.971-14.85,13.86-26.539,16.87c-8.051,2.06-16.74,2.58-25.29,1.55
			c-13.96-5.439-21.54-23.55-21.37-37.42c0.17-14.24,10.609-26.85,23.35-32.43c11.5,3.54,28.41,6.45,50.47,4.221
			C294.188,123.166,295.568,140.965,285.768,155.375z"/>
		<path d="M265.049,170.832c-15.301-1.017-27.615-11.828-29.946-26.291c-2.595-16.087,6.432-31.499,21.462-36.647
			c4.852,0.506,9.758,0.766,14.646,0.766c4.931,0,10.027-0.263,15.148-0.78l0.097-0.01l0.045,0.086
			c8.704,16.541,8.519,34.328-0.495,47.582c-5.228,7.687-11.268,12.114-20.848,15.281l-0.096,0.016L265.049,170.832z"/>
		<path fill="#FFFFFF" d="M292.588,135.256c-0.211,3.439-0.84,6.85-1.93,10.16c-9.141,6.279-18.88,2.109-14.45-9.291
			C279.229,128.365,288.998,127.646,292.588,135.256z"/>
	</g>
	<g>
		<g>
			<path fill="#FFFFFF" d="M333.812,204.965c-15.529-5.164-20.407-16.791-21.765-25.635c-2.842-18.518,7.46-42.695,22.965-53.896
				l0.647-0.468l0.6,0.528c5.068,4.466,10.816,8.488,17.085,11.956l0.353,0.195l0.119,0.386c3.565,11.609,4.023,23.533,1.323,34.483
				c-3.054,12.371-10.096,23.527-20.363,32.263l-0.43,0.365L333.812,204.965z"/>
			<path d="M335.598,126.245c4.631,4.08,10.32,8.24,17.262,12.08c3.379,11,4.098,22.64,1.309,33.95
				c-3.16,12.8-10.39,23.529-20.041,31.74C298.968,192.325,312.188,143.155,335.598,126.245 M335.722,123.688l-1.295,0.936
				c-7.534,5.442-14.124,14.045-18.558,24.225c-4.535,10.416-6.244,21.293-4.811,30.632c1.399,9.12,6.429,21.109,22.438,26.432
				l1.068,0.355l0.858-0.729c10.429-8.872,17.582-20.209,20.687-32.784c2.744-11.126,2.281-23.235-1.338-35.017l-0.237-0.772
				l-0.707-0.391c-6.205-3.433-11.894-7.413-16.907-11.831L335.722,123.688L335.722,123.688z"/>
		</g>
		<path fill="#6FCDE5" d="M354.168,172.275c-2.75,11.141-8.59,20.72-16.43,28.42c-11.65-11.65-22.01-25.939-17.32-43.52
			c2.92-10.971,13.61-19.431,23.25-24.58c2.789,1.949,5.84,3.879,9.191,5.729C356.238,149.325,356.957,160.965,354.168,172.275z"/>
		<path d="M342.793,191.723c-3.942,0-7.385-1.616-10.229-4.803c-5.604-6.275-7.713-17.732-6.853-25.326
			c1.554-13.786,13.613-22.395,24.877-24.81l0.055-0.013l0.105,0.018c0.678,0.404,1.323,0.766,1.978,1.132l0.375,0.21l0.017,0.055
			c3.546,11.543,4,23.336,1.33,34.159c-1.67,6.759-4.526,13.139-8.491,18.963l-0.034,0.05l-0.091,0.061
			C344.756,191.623,343.754,191.723,342.793,191.723z"/>
		<path fill="#FFFFFF" d="M354.838,169.176c-4.92,4.899-8.63,1.75-8.63,1.75c-4.251-2.44-3.14-11.84-0.38-14.99
			c2.27-2.59,6.57-3.18,9.82-3.34C356.127,158.105,355.888,163.666,354.838,169.176z"/>
	</g>
	<g>
		<path fill="#F5B736" d="M352.375,139.2c-25.113-13.907-33.938-31.674-35.717-35.803c-15.734,4.345-31.02,6.547-45.444,6.548
			c-0.002,0-0.006,0-0.008,0c-33.076,0-51.634-11.693-53.642-13.026l-1.151-0.765l1.088-0.854
			c12.947-10.167,30.38-15.541,50.412-15.541c9.546,0,19.273,1.207,28.914,3.586c25.913,6.394,48.78,28.286,56.919,54.483
			l0.042,0.125l1.162,2.691L352.375,139.2z"/>
		<path d="M267.913,80.758c9.755,0,19.522,1.298,28.675,3.557c26.18,6.46,48.34,28.43,56.219,53.86
			c0.021,0.049,0.031,0.1,0.053,0.149c-27.991-15.5-35.611-36.13-35.611-36.13c-17.616,4.946-32.991,6.75-46.034,6.75
			c-32.708,0-50.794-11.331-53.096-12.859C232.027,85.165,249.945,80.759,267.913,80.758 M267.916,78.758v2V78.758h-0.003
			c-20.259,0-37.904,5.448-51.03,15.754l-2.176,1.708l2.305,1.531c3.316,2.203,21.519,13.193,54.202,13.193
			c14.26,0,29.35-2.138,44.883-6.357c2.487,5.37,11.812,22.206,35.794,35.486l5.125,2.838l-2.291-5.313
			c-0.009-0.026-0.018-0.051-0.026-0.076c-8.239-26.518-31.392-48.676-57.631-55.15C287.349,79.975,277.54,78.758,267.916,78.758
			L267.916,78.758z"/>
	</g>
</g>
</svg>
