<?xml version="1.0" encoding="UTF-8"?>
<svg width="547px" height="350px" viewBox="0 0 547 350" version="1.1" xmlns="http://www.w3.org/2000/svg" xmlns:xlink="http://www.w3.org/1999/xlink">
    <!-- Generator: Sketch 52.6 (67491) - http://www.bohemiancoding.com/sketch -->
    <title>Group 107</title>
    <desc>Created with Sketch.</desc>
    <defs>
        <polygon id="path-1" points="0 0.060723659 546.481938 0.060723659 546.481938 350 0 350"></polygon>
    </defs>
    <g id="Page-2" stroke="none" stroke-width="1" fill="none" fill-rule="evenodd">
        <g id="Desktop-HD" transform="translate(-68.000000, -9013.000000)">
            <g id="Group-107" transform="translate(68.000000, 9013.000000)">
                <g id="Group-106">
                    <g id="Group-3">
                        <mask id="mask-2" fill="white">
                            <use xlink:href="#path-1"></use>
                        </mask>
                        <g id="Clip-2"></g>
                        <path d="M6.71560723,118.080615 L27.8898008,41.1652923 C27.8898008,41.1652923 32.1246395,24.2298085 54.7104459,24.2298085 C77.2962524,24.2298085 147.876898,21.4072278 147.876898,21.4072278 C147.876898,21.4072278 145.759478,3.06045363 164.110446,1.64916331 C164.110446,1.64916331 183.873027,-2.58470766 183.873027,7.99996976 L183.873027,18.5846472 L305.271736,18.5846472 C305.271736,18.5846472 302.44851,7.2943246 316.564639,3.06045363 C330.680769,-1.17341734 339.856252,-1.8790625 340.562059,7.2943246 C341.267865,16.4677117 340.562059,19.2902923 340.562059,19.2902923 C340.562059,19.2902923 431.611091,24.2298085 444.315607,28.4636794 C457.020123,32.6975504 473.253672,39.754002 467.60722,56.6894859 L504.309156,142.778196 C504.309156,142.778196 511.36722,141.366905 514.190446,151.951583 C517.013672,162.53626 523.36593,177.354808 523.36593,177.354808 L535.364639,177.354808 C535.364639,177.354808 550.892381,175.943518 545.24593,199.229808 C539.599478,222.516099 531.129801,254.975776 531.129801,254.975776 L503.603349,302.959647 L447.844639,302.959647 C447.844639,302.959647 440.786575,353.060454 387.145285,348.826583 C387.145285,348.826583 349.031736,343.887067 337.738833,302.959647 L216.340123,302.959647 C216.340123,302.959647 203.635607,358.705615 149.28851,348.826583 C149.28851,348.826583 110.469156,338.241905 108.351736,305.782228 L39.8885105,305.076583 C39.8885105,305.076583 18.7143169,293.080615 26.4781879,268.383034 C26.4781879,268.383034 1.77496206,209.814486 0.363349161,191.467712 C-1.04826374,173.120937 1.77496206,137.133034 6.71560723,118.080615" id="Fill-1" fill="#1A1E1F" mask="url(#mask-2)"></path>
                    </g>
                    <path d="M10.2446395,173.120937 C10.2446395,173.120937 11.6562524,101.850776 36.3594782,41.1652923 L460.549156,46.8104536 C460.549156,46.8104536 462.666575,50.3386794 457.020123,56.6894859 C451.373672,63.0402923 486.663994,149.129002 490.898833,150.540292 C495.133672,151.951583 507.838188,151.951583 507.838188,151.951583 L511.70389,167.717107 L10.2446395,173.120937 Z" id="Fill-4" fill="#72C8BD"></path>
                    <path d="M63.087451,41.1652923 L315.806392,44.8840423 C315.806392,44.8840423 325.034105,59.5120665 315.858621,79.270131 C306.683137,99.0281956 320.799266,107.495937 320.09346,115.258034 C319.387654,123.020131 313.741202,136.427389 313.741202,136.427389 C313.741202,136.427389 294.684428,115.258034 298.919266,126.548357 C303.154105,137.838679 304.565718,140.66126 304.565718,140.66126 C304.565718,140.66126 266.45217,142.778196 301.036686,153.362873 C301.036686,153.362873 302.448299,157.596744 289.037976,157.596744 L56.8276535,157.596744 C56.8276535,157.596744 42.0057181,155.479808 38.4766858,144.189486 C38.4766858,144.189486 64.5915245,153.362873 65.297331,145.600776 C66.0031374,137.838679 42.0057181,135.016099 42.0057181,135.016099 C42.0057181,135.016099 44.8289439,122.314486 58.2392665,116.669325 C58.2392665,116.669325 45.5347503,114.552389 38.4766858,122.314486 C38.4766858,122.314486 27.889589,90.5604536 45.5347503,65.862873 C45.5347503,65.862873 51.1812019,60.2177117 59.6508794,63.7459375 C68.1205568,67.2741633 58.2392665,53.8669052 60.3566858,49.6330343 C62.4741052,45.3991633 63.087451,41.1652923 63.087451,41.1652923" id="Fill-6" fill="#BBCF4A"></path>
                    <path d="M63.087451,41.1652923 L315.806392,44.8840423 C315.806392,44.8840423 325.034105,59.5120665 315.858621,79.270131 C306.683137,99.0281956 320.799266,107.495937 320.09346,115.258034 C319.387654,123.020131 313.741202,136.427389 313.741202,136.427389 C313.741202,136.427389 294.684428,115.258034 298.919266,126.548357 C303.154105,137.838679 304.565718,140.66126 304.565718,140.66126 C304.565718,140.66126 266.45217,142.778196 301.036686,153.362873 C301.036686,153.362873 302.448299,157.596744 289.037976,157.596744 L56.8276535,157.596744 C56.8276535,157.596744 42.0057181,155.479808 38.4766858,144.189486 C38.4766858,144.189486 64.5915245,153.362873 65.297331,145.600776 C66.0031374,137.838679 42.0057181,135.016099 42.0057181,135.016099 C42.0057181,135.016099 44.8289439,122.314486 58.2392665,116.669325 C58.2392665,116.669325 45.5347503,114.552389 38.4766858,122.314486 C38.4766858,122.314486 27.889589,90.5604536 45.5347503,65.862873 C45.5347503,65.862873 51.1812019,60.2177117 59.6508794,63.7459375 C68.1205568,67.2741633 58.2392665,53.8669052 60.3566858,49.6330343 C62.4741052,45.3991633 63.087451,41.1652923 63.087451,41.1652923 Z" id="Stroke-8" stroke="#000000" stroke-width="2"></path>
                    <path d="M10.2446395,173.120937 C10.2446395,173.120937 11.6562524,101.850776 36.3594782,41.1652923 L460.549156,46.8104536 C460.549156,46.8104536 462.666575,50.3386794 457.020123,56.6894859 C451.373672,63.0402923 486.663994,149.129002 490.898833,150.540292 C495.133672,151.951583 507.838188,151.951583 507.838188,151.951583 L511.70389,167.717107 L10.2446395,173.120937 Z" id="Stroke-10" stroke="#000000" stroke-width="2"></path>
                    <path d="M457.020123,56.6894859 C457.020123,56.6894859 491.94625,129.573458 499.539316,151.700373 L487.369801,151.951583 L447.844639,54.5725504 L457.020123,56.6894859 Z" id="Fill-12" fill="#FFFFFF"></path>
                    <path d="M207.870446,298.020131 C207.870446,324.131119 186.69837,345.298357 160.581414,345.298357 C134.464458,345.298357 113.292381,324.131119 113.292381,298.020131 C113.292381,271.909143 134.464458,250.741905 160.581414,250.741905 C186.69837,250.741905 207.870446,271.909143 207.870446,298.020131" id="Fill-14" fill="#565A59"></path>
                    <path d="M184.578833,296.608841 C184.578833,309.85874 173.835047,320.600776 160.581414,320.600776 C147.32778,320.600776 136.583994,309.85874 136.583994,296.608841 C136.583994,283.358942 147.32778,272.616905 160.581414,272.616905 C173.835047,272.616905 184.578833,283.358942 184.578833,296.608841" id="Fill-16" fill="#D9D957"></path>
                    <path d="M182.820881,287.595282 C172.867598,284.630161 167.804143,290.40375 165.977516,293.270081 C165.039499,291.757177 163.486725,290.670484 161.665744,290.357177 C168.253036,281.578952 160.581625,272.616552 160.581625,272.616552 C154.093853,280.725121 157.543129,287.585403 159.51374,290.354355 C156.932606,290.791855 154.879415,292.780363 154.357824,295.33127 C145.782276,288.491452 136.594793,295.883085 136.594793,295.883085 C144.504766,302.612117 151.468958,299.371089 154.296419,297.48631 C154.551215,299.323105 155.585222,300.909395 157.061063,301.894476 C147.49668,307.269375 150.897961,318.560403 150.897961,318.560403 C160.105912,313.759194 159.71913,306.090242 159.033792,302.761714 C159.529974,302.886613 160.046624,302.959294 160.581625,302.959294 C161.908542,302.959294 163.139468,302.551431 164.157947,301.856371 C165.54768,312.737419 177.291593,313.828347 177.291593,313.828347 C176.300641,303.492056 169.045656,300.969375 165.703663,300.354052 C166.472992,299.303347 166.933883,298.01131 166.933883,296.608488 C166.933883,296.147702 166.881654,295.698911 166.788487,295.265645 C177.397464,298.067762 182.820881,287.595282 182.820881,287.595282" id="Fill-18" fill="#C9973E"></path>
                    <path d="M496.987825,237.775675 C495.522571,245.629506 496.664566,252.430514 499.53861,252.966099 C502.413359,253.502389 505.930393,247.57003 507.395647,239.7162 C508.860901,231.862369 507.718907,225.061361 504.844863,224.525776 C501.970819,223.989486 498.453079,229.921845 496.987825,237.775675" id="Fill-20" fill="#FFFFFF"></path>
                    <path d="M496.987825,237.775675 C495.522571,245.629506 496.664566,252.430514 499.53861,252.966099 C502.413359,253.502389 505.930393,247.57003 507.395647,239.7162 C508.860901,231.862369 507.718907,225.061361 504.844863,224.525776 C501.970819,223.989486 498.453079,229.921845 496.987825,237.775675 Z" id="Stroke-22" stroke="#000000"></path>
                    <path d="M11.3178182,209.939173 C11.3178182,209.939173 0.362996258,173.120726 11.6558995,172.415081 C22.9488027,171.709435 511.366867,166.769919 511.366867,166.769919 L519.130738,188.644919 L519.130738,238.745726 L475.370738,268.382823 L418.906222,235.2175 L321.504932,243.685242 L262.922996,274.733629 L219.868803,254.269919 L185.990093,227.455403 L75.1791859,236.62879 L25.0662221,233.100565 L11.3178182,209.939173 Z" id="Fill-24" fill="#B6D039"></path>
                    <path d="M36.3594782,41.1652923 C36.3594782,41.1652923 42.7117363,29.1693246 60.3568975,29.1693246 C78.0020588,29.1693246 368.794317,19.2902923 430.905285,33.4031956 C430.905285,33.4031956 460.549156,36.9314214 460.549156,46.8104536 L333.07557,45.1140827 L36.3594782,41.1652923 Z" id="Fill-26" fill="#7AC9C5"></path>
                    <path d="M496.987825,237.775675 C495.522571,245.629506 496.664566,252.430514 499.53861,252.966099 C502.413359,253.502389 505.930393,247.57003 507.395647,239.7162 C508.860901,231.862369 507.718907,225.061361 504.844863,224.525776 C501.970819,223.989486 498.453079,229.921845 496.987825,237.775675 Z" id="Stroke-28" stroke="#000000"></path>
                    <path d="M11.3178182,209.939173 C11.3178182,209.939173 0.362996258,173.120726 11.6558995,172.415081 C22.9488027,171.709435 511.366867,166.769919 511.366867,166.769919 L519.130738,188.644919 L519.130738,238.745726 L475.370738,268.382823 L418.906222,235.2175 L321.504932,243.685242 L262.922996,274.733629 L219.868803,254.269919 L185.990093,227.455403 L75.1791859,236.62879 L25.0662221,233.100565 L11.3178182,209.939173 Z" id="Stroke-30" stroke="#000000" stroke-width="2"></path>
                    <path d="M36.3594782,41.1652923 C36.3594782,41.1652923 42.7117363,29.1693246 60.3568975,29.1693246 C78.0020588,29.1693246 368.794317,19.2902923 430.905285,33.4031956 C430.905285,33.4031956 460.549156,36.9314214 460.549156,46.8104536 L333.07557,45.1140827 L36.3594782,41.1652923 Z" id="Stroke-32" stroke="#000000" stroke-width="2"></path>
                    <path d="M334.209166,256.387067 C334.209166,256.387067 322.916968,84.9152923 334.209871,46.8104536" id="Stroke-34" stroke="#000000" stroke-width="2"></path>
                    <path d="M154.229156,25.6410988 L154.229156,16.7704335 C154.229156,13.7615625 155.928738,10.9911996 158.642563,9.69140121 C161.38815,8.37678427 165.08587,7.06569556 168.762416,7.17859879 C172.472135,7.29220766 175.403349,10.3751714 175.403349,14.0861593 L175.403349,28.4636794 C175.403349,28.4636794 183.16722,29.1693246 181.755607,36.2257762 L166.744516,36.2257762 C166.069059,36.2257762 165.522059,35.6789012 165.522059,35.0035988 L165.522059,31.2862601 C165.522059,29.7274899 166.786158,28.4636794 168.345285,28.4636794 L168.345285,14.3507762 C168.345285,14.3507762 160.581414,12.2338407 159.169801,16.4677117 L159.327196,26.9613609 L154.229156,27.0580343 L154.229156,25.6410988 Z" id="Fill-36" fill="#C5DFE0"></path>
                    <path d="M439.663778,46.5323589 L487.292303,167.979536 C487.292303,167.979536 481.017684,245.096673 471.136394,300.136996" id="Stroke-38" stroke="#000000" stroke-width="2"></path>
                    <path d="M457.020123,56.6894859 C457.020123,56.6894859 491.94625,129.573458 499.539316,151.700373 L487.369801,151.951583 L447.844639,54.5725504 L457.020123,56.6894859 Z" id="Stroke-40" stroke="#000000" stroke-width="2"></path>
                    <path d="M341.267865,157.596744 C341.267865,157.596744 337.738833,67.2741633 339.856252,63.7459375 C341.973672,60.2177117 340.562059,55.2781956 352.560769,54.5725504 C364.559478,53.8669052 411.142704,54.5725504 411.142704,54.5725504 C411.142704,54.5725504 430.905285,55.2781956 437.963349,67.2741633 C445.021414,79.270131 469.018833,126.548357 467.60722,157.596744 L341.267865,157.596744 Z" id="Stroke-42" stroke="#000000" stroke-width="2"></path>
                    <path d="M207.870446,298.020131 C207.870446,324.131119 186.69837,345.298357 160.581414,345.298357 C134.464458,345.298357 113.292381,324.131119 113.292381,298.020131 C113.292381,271.909143 134.464458,250.741905 160.581414,250.741905 C186.69837,250.741905 207.870446,271.909143 207.870446,298.020131 Z" id="Stroke-44" stroke="#000000" stroke-width="2"></path>
                    <path d="M184.578833,296.608841 C184.578833,309.85874 173.835047,320.600776 160.581414,320.600776 C147.32778,320.600776 136.583994,309.85874 136.583994,296.608841 C136.583994,283.358942 147.32778,272.616905 160.581414,272.616905 C173.835047,272.616905 184.578833,283.358942 184.578833,296.608841 Z" id="Stroke-46" stroke="#595D5E"></path>
                    <path d="M160.581414,272.616905 C154.093641,280.724768 157.542917,287.585756 159.513529,290.354708 C156.932394,290.792208 154.879203,292.78001 154.358318,295.330917 C151.645198,293.168115 148.871379,292.427893 146.346709,292.427893 C140.889414,292.427893 136.595287,295.883438 136.595287,295.883438 C140.1949,298.945938 143.599005,299.94372 146.506221,299.94372 C149.987259,299.94372 152.756138,298.513377 154.296913,297.485958 C154.551709,299.323458 155.58501,300.909748 157.060851,301.894123 C147.496468,307.269022 150.897749,318.56005 150.897749,318.56005 C160.106406,313.759546 159.718918,306.090595 159.03358,302.762067 C159.529762,302.88626 160.046412,302.959647 160.581414,302.959647 C161.90833,302.959647 163.139256,302.551784 164.157735,301.856724 C165.547468,312.737067 177.291381,313.827994 177.291381,313.827994 C176.300429,303.492409 169.04615,300.969728 165.703451,300.354405 C166.473486,299.302994 166.933672,298.010958 166.933672,296.608841 C166.933672,296.148054 166.882148,295.699264 166.788276,295.265998 C168.03967,295.59624 169.219779,295.742308 170.326483,295.742308 C178.60277,295.742308 182.820669,287.595635 182.820669,287.595635 C180.880407,287.017006 179.125067,286.771442 177.54406,286.771442 C171.01535,286.771442 167.448205,290.962974 165.97801,293.270433 C165.039287,291.75753 163.487219,290.670837 161.665532,290.35753 C168.25353,281.578599 160.581414,272.616905 160.581414,272.616905 M157.675609,303.167813 C158.321421,306.444829 158.287543,312.200071 151.87882,316.358438 C151.424281,313.218317 151.381932,306.757429 157.675609,303.167813 M165.570054,301.765696 C168.848525,302.397954 174.164659,304.588982 175.616503,312.076583 C172.540598,311.295433 166.523598,308.870837 165.570054,301.765696 M146.346709,293.839183 C148.892553,293.839183 151.269003,294.694425 153.409714,296.380917 C151.884467,297.3787 149.477667,298.532429 146.506221,298.532429 C143.96673,298.532429 141.453353,297.672248 139.014086,295.972349 C140.604974,295.052893 143.284921,293.839183 146.346709,293.839183 M160.589178,291.6037 L161.426264,291.747651 C162.811056,291.986159 164.032807,292.81247 164.778139,294.014183 L165.232678,294.745938 L165.408424,295.56378 C165.483945,295.913075 165.522059,296.265192 165.522059,296.608841 C165.522059,297.658841 165.191036,298.665091 164.564985,299.520333 L164.051864,300.220333 L163.362291,300.690292 C162.540027,301.251986 161.578718,301.548357 160.581414,301.548357 C160.19322,301.548357 159.788087,301.496139 159.377308,301.393115 L158.537398,301.182127 L157.845002,300.719929 C156.671952,299.938075 155.888507,298.688377 155.695116,297.292611 L155.575129,296.426079 L155.740993,295.613881 C156.144009,293.63878 157.755365,292.084244 159.749974,291.745534 L160.589178,291.6037 M177.54406,288.182732 C178.510309,288.182732 179.520318,288.28505 180.5635,288.488982 C178.967672,290.654607 175.497221,294.331018 170.326483,294.331018 C169.324944,294.331018 168.285291,294.194123 167.235757,293.923861 C168.661486,291.730716 171.848908,288.182732 177.54406,288.182732 M160.571532,275.027389 C162.255587,277.717308 164.902361,283.611563 160.592707,289.435252 C158.679265,286.696643 156.387512,281.418417 160.571532,275.027389" id="Fill-48" fill="#5D4603"></path>
                    <path d="M440.786575,298.020131 C440.786575,324.131119 419.614499,345.298357 393.497543,345.298357 C367.380587,345.298357 346.20851,324.131119 346.20851,298.020131 C346.20851,271.909143 367.380587,250.741905 393.497543,250.741905 C419.614499,250.741905 440.786575,271.909143 440.786575,298.020131" id="Fill-50" fill="#565A59"></path>
                    <path d="M417.494962,296.608841 C417.494962,309.85874 406.75047,320.600776 393.497543,320.600776 C380.244615,320.600776 369.500123,309.85874 369.500123,296.608841 C369.500123,283.358942 380.244615,272.616905 393.497543,272.616905 C406.75047,272.616905 417.494962,283.358942 417.494962,296.608841" id="Fill-52" fill="#D9D957"></path>
                    <path d="M415.737363,287.595282 C405.783374,284.630161 400.720625,290.40375 398.893998,293.270081 C397.955981,291.757177 396.403207,290.670484 394.58152,290.357177 C401.169518,281.578952 393.497402,272.616552 393.497402,272.616552 C387.009629,280.725121 390.459611,287.585403 392.430222,290.354355 C389.848382,290.791855 387.795191,292.780363 387.274306,295.33127 C378.698052,288.491452 369.511275,295.883085 369.511275,295.883085 C377.421248,302.612117 384.384734,299.371089 387.212901,297.48631 C387.466991,299.323105 388.501703,300.909395 389.977545,301.894476 C380.412456,307.269375 383.813737,318.560403 383.813737,318.560403 C393.022394,313.759194 392.635612,306.090242 391.950274,302.761714 C392.446456,302.886613 392.9624,302.959294 393.497402,302.959294 C394.824318,302.959294 396.055244,302.551431 397.074429,301.856371 C398.463456,312.737419 410.208075,313.828347 410.208075,313.828347 C409.217123,303.492056 401.962138,300.969375 398.619439,300.354052 C399.389474,299.303347 399.84966,298.01131 399.84966,296.608488 C399.84966,296.147702 399.798136,295.698911 399.704263,295.265645 C410.31324,298.067762 415.737363,287.595282 415.737363,287.595282" id="Fill-54" fill="#C9973E"></path>
                    <path d="M440.786575,298.020131 C440.786575,324.131119 419.614499,345.298357 393.497543,345.298357 C367.380587,345.298357 346.20851,324.131119 346.20851,298.020131 C346.20851,271.909143 367.380587,250.741905 393.497543,250.741905 C419.614499,250.741905 440.786575,271.909143 440.786575,298.020131 Z" id="Stroke-56" stroke="#000000"></path>
                    <path d="M417.494962,296.608841 C417.494962,309.85874 406.75047,320.600776 393.497543,320.600776 C380.244615,320.600776 369.500123,309.85874 369.500123,296.608841 C369.500123,283.358942 380.244615,272.616905 393.497543,272.616905 C406.75047,272.616905 417.494962,283.358942 417.494962,296.608841 Z" id="Stroke-58" stroke="#595D5E"></path>
                    <path d="M415.737363,287.595282 C405.783374,284.630161 400.720625,290.40375 398.893998,293.270081 C397.955981,291.757177 396.403207,290.670484 394.58152,290.357177 C401.169518,281.578952 393.497402,272.616552 393.497402,272.616552 C387.009629,280.725121 390.459611,287.585403 392.430222,290.354355 C389.848382,290.791855 387.795191,292.780363 387.274306,295.33127 C378.698052,288.491452 369.511275,295.883085 369.511275,295.883085 C377.421248,302.612117 384.384734,299.371089 387.212901,297.48631 C387.466991,299.323105 388.501703,300.909395 389.977545,301.894476 C380.412456,307.269375 383.813737,318.560403 383.813737,318.560403 C393.022394,313.759194 392.635612,306.090242 391.950274,302.761714 C392.446456,302.886613 392.9624,302.959294 393.497402,302.959294 C394.824318,302.959294 396.055244,302.551431 397.074429,301.856371 C398.463456,312.737419 410.208075,313.828347 410.208075,313.828347 C409.217123,303.492056 401.962138,300.969375 398.619439,300.354052 C399.389474,299.303347 399.84966,298.01131 399.84966,296.608488 C399.84966,296.147702 399.798136,295.698911 399.704263,295.265645 C410.31324,298.067762 415.737363,287.595282 415.737363,287.595282 Z" id="Stroke-60" stroke="#5D4603"></path>
                    <path d="M472.194962,190.436129 C461.636803,187.291069 456.265616,193.416069 454.328178,196.455988 C453.332285,194.851351 451.685638,193.699032 449.753846,193.365262 C456.74133,184.054274 448.603381,174.547117 448.603381,174.547117 C441.721063,183.14752 445.380669,190.425544 447.471268,193.36244 C444.732739,193.82746 442.55462,195.935927 442.001974,198.642077 C432.904834,191.386633 423.159059,199.227762 423.159059,199.227762 C431.549686,206.365363 438.937362,202.928165 441.937039,200.928367 C442.207363,202.876653 443.303481,204.559617 444.868959,205.603972 C434.722992,211.305585 438.331074,223.283911 438.331074,223.283911 C448.099436,218.190565 447.688656,210.055887 446.961676,206.524839 C447.488207,206.656089 448.035913,206.734415 448.603381,206.734415 C450.010759,206.734415 451.317207,206.301149 452.397797,205.56375 C453.871521,217.106694 466.329005,218.263952 466.329005,218.263952 C465.278765,207.298931 457.582651,204.623125 454.036679,203.971109 C454.854003,202.85619 455.341716,201.485121 455.341716,199.997621 C455.341716,199.507903 455.286663,199.033004 455.18785,198.572923 C466.441934,201.544395 472.194962,190.436129 472.194962,190.436129" id="Fill-62" fill="#C9973E"></path>
                    <path d="M472.194962,190.436129 C461.636803,187.291069 456.265616,193.416069 454.328178,196.455988 C453.332285,194.851351 451.685638,193.699032 449.753846,193.365262 C456.74133,184.054274 448.603381,174.547117 448.603381,174.547117 C441.721063,183.14752 445.380669,190.425544 447.471268,193.36244 C444.732739,193.82746 442.55462,195.935927 442.001974,198.642077 C432.904834,191.386633 423.159059,199.227762 423.159059,199.227762 C431.549686,206.365363 438.937362,202.928165 441.937039,200.928367 C442.207363,202.876653 443.303481,204.559617 444.868959,205.603972 C434.722992,211.305585 438.331074,223.283911 438.331074,223.283911 C448.099436,218.190565 447.688656,210.055887 446.961676,206.524839 C447.488207,206.656089 448.035913,206.734415 448.603381,206.734415 C450.010759,206.734415 451.317207,206.301149 452.397797,205.56375 C453.871521,217.106694 466.329005,218.263952 466.329005,218.263952 C465.278765,207.298931 457.582651,204.623125 454.036679,203.971109 C454.854003,202.85619 455.341716,201.485121 455.341716,199.997621 C455.341716,199.507903 455.286663,199.033004 455.18785,198.572923 C466.441934,201.544395 472.194962,190.436129 472.194962,190.436129 Z" id="Stroke-64" stroke="#5D4603" stroke-width="2"></path>
                    <path d="M522.483672,256.387067 L511.094073,256.387067 C508.848903,256.387067 507.151438,254.351986 507.555159,252.143317 L518.944758,189.831321 C519.25743,188.122954 520.745976,186.881018 522.483672,186.881018 L533.87327,186.881018 C536.118441,186.881018 537.815905,188.916099 537.412184,191.124768 L526.022585,253.436764 C525.709913,255.145131 524.221367,256.387067 522.483672,256.387067" id="Fill-66" fill="#B8CF41"></path>
                    <path d="M522.483672,256.387067 L511.094073,256.387067 C508.848903,256.387067 507.151438,254.351986 507.555159,252.143317 L518.944758,189.831321 C519.25743,188.122954 520.745976,186.881018 522.483672,186.881018 L533.87327,186.881018 C536.118441,186.881018 537.815905,188.916099 537.412184,191.124768 L526.022585,253.436764 C525.709913,255.145131 524.221367,256.387067 522.483672,256.387067 Z" id="Stroke-68" stroke="#000000" stroke-width="2"></path>
                    <path d="M500.780123,271.91126 C500.780123,271.91126 518.425285,225.338679 515.602059,211.931421 C512.778833,198.524163 500.074317,197.112873 500.780123,214.754002 C500.780123,214.754002 486.663994,204.87497 484.546575,209.108841 C482.429156,213.342712 495.839478,225.338679 495.839478,225.338679 C495.839478,225.338679 482.429156,227.455615 482.429156,231.689486 C482.429156,235.923357 495.133672,234.512067 495.133672,234.512067 C495.133672,234.512067 489.48722,252.153196 482.429156,254.975776 C475.371091,257.798357 458.431736,250.03626 453.491091,247.213679 C448.550446,244.391099 381.498833,182.294325 323.622704,227.455615 C323.622704,227.455615 326.44593,202.758034 315.858833,203.463679 C315.858833,203.463679 305.271736,207.69755 314.44722,223.927389 C314.44722,223.927389 288.332381,216.870938 289.038188,235.923357 C289.038188,235.923357 310.212381,227.455615 309.506575,241.568518 C309.506575,241.568518 258.68851,286.729808 227.633027,249.330615 C196.577543,211.931421 134.466575,188.645131 60.3568975,232.395131 C60.3568975,232.395131 78.0020588,210.520131 72.3556072,199.935454 C72.3556072,199.935454 58.9452846,199.229808 47.6523814,222.516099 C47.6523814,222.516099 51.1814137,197.112873 42.0059298,199.229808 C32.8304459,201.346744 31.418833,226.044325 31.418833,226.044325 C31.418833,226.044325 19.4201234,202.052389 10.2446395,206.991905 C10.2446395,206.991905 27.1839943,254.270131 38.4768975,271.91126 L50.4756072,298.020131 L95.6472201,298.020131 C95.6472201,298.020131 92.1181879,250.741905 115.409801,246.508034 C138.701414,242.274163 189.519478,238.745938 202.223994,243.685454 C214.92851,248.62497 224.809801,271.205615 224.809801,296.608841 L322.916898,298.020131 C322.916898,298.020131 325.034317,253.564486 343.385285,250.03626 C359.758583,246.888377 395.797766,242.616401 422.42502,245.241401 C429.552254,245.943518 435.943331,249.967813 439.516829,256.171845 C443.868126,263.728599 448.880058,276.649667 451.373672,298.020131 L490.898833,298.020131 L500.780123,271.91126 Z" id="Fill-70" fill="#6EBFB6"></path>
                    <path d="M500.780123,271.91126 C500.780123,271.91126 518.425285,225.338679 515.602059,211.931421 C512.778833,198.524163 500.074317,197.112873 500.780123,214.754002 C500.780123,214.754002 486.663994,204.87497 484.546575,209.108841 C482.429156,213.342712 495.839478,225.338679 495.839478,225.338679 C495.839478,225.338679 482.429156,227.455615 482.429156,231.689486 C482.429156,235.923357 495.133672,234.512067 495.133672,234.512067 C495.133672,234.512067 489.48722,252.153196 482.429156,254.975776 C475.371091,257.798357 458.431736,250.03626 453.491091,247.213679 C448.550446,244.391099 381.498833,182.294325 323.622704,227.455615 C323.622704,227.455615 326.44593,202.758034 315.858833,203.463679 C315.858833,203.463679 305.271736,207.69755 314.44722,223.927389 C314.44722,223.927389 288.332381,216.870938 289.038188,235.923357 C289.038188,235.923357 310.212381,227.455615 309.506575,241.568518 C309.506575,241.568518 258.68851,286.729808 227.633027,249.330615 C196.577543,211.931421 134.466575,188.645131 60.3568975,232.395131 C60.3568975,232.395131 78.0020588,210.520131 72.3556072,199.935454 C72.3556072,199.935454 58.9452846,199.229808 47.6523814,222.516099 C47.6523814,222.516099 51.1814137,197.112873 42.0059298,199.229808 C32.8304459,201.346744 31.418833,226.044325 31.418833,226.044325 C31.418833,226.044325 19.4201234,202.052389 10.2446395,206.991905 C10.2446395,206.991905 27.1839943,254.270131 38.4768975,271.91126 L50.4756072,298.020131 L95.6472201,298.020131 C95.6472201,298.020131 92.1181879,250.741905 115.409801,246.508034 C138.701414,242.274163 189.519478,238.745938 202.223994,243.685454 C214.92851,248.62497 224.809801,271.205615 224.809801,296.608841 L322.916898,298.020131 C322.916898,298.020131 325.034317,253.564486 343.385285,250.03626 C359.758583,246.888377 395.797766,242.616401 422.42502,245.241401 C429.552254,245.943518 435.943331,249.967813 439.516829,256.171845 C443.868126,263.728599 448.880058,276.649667 451.373672,298.020131 L490.898833,298.020131 L500.780123,271.91126 Z" id="Stroke-72" stroke="#000000" stroke-width="2"></path>
                    <path d="M193.689171,174.385101 C178.806536,179.107984 177.390688,190.56625 177.543143,195.67371 C175.097523,194.585605 172.248888,194.546794 169.718572,195.695585 C170.488607,179.213125 153.372801,174.552339 153.372801,174.552339 C152.159519,190.116048 162.249023,195.732278 167.040743,197.510504 C164.200577,200.235706 163.327495,204.442762 164.836509,208.055665 C148.390513,206.796089 143.21554,223.751331 143.21554,223.751331 C158.740459,225.434294 164.660057,215.520685 166.581968,210.786512 C168.45165,212.855464 171.078661,213.954859 173.745904,213.931573 C166.397047,228.697903 180.171566,239.864032 180.171566,239.864032 C187.563477,226.113125 180.598579,216.90375 176.93262,213.34377 C177.65466,213.079153 178.359055,212.734093 179.023925,212.28248 C180.6741,211.16121 181.859855,209.61373 182.538841,207.887722 C193.46543,220.244274 208.990349,211.676331 208.990349,211.676331 C199.020833,199.66131 187.866974,202.655363 183.1903,204.714435 C183.259469,202.757681 182.73929,200.761411 181.554241,199.017762 C181.16393,198.444073 180.719977,197.930363 180.237912,197.470282 C195.798121,191.989536 193.689171,174.385101 193.689171,174.385101" id="Fill-74" fill="#C9973E"></path>
                    <path d="M193.689171,174.385101 C178.806536,179.107984 177.390688,190.56625 177.543143,195.67371 C175.097523,194.585605 172.248888,194.546794 169.718572,195.695585 C170.488607,179.213125 153.372801,174.552339 153.372801,174.552339 C152.159519,190.116048 162.249023,195.732278 167.040743,197.510504 C164.200577,200.235706 163.327495,204.442762 164.836509,208.055665 C148.390513,206.796089 143.21554,223.751331 143.21554,223.751331 C158.740459,225.434294 164.660057,215.520685 166.581968,210.786512 C168.45165,212.855464 171.078661,213.954859 173.745904,213.931573 C166.397047,228.697903 180.171566,239.864032 180.171566,239.864032 C187.563477,226.113125 180.598579,216.90375 176.93262,213.34377 C177.65466,213.079153 178.359055,212.734093 179.023925,212.28248 C180.6741,211.16121 181.859855,209.61373 182.538841,207.887722 C193.46543,220.244274 208.990349,211.676331 208.990349,211.676331 C199.020833,199.66131 187.866974,202.655363 183.1903,204.714435 C183.259469,202.757681 182.73929,200.761411 181.554241,199.017762 C181.16393,198.444073 180.719977,197.930363 180.237912,197.470282 C195.798121,191.989536 193.689171,174.385101 193.689171,174.385101 Z" id="Stroke-76" stroke="#5D4603" stroke-width="2"></path>
                    <path d="M492.310446,271.91126 L509.971135,273.172248 C510.988908,273.245635 511.620605,274.310454 511.197121,275.238377 L501.706847,295.994224 C501.142202,297.228397 499.909864,298.020131 498.551892,298.020131 L487.445322,298.020131 L485.958188,274.733841 C485.958188,274.733841 488.075607,271.91126 492.310446,271.91126" id="Fill-78" fill="#B3D2D4"></path>
                    <path d="M492.310446,271.91126 L509.971135,273.172248 C510.988908,273.245635 511.620605,274.310454 511.197121,275.238377 L501.706847,295.994224 C501.142202,297.228397 499.909864,298.020131 498.551892,298.020131 L487.445322,298.020131 L485.958188,274.733841 C485.958188,274.733841 488.075607,271.91126 492.310446,271.91126 Z" id="Stroke-80" stroke="#000000" stroke-width="2"></path>
                    <path d="M154.229156,25.6410988 L154.229156,16.7704335 C154.229156,13.7615625 155.928738,10.9911996 158.642563,9.69140121 C161.38815,8.37678427 165.08587,7.06569556 168.762416,7.17859879 C172.472135,7.29220766 175.403349,10.3751714 175.403349,14.0861593 L175.403349,28.4636794 C175.403349,28.4636794 183.16722,29.1693246 181.755607,36.2257762 L166.744516,36.2257762 C166.069059,36.2257762 165.522059,35.6789012 165.522059,35.0035988 L165.522059,31.2862601 C165.522059,29.7274899 166.786158,28.4636794 168.345285,28.4636794 L168.345285,14.3507762 C168.345285,14.3507762 160.581414,12.2338407 159.169801,16.4677117 L159.327196,26.9613609 L154.229156,27.0580343 L154.229156,25.6410988 Z" id="Stroke-82" stroke="#000000" stroke-width="2"></path>
                    <path d="M311.623994,24.2298085 L311.623994,15.3591431 C311.623994,12.3502722 313.323576,9.57990927 316.037402,8.28011089 C318.782989,6.96549395 322.480709,5.65440524 326.157255,5.76730847 C329.867679,5.88091734 332.798188,8.96388105 332.798188,12.674869 L332.798188,27.0523891 C332.798188,27.0523891 340.562059,27.7580343 339.150446,34.8144859 L324.139354,34.8144859 C323.463898,34.8144859 322.916898,34.2676109 322.916898,33.5923085 L322.916898,29.8749698 C322.916898,28.3161996 324.180997,27.0523891 325.740123,27.0523891 L325.740123,12.9394859 C325.740123,12.9394859 317.976252,10.8225504 316.564639,15.0564214 L316.722034,25.5500706 L311.623994,25.646744 L311.623994,24.2298085 Z" id="Fill-84" fill="#C5DFE0"></path>
                    <path d="M311.623994,24.2298085 L311.623994,15.3591431 C311.623994,12.3502722 313.323576,9.57990927 316.037402,8.28011089 C318.782989,6.96549395 322.480709,5.65440524 326.157255,5.76730847 C329.867679,5.88091734 332.798188,8.96388105 332.798188,12.674869 L332.798188,27.0523891 C332.798188,27.0523891 340.562059,27.7580343 339.150446,34.8144859 L324.139354,34.8144859 C323.463898,34.8144859 322.916898,34.2676109 322.916898,33.5923085 L322.916898,29.8749698 C322.916898,28.3161996 324.180997,27.0523891 325.740123,27.0523891 L325.740123,12.9394859 C325.740123,12.9394859 317.976252,10.8225504 316.564639,15.0564214 L316.722034,25.5500706 L311.623994,25.646744 L311.623994,24.2298085 Z" id="Stroke-86" stroke="#000000" stroke-width="2"></path>
                    <path d="M53.1600009,297.667308 L37.9103467,297.667308 C34.1300474,297.667308 31.0661415,294.604103 31.0661415,290.825373 L31.0661415,279.106018 C31.0661415,275.327288 34.1300474,272.264083 37.9103467,272.264083 L53.1600009,272.264083 C56.9395945,272.264083 60.0042061,275.327288 60.0042061,279.106018 L60.0042061,290.825373 C60.0042061,294.604103 56.9395945,297.667308 53.1600009,297.667308" id="Fill-88" fill="#B3D2D4"></path>
                    <path d="M53.1600009,297.667308 L37.9103467,297.667308 C34.1300474,297.667308 31.0661415,294.604103 31.0661415,290.825373 L31.0661415,279.106018 C31.0661415,275.327288 34.1300474,272.264083 37.9103467,272.264083 L53.1600009,272.264083 C56.9395945,272.264083 60.0042061,275.327288 60.0042061,279.106018 L60.0042061,290.825373 C60.0042061,294.604103 56.9395945,297.667308 53.1600009,297.667308 Z" id="Stroke-90" stroke="#000000" stroke-width="2"></path>
                    <path d="M437.963349,67.2741633 C437.882181,67.1358569 437.791132,67.0067238 437.706436,66.8719456 L403.183325,157.596744 L427.88655,157.596744 L451.711753,94.9841431 C446.226225,82.3410988 440.762578,72.031623 437.963349,67.2741633" id="Fill-92" fill="#FFFFFF"></path>
                    <path d="M352.560769,54.5725504 C340.562059,55.2781956 341.973672,60.2177117 339.856252,63.7459375 C337.738833,67.2741633 341.267865,157.596744 341.267865,157.596744 L347.831159,157.596744 L387.13258,54.3135786 C373.790721,54.2197278 358.679405,54.2126714 352.560769,54.5725504" id="Fill-94" fill="#FFFFFF"></path>
                    <path d="M413.090589,54.7251815 L373.945857,157.596956 L391.184474,157.596956 L428.683971,59.0486694 C422.798251,56.0588508 416.266012,55.0526008 413.090589,54.7251815" id="Fill-96" fill="#FFFFFF"></path>
                    <path d="M454.001177,157.596744 L467.607008,157.596744 C467.978263,149.445131 466.595588,140.174365 464.229019,130.717308 L454.001177,157.596744 Z" id="Fill-98" fill="#FFFFFF"></path>
                    <path d="M411.142704,54.5725504 C411.142704,54.5725504 399.95426,54.4031956 387.13258,54.3135786 L347.831159,157.596744 L373.945998,157.596744 L413.09073,54.7249698 C411.87039,54.5993649 411.142704,54.5725504 411.142704,54.5725504" id="Fill-100" fill="#D9EEF9"></path>
                    <path d="M451.712106,94.9837903 L427.886198,157.596391 L454.001036,157.596391 L464.228878,130.717661 C461.157914,118.439435 456.427599,105.85002 451.712106,94.9837903" id="Fill-102" fill="#D9EEF9"></path>
                    <path d="M428.683829,59.0489516 L391.184333,157.596532 L403.183042,157.596532 L437.706153,66.8717339 C435.509684,63.3618548 432.217802,60.8441129 428.683829,59.0489516" id="Fill-104" fill="#D9EEF9"></path>
                </g>
                <text id="BUS-ROUTE" font-family="Futura-CondensedExtraBold, Futura" font-size="50" font-style="condensed" font-weight="700" fill="#C9973E">
                    <tspan x="64" y="118">BUS </tspan>
                    <tspan x="162.706055" y="118" letter-spacing="-0.69311346">R</tspan>
                    <tspan x="191.700441" y="118">OUTE</tspan>
                </text>
            </g>
        </g>
    </g>
</svg>