<?xml version="1.0" encoding="utf-8"?>
<!-- Generator: Adobe Illustrator 16.0.0, SVG Export Plug-In . SVG Version: 6.00 Build 0)  -->
<!DOCTYPE svg PUBLIC "-//W3C//DTD SVG 1.1//EN" "http://www.w3.org/Graphics/SVG/1.1/DTD/svg11.dtd">
<svg version="1.1" id="Layer_1" xmlns="http://www.w3.org/2000/svg" xmlns:xlink="http://www.w3.org/1999/xlink" x="0px" y="0px"
	 width="425px" height="300px" viewBox="0 0 425 300" enable-background="new 0 0 425 300" xml:space="preserve">
<rect x="425" y="300" fill="#29001A" width="1504.502" height="900"/>
<g>
	<g>
		<path fill="#EEBBAA" d="M335.544,235.386c-5.388,0-19.671-6.688-21.721-19.087c-1.881-11.373-15.833-18.702-15.974-18.774
			l-0.072-0.037l-14.059-10.45l1.728-0.642c0.149-0.056,15.188-5.571,31.263-5.571c17.039,0,28.943,5.914,35.382,17.578
			c5.926,10.734,6.915,19.591,2.942,26.323C349.86,233.488,338.162,235.386,335.544,235.386z"/>
		<g>
			<path d="M316.709,181.824c13.145,0,27.121,3.681,34.507,17.062c16.422,29.75-10.922,35.5-15.672,35.5s-18.75-6.25-20.734-18.25
				s-16.501-19.5-16.501-19.5l-12.515-9.303C285.794,187.333,300.629,181.824,316.709,181.824 M316.709,179.824
				c-16.253,0-30.992,5.404-31.611,5.634l-3.453,1.282l2.956,2.198l12.515,9.303l0.131,0.097l0.145,0.074
				c0.135,0.07,13.651,7.2,15.445,18.05c2.141,12.942,17.074,19.924,22.708,19.924c2.731,0,14.938-1.984,20.35-11.152
				c4.167-7.059,3.182-16.248-2.927-27.314C346.432,186.081,333.895,179.824,316.709,179.824L316.709,179.824z"/>
		</g>
	</g>
	<path stroke="#000000" stroke-miterlimit="10" d="M170.294,120.265c0,0-6.833-11.795-5-27.129s1.166-11.286,10.833-4.977
		s24.417,1.81,24.417,1.81l-11.043,32.595L170.294,120.265z"/>
	<path d="M335.878,112.97c0,0,13.233,24.344,25.333,21.916c14.953-3,21.833-4.75,8.583,10.875s-17.008,24.875-32.504,19"/>
	<g>
		<path fill="#EEBBAA" d="M189.215,146.925c-0.128-0.044-13.007-4.456-30.482-4.456c-5.896,0-11.704,0.501-17.264,1.488
			c-3.517,0.625-6.767,0.942-9.66,0.942c-0.001,0-0.003,0-0.003,0c-10.032,0-14.14-3.73-15.82-6.86
			c-2.327-4.334-1.461-10.326,2.317-16.028c4.861-7.335,13.816-16.079,28.876-16.079c6.979,0,14.725,1.889,23.024,5.614
			c20.579,9.235,27.246,10.232,29.156,10.232c0.317,0,0.505-0.027,0.599-0.047l4.035-4.158l-13.927,29.648L189.215,146.925z"/>
		<g>
			<path d="M147.179,106.932c6.378,0,13.859,1.596,22.615,5.526c20.095,9.018,27.161,10.32,29.565,10.32
				c0.977,0,1.185-0.214,1.185-0.214l-11,23.417c0,0-12.941-4.511-30.812-4.512c-5.433,0-11.318,0.417-17.438,1.504
				c-3.576,0.635-6.729,0.926-9.485,0.926c-17.472,0-19.07-11.681-12.672-21.335C124.248,114.85,132.977,106.932,147.179,106.932
				 M147.179,104.932c-15.503,0-24.713,8.987-29.709,16.526c-3.985,6.014-4.87,12.389-2.366,17.052
				c1.811,3.371,6.178,7.388,16.705,7.388c2.951,0,6.26-0.322,9.835-0.957c5.502-0.978,11.25-1.473,17.085-1.473
				c17.29,0.001,30.031,4.356,30.158,4.401l1.701,0.59l0.767-1.629l11-23.417l5.088-10.833l-7.95,8.194
				c-0.039,0.001-0.083,0.002-0.133,0.002c-1.847,0-8.344-0.988-28.746-10.145C162.184,106.85,154.299,104.932,147.179,104.932
				L147.179,104.932z"/>
		</g>
	</g>
	<g>
		<path stroke="#000000" stroke-width="4" stroke-miterlimit="10" d="M105.195,218.458c23.042-8.627,47.024-13.707,71.163-18.072
			c13.55-2.449,27.013-5.709,40.069-10.104c3.075-1.035,13.063-2.445,10.163-7.037c-3.988-6.318-10.205-11.588-15.583-16.676
			c-5.063-4.789-10.231-9.469-15.475-14.059c-2.777-2.433-6.511,0.307-9.012,1.82c-7.132,4.314-14.307,8.561-21.543,12.697
			c-7.796,4.457-15.648,8.967-23.844,12.66c-8.989,4.049-19.927,4.424-29.636,4.541c-17.653,0.213-35.391-3.828-52.257,4.043
			c-16.596,7.746-13.843,28.709,3.479,33.238c13.399,3.502,28.776,0.721,41.906-2.895c0.281-0.076,0.562-0.156,0.841-0.236"/>
		<path fill="#84B741" d="M216.423,190.286c-1.759,0.59-3.518,1.16-5.289,1.709c-18.54-10.719-24.05-29.488-25.56-37.1
			c0.319-0.189,0.63-0.379,0.95-0.57c2.5-1.51,6.229-4.25,9.01-1.818c5.24,4.59,10.41,9.27,15.47,14.059
			c5.38,5.09,11.599,10.361,15.59,16.68C229.494,187.837,219.504,189.245,216.423,190.286z"/>
		<path fill="#FFFFFF" d="M155.344,204.446c-16.899,3.529-33.56,7.82-49.88,13.93c-0.28,0.08-0.559,0.16-0.84,0.24
			c-0.451,0.119-0.9,0.25-1.35,0.359c-0.841,0.211-1.891,0.48-3.131,0.77c0,0,0,0-0.01,0c-0.399-0.139-11.27-3.93-11.17-19.289
			c0-0.311,0-0.631,0.021-0.961c0.01-0.238,0.02-0.5,0.04-0.75c0.449-7.969,1.159-12.609,1.939-15.238
			c6.82,0.25,13.68,0.809,20.54,0.719c8.85-0.1,18.72-0.43,27.21-3.549l3.86,0.27c0,0,0.01,0.07,0.04,0.189
			C142.984,182.847,146.034,195.485,155.344,204.446z"/>
		<path fill="#FFFFFF" d="M100.14,219.745c-4.67,1.176-9.484,1.955-14.263,2.516c-5.972,0.697-14.817,2.143-20.449-0.49
			c-5.14-2.404-4.729-9.174-0.071-13.322c6.678-5.943,15.063-7.582,23.608-7.992C88.919,207.903,92.304,217.22,100.14,219.745
			C99.929,219.798,99.734,219.614,100.14,219.745z"/>
		<path fill="#84B741" d="M183.214,199.065c-2.28,0.471-4.57,0.9-6.86,1.32c-7.04,1.27-14.05,2.6-21.02,4.07
			c-9.04-8.939-12.021-21.301-12.39-22.99c3.609-1.869,7.729-4.189,12-6.689l11.79,4.279L183.214,199.065z"/>
		<path fill="none" stroke="#000000" stroke-width="2" stroke-linecap="square" stroke-miterlimit="10" d="M155.905,204.985
			c-9.75-8.99-12.911-22.109-13.291-23.85"/>
		<path d="M155.344,204.446c0.181,0.189,0.37,0.369,0.562,0.539"/>
		<path fill="none" d="M99.088,182.669"/>
		<path fill="none" stroke="#000000" stroke-width="2" stroke-miterlimit="10" d="M100.719,220.594c0,0-13.128-4.431-12.556-20.899
			c0.01-0.248,0.017-0.5,0.034-0.756c0,0,0.097-16.648,5.681-16.27"/>
	</g>
	<path d="M174.044,151.386c0,0,5.075,4.963,11.188,1.875c6.125-3.094-3.812,3.625-3.812,3.625l-3.959,1.875l-2.792-5.291"/>
	<g>
		<path fill="#EEBBAA" d="M271.855,203.417c-5.188,0-10.305-0.367-15.21-1.091c-17.863-2.641-34.74-10.295-47.521-21.554
			c-14.264-12.565-22.563-28.77-24.002-46.862c-2.066-25.896,7.43-46.154,26.739-57.041c13.785-7.779,31.487-11.891,51.193-11.891
			c2.28,0,4.613,0.055,6.934,0.164c31.432,1.471,68.703,20.487,79.124,53.986l0.027,0.112c0.005,0.005,0.013,0.026,0.021,0.056
			c0.187,0.576,0.354,1.163,0.511,1.749c0.051,0.172,0.104,0.365,0.148,0.56c0.068,0.225,0.143,0.511,0.206,0.798
			c0.09,0.327,0.184,0.711,0.265,1.085c0.086,0.356,0.167,0.722,0.247,1.097c0.138,0.685,0.268,1.361,0.387,2.037l0.045,0.079
			l0.008,0.207c0.125,0.729,0.241,1.466,0.337,2.205l0.146,1.142v0.068c0.002,0.003,0.005,0.017,0.005,0.017
			c0.079,0.744,0.148,1.487,0.208,2.24c0.093,1.208,0.149,2.401,0.17,3.55c0.069,3.805-0.205,7.702-0.815,11.58
			c-0.109,0.709-0.238,1.421-0.367,2.134c-0.268,1.419-0.572,2.809-0.906,4.137c0.002,0.012-0.025,0.127-0.059,0.239l-0.107,0.425
			c-0.142,0.537-0.283,1.076-0.443,1.604c-0.167,0.593-0.349,1.19-0.551,1.78c-0.03,0.11-0.077,0.255-0.137,0.413
			c-0.153,0.493-0.344,1.027-0.534,1.56c-0.041,0.111-0.074,0.199-0.115,0.299c-0.186,0.505-0.395,1.047-0.615,1.587
			c-0.076,0.196-0.135,0.344-0.2,0.49c-0.219,0.529-0.452,1.074-0.702,1.607c-0.229,0.516-0.475,1.038-0.74,1.561
			c-0.043,0.104-0.091,0.202-0.141,0.304l-0.045,0.091c-0.27,0.531-0.538,1.061-0.817,1.57l-0.131,0.238
			c-0.288,0.518-0.576,1.024-0.874,1.531c-0.272,0.462-0.554,0.922-0.844,1.373c-0.108,0.186-0.244,0.406-0.396,0.63
			c-0.24,0.37-0.491,0.755-0.752,1.131c-0.801,1.161-1.629,2.281-2.458,3.327c-0.348,0.443-0.707,0.881-1.068,1.309
			c-0.232,0.273-0.462,0.536-0.694,0.796c-0.291,0.336-0.594,0.68-0.904,1.015c-0.845,0.91-1.688,1.774-2.507,2.567
			C319.45,195.402,296.829,203.417,271.855,203.417z"/>
		<g>
			<path d="M263.056,65.978c2.311,0,4.609,0.056,6.887,0.163c33.141,1.551,68.368,21.628,78.216,53.284
				c0.01,0.052,0.03,0.093,0.04,0.144c0.186,0.571,0.353,1.153,0.508,1.734c0.051,0.174,0.1,0.347,0.139,0.521
				c0.078,0.266,0.146,0.53,0.205,0.795c0.098,0.357,0.187,0.725,0.265,1.082c0.088,0.367,0.167,0.725,0.245,1.092
				c0.146,0.725,0.284,1.449,0.41,2.173c0.012,0.021,0.012,0.041,0.012,0.051c0.127,0.735,0.245,1.479,0.342,2.225
				c0.049,0.356,0.089,0.724,0.138,1.081c0,0.051,0.011,0.092,0.011,0.123c0.078,0.734,0.146,1.469,0.205,2.213
				c0.088,1.143,0.146,2.307,0.167,3.489c0.067,3.683-0.187,7.488-0.804,11.406c-0.108,0.704-0.235,1.407-0.363,2.111
				c-0.254,1.347-0.548,2.704-0.892,4.071c-0.01,0.061-0.028,0.133-0.049,0.203c-0.03,0.123-0.059,0.234-0.088,0.348
				c-0.147,0.561-0.294,1.123-0.46,1.674c-0.167,0.592-0.344,1.172-0.54,1.744c-0.038,0.133-0.077,0.254-0.127,0.387
				c-0.167,0.531-0.353,1.053-0.539,1.572c-0.03,0.082-0.06,0.162-0.098,0.254c-0.196,0.531-0.401,1.063-0.617,1.592
				c-0.06,0.152-0.118,0.307-0.187,0.459c-0.225,0.541-0.451,1.072-0.695,1.592c-0.236,0.531-0.48,1.051-0.746,1.57
				c-0.048,0.123-0.107,0.236-0.166,0.357c-0.265,0.521-0.528,1.041-0.803,1.541c-0.049,0.082-0.089,0.164-0.128,0.234
				c-0.284,0.51-0.568,1.01-0.862,1.51c-0.265,0.449-0.539,0.898-0.822,1.338c-0.119,0.203-0.244,0.406-0.383,0.611
				c-0.245,0.377-0.49,0.754-0.745,1.121c-0.774,1.123-1.578,2.215-2.42,3.275c-0.344,0.439-0.695,0.867-1.049,1.285
				c-0.226,0.266-0.45,0.521-0.677,0.775c-0.293,0.338-0.588,0.674-0.891,1c-0.805,0.867-1.627,1.713-2.47,2.529
				c-15.67,15.135-39.514,21.709-61.369,21.709c-5.178,0-10.244-0.368-15.063-1.08c-34.159-5.049-67.633-29.289-70.672-67.506
				c-1.871-23.444,5.93-44.644,26.233-56.091C227.592,69.141,245.685,65.978,263.056,65.978 M263.056,63.978
				c-19.878,0-37.75,4.157-51.685,12.021c-19.669,11.089-29.344,31.684-27.244,57.992c1.459,18.355,9.875,34.792,24.337,47.532
				c12.924,11.386,29.983,19.125,48.036,21.793c4.953,0.731,10.119,1.102,15.355,1.102c25.23,0,48.104-8.117,62.759-22.271
				c0.833-0.807,1.688-1.684,2.546-2.607c0.318-0.343,0.628-0.695,0.936-1.05c0.219-0.245,0.454-0.513,0.69-0.791
				c0.372-0.44,0.74-0.888,1.1-1.348c0.835-1.052,1.676-2.189,2.491-3.372c0.263-0.379,0.52-0.772,0.775-1.167
				c0.136-0.2,0.275-0.426,0.409-0.652c0.29-0.451,0.571-0.911,0.843-1.372c0.302-0.515,0.594-1.027,0.886-1.551l0.065-0.123
				l0.034-0.063l0.013-0.021l0.021-0.039c0.285-0.519,0.559-1.057,0.833-1.598l0.051-0.103c0.053-0.107,0.104-0.215,0.151-0.324
				c0.249-0.492,0.496-1.015,0.754-1.594c0.257-0.545,0.501-1.122,0.705-1.613c0.068-0.153,0.129-0.307,0.188-0.459l0.024-0.063
				c0.21-0.513,0.419-1.053,0.618-1.594c0.04-0.098,0.073-0.186,0.105-0.274c0.202-0.563,0.389-1.087,0.561-1.63
				c0.054-0.147,0.099-0.285,0.142-0.433c0.188-0.552,0.371-1.142,0.558-1.804c0.152-0.505,0.298-1.056,0.442-1.604l0.027-0.104
				l0.084-0.335c0.028-0.1,0.053-0.2,0.072-0.294c0.333-1.33,0.637-2.72,0.903-4.131c0.133-0.735,0.263-1.456,0.374-2.178
				c0.619-3.928,0.897-7.883,0.827-11.747c-0.021-1.167-0.078-2.381-0.173-3.606c-0.058-0.73-0.124-1.448-0.199-2.165v-0.027
				l-0.011-0.088v-0.039l-0.019-0.135c-0.022-0.169-0.044-0.34-0.064-0.511c-0.023-0.191-0.048-0.383-0.073-0.571
				c-0.086-0.659-0.197-1.392-0.341-2.225c-0.011-0.082-0.025-0.159-0.043-0.232c-0.124-0.705-0.259-1.41-0.401-2.116
				c-0.086-0.403-0.168-0.777-0.26-1.161c-0.074-0.338-0.166-0.721-0.268-1.097c-0.063-0.273-0.132-0.545-0.211-0.819
				c-0.046-0.192-0.1-0.383-0.155-0.576c-0.163-0.614-0.332-1.192-0.505-1.727c-0.005-0.019-0.01-0.036-0.015-0.054l-0.005-0.021
				l-0.033-0.11c-4.801-15.431-15.589-28.923-31.197-39.017c-14.389-9.306-31.732-14.871-48.835-15.671
				C267.7,64.033,265.352,63.978,263.056,63.978L263.056,63.978z"/>
		</g>
	</g>
	<g>
		<path d="M346.79,117.354c-16.568-8.833-27.574-11.354-27.684-11.379l-0.353-0.079l-12.697-20.44l-11.712,13.391l-0.509-0.126
			c-29.99-7.499-55.878-9.072-72.313-9.072c-14.592,0-23.314,1.208-23.678,1.259l-2.155,0.308l1.363-1.697
			c4.026-5.017,9.032-9.233,14.878-12.531c13.771-7.767,31.464-11.872,51.167-11.872c2.276,0,4.593,0.054,6.887,0.162
			c35.539,1.669,67.621,22.651,78.018,51.023l0.774,2.114L346.79,117.354z"/>
		<path d="M263.098,65.615c2.257,0,4.566,0.054,6.863,0.161c35.344,1.66,67.242,22.507,77.571,50.695l0.324,0.885l-0.831-0.443
			c-16.674-8.889-27.7-11.401-27.81-11.426l-0.147-0.033l-12.943-20.836l-11.956,13.67l-0.213-0.053
			c-30.04-7.511-55.971-9.087-72.434-9.087c-14.753,0-23.658,1.251-23.748,1.264l-0.902,0.129l0.57-0.71
			c3.986-4.967,8.943-9.142,14.734-12.408C225.872,69.698,243.48,65.615,263.098,65.615 M263.098,64.615
			c-19.789,0-37.567,4.127-51.412,11.937c-5.901,3.329-10.956,7.586-15.023,12.653l-0.569,0.709l-1.586,1.975l2.507-0.358
			l0.902-0.129c0.087-0.012,9.047-1.253,23.606-1.253c16.407,0,42.251,1.571,72.191,9.057l0.215,0.053l0.592,0.146l0.401-0.459
			l11.066-12.653l12.23,19.688l0.222,0.356l0.408,0.092l0.147,0.033c0.11,0.025,11.094,2.555,27.559,11.333l0.831,0.443l2.311,1.233
			l-0.901-2.459l-0.324-0.885c-10.463-28.556-42.729-49.671-78.463-51.35C267.706,64.67,265.381,64.615,263.098,64.615
			L263.098,64.615z"/>
	</g>
	<g>
		<path fill="none" stroke="#000000" stroke-width="2" stroke-miterlimit="10" d="M347.587,116.666c0,0-5.429-1.12-21.107,6.364
			c-15.678,7.484-11.023-3.993-11.023-3.993"/>
		<g>
			<path fill="#FFFFFF" d="M339.799,172.214c-6.419,0-21.915-1.856-27.178-19.053c-4.662-15.252,2.828-23.944,7.708-27.769
				l0.166-0.13l0.204-0.052c1.479-0.378,3.279-1.072,5.352-2.065c11.883-5.668,18.014-6.514,20.611-6.514
				c0.704,0,1.064,0.067,1.129,0.08l0.558,0.115l0.186,0.538c3.983,11.526,4.394,23.844,1.222,36.612
				c0.001,0.015-0.027,0.13-0.06,0.242l-0.166,0.657c-1.597,6.061-4.124,11.728-7.515,16.856l-0.279,0.422l-0.505,0.025
				C340.849,172.198,340.365,172.214,339.799,172.214z"/>
			<path d="M346.662,117.632c0.638,0,0.927,0.06,0.927,0.06c3.705,10.722,4.479,22.831,1.196,36.044
				c-0.01,0.061-0.028,0.133-0.049,0.203c-0.03,0.123-0.059,0.234-0.088,0.348c-0.03,0.123-0.06,0.234-0.088,0.348
				c-1.627,6.172-4.155,11.67-7.379,16.547c-0.369,0.019-0.836,0.033-1.383,0.033c-5.881,0-21.12-1.675-26.222-18.346
				c-4.497-14.712,2.734-23.057,7.369-26.688c1.48-0.378,3.302-1.062,5.536-2.132C338.542,118.295,344.537,117.632,346.662,117.632
				 M346.662,115.632L346.662,115.632c-2.682,0-8.981,0.859-21.041,6.611c-2.016,0.966-3.754,1.638-5.17,1.999l-0.407,0.104
				l-0.331,0.26c-5.082,3.982-12.885,13.025-8.049,28.848c2.371,7.745,7.034,13.343,13.862,16.64
				c5.622,2.716,11.355,3.121,14.272,3.121c0.511,0,1.01-0.013,1.481-0.036l1.012-0.05l0.558-0.845
				c3.451-5.22,6.022-10.986,7.645-17.14l0.041-0.159l0.056-0.221l0.076-0.304c0.028-0.101,0.054-0.203,0.072-0.297
				c3.206-12.939,2.781-25.429-1.26-37.125l-0.372-1.075l-1.113-0.23C347.847,115.703,347.422,115.632,346.662,115.632
				L346.662,115.632z"/>
		</g>
		<g>
			<path fill="#84B741" d="M348.785,153.735c-0.01,0.061-0.028,0.133-0.049,0.203c-0.03,0.123-0.059,0.234-0.088,0.348
				c-0.03,0.123-0.06,0.234-0.088,0.348c-1.313,4.988-3.224,9.539-5.615,13.68c-5.429-1.143-16.629-2.264-23.489-17.395
				c-6.858-15.129,5.812-26.311,5.812-26.311c0.393-0.174,0.794-0.357,1.215-0.561c15.679-7.479,21.106-6.356,21.106-6.356
				C351.294,128.413,352.068,140.522,348.785,153.735z"/>
		</g>
		<g>
			<path d="M339.559,160.04c-8.265,0-14.049-6.275-15.873-17.22c-2.585-15.475,11.216-22.681,11.804-22.98
				c6.213-2.245,9.666-2.574,11.18-2.574c0.649,0,0.957,0.059,0.989,0.065l0.196,0.04l0.066,0.195
				c3.943,11.413,4.35,23.612,1.206,36.261c-0.005,0.041-0.028,0.129-0.052,0.215l-0.174,0.688c-0.3,1.131-0.629,2.236-0.979,3.289
				l-0.052,0.156l-0.149,0.063C344.888,159.435,342.142,160.04,339.559,160.04z"/>
		</g>
		<path fill="#FFFFFF" d="M350.756,140.809c-1.216,1.47-2.843,2.367-4.646,2.367c-3.802,0-6.869-4.02-6.869-8.978
			s3.067-8.978,6.869-8.978c1.422,0,2.734,0.561,3.832,1.52C350.735,131.229,351.03,135.922,350.756,140.809z"/>
	</g>
	<g>
		<g>
			<path fill="#FFFFFF" d="M239.271,161.948c-45.101,0-53.082-33.139-54.224-39.782l-0.021-0.118l0.008-0.119
				c0.91-13.347,5.192-24.618,12.729-33.501l0.3-0.353h44.057l0.107-0.107l0.559,0.127c7.444,1.855,14.608,6.325,21.292,13.284
				c11.673,12.153,20.803,18.465,27.136,18.761l0.923,0.043l0.029,0.924c0.112,3.486-1.807,15.748-11.745,26.009
				C270.889,156.958,257.044,161.948,239.271,161.948z"/>
			<path d="M242.544,89.065c5.889,1.468,13.17,5.049,20.813,13.007c12.71,13.231,21.695,18.781,27.811,19.067
				c0.187,5.835-6.027,39.809-51.896,39.809c-44.164,0-52.053-32.055-53.238-38.951c0.853-12.508,4.852-23.914,12.494-32.922h44.008
				L242.544,89.065 M241.93,86.851l-0.224,0.224h-43.18h-0.926l-0.6,0.706c-7.678,9.05-12.04,20.516-12.964,34.08l-0.017,0.239
				l0.041,0.236c1.165,6.782,9.307,40.612,55.209,40.612c18.055,0,32.142-5.093,41.868-15.136
				c10.18-10.51,12.143-23.141,12.027-26.737l-0.059-1.848l-1.847-0.086c-4.172-0.195-12.149-3.555-26.462-18.455
				c-6.815-7.097-14.141-11.66-21.771-13.562L241.93,86.851L241.93,86.851z"/>
		</g>
		<path fill="none" stroke="#000000" stroke-width="2" stroke-linecap="round" stroke-miterlimit="10" d="M228.815,89.075
			c0,0,16.229-6.063,34.541,13.002c18.313,19.064,29.563,21.055,34.952,15.443"/>
		<g>
			<path fill="#84B741" d="M240.065,160.938c-8.761-3.428-18.481-6.326-25.008-13.764c-7.329-8.365-11.327-23.005-9.662-34.136
				c1.773-11.915,11.484-19.996,22.02-23.964h15.119l0.01-0.01c5.889,1.468,13.17,5.049,20.813,13.007
				c12.71,13.231,21.695,18.781,27.811,19.067C291.354,126.944,285.209,160.55,240.065,160.938z"/>
		</g>
		<g>
			<path d="M265.521,153.233c-13.841,0-26.599-5.571-33.296-14.537c-4.533-6.071-5.959-13.253-4.124-20.77
				c3.972-16.277,17.878-22.078,25.814-24.088l0.145-0.036l0.126,0.083c3.219,2.102,6.387,4.769,9.42,7.928
				c11.792,12.275,21.07,18.655,27.576,18.959l0.326,0.016l0.01,0.339c0.13,3.983-2.699,21.014-18.881,31.573l-0.064,0.043
				l-0.075,0.01C270.199,153.071,267.853,153.233,265.521,153.233z"/>
		</g>
		<path fill="#FFFFFF" d="M291.167,121.14c0.029,0.785-0.069,2.07-0.354,3.724c-1.361,4.336-5.663,7.499-10.76,7.499
			c-6.192,0-11.199-4.663-11.199-10.407c0-3.978,2.391-7.437,5.918-9.19C281.691,118.396,287.071,120.946,291.167,121.14z"/>
	</g>
	<g>
		<g>
			<path d="M139.82,188.526c-11.196,0-18.924-4.804-21.2-13.179c-2.859-10.516,7.601-22.794,23.813-27.953
				c5.033-1.602,9.738-2.414,13.987-2.414c10.446,0,18.029,5.093,20.283,13.624c2.854,10.793-7.843,23.333-23.844,27.955
				C148.341,187.864,143.954,188.526,139.82,188.526L139.82,188.526z"/>
			<path d="M156.42,145.98c10.781,0,17.332,5.371,19.316,12.88c2.72,10.287-7.649,22.26-23.154,26.738
				c-4.43,1.279-8.76,1.928-12.762,1.928c-10.006,0-17.956-4.056-20.235-12.441c-2.791-10.266,7.762-21.84,23.151-26.737
				C147.866,146.715,152.432,145.98,156.42,145.98 M156.42,143.98c-4.352,0-9.159,0.828-14.29,2.461
				c-7.867,2.503-14.717,6.744-19.289,11.94c-4.861,5.527-6.703,11.646-5.186,17.228c2.404,8.845,10.482,13.917,22.165,13.917
				c4.227,0,8.707-0.675,13.316-2.006c7.866-2.272,14.745-6.464,19.368-11.804c4.82-5.565,6.654-11.733,5.165-17.367
				C175.293,149.352,167.349,143.98,156.42,143.98L156.42,143.98z"/>
		</g>
		<g>
			<path fill="#FFFFFF" d="M155.494,184.646c-0.95,0.35-1.92,0.66-2.91,0.951c-14.47,4.18-27.88,1.629-32.2-8.25
				c0,0,7.82-8.701,27.3-8.951C148.594,173.825,150.844,179.546,155.494,184.646z"/>
		</g>
		<g>
			<path fill="#FFFFFF" d="M155.494,184.646c-4.65-5.1-6.9-10.82-7.811-16.25c-1.949-11.58,2.181-21.82,2.181-21.82
				c14.699-2.539,23.51,3.36,25.87,12.281C178.284,168.485,169.354,179.597,155.494,184.646z"/>
		</g>
		<path fill="none" stroke="#000000" stroke-width="2" stroke-linecap="square" stroke-miterlimit="10" d="M149.866,146.578
			c0,0-8.924,22.083,5.627,38.071"/>
	</g>
	<path fill="none" d="M347.204,116.606c0,0-0.01,0-0.01-0.011"/>
	<path fill="none" stroke="#000000" stroke-width="2" stroke-linecap="round" stroke-miterlimit="10" d="M268.854,174.776
		c0,0,8.689-10.285,19.189-6.463s3.479,12.363,3.479,12.363"/>
</g>
</svg>
