<?xml version="1.0" encoding="UTF-8"?>
<svg width="883px" height="709px" viewBox="0 0 883 709" version="1.1" xmlns="http://www.w3.org/2000/svg" xmlns:xlink="http://www.w3.org/1999/xlink">
    <!-- Generator: Sketch 52.6 (67491) - http://www.bohemiancoding.com/sketch -->
    <title>Group 12 Copy</title>
    <desc>Created with Sketch.</desc>
    <defs>
        <polygon id="path-1" points="0 0.0844226872 150.858743 0.0844226872 150.858743 238.726415 0 238.726415"></polygon>
    </defs>
    <g id="Page-2" stroke="none" stroke-width="1" fill="none" fill-rule="evenodd">
        <g id="Desktop-HD" transform="translate(-1037.000000, -4591.000000)">
            <g id="Group-12-Copy" transform="translate(1037.000000, 4591.000000)">
                <g id="Oval_5_" opacity="0.11" transform="translate(0.000000, 620.000000)" fill="#231F20">
                    <ellipse id="Oval" cx="441" cy="44.5" rx="441" ry="44.5"></ellipse>
                </g>
                <polygon id="Rectangle-path_11_" fill="#959D9E" points="111 212 883 212 883 665 111 665"></polygon>
                <polygon id="Shape_14_" fill="#000000" opacity="0.1" points="883 212 111 212 111 259 883 306"></polygon>
                <g id="Group_4_" transform="translate(564.000000, 559.000000)">
                    <polygon id="Rectangle-path_42_" fill="#5C6566" points="0.00952380952 0 50.4857143 0 50.4857143 105.495238 0.00952380952 105.495238"></polygon>
                    <polygon id="Rectangle-path_43_" fill="#A19E97" points="37.8666667 41.8952381 45.4380952 41.8952381 45.4380952 60.0666667 37.8666667 60.0666667"></polygon>
                    <polygon id="Rectangle-path_44_" fill="#5C6566" points="53.5142857 0 103.990476 0 103.990476 105.495238 53.5142857 105.495238"></polygon>
                    <polygon id="Rectangle-path_45_" fill="#A19E97" points="58.5619048 41.8952381 66.1333333 41.8952381 66.1333333 60.0666667 58.5619048 60.0666667"></polygon>
                </g>
                <polygon id="Rectangle-path_51_" fill="#000000" opacity="0.1" points="111 657 882 657 882 665 111 665"></polygon>
                <rect id="Rectangle" fill="#616060" x="79" y="212" width="804" height="53"></rect>
                <g id="Group-14" transform="translate(184.000000, 0.000000)">
                    <g id="Group-3">
                        <mask id="mask-2" fill="white">
                            <use xlink:href="#path-1"></use>
                        </mask>
                        <g id="Clip-2"></g>
                        <path d="M17.5645478,134.880031 C15.7344109,136.065793 14.3231092,136.979599 12.8143746,137.956366 C14.4205422,139.044626 15.7563439,139.949688 17.0824444,140.848191 C17.2355534,138.958493 17.3768522,137.208269 17.5645478,134.880031 M58.936017,225.771834 C56.2057852,228.971468 56.1598103,229.233367 57.6457684,231.315009 C59.657274,230.327749 61.6025589,229.37328 63.7384919,228.325245 C62.059355,227.432426 60.4848215,226.595134 58.936017,225.771834 M137.698123,226.411062 C135.279592,222.645655 132.836598,218.774002 130.297858,214.970994 C129.945243,214.442823 129.102933,213.925145 128.521288,213.963184 C126.222545,214.112716 123.926754,214.420087 121.655428,214.826272 C121.161936,214.914155 120.538112,215.573494 120.379942,216.100791 C119.519073,218.971629 120.436461,220.682939 123.760992,222.030476 C125.90747,222.900559 128.183436,223.428293 130.667766,224.191693 C129.856246,224.874643 129.181808,225.441727 128.491341,226.022366 C130.02243,227.507629 131.376369,228.821062 132.494106,229.905387 C134.355456,228.655789 136.01983,227.538235 137.698123,226.411062 M83.4300729,107.618436 C87.7086874,110.587214 88.2127237,113.176477 85.9856846,117.242259 C84.5516064,119.859505 82.1301232,120.638645 79.6145813,121.395486 C79.1691735,121.529715 78.8321651,122.049142 78.4445422,122.391054 C78.8536763,122.714166 79.315112,123.366072 79.6618215,123.305298 C81.339693,123.012792 83.070288,122.732529 84.619936,122.052203 C85.9785142,121.455824 87.1228243,120.334334 88.3616148,119.445013 C88.3957796,119.991548 88.2646036,120.392923 88.003517,120.654822 C86.0514835,122.612292 84.0496791,124.517731 82.1263271,126.505368 C81.7829919,126.860397 81.7332209,127.520612 81.5476344,128.039601 C82.1077684,128.166834 82.7231567,128.506998 83.2149612,128.369708 C83.8999444,128.179077 84.4929779,127.63123 85.1788047,127.202747 C85.2821427,128.966524 86.2834668,128.926299 87.1072182,128.199189 C88.8032265,126.702558 90.4920645,125.139469 91.8974612,123.360388 C94.1970478,120.450637 96.3000813,117.369929 98.4043802,114.301901 C98.7768187,113.75799 99.0809277,112.766357 98.8523187,112.250428 C98.0370031,110.410573 97.1153969,108.580775 95.9550589,106.962157 C95.3573858,106.129238 94.0768383,105.142415 93.2640534,105.274895 C90.1111902,105.787763 87.0224388,106.721682 83.4300729,107.618436 M63.823693,37.2387411 C62.9974109,37.971535 62.3921455,38.5784073 61.7202377,39.0904011 C60.235545,40.2215096 59.5994891,41.4544922 60.1861958,43.5217056 C61.0533913,46.5770539 61.1069584,49.666506 60.4687936,52.9277886 C59.9242656,55.7085579 60.9926539,58.75385 59.8394863,61.5932077 C59.7648299,61.7768434 59.8040561,62.0339334 59.850031,62.2420539 C60.5438718,65.3830989 61.0555003,68.5114643 59.8196623,71.6581932 C59.6492601,72.0910488 59.8006818,72.6629429 59.8171316,73.1696899 C59.9715059,77.8891275 60.1748075,82.6072534 60.2684444,87.3275655 C60.3245422,90.1608021 60.1541399,92.9984109 60.1988494,95.8320847 C60.2178299,97.037522 60.3342433,98.1953013 61.8935925,98.6937411 C63.7941679,99.3019251 65.7010701,100.10555 67.3806288,101.195996 C71.2134137,103.683823 75.1305561,105.916745 79.5922265,106.89701 C80.4320059,107.081521 81.417302,107.093763 82.2203858,106.82137 C84.9877349,105.88133 87.7044696,104.782139 90.4389193,103.738476 C90.9467517,103.544784 91.6747573,103.482261 91.9147545,103.099249 C94.5095925,98.9591384 97.3351483,94.8627505 97.6666735,89.7257603 C97.9610813,85.160227 98.0812908,80.5737066 98.0551399,75.9976798 C98.0230841,70.2581896 98.2786874,64.4413101 97.4810869,58.7993217 C96.2756176,50.2768761 92.611126,42.6210161 87.9663997,35.4832712 C86.4475422,33.1484744 84.2373746,32.5175546 81.4008522,32.0610887 C85.7587628,40.2516783 88.9635059,48.2240913 82.3667461,56.9362937 C79.9853327,54.4795103 77.6515813,52.1079864 75.3578997,49.6949258 C72.9866092,47.2005408 71.2699332,43.9576217 67.5518746,43.0538717 C66.7057684,42.8483746 65.9743885,41.6578032 65.4201595,40.7667328 C64.7815729,39.740559 64.3977461,38.5438663 63.823693,37.2387411 M101.848277,116.889853 C104.505118,121.035211 107.178408,125.1692 109.808676,129.332484 C110.562833,130.526116 111.263,131.769155 111.869109,133.049358 C114.959548,139.573235 117.467497,146.487994 121.290581,152.50731 C123.424405,155.866969 124.724355,158.870287 124.904458,162.769922 C125.01328,165.12352 125.712604,167.503788 126.462964,169.758572 C128.617877,176.238289 128.84269,183.025378 129.703137,189.716713 C130.675358,197.27682 131.741215,204.82381 132.752241,212.37867 C132.818039,212.871863 132.760676,213.382983 132.760676,213.964933 C132.305989,214.032703 131.86269,214.099162 131.197531,214.198413 C134.090995,218.450891 136.490545,222.913239 139.764461,226.524741 C142.978484,230.069347 147.079947,232.748679 150.858743,235.862616 C150.289752,237.458498 149.340308,238.386733 147.45576,238.244634 C145.287349,238.080236 143.095741,238.056626 140.923956,238.168993 C136.997112,238.372741 134.072014,236.276234 131.446386,233.718888 C129.367816,231.693649 127.638908,231.217945 125.103542,232.504706 C124.550578,232.785407 123.780394,232.840935 123.169224,232.708892 C122.147654,232.487654 121.16995,232.042119 120.180014,231.672662 C116.783358,230.404701 116.483045,229.965724 116.856327,226.254971 C117.08114,224.015927 117.531187,221.799182 117.705808,219.557952 C117.848794,217.716348 117.734911,215.85332 117.734911,213.878799 C115.274623,213.674177 112.982629,213.483545 110.502517,213.277611 C109.506676,207.717821 108.54247,202.158032 107.509933,196.612233 C105.994028,188.472362 104.789403,180.242859 102.736562,172.248585 C101.67914,168.131647 99.4023299,164.215835 97.093464,160.610891 C93.4584975,154.934799 89.3469109,149.585316 85.3918075,144.132647 C84.8658383,143.407286 84.0741427,142.888734 83.0605869,141.957876 C83.5688411,146.316163 84.0889053,150.207054 84.4583913,154.11281 C84.7654528,157.364474 84.7055589,160.661172 85.1408439,163.8901 C86.3290198,172.700679 83.5127433,180.90045 81.5391986,189.169304 C78.5584249,201.659155 75.1200115,214.033141 71.7752349,226.427676 C71.3648355,227.950104 70.3335645,229.293268 69.3537517,231.17291 C69.8071735,233.06567 70.4381679,235.702154 71.149302,238.670056 C66.4708327,238.872493 62.1913746,238.639013 58.6753522,236.144628 C54.1571623,232.939311 53.6775897,227.061219 56.4002293,222.276198 C57.2716427,220.745463 56.7119304,218.338086 56.8000841,216.331647 C56.8245478,215.775931 56.7503131,215.2036 56.8485897,214.66406 C57.5167014,210.982165 58.5116986,207.335247 58.8512377,203.623182 C59.6180478,195.234528 60.3861232,186.820953 60.5329053,178.405628 C60.6324472,172.696744 59.8356902,166.948072 59.1523941,161.254053 C58.4429472,155.344919 57.4180031,149.475134 56.472355,143.597917 C55.9624137,140.428453 55.4925422,140.087415 52.2975003,140.053311 C49.3209444,140.021831 47.9450729,138.626637 47.9665841,135.571726 C48.0378662,125.459957 48.080045,115.371798 49.1075198,105.268774 C49.7954556,98.5079193 49.1724751,91.6019051 49.0763075,84.7614751 C49.0687154,84.2341783 48.5849249,83.7147516 48.1070394,82.7611577 C47.2925673,84.3316802 46.6337349,85.4304338 46.1296986,86.60133 C42.6136763,94.7643743 38.9854584,102.880198 35.690031,111.137683 C33.7662573,115.957246 32.3617042,121.001107 30.7867489,125.965392 C30.3240478,127.421798 29.5614556,128.010307 28.1231595,127.518863 C27.9907182,127.473828 27.8511064,127.443222 27.7123383,127.424421 C24.0474249,126.925982 23.9972321,127.013864 22.9908466,130.681769 C21.9891008,134.333059 21.029112,137.955929 21.2906204,141.832391 C21.3429221,142.608908 20.719098,143.83096 20.0826204,144.148387 C19.4537349,144.462317 18.4136064,143.890423 17.0655729,143.603164 C15.7377852,144.617533 14.8845087,144.395858 9.97743045,141.223333 C8.94405056,143.061439 7.90307849,144.912662 6.86210642,146.764322 C6.70984106,146.533903 6.55673212,146.303921 6.40446676,146.073939 C5.61825447,145.910853 4.82149749,145.788429 4.0487824,145.574625 C3.28492486,145.363006 2.54468743,145.058696 1.79348352,144.795047 C2.12922654,144.165002 2.45442486,143.528835 2.80282151,142.907097 C3.78389972,141.156 4.81263994,139.432448 5.74605615,137.655554 C6.23701704,136.722072 6.56896397,135.698959 7.07637458,134.462916 C5.42465391,135.273536 3.98931034,136.136187 2.44809804,136.663921 C1.73991648,136.906582 0.822528212,136.492527 -0.000379608939,136.376662 C0.426047765,135.666604 0.704005866,134.758919 1.30210084,134.278405 C5.00328799,131.304819 8.77617905,128.427859 12.5781735,125.477883 C10.5687768,123.48631 10.5152098,122.268193 12.0374416,120.511849 C12.3567349,120.142829 12.7941288,119.714345 12.8325115,119.280178 C13.0606986,116.720646 14.2598411,114.795532 16.1844584,113.265671 C18.8644975,111.134623 19.4465645,107.788518 20.7456707,104.838104 C24.6501595,95.9680626 28.7942237,87.2077651 32.5384332,78.2664552 C34.2567964,74.1626344 35.2678215,69.7392001 36.5812684,65.4552415 C37.2194332,63.3749113 37.8360869,61.2880227 38.4261679,59.1928267 C40.1917712,52.9277886 45.2835925,49.6385234 49.6545785,45.7152778 C51.2957545,44.2431315 53.0980534,42.9638028 54.7337461,41.4855354 C56.1231148,40.2298169 57.5120617,39.3090151 59.4202293,38.8612937 C60.7986316,38.5381823 61.9054025,36.9707204 62.8274304,36.2108184 C61.6021372,33.58133 60.5750841,31.2535288 59.4219165,28.9952469 C59.1629388,28.4876254 58.4762684,28.2021156 57.9646399,27.847961 C55.0243578,25.8131025 51.614626,24.430588 49.9877908,20.711965 C48.4765254,17.2569904 48.9468187,15.6860307 52.4202405,14.3489878 C53.5362908,13.9191929 54.6730087,13.3608529 55.8303941,13.2694722 C58.105517,13.0888971 58.868531,11.7002614 59.2236763,9.64703937 C59.7901372,6.3682676 60.9732517,3.35664205 63.4191986,1.07168922 C63.9649919,0.561444303 64.8380925,0.00222986212 65.4758355,0.0944849419 C69.1542461,0.624405116 72.8073494,1.34014713 76.4672014,2.00298458 C77.0893383,2.11578937 77.6971344,2.32216092 78.321802,2.40916927 C83.8763243,3.180002 83.8063075,4.43134815 84.2466539,10.1909508 C84.3883746,12.0443598 84.0104528,13.9401798 83.8872908,15.5859055 C85.903436,16.9832857 87.8790897,18.1065241 89.5696148,19.5808565 C92.2281427,21.8994759 91.6566204,24.6859291 88.4345841,25.9280934 C88.106855,26.0544523 87.7782824,26.1812484 87.4556148,26.3220357 C85.3298047,27.251145 83.2048383,28.1846265 80.995936,29.6510887 C82.5481148,29.9304773 84.091436,30.3060561 85.6550031,30.4700165 C89.487788,30.8731406 93.3252126,31.2583384 97.1698075,31.5044976 C102.960109,31.8757041 105.980109,35.8745902 107.705643,40.8008365 C110.465822,48.6823061 111.927738,56.9240513 112.281618,65.331506 C112.575182,72.3109744 113.08681,79.3000619 112.958165,86.2742836 C112.829942,93.2419468 112.042886,100.197805 111.489078,107.1541 C111.441416,107.749605 111.014146,108.334178 110.694852,108.880713 C110.222872,109.687836 109.42021,110.39221 109.228718,111.252674 C108.383034,115.049998 106.2045,116.777048 102.248553,116.07486 C102.115268,116.346379 101.981984,116.618335 101.848277,116.889853" id="Fill-1" fill="#000000" mask="url(#mask-2)"></path>
                    </g>
                    <path d="M64.3672149,35.4644133 C64.9248407,36.8103133 65.2976838,38.0443932 65.9179964,39.1026269 C66.4567752,40.0215362 67.166816,41.2493036 67.9887097,41.4612209 C71.6003713,42.393206 73.2683321,45.7374407 75.5713553,48.3097556 C77.7994002,50.7982053 80.0663683,53.2438207 82.3796345,55.7773592 C88.7880291,46.7929691 85.6745843,38.571481 81.4413809,30.125 C84.1967325,30.5957269 86.3436533,31.2463579 87.8190467,33.6540988 C92.3308581,41.014842 95.8904855,48.9098873 97.0614588,57.6985921 C97.8362349,63.5168482 97.587946,69.5154594 97.6190846,75.4342635 C97.6444871,80.1532551 97.5281272,84.8830681 97.2417345,89.5907876 C96.9196964,94.8882682 94.1749975,99.1130869 91.6548239,103.382543 C91.4212848,103.777521 90.714112,103.841998 90.2212216,104.041741 C87.564612,105.118011 84.9256203,106.251542 82.2374624,107.220951 C81.4573599,107.501854 80.5002593,107.489229 79.6845114,107.298955 C75.3509272,106.288064 71.5458789,103.98538 67.8227741,101.419829 C66.1908684,100.295315 64.3389444,99.4665829 62.4923467,98.839398 C60.9780301,98.3253859 60.8645383,97.131435 60.846101,95.8883374 C60.8026709,92.9661336 60.9681968,90.0398718 60.9137044,87.1181189 C60.8231568,82.2503343 60.6252631,77.3848041 60.4753064,72.5179213 C60.4593274,71.9953423 60.3126485,71.4051302 60.4777647,70.9592021 C61.6786473,67.7141627 61.1816598,64.4880605 60.5072644,61.2488826 C60.4626052,61.0338091 60.4245014,60.769138 60.4970215,60.5797651 C61.6171897,57.6516998 60.5793747,54.5112663 61.1083203,51.64362 C61.7286329,48.2804479 61.6765987,45.0940239 60.8338094,41.9436708 C60.2638921,39.8118734 60.8817464,38.5403698 62.3239527,37.3739231 C62.976633,36.8454826 63.5645779,36.2201012 64.3672149,35.4644133" id="Fill-4" fill="#FFFFFF"></path>
                    <path d="M81.373047,107.963848 C85.6049201,107.001614 89.2435261,106.00046 92.9571601,105.450411 C93.9151325,105.308327 95.4231442,106.36669 96.1272142,107.259992 C97.4946105,108.995482 98.5802796,110.958401 99.5402395,112.931636 C99.809545,113.484499 99.451796,114.548489 99.0130565,115.131362 C96.5341537,118.422276 94.0562446,121.72632 91.3477862,124.847014 C89.6922031,126.7546 87.7027208,128.431006 85.7047917,130.036135 C84.7343974,130.815957 83.5548193,130.859098 83.4330853,128.967924 C82.6251686,129.427002 81.9265642,130.014564 81.1196414,130.219485 C80.5402867,130.366258 79.815348,130.001903 79.1554997,129.865446 C79.3741241,129.308833 79.4327552,128.600756 79.8372104,128.219521 C82.1029544,126.087789 84.4611169,124.044684 86.7606483,121.944839 C87.0682131,121.664422 87.222244,121.233949 87.1819972,120.647793 C85.7231761,121.601586 84.3751578,122.803909 82.7747276,123.443991 C80.9487168,124.173169 78.910541,124.474219 76.9334806,124.787929 C76.5255473,124.85311 75.9814706,124.153474 75.5,123.806939 C75.9566269,123.440709 76.3531321,122.883157 76.8783276,122.739666 C79.8416823,121.927488 82.6942341,121.092334 84.3836046,118.28535 C87.0070977,113.924819 86.4133336,111.147847 81.373047,107.963848" id="Fill-6" fill="#FFFFFF"></path>
                    <path d="M140.933333,227.657237 C139.015948,228.72208 137.113983,229.777836 134.987946,230.958333 C133.710975,229.934382 132.164152,228.693166 130.414942,227.290035 C131.203773,226.741505 131.973811,226.205778 132.901423,225.560594 C130.062691,224.839822 127.462969,224.34127 125.010702,223.518887 C121.212073,222.245867 120.163992,220.629189 121.147501,217.917101 C121.328205,217.418963 122.041381,216.796083 122.605176,216.71306 C125.200079,216.329337 127.822931,216.038962 130.449155,215.897699 C131.113662,215.861764 132.075969,216.350815 132.478817,216.84978 C135.37923,220.44249 138.170256,224.100462 140.933333,227.657237" id="Fill-8" fill="#FFFFFF"></path>
                    <path d="M58.6138147,226 C59.7166139,226.745719 60.8377331,227.504111 62.0333333,228.312799 C60.5124794,229.262076 59.1273732,230.126604 57.6951156,231.020833 C56.637065,229.135348 56.6698006,228.898127 58.6138147,226" id="Fill-10" fill="#FFFFFF"></path>
                    <path d="M18.0333333,135 C17.8344492,136.958677 17.6847274,138.431087 17.5224916,140.020833 C16.1173415,139.26495 14.701912,138.503549 13,137.588028 C14.598671,136.766303 16.0941011,135.997546 18.0333333,135" id="Fill-12" fill="#FFFFFF"></path>
                </g>
                <rect id="Rectangle" fill="#83DEE8" x="152" y="330" width="731" height="196"></rect>
            </g>
        </g>
    </g>
</svg>