<?xml version="1.0" encoding="UTF-8"?>
<svg width="913px" height="731px" viewBox="0 0 913 731" version="1.1" xmlns="http://www.w3.org/2000/svg" xmlns:xlink="http://www.w3.org/1999/xlink">
    <!-- Generator: Sketch 52.6 (67491) - http://www.bohemiancoding.com/sketch -->
    <title>design</title>
    <desc>Created with Sketch.</desc>
    <g id="Page-2" stroke="none" stroke-width="1" fill="none" fill-rule="evenodd">
        <g id="Desktop-HD" transform="translate(-47.000000, -2700.000000)">
            <g id="design" transform="translate(47.000000, 2700.000000)">
                <ellipse id="Oval" fill="#231F20" opacity="0.2" cx="456.5" cy="700.5" rx="456.5" ry="30.5"></ellipse>
                <polygon id="Path-Copy-3" fill="#D7C17D" points="244 0.253242831 792 0.253242831 723 115 723 333 175 333 175 109"></polygon>
                <path d="M621.678289,147 C611.491447,228.104651 542.002632,291.546512 434.313158,291.546512 C326.623684,291.546512 237.488816,228.104651 227.301974,147 L168,147 L168,705 L721,705 L721,147 L621.678289,147 Z" id="Path" fill="#012A13"></path>
                <polygon id="Path" fill="#D7C17D" points="81 147 174.800176 110.769231 634 102 634 417 86 417"></polygon>
                <path d="M312.347059,27 L317.011765,27 C323.470588,27 328.852941,31.7643979 329.929412,38.3612565 L345,97 L284,97 L299.070588,38.3612565 C300.505882,31.7643979 305.888235,27 312.347059,27 Z" id="Path" fill="#F8E71C"></path>
                <polygon id="Path" fill="#F8E71C" points="279 91 350 91 350 350 279 350"></polygon>
                <polygon id="Path" fill="#FFE36C" points="279 112 350 112 350 330 279 330"></polygon>
                <path d="M279,291.994264 L350,291.994264 L350,300.621415 L279,300.621415 L279,291.994264 Z M279,306.372849 L350,306.372849 L350,315 L279,315 L279,306.372849 Z M279,127 L350,127 L350,135.627151 L279,135.627151 L279,127 Z M279,141.378585 L350,141.378585 L350,150.005736 L279,150.005736 L279,141.378585 Z M302.666667,183.435946 L326.333333,183.435946 C333.39801,183.435946 339.049751,189.18738 339.049751,196.376673 L339.049751,259.642447 C339.049751,266.83174 333.39801,272.583174 326.333333,272.583174 L302.666667,272.583174 C295.60199,272.583174 289.950249,266.83174 289.950249,259.642447 L289.950249,196.376673 C289.950249,189.18738 295.60199,183.435946 302.666667,183.435946 Z" id="Shape" fill="#F8E71C" fill-rule="nonzero"></path>
                <path d="M576.347059,27 L581.011765,27 C587.470588,27 592.852941,31.7643979 593.929412,38.3612565 L609,97 L548,97 L563.070588,38.3612565 C564.505882,31.7643979 569.888235,27 576.347059,27 Z" id="Path" fill="#25006F"></path>
                <polygon id="Path" fill="#25006F" points="612.848434 350 542 349.956841 542.151566 91 613 91.0431595"></polygon>
                <polygon id="Path" fill="#9575CD" points="612.876583 330 542 329.956697 542.123417 112 613 112.043303"></polygon>
                <path d="M612.8063,300.342774 L542.017609,300.299718 L542.024653,291.688373 L612.813343,291.73143 L612.8063,300.342774 Z M612.78869,315 L542,314.956943 L542.007044,306.345599 L612.795734,306.388656 L612.78869,315 Z M613,135.654401 L542.21131,135.611344 L542.21131,127 L613,127.060997 L613,135.654401 Z M612.982391,150.311627 L542.1937,150.275746 L542.1937,141.664402 L612.982391,141.700282 L612.982391,150.311627 Z M565.966022,183.185434 L589.562252,183.185434 C596.605903,183.185434 602.240823,188.92633 602.240823,196.102451 L602.240823,259.252309 C602.240823,266.42843 596.605903,272.169326 589.562252,272.169326 L565.966022,272.169326 C558.922371,272.169326 553.28745,266.42843 553.28745,259.252309 L553.28745,196.102451 C552.935268,188.92633 558.922371,183.185434 565.966022,183.185434 Z" id="Shape" fill="#25006F" fill-rule="nonzero"></path>
                <path d="M494.347059,27 L499.011765,27 C505.470588,27 510.852941,31.7643979 511.929412,38.3612565 L527,97 L466,97 L481.070588,38.3612565 C482.505882,31.7643979 487.888235,27 494.347059,27 Z" id="Path" fill="#4A90E2"></path>
                <polygon id="Path" fill="#4A90E2" points="532.648515 350 462 349.899317 462.351485 91 533 91.1006831"></polygon>
                <polygon id="Path" fill="#4AD0FF" points="532.708022 330 462 329.898987 462.291978 112 533 112.101013"></polygon>
                <path d="M532.89424,300.343941 L462.035253,300.243508 L462.049355,291.634957 L532.908342,291.73539 L532.89424,300.343941 Z M532.858987,315 L462,314.899567 L462.007051,306.291016 L532.866038,306.387862 L532.858987,315 Z M532.989424,135.708984 L462.130437,135.608551 L462.141013,127 L533,127.100433 L532.989424,135.708984 Z M532.94712,150.361456 L462.088133,150.26461 L462.102234,141.656059 L532.961221,141.752905 L532.94712,150.361456 Z M485.707795,183.253296 L509.327458,183.253296 C516.378103,183.253296 522.01862,188.99233 522.01862,196.166123 L522.01862,259.295499 C522.01862,266.469292 516.378103,272.208326 509.327458,272.208326 L485.707795,272.208326 C478.65715,272.208326 473.016634,266.469292 473.016634,259.295499 L473.016634,196.166123 C473.016634,188.99233 479.009682,183.253296 485.707795,183.253296 Z" id="Shape" fill="#4A90E2" fill-rule="nonzero"></path>
                <path d="M403.347059,27 L408.011765,27 C414.470588,27 419.852941,31.7643979 420.929412,38.3612565 L436,97 L375,97 L390.070588,38.3612565 C391.505882,31.7643979 396.888235,27 403.347059,27 Z" id="Path" fill="#417505"></path>
                <polygon id="Path" fill="#417505" points="370 91 441 91 441 350 370 350"></polygon>
                <polygon id="Path" fill="#9DCE2E" points="370 112 441 112 441 330 370 330"></polygon>
                <path d="M370,291.994264 L441,291.994264 L441,300.621415 L370,300.621415 L370,291.994264 Z M370,306.372849 L441,306.372849 L441,315 L370,315 L370,306.372849 Z M370,127 L441,127 L441,135.627151 L370,135.627151 L370,127 Z M370,141.378585 L441,141.378585 L441,150.005736 L370,150.005736 L370,141.378585 Z M393.666667,183.435946 L417.333333,183.435946 C424.39801,183.435946 430.049751,189.18738 430.049751,196.376673 L430.049751,259.642447 C430.049751,266.83174 424.39801,272.583174 417.333333,272.583174 L393.666667,272.583174 C386.60199,272.583174 380.950249,266.83174 380.950249,259.642447 L380.950249,196.376673 C380.950249,189.18738 386.60199,183.435946 393.666667,183.435946 Z" id="Shape" fill="#417505" fill-rule="nonzero"></path>
                <path d="M134.347059,27 L139.011765,27 C145.470588,27 150.852941,31.7643979 151.929412,38.3612565 L167,97 L106,97 L121.070588,38.3612565 C122.505882,31.7643979 127.888235,27 134.347059,27 Z" id="Path" fill="#D0021B"></path>
                <polygon id="Path" fill="#D0021B" points="102 91 173 91 173 350 102 350"></polygon>
                <polygon id="Path" fill="#FF2943" points="102 112 173 112 173 330 102 330"></polygon>
                <path d="M102,291.994264 L173,291.994264 L173,300.621415 L102,300.621415 L102,291.994264 Z M102,306.372849 L173,306.372849 L173,315 L102,315 L102,306.372849 Z M102,127 L173,127 L173,135.627151 L102,135.627151 L102,127 Z M102,141.378585 L173,141.378585 L173,150.005736 L102,150.005736 L102,141.378585 Z M125.666667,183.435946 L149.333333,183.435946 C156.39801,183.435946 162.049751,189.18738 162.049751,196.376673 L162.049751,259.642447 C162.049751,266.83174 156.39801,272.583174 149.333333,272.583174 L125.666667,272.583174 C118.60199,272.583174 112.950249,266.83174 112.950249,259.642447 L112.950249,196.376673 C112.950249,189.18738 118.60199,183.435946 125.666667,183.435946 Z" id="Shape" fill="#D0021B" fill-rule="nonzero"></path>
                <polygon id="Path" fill="#FF6F00" points="259 349.91729 188.281467 350 188 91.0827097 258.718533 91"></polygon>
                <polygon id="Path" fill="#FFA35D" points="259 329.917018 188.23588 330 188 112.082982 258.76412 112"></polygon>
                <path d="M258.964699,301.095831 L188.01059,301.175649 L188.00353,292.468248 L258.957639,292.38843 L258.964699,301.095831 Z M259,315.920182 L188.045891,316 L188.035301,307.292599 L258.98941,307.212781 L259,315.920182 Z M258.964699,134.57041 L188.01059,134.653856 L188,125.946454 L258.954109,125.863009 L258.964699,134.57041 Z M258.99294,149.391132 L188.038831,149.474578 L188.03177,140.767177 L258.98588,140.687359 L258.99294,149.391132 Z M211.803162,182.733223 L235.454532,182.733223 C242.514642,182.733223 248.162731,188.538157 248.162731,195.794325 L248.162731,259.648601 C248.162731,266.904769 242.514642,272.709703 235.454532,272.709703 L211.803162,272.709703 C204.743052,272.709703 199.094963,266.904769 199.094963,259.648601 L199.094963,195.794325 C199.094963,188.538157 204.743052,182.733223 211.803162,182.733223 Z M221.334311,26 L225.923383,26 C232.277482,26 237.572565,30.716509 238.984587,36.8842516 L253.810819,94.9335936 L193.799881,94.9335936 L208.626112,36.8842516 C209.332124,30.716509 214.980212,26 221.334311,26 Z" id="Shape" fill="#FF6F00" fill-rule="nonzero"></path>
                <polygon id="Path" fill="#F9CE1D" points="487 355 502 355 502 482 487 482"></polygon>
                <polygon id="Path" fill="#9DCA3B" points="81 654 634 654 634 710 81 710"></polygon>
                <path d="M553.960526,147 C543.773684,228.104651 455.002632,291.546512 346.949342,291.546512 C238.896053,291.546512 150.488816,228.104651 140.301974,147 L81,147 L81,705 L634,705 L634,147 L553.960526,147 Z" id="Path" fill="#025125"></path>
                <polygon id="Path" fill="#7A6801" points="634 614 720 614 720 710 634 710"></polygon>
                <polygon id="Path" fill="#FFDC15" points="81 614 634 614 634 710 81 710"></polygon>
                <polygon id="Path" fill="#000000" opacity="0.1" points="320 543 400 543 400 711 320 711"></polygon>
                <polygon id="Path" fill="#000000" opacity="0.1" points="320 543 400 543 400 711 320 711"></polygon>
                <polygon id="Path" fill="#FFFFFF" points="320 543 400 543 400 711 320 711"></polygon>
                <path d="M330,631 L335,631 L335,648.5 C335,649.880712 333.880712,651 332.5,651 L332.5,651 C331.119288,651 330,649.880712 330,648.5 L330,631 Z" id="Path" fill="#F9CE1D"></path>
                <polygon id="Path" fill="#F57C00" points="172 640 268 640 268 651 172 651"></polygon>
                <polygon id="Path-Copy" fill="#F57C00" points="457 640 553 640 553 651 457 651"></polygon>
            </g>
        </g>
    </g>
</svg>