<?xml version="1.0" encoding="UTF-8"?>
<svg width="762px" height="665px" viewBox="0 0 762 665" version="1.1" xmlns="http://www.w3.org/2000/svg" xmlns:xlink="http://www.w3.org/1999/xlink">
    <!-- Generator: Sketch 52.6 (67491) - http://www.bohemiancoding.com/sketch -->
    <title>Group 15 Copy</title>
    <desc>Created with Sketch.</desc>
    <g id="Page-2" stroke="none" stroke-width="1" fill="none" fill-rule="evenodd">
        <g id="Desktop-HD" transform="translate(0.000000, -5860.000000)">
            <g id="Group-15-Copy" transform="translate(0.000000, 5860.000000)">
                <g id="Group-13">
                    <path d="M51.6705882,0 L572.823529,0 C617.656055,-8.20757745e-15 654,36.2202727 654,80.9002433 L654,584.099757 C654,628.779727 617.656055,665 572.823529,665 L51.6705882,665 C114.682353,611.468306 146.188235,565.341139 146.188235,526.618497 L146.797353,149.913295 C146.797353,111.190654 115.088431,61.2195554 51.6705882,0 Z" id="Rectangle" fill="#FFFFFF"></path>
                    <path d="M150.035294,149.913295 L-4.26325641e-14,149.913295 L-4.26325641e-14,62.5 C-4.68597751e-14,27.9822031 27.9822031,6.34081642e-15 62.5,0 L87.5352941,0 C122.053091,-6.34081642e-15 150.035294,27.9822031 150.035294,62.5 L150.035294,149.913295 Z M150.035294,526.618497 L150.035294,602.5 C150.035294,637.017797 122.053091,665 87.5352941,665 L62.5,665 C27.9822031,665 -3.84053532e-14,637.017797 -4.26325641e-14,602.5 L-4.26325641e-14,526.618497 L150.035294,526.618497 Z" id="Combined-Shape" fill="#D6E8F2"></path>
                </g>
                <g id="Group-12" transform="translate(550.000000, 81.000000)">
                    <polygon id="Rectangle" fill="#F8E71C" points="36.5 0.741461187 73 116.054795 0 116.054795"></polygon>
                    <polygon id="Rectangle" fill="#FFF46E" points="36.5 0.741461187 36.5 115.571233 1.77635684e-15 116.054795"></polygon>
                    <polygon id="Rectangle" fill="#F8E71C" points="0 116.054795 73 116.054795 56.7777778 164.410959 16.2222222 164.410959"></polygon>
                    <path d="M36.5,4.02968037 L36.5,116.054795" id="Path-10" stroke="#2B2B2B"></path>
                    <ellipse id="Oval" fill="#2B2B2B" cx="36.5" cy="115.248858" rx="4.05555556" ry="4.02968037"></ellipse>
                    <rect id="Rectangle" fill="#235288" x="16.2222222" y="164.410959" width="40.5555556" height="8.05936073"></rect>
                    <polygon id="Rectangle" fill="#002B5D" points="16.2222222 172.47032 56.7777778 172.47032 73 353 4.97379915e-14 351.388128"></polygon>
                </g>
                <g id="Group-14" transform="translate(481.000000, 373.000000)">
                    <rect id="Rectangle" fill="#D5E9FF" x="0" y="85.5027624" width="281" height="206.497238" rx="14"></rect>
                    <rect id="Rectangle" fill="#0C4689" x="17.9709302" y="200.044199" width="246.69186" height="64.5303867" rx="11"></rect>
                    <path d="M97.08736,85.5027624 L233.622093,85.5027624 C259.788189,85.5027624 281,106.44891 281,132.287293 L281,245.21547 C281,271.053853 259.788189,292 233.622093,292 L97.08736,292 L97.08736,85.5027624 Z" id="Rectangle" fill="#A4CFFF"></path>
                    <rect id="Rectangle-Copy-26" fill="#A4CFFF" x="80.8356164" y="23.0526316" width="119.261628" height="62.9171271"></rect>
                    <rect id="Rectangle-Copy-27" fill="#353460" x="17.9709302" y="0" width="243.424419" height="62.9171271" rx="8"></rect>
                    <path d="M97.08736,200.044199 L246.69186,200.044199 C256.616931,200.044199 264.662791,207.98929 264.662791,217.790055 L264.662791,246.828729 C264.662791,256.629495 256.616931,264.574586 246.69186,264.574586 L97.08736,264.574586 L97.08736,200.044199 Z" id="Rectangle" fill-opacity="0.6" fill="#0C4689"></path>
                </g>
            </g>
        </g>
    </g>
</svg>