<?xml version="1.0" encoding="UTF-8"?>
<svg width="664px" height="798px" viewBox="0 0 664 798" version="1.1" xmlns="http://www.w3.org/2000/svg" xmlns:xlink="http://www.w3.org/1999/xlink">
    <!-- Generator: Sketch 52.6 (67491) - http://www.bohemiancoding.com/sketch -->
    <title>racer copy</title>
    <desc>Created with Sketch.</desc>
    <g id="Page-2" stroke="none" stroke-width="1" fill="none" fill-rule="evenodd">
        <g id="Desktop-HD" transform="translate(-181.000000, -872.000000)">
            <g id="racer-copy" transform="translate(181.000000, 872.000000)">
                <g id="XMLID_3115_">
                    <ellipse id="XMLID_3232_" fill="#000000" opacity="0.1" cx="613.972678" cy="692.123575" rx="49.5693989" ry="5.43885747"></ellipse>
                    <polygon id="XMLID_3228_" fill="#736357" points="565.13224 27.4951923 580.075956 27.4951923 580.075956 692.123575 565.13224 692.123575"></polygon>
                    <path d="M594.655191,21.3311538 C594.655191,34.3844118 584.814208,46.7124887 572.421858,48.1628507 C560.029508,49.9758032 550.188525,40.5484502 550.188525,27.1326018 C550.188525,13.7167534 560.029508,1.75126697 572.421858,0.300904977 C584.814208,-1.14945701 594.655191,8.27789593 594.655191,21.3311538 Z" id="XMLID_3227_" fill="#736357"></path>
                    <ellipse id="XMLID_3198_" fill="#000000" opacity="0.1" cx="63.9710383" cy="791.835962" rx="49.5693989" ry="5.43885747"></ellipse>
                    <polygon id="XMLID_3168_" fill="#736357" points="15.1306011 127.207579 30.0743169 127.207579 30.0743169 791.835962 15.1306011 791.835962"></polygon>
                    <path d="M44.6535519,121.043541 C44.6535519,134.096799 34.8125683,146.424876 22.4202186,147.875238 C10.0278689,149.68819 0.186885246,140.260837 0.186885246,126.844989 C0.186885246,113.791731 10.0278689,101.463654 22.4202186,100.013292 C34.8125683,98.5629299 44.6535519,107.990283 44.6535519,121.043541 Z" id="XMLID_3155_" fill="#736357"></path>
                    <polygon id="XMLID_3154_" fill="#000000" points="31.1677596 159.478133 72.3540984 152.226324 72.3540984 206.614898 31.1677596 213.866708"></polygon>
                    <polygon id="XMLID_3153_" fill="#FFFFFF" points="72.3540984 152.226324 113.175956 144.974514 113.175956 199.363088 72.3540984 206.614898"></polygon>
                    <polygon id="XMLID_3152_" fill="#000000" points="113.175956 144.974514 154.362295 137.360113 154.362295 191.748688 113.175956 199.363088"></polygon>
                    <polygon id="XMLID_3151_" fill="#FFFFFF" points="154.362295 137.360113 195.184153 130.108303 195.184153 184.496878 154.362295 191.748688"></polygon>
                    <polygon id="XMLID_3150_" fill="#000000" points="195.184153 130.108303 236.370492 122.856493 236.370492 177.245068 195.184153 184.496878"></polygon>
                    <polygon id="XMLID_3149_" fill="#FFFFFF" points="236.370492 122.856493 277.19235 115.242093 277.19235 169.630667 236.370492 177.245068"></polygon>
                    <polygon id="XMLID_3148_" fill="#000000" points="277.19235 115.242093 318.378689 107.990283 318.378689 162.378857 277.19235 169.630667"></polygon>
                    <polygon id="XMLID_3147_" fill="#FFFFFF" points="318.378689 107.990283 359.200546 100.375882 359.200546 154.764457 318.378689 162.378857"></polygon>
                    <polygon id="XMLID_3146_" fill="#000000" points="359.200546 100.375882 400.386885 93.1240724 400.386885 147.512647 359.200546 154.764457"></polygon>
                    <polygon id="XMLID_3145_" fill="#FFFFFF" points="400.386885 93.1240724 441.208743 85.8722624 441.208743 140.260837 400.386885 147.512647"></polygon>
                    <polygon id="XMLID_3144_" fill="#000000" points="441.208743 85.8722624 482.395082 78.257862 482.395082 132.646437 441.208743 140.260837"></polygon>
                    <polygon id="XMLID_3143_" fill="#FFFFFF" points="482.395082 78.257862 523.21694 71.006052 523.21694 125.394627 482.395082 132.646437"></polygon>
                    <polygon id="XMLID_3142_" fill="#000000" points="523.21694 71.006052 564.403279 63.7542421 564.403279 118.142817 523.21694 125.394627"></polygon>
                    <polygon id="XMLID_3141_" fill="#FFFFFF" points="31.1677596 213.866708 72.3540984 206.614898 72.3540984 261.003473 31.1677596 268.255283"></polygon>
                    <polygon id="XMLID_3140_" fill="#000000" points="72.3540984 206.614898 113.175956 199.363088 113.175956 253.751663 72.3540984 261.003473"></polygon>
                    <polygon id="XMLID_3139_" fill="#FFFFFF" points="113.175956 199.363088 154.362295 191.748688 154.362295 246.137262 113.175956 253.751663"></polygon>
                    <polygon id="XMLID_3138_" fill="#000000" points="154.362295 191.748688 195.184153 184.496878 195.184153 238.885452 154.362295 246.137262"></polygon>
                    <polygon id="XMLID_3137_" fill="#FFFFFF" points="195.184153 184.496878 236.370492 177.245068 236.370492 231.271052 195.184153 238.885452"></polygon>
                    <polygon id="XMLID_3136_" fill="#000000" points="236.370492 177.245068 277.19235 169.630667 277.19235 224.019242 236.370492 231.271052"></polygon>
                    <polygon id="XMLID_3135_" fill="#FFFFFF" points="277.19235 169.630667 318.378689 162.378857 318.378689 216.767432 277.19235 224.019242"></polygon>
                    <polygon id="XMLID_3134_" fill="#000000" points="318.378689 162.378857 359.200546 154.764457 359.200546 209.153032 318.378689 216.767432"></polygon>
                    <polygon id="XMLID_3133_" fill="#FFFFFF" points="359.200546 154.764457 400.386885 147.512647 400.386885 201.901222 359.200546 209.153032"></polygon>
                    <polygon id="XMLID_3132_" fill="#000000" points="400.386885 147.512647 441.208743 140.260837 441.208743 194.649412 400.386885 201.901222"></polygon>
                    <polygon id="XMLID_3131_" fill="#FFFFFF" points="441.208743 140.260837 482.395082 132.646437 482.395082 187.035011 441.208743 194.649412"></polygon>
                    <polygon id="XMLID_3130_" fill="#000000" points="482.395082 132.646437 523.21694 125.394627 523.21694 179.783201 482.395082 187.035011"></polygon>
                    <polygon id="XMLID_3129_" fill="#FFFFFF" points="523.21694 125.394627 564.403279 118.142817 564.403279 172.168801 523.21694 179.783201"></polygon>
                    <polygon id="XMLID_3128_" fill="#000000" points="31.1677596 268.255283 72.3540984 261.003473 72.3540984 315.392048 31.1677596 322.643857"></polygon>
                    <polygon id="XMLID_3127_" fill="#FFFFFF" points="72.3540984 261.003473 113.175956 253.751663 113.175956 307.777647 72.3540984 315.392048"></polygon>
                    <polygon id="XMLID_3126_" fill="#000000" points="113.175956 253.751663 154.362295 246.137262 154.362295 300.525837 113.175956 307.777647"></polygon>
                    <polygon id="XMLID_3125_" fill="#FFFFFF" points="154.362295 246.137262 195.184153 238.885452 195.184153 293.274027 154.362295 300.525837"></polygon>
                    <polygon id="XMLID_3124_" fill="#000000" points="195.184153 238.885452 236.370492 231.271052 236.370492 285.659627 195.184153 293.274027"></polygon>
                    <polygon id="XMLID_3123_" fill="#FFFFFF" points="236.370492 231.271052 277.19235 224.019242 277.19235 278.407817 236.370492 285.659627"></polygon>
                    <polygon id="XMLID_3122_" fill="#000000" points="277.19235 224.019242 318.378689 216.767432 318.378689 271.156007 277.19235 278.407817"></polygon>
                    <polygon id="XMLID_3121_" fill="#FFFFFF" points="318.378689 216.767432 359.200546 209.153032 359.200546 263.541606 318.378689 271.156007"></polygon>
                    <polygon id="XMLID_3120_" fill="#000000" points="359.200546 209.153032 400.386885 201.901222 400.386885 256.289796 359.200546 263.541606"></polygon>
                    <polygon id="XMLID_3119_" fill="#FFFFFF" points="400.386885 201.901222 441.208743 194.649412 441.208743 248.675396 400.386885 256.289796"></polygon>
                    <polygon id="XMLID_3118_" fill="#000000" points="441.208743 194.649412 482.395082 187.035011 482.395082 241.423586 441.208743 248.675396"></polygon>
                    <polygon id="XMLID_3117_" fill="#FFFFFF" points="482.395082 187.035011 523.21694 179.783201 523.21694 234.171776 482.395082 241.423586"></polygon>
                    <polygon id="XMLID_3116_" fill="#000000" points="523.21694 179.783201 564.403279 172.168801 564.403279 226.557376 523.21694 234.171776"></polygon>
                    <polygon id="Rectangle" fill="#FFFFFF" points="71.0049751 206.15 525.626866 124.6875 528.945274 233.015173 71.0049751 315.21"></polygon>
                </g>
            </g>
        </g>
    </g>
</svg>