<?xml version="1.0" encoding="UTF-8"?>
<svg width="913px" height="873px" viewBox="0 0 913 873" version="1.1" xmlns="http://www.w3.org/2000/svg" xmlns:xlink="http://www.w3.org/1999/xlink">
    <!-- Generator: Sketch 52.6 (67491) - http://www.bohemiancoding.com/sketch -->
    <title>Group 8 Copy</title>
    <desc>Created with Sketch.</desc>
    <g id="Page-2" stroke="none" stroke-width="1" fill="none" fill-rule="evenodd">
        <g id="Desktop-HD" transform="translate(0.000000, -1642.000000)">
            <g id="Group-8-Copy" transform="translate(0.000000, 1641.000000)">
                <g id="snowflake" transform="translate(0.000000, 363.000000)">
                    <ellipse id="XMLID_1404_" fill="#000000" opacity="0.1" cx="456.907556" cy="474.176471" rx="456.054667" ry="36.7411765"></ellipse>
                    <polygon id="Path" fill="#2E2C29" points="194.034222 248.014118 832.673778 276 832.673778 480.708235 194.034222 480.708235"></polygon>
                    <polygon id="Path" fill="#53504B" points="108.825333 248.014118 747.494667 248.014118 747.494667 480.708235 108.825333 480.708235"></polygon>
                    <polygon id="Path" fill="#3564E5" points="674 6.25414365 278.428745 6.25414365 90.5151111 281.081176 784.174667 281.081176"></polygon>
                    <g id="Group-2" transform="translate(603.182222, 314.964706)">
                        <polygon id="Path" fill="#CBB118" points="0.852888889 0.408235294 63.2088889 0.408235294 63.2088889 64.5011765 0.852888889 64.5011765"></polygon>
                        <polygon id="Path-Copy-4" fill="#53504B" points="26.5288889 0 36.3102222 0 36.3102222 64.0929412 26.5288889 64.0929412"></polygon>
                        <polygon id="Path-Copy-2" fill="#53504B" transform="translate(32.846000, 33.475294) rotate(90.000000) translate(-32.846000, -33.475294) " points="27.9471765 1.48218301 37.7448235 1.48218301 37.7448235 65.4684052 27.9471765 65.4684052"></polygon>
                    </g>
                    <g id="Group-2-Copy" transform="translate(230.268889, 314.964706)">
                        <polygon id="Path" fill="#CBB118" points="0.852888889 0.408235294 63.2088889 0.408235294 63.2088889 64.5011765 0.852888889 64.5011765"></polygon>
                        <polygon id="Path-Copy-4" fill="#53504B" points="26.5288889 0 36.3102222 0 36.3102222 64.0929412 26.5288889 64.0929412"></polygon>
                        <polygon id="Path-Copy-2" fill="#53504B" transform="translate(32.846000, 33.475294) rotate(90.000000) translate(-32.846000, -33.475294) " points="27.9471765 1.48218301 37.7448235 1.48218301 37.7448235 65.4684052 27.9471765 65.4684052"></polygon>
                    </g>
                    <polygon id="Path" fill="#000000" opacity="0.1" points="391.698667 368.035294 447.533778 368.035294 447.533778 480.708235 391.698667 480.708235"></polygon>
                    <polygon id="Path" fill="#999690" points="434.084444 414.574118 442.235556 414.574118 442.235556 434.577647 434.084444 434.577647"></polygon>
                    <polygon id="Path" fill="#000000" opacity="0.1" points="451.201778 368.035294 507.036889 368.035294 507.036889 480.708235 451.201778 480.708235"></polygon>
                    <polygon id="Path" fill="#4041CF" points="675 0.375690608 759 0.375690608 836.030194 281.081176 747.174667 281.081176"></polygon>
                </g>
                <g id="Group-6" transform="translate(255.000000, 0.000000)">
                    <rect id="Rectangle-Copy-9" fill="#3B445A" x="20.3846154" y="278.230769" width="403.615385" height="252.769231"></rect>
                    <rect id="Rectangle" fill="#222222" x="20.3846154" y="298.615385" width="383.230769" height="232.384615"></rect>
                    <rect id="Rectangle" fill="#FFFFFF" x="53" y="437.230769" width="322.076923" height="12.2307692" rx="2"></rect>
                    <rect id="Rectangle-Copy-10" fill="#E5E5E5" x="53" y="380.153846" width="322.076923" height="12.2307692" rx="2"></rect>
                    <rect id="Rectangle-Copy-11" fill="#E5E5E5" x="53" y="323.076923" width="77.4615385" height="12.2307692" rx="2"></rect>
                    <rect id="Rectangle-Copy-12" fill="#E5E5E5" x="175.307692" y="323.076923" width="77.4615385" height="12.2307692" rx="2"></rect>
                    <rect id="Rectangle-Copy-13" fill="#E5E5E5" x="297.615385" y="323.076923" width="77.4615385" height="12.2307692" rx="2"></rect>
                    <rect id="Rectangle" fill="#FFFFFF" x="134.538462" y="445.384615" width="12.2307692" height="61.1538462" rx="1.5"></rect>
                    <rect id="Rectangle-Copy-14" fill="#FFFFFF" x="273.153846" y="445.384615" width="12.2307692" height="61.1538462" rx="1.5"></rect>
                    <g id="Group-5" transform="translate(20.384615, 229.307692)">
                        <rect id="Rectangle-Copy-15" fill="#FFFFFF" x="0" y="0" width="403.615385" height="48.9230769"></rect>
                        <rect id="Rectangle" fill="#E5E3DF" x="0" y="12.2307692" width="383.230769" height="36.6923077"></rect>
                        <polygon id="Rectangle" fill="#222222" points="32.6153846 9.92573545e-13 72.650595 2.38305102e-12 86.9198257 48.9230769 46.8846154 48.9230769"></polygon>
                        <polygon id="Rectangle-Copy-16" fill="#222222" points="118.230769 1.4473209e-12 158.26598 2.83779837e-12 172.53521 48.9230769 132.5 48.9230769"></polygon>
                        <polygon id="Rectangle-Copy-17" fill="#222222" points="203.846154 1.4473209e-12 243.881364 2.83779837e-12 258.150595 48.9230769 218.115385 48.9230769"></polygon>
                        <polygon id="Rectangle-Copy-18" fill="#222222" points="289.461538 1.4473209e-12 329.496749 2.83779837e-12 343.76598 48.9230769 303.730769 48.9230769"></polygon>
                    </g>
                    <g id="Group-5-Copy" transform="translate(187.187132, 123.025315) rotate(-30.000000) translate(-187.187132, -123.025315) translate(-14.812868, 98.525315)">
                        <rect id="Rectangle-Copy-15" fill="#FFFFFF" x="0" y="0" width="403.615385" height="48.9230769"></rect>
                        <rect id="Rectangle" fill="#E5E3DF" x="0" y="12.2307692" width="383.230769" height="36.6923077"></rect>
                        <polygon id="Rectangle" fill="#222222" points="32.6153846 9.92573545e-13 72.650595 2.38305102e-12 86.9198257 48.9230769 46.8846154 48.9230769"></polygon>
                        <polygon id="Rectangle-Copy-16" fill="#222222" points="118.230769 1.4473209e-12 158.26598 2.83779837e-12 172.53521 48.9230769 132.5 48.9230769"></polygon>
                        <polygon id="Rectangle-Copy-17" fill="#222222" points="203.846154 1.4473209e-12 243.881364 2.83779837e-12 258.150595 48.9230769 218.115385 48.9230769"></polygon>
                        <polygon id="Rectangle-Copy-18" fill="#222222" points="289.461538 1.4473209e-12 329.496749 2.83779837e-12 343.76598 48.9230769 303.730769 48.9230769"></polygon>
                    </g>
                    <circle id="Oval" stroke="#222222" stroke-width="2" fill="#FFFFFF" cx="20.3846154" cy="233.384615" r="20.3846154"></circle>
                </g>
            </g>
        </g>
    </g>
</svg>