<?xml version="1.0" encoding="UTF-8"?>
<svg width="912px" height="665px" viewBox="0 0 912 665" version="1.1" xmlns="http://www.w3.org/2000/svg" xmlns:xlink="http://www.w3.org/1999/xlink">
    <!-- Generator: Sketch 52.6 (67491) - http://www.bohemiancoding.com/sketch -->
    <title>santascanvas copy</title>
    <desc>Created with Sketch.</desc>
    <g id="Page-2" stroke="none" stroke-width="1" fill="none" fill-rule="evenodd">
        <g id="Desktop-HD" transform="translate(-121.000000, -3516.000000)">
            <g id="santascanvas-copy" transform="translate(121.000000, 3516.000000)">
                <path d="M730,197 L775.27044,197 C817.647006,197 852,162.602365 852,120.170732 L852,56" id="Path" stroke="#4D4D4D" stroke-width="40" stroke-linecap="round"></path>
                <polygon id="Path" fill="#4D4D4D" points="800 66 851.981748 14 904 66"></polygon>
                <ellipse id="Oval" fill="#231F20" opacity="0.2" style="mix-blend-mode: multiply;" cx="456" cy="636" rx="456" ry="29"></ellipse>
                <path d="M573.86536,56 L376.654448,56 L381.676361,294.607595 L133,294.607595 L211.627771,636 L586.035252,636 C704.545081,636 864,520.660759 864,336.565823 C864,152.470886 710.226808,56 573.86536,56 Z" id="Path" fill="#845930"></path>
                <path d="M376.872387,56 C513.083911,56 667,152.464781 667,336.584773 C667,520.704766 507.548943,636 389.041985,636 L211.923018,636 C121.164209,636 48,495.157015 48,413.081197 C48,331.005379 90.0804169,294.445668 133.297152,294.445668 C204.958489,294.445668 204.885178,359.856718 268.665601,359.856718 C319.323385,359.856718 339.263931,323.15018 339.263931,293.78495 C339.263931,211.709132 238.13164,219.601038 238.13164,146.9588 C238.058329,85.9525346 288.642802,56 376.872387,56 Z" id="Path" fill="#B07644"></path>
                <path d="M212,636 L212,535.785534 C212.020221,486.744694 251.645297,446.999996 300.518312,447 C349.385399,447 389,486.750637 389,535.785534 L389,636 L212,636 Z" id="Path" fill="#845930"></path>
                <rect id="Rectangle" fill="#F8E71C" x="246" y="552" width="8" height="20"></rect>
                <circle id="Oval" fill="#0375A6" cx="372.5" cy="148.5" r="49.5"></circle>
                <path d="M323,148 L422,148" id="Path" stroke="#FFFFFF" stroke-width="8"></path>
                <path d="M372,99 L372,198" id="Path" stroke="#FFFFFF" stroke-width="8"></path>
                <circle id="Oval" fill="#0375A6" cx="138.5" cy="417.5" r="49.5"></circle>
                <path d="M89,418 L188,418" id="Path" stroke="#FFFFFF" stroke-width="8"></path>
                <path d="M139,368 L139,467" id="Path" stroke="#FFFFFF" stroke-width="8"></path>
                <circle id="Oval" fill="#D0021B" cx="514.5" cy="220.5" r="60.5"></circle>
                <circle id="Oval" fill="#417505" cx="482.5" cy="511.5" r="60.5"></circle>
                <path d="M511,536.015051 C472.990627,486.653174 501.672096,423.942319 465.131684,376.487438 C450.001383,356.830702 429.105409,343.738436 406.887369,343.995147 C405.855754,334.443591 401.833375,325.460352 395.392747,318.324037 L374.276429,295 L272,295 L323.413645,373.700289 C328.671842,381.823245 336.392281,388.055264 345.448064,391.486701 C326.131223,457.938203 431.676091,547.383686 511,536.015051 Z" id="Path" fill="#231F20" opacity="0.2" style="mix-blend-mode: multiply;"></path>
                <circle id="Oval" fill="#F8E71C" cx="564" cy="374" r="68"></circle>
                <path d="M116.994987,3.07851414 C123.153293,-1.64918288 131.896152,-0.850367959 137.101813,4.91562853 L396.256449,292.717968 C404.771241,302.167746 408.961345,314.757841 407.813643,327.444115 C406.665941,340.130389 400.284912,351.757971 390.213414,359.515447 C380.149711,367.293742 367.302193,370.495556 354.78015,368.346002 C342.258108,366.196447 331.202662,358.891411 324.289397,348.198823 L113.332542,23.0663187 C109.14107,16.4708304 110.739495,7.74742583 116.994987,3.07851414 Z" id="Path" fill="#000000"></path>
                <path d="M511,510.01492 C417.058115,523.472831 286.377127,395.677677 369.480977,331.871775 C404.236168,305.212643 441.599835,320.027346 465.002644,350.500165 C501.668268,398.061231 472.975029,460.657021 511,510.01492 Z" id="Path" fill="#FFFFFF"></path>
                <path d="M511,510.01492 C417.058115,523.472831 286.377127,395.677677 369.480977,331.871775 C404.236168,305.212643 441.599835,320.027346 465.002644,350.500165 C501.668268,398.061231 472.975029,460.657021 511,510.01492 Z" id="Path" fill="#FFFFFF"></path>
                <path d="M473,491 C414.967997,458.276777 386.079819,420.674419 376,379" id="Path" stroke="#E6E6E6" stroke-width="2" stroke-linecap="round"></path>
                <path d="M511,510.256208 C493.518009,487.494571 501.651735,457.77185 497.971316,435.341693 C496.315128,425.249964 484.758611,407.239542 467.203012,411.696108 C444.605239,417.404933 460.872691,460.792003 432.754289,448.858717 C403.752586,436.593951 381.890896,469.373656 406.991355,488.930985 C439.563064,514.418126 473.275704,520.532093 511,510.256208 Z" id="Path" fill="#417505"></path>
                <path d="M414,477 C433.858578,490.638636 457.716432,497.639533 482,496.954058" id="Path" stroke="#356004" stroke-width="2" stroke-linecap="round"></path>
                <path d="M109.605704,417.500074 C109.606212,393.964407 126.077354,373.683474 149,368.993839 C145.774997,368.324591 142.49002,367.991605 139.197148,368.000161 C112.026314,368.000161 90,390.162027 90,417.500074 C90,444.838121 112.026314,466.999987 139.197148,466.999987 C142.487909,467.002361 145.77106,466.681887 149,466.043111 C126.079474,461.324766 109.61721,441.039385 109.605704,417.500074 Z" id="Path" fill="#231F20" opacity="0.2" style="mix-blend-mode: multiply;"></path>
                <path d="M342.397271,148.481686 C342.397781,124.954762 358.956071,104.681363 382,99.9934701 C378.757934,99.3244703 375.455576,98.9916081 372.145282,99.0001607 C345.345722,99.7311946 324,121.677509 324,148.50008 C324,175.322651 345.345722,197.268966 372.145282,198 C375.454655,197.990258 378.755188,197.65758 382,197.006691 C358.958203,192.290098 342.408838,172.012253 342.397271,148.481686 Z" id="Path" fill="#231F20" opacity="0.2" style="mix-blend-mode: multiply;"></path>
                <path d="M312,447.73419 C286.691745,444.456278 261.199676,452.254019 242.048903,469.131457 C222.89813,486.008894 211.947567,510.32778 212.000189,535.8633 L212,636 L234.605651,636 L234.605651,535.716418 C234.613321,491.083737 267.757191,453.405644 312,447.73419 Z" id="Path" fill="#231F20" opacity="0.2" style="mix-blend-mode: multiply;"></path>
            </g>
        </g>
    </g>
</svg>