<?xml version="1.0" encoding="UTF-8"?>
<svg width="65px" height="39px" viewBox="0 0 65 39" version="1.1" xmlns="http://www.w3.org/2000/svg" xmlns:xlink="http://www.w3.org/1999/xlink">
    <!-- Generator: Sketch 52.6 (67491) - http://www.bohemiancoding.com/sketch -->
    <title>Group 27</title>
    <desc>Created with Sketch.</desc>
    <g id="Page-2" stroke="none" stroke-width="1" fill="none" fill-rule="evenodd">
        <g id="Pixel-2" transform="translate(-226.000000, -100.000000)">
            <g id="Group-27" transform="translate(226.000000, 100.000000)">
                <polygon id="Fill-1" fill="#9E9E9E" points="26 39 29 39 29 18 26 18"></polygon>
                <polygon id="Fill-2" fill="#9E9E9E" points="17 36.8974769 18.9569031 39 28 20.1025231 26.0431511 18"></polygon>
                <polygon id="Fill-3" fill="#E0E0E0" points="21 39 26 39 26 23 21 23"></polygon>
                <polygon id="Fill-4" fill="#BDBDBD" points="16 39 19 39 19 16 16 16"></polygon>
                <polygon id="Fill-5" fill="#BDBDBD" points="29 36.6586416 26.8326565 39 17 18.3413584 19.1672906 16"></polygon>
                <polygon id="Fill-6" fill="#BDBDBD" points="29.4824362 36 31 38.9920546 28 39"></polygon>
                <polygon id="Fill-7" fill="#BDBDBD" points="27 38.991808 29 36 27.4540702 39"></polygon>
                <polygon id="Fill-8" fill="#9E9E9E" points="35 39 38 39 38 18 35 18"></polygon>
                <polygon id="Fill-9" fill="#9E9E9E" points="47 36.8974039 45.0430969 39 36 20.1025961 37.9568489 18"></polygon>
                <polygon id="Fill-10" fill="#E0E0E0" points="38 39 43 39 43 23 38 23"></polygon>
                <polygon id="Fill-11" fill="#BDBDBD" points="45 39 48 39 48 16 45 16"></polygon>
                <polygon id="Fill-12" fill="#BDBDBD" points="36 36.6586416 38.1673435 39 48 18.3413584 45.8326565 16"></polygon>
                <polygon id="Fill-13" fill="#BDBDBD" points="35.5175638 36 34 38.9920544 37 39"></polygon>
                <polygon id="Fill-14" fill="#BDBDBD" points="37 38.991883 35 36 36.5458701 39"></polygon>
                <polygon id="Fill-15" fill="#9E9E9E" points="14 39 8.81503388 1 8 1 11.5077196 38.9828208"></polygon>
                <polygon id="Fill-16" fill="#BDBDBD" points="2 0 6.09233022 38.9780289 9 39 2.95089819 0"></polygon>
                <polygon id="Fill-17" fill="#BDBDBD" points="0 6.25674648 6.16866154 12 29 7.81077987 27.3028917 1"></polygon>
                <polygon id="Fill-18" fill="#9E9E9E" points="29 6.76063289 6.34707832 11 1 6.04064451 26.691441 1"></polygon>
                <polygon id="Fill-19" fill="#BDBDBD" points="5 12.6747075 11.1370743 5 12 5 5.24393886 14"></polygon>
                <polygon id="Fill-20" fill="#9E9E9E" points="11 15.6780606 17.1370743 8 18 8 11.2439389 17"></polygon>
                <polygon id="Fill-21" fill="#9E9E9E" points="56.1849732 1 51 39 53.4923109 38.9892695 57 1"></polygon>
                <polygon id="Fill-22" fill="#BDBDBD" points="56 39 62.049147 0 63 0 58.9076392 38.9441565"></polygon>
                <polygon id="Fill-23" fill="#BDBDBD" points="36 7.81077987 58.8313933 12 65 6.25674648 37.6971083 1"></polygon>
                <polygon id="Fill-24" fill="#9E9E9E" points="36 6.76063289 58.6529217 11 64 6.04064451 38.308559 1"></polygon>
                <polygon id="Fill-25" fill="#BDBDBD" points="60 12.6446799 53.8628745 5 53 5 59.7560591 14"></polygon>
                <polygon id="Fill-26" fill="#9E9E9E" points="54 15.6708737 47.8628745 8 47 8 53.7560591 17"></polygon>
            </g>
        </g>
    </g>
</svg>