<?xml version="1.0" encoding="UTF-8"?>
<svg width="1050px" height="1479px" viewBox="0 0 1050 1479" version="1.1" xmlns="http://www.w3.org/2000/svg" xmlns:xlink="http://www.w3.org/1999/xlink">
    <!-- Generator: Sketch 52.6 (67491) - http://www.bohemiancoding.com/sketch -->
    <title>presentdrop copy</title>
    <desc>Created with Sketch.</desc>
    <g id="Page-2" stroke="none" stroke-width="1" fill="none" fill-rule="evenodd">
        <g id="Desktop-HD" transform="translate(0.000000, -7753.000000)">
            <g id="presentdrop-copy" transform="translate(0.000000, 7753.000000)">
                <ellipse id="XMLID_1996_" fill="#000000" opacity="0.1" cx="525" cy="1417.99125" rx="525" ry="61.00875"></ellipse>
                <polygon id="XMLID_1995_" fill="#808082" points="192.253521 11.0925 199.647887 11.0925 199.647887 746.895 192.253521 746.895"></polygon>
                <ellipse id="XMLID_1994_" fill="#808082" cx="197.799296" cy="12.94125" rx="12.9401408" ry="12.94125"></ellipse>
                <polygon id="XMLID_1993_" fill="#808082" points="236.619718 11.0925 244.014085 11.0925 244.014085 746.895 236.619718 746.895"></polygon>
                <ellipse id="XMLID_1992_" fill="#808082" cx="238.46831" cy="12.94125" rx="12.9401408" ry="12.94125"></ellipse>
                <polygon id="XMLID_1991_" fill="#C8CBCC" points="62.8521127 110.925 639.612676 110.925 639.612676 1430.9325 62.8521127 1430.9325"></polygon>
                <polygon id="XMLID_1990_" fill="#B8B8B8" points="166.373239 110.925 743.133803 110.925 743.133803 1430.9325 166.373239 1430.9325"></polygon>
                <polyline id="XMLID_1989_" fill="#000000" opacity="0.1" points="739.43662 1238.6625 739.43662 1334.7975 162.676056 1266.35356 162.676056 1244.4097"></polyline>
                <polyline id="XMLID_1988_" fill="#000000" opacity="0.1" points="739.43662 104.283859 739.43662 203.3625 162.676056 132.822816 162.676056 92.4375"></polyline>
                <polygon id="XMLID_1987_" fill="#949496" points="44.3661972 81.345 155.28169 81.345 155.28169 114.6225 44.3661972 114.6225"></polygon>
                <polygon id="XMLID_1986_" fill="#808082" points="151.584507 81.345 754.225352 81.345 754.225352 114.6225 151.584507 114.6225"></polygon>
                <polygon id="XMLID_1985_" fill="#808082" points="151.584507 1223.8725 754.225352 1223.8725 754.225352 1257.15 151.584507 1257.15"></polygon>
                <polyline id="XMLID_1984_" fill="#C8EAD4" points="340.140845 735.8025 340.140845 617.4825 251.408451 617.4825 251.408451 735.8025"></polyline>
                <polyline id="XMLID_1984_-Copy" fill="#C8EAD4" points="495.422535 735.8025 495.422535 617.4825 406.690141 617.4825 406.690141 735.8025"></polyline>
                <polyline id="XMLID_1983_" fill="#000000" opacity="0.1" points="654.401408 735.8025 654.401408 617.4825 565.669014 617.4825 565.669014 735.8025"></polyline>
                <polyline id="XMLID_1982_" fill="#000000" opacity="0.1" points="340.140845 935.4675 340.140845 817.1475 251.408451 817.1475 251.408451 935.4675"></polyline>
                <polyline id="XMLID_1982_-Copy" fill="#000000" opacity="0.1" points="495.422535 935.4675 495.422535 817.1475 406.690141 817.1475 406.690141 935.4675"></polyline>
                <polyline id="XMLID_1981_" fill="#C8EAD4" points="654.401408 935.4675 654.401408 817.1475 565.669014 817.1475 565.669014 935.4675"></polyline>
                <polygon id="XMLID_1977_" fill="#000000" opacity="0.1" points="240.316901 735.8025 354.929577 735.8025 354.929577 757.9875 240.316901 757.9875"></polygon>
                <polygon id="XMLID_1977_-Copy" fill="#000000" opacity="0.1" points="395.598592 735.8025 510.211268 735.8025 510.211268 757.9875 395.598592 757.9875"></polygon>
                <polygon id="XMLID_1975_" fill="#000000" opacity="0.1" points="554.577465 735.8025 669.190141 735.8025 669.190141 757.9875 554.577465 757.9875"></polygon>
                <polygon id="XMLID_1974_" fill="#000000" opacity="0.1" points="240.316901 935.4675 354.929577 935.4675 354.929577 957.6525 240.316901 957.6525"></polygon>
                <polygon id="XMLID_1974_-Copy" fill="#000000" opacity="0.1" points="395.598592 935.4675 510.211268 935.4675 510.211268 957.6525 395.598592 957.6525"></polygon>
                <polygon id="XMLID_1973_" fill="#000000" opacity="0.1" points="554.577465 935.4675 669.190141 935.4675 669.190141 957.6525 554.577465 957.6525"></polygon>
                <polyline id="XMLID_1972_" fill="#000000" opacity="0.1" points="340.140845 1124.04 340.140845 1005.72 251.408451 1005.72 251.408451 1124.04"></polyline>
                <polyline id="XMLID_1970_" fill="#C8EAD4" points="499.119718 1124.04 499.119718 1005.72 410.387324 1005.72 410.387324 1124.04"></polyline>
                <polyline id="XMLID_1969_" fill="#C8EAD4" points="654.401408 1124.04 654.401408 1005.72 565.669014 1005.72 565.669014 1124.04"></polyline>
                <polygon id="XMLID_1968_" fill="#000000" opacity="0.1" points="240.316901 1124.04 354.929577 1124.04 354.929577 1146.225 240.316901 1146.225"></polygon>
                <polygon id="XMLID_1967_" fill="#000000" opacity="0.1" points="395.598592 1124.04 510.211268 1124.04 510.211268 1146.225 395.598592 1146.225"></polygon>
                <polygon id="XMLID_1966_" fill="#000000" opacity="0.1" points="554.577465 1124.04 669.190141 1124.04 669.190141 1146.225 554.577465 1146.225"></polygon>
                <polyline id="XMLID_1933_" fill="#C8EAD4" points="340.140845 340.17 340.140845 221.85 251.408451 221.85 251.408451 340.17"></polyline>
                <polyline id="XMLID_1891_" fill="#000000" opacity="0.1" points="499.119718 340.17 499.119718 221.85 410.387324 221.85 410.387324 340.17"></polyline>
                <polyline id="XMLID_1880_" fill="#000000" opacity="0.1" points="654.401408 340.17 654.401408 221.85 565.669014 221.85 565.669014 340.17"></polyline>
                <polyline id="XMLID_1879_" fill="#7D8485" points="654.401408 539.835 654.401408 421.515 565.669014 421.515 565.669014 539.835"></polyline>
                <polyline id="XMLID_1878_" fill="#000000" opacity="0.1" points="340.140845 539.835 340.140845 421.515 251.408451 421.515 251.408451 539.835"></polyline>
                <polyline id="XMLID_1878_-Copy" fill="#000000" opacity="0.1" points="495.422535 539.835 495.422535 421.515 406.690141 421.515 406.690141 539.835"></polyline>
                <polygon id="XMLID_1877_" fill="#000000" opacity="0.1" points="240.316901 340.17 354.929577 340.17 354.929577 362.355 240.316901 362.355"></polygon>
                <polygon id="XMLID_1876_" fill="#000000" opacity="0.1" points="395.598592 340.17 510.211268 340.17 510.211268 362.355 395.598592 362.355"></polygon>
                <polygon id="XMLID_1875_" fill="#000000" opacity="0.1" points="554.577465 340.17 669.190141 340.17 669.190141 362.355 554.577465 362.355"></polygon>
                <polygon id="XMLID_1874_" fill="#000000" opacity="0.1" points="240.316901 539.835 354.929577 539.835 354.929577 562.02 240.316901 562.02"></polygon>
                <polygon id="XMLID_1874_-Copy" fill="#000000" opacity="0.1" points="395.598592 539.835 510.211268 539.835 510.211268 562.02 395.598592 562.02"></polygon>
                <polygon id="XMLID_1873_" fill="#000000" opacity="0.1" points="554.577465 539.835 669.190141 539.835 669.190141 562.02 554.577465 562.02"></polygon>
                <g id="XMLID_1741_" transform="translate(218.133803, 1312.612500)">
                    <polygon id="XMLID_1864_" fill="#000000" opacity="0.1" points="3.66637324 2.65255435 61.8045775 2.65255435 61.8045775 121.486989 3.66637324 121.486989"></polygon>
                    <polygon id="XMLID_1863_" fill="#85837D" points="47.6628521 51.9900652 56.0431338 51.9900652 56.0431338 73.2105 47.6628521 73.2105"></polygon>
                    <polygon id="XMLID_1862_" fill="#000000" opacity="0.1" points="65.4709507 2.65255435 123.609155 2.65255435 123.609155 121.486989 65.4709507 121.486989"></polygon>
                    <polygon id="XMLID_1857_" fill="#85837D" points="71.2323944 51.9900652 79.6126761 51.9900652 79.6126761 73.2105 71.2323944 73.2105"></polygon>
                </g>
                <g id="XMLID_1736_" transform="translate(391.901408, 1312.612500)">
                    <polygon id="XMLID_1740_" fill="#000000" opacity="0.1" points="1.04753521 2.65255435 59.1857394 2.65255435 59.1857394 121.486989 1.04753521 121.486989"></polygon>
                    <polygon id="XMLID_1739_" fill="#85837D" points="45.0440141 51.9900652 53.4242958 51.9900652 53.4242958 73.2105 45.0440141 73.2105"></polygon>
                    <polygon id="XMLID_1738_" fill="#000000" opacity="0.1" points="62.8521127 2.65255435 120.990317 2.65255435 120.990317 121.486989 62.8521127 121.486989"></polygon>
                    <polygon id="XMLID_1737_" fill="#85837D" points="68.6135563 51.9900652 76.993838 51.9900652 76.993838 73.2105 68.6135563 73.2105"></polygon>
                </g>
                <g id="XMLID_1731_" transform="translate(565.669014, 1312.612500)">
                    <polygon id="XMLID_1735_" fill="#000000" opacity="0.1" points="0.492957746 2.65255435 58.631162 2.65255435 58.631162 121.486989 0.492957746 121.486989"></polygon>
                    <polygon id="XMLID_1734_" fill="#85837D" points="44.4894366 51.9900652 52.8697183 51.9900652 52.8697183 73.2105 44.4894366 73.2105"></polygon>
                    <polygon id="XMLID_1733_" fill="#000000" opacity="0.1" points="62.2975352 2.65255435 120.435739 2.65255435 120.435739 121.486989 62.2975352 121.486989"></polygon>
                    <polygon id="XMLID_1732_" fill="#85837D" points="68.0589789 51.9900652 76.4392606 51.9900652 76.4392606 73.2105 68.0589789 73.2105"></polygon>
                </g>
            </g>
        </g>
    </g>
</svg>