<svg id="Layer_1" data-name="Layer 1" xmlns="http://www.w3.org/2000/svg" viewBox="0 0 900 500">
  <defs>
    <style>
      .cls-1 {
        isolation: isolate;
        font-size: 65.1495px;
        stroke: #fff;
        stroke-width: 2px;
        font-family: Swiss721BT-BlackOutline, Swis721 BlkOul BT;
      }

      .cls-1, .cls-10, .cls-11, .cls-8 {
        fill: none;
      }

      .cls-1, .cls-11, .cls-6, .cls-7, .cls-8 {
        stroke-miterlimit: 10;
      }

      .cls-2 {
        font-size: 34.55579px;
        fill: #4affff;
        font-family: ShowcardGothic-Reg, Showcard Gothic;
      }

      .cls-3, .cls-6, .cls-7 {
        fill: #fff;
      }

      .cls-4 {
        fill: #ec2024;
      }

      .cls-5 {
        fill: #221f1f;
      }

      .cls-6, .cls-7, .cls-8 {
        stroke: #221f1f;
      }

      .cls-6 {
        stroke-width: 4.75537px;
      }

      .cls-7 {
        stroke-width: 0.60451px;
      }

      .cls-8 {
        stroke-width: 2.75895px;
      }

      .cls-9 {
        fill: #ffdc0e;
      }

      .cls-11 {
        stroke: #4affff;
        stroke-width: 12px;
      }
    </style>
  </defs>
  <title>instincts typography blue</title>
  <g>
    <g>
      <circle class="cls-3" cx="420.41794" cy="441.98214" r="52.5733"/>
      <path class="cls-4" d="M472.49234,442.46506q-52.07446,28.34024-104.1488,0c0-29.30328,23.31692-53.05621,52.06659-53.05621C449.17551,389.40884,472.49234,413.16174,472.49234,442.46506Z"/>
      <path class="cls-5" d="M367.84467,441.98214a82.82726,82.82726,0,0,0,12.51242,5.55646,107.77805,107.77805,0,0,0,13.02151,3.745A113.87576,113.87576,0,0,0,420.14,453.77313c2.24048-.10339,4.487-.14359,6.72141-.38461,1.11789-.10535,2.24219-.15268,3.35623-.30472l3.34793-.416c4.45483-.63239,8.89783-1.43561,13.30191-2.48444a216.282,216.282,0,0,0,26.12381-8.20126,104.80674,104.80674,0,0,1-25.13373,11.77762,98.66213,98.66213,0,0,1-27.59558,4.76578,88.92269,88.92269,0,0,1-27.81613-3.66489,79.84044,79.84044,0,0,1-13.01215-5.19107A55.4205,55.4205,0,0,1,367.84467,441.98214Z"/>
      <circle class="cls-6" cx="420.41794" cy="455.71554" r="10.8317"/>
      <circle class="cls-7" cx="420.41794" cy="455.71554" r="5.0545"/>
      <circle class="cls-8" cx="420.41794" cy="441.98214" r="52.5733"/>
    </g>
    <g>
      <path class="cls-9" d="M594.41284,248.86424h6.23523a4.63469,4.63469,0,0,0,.69983.166,42.38192,42.38192,0,0,1,11.62195,2.31323c3.22278,1.214,6.54126,2.17142,9.438,4.12781,2.22235,1.50092,4.59387,2.811,6.67291,4.48654,2.54462,2.05078,4.86951,4.37711,7.25238,6.62357a16.90758,16.90758,0,0,1,1.50061,1.848c-1.23151,1.37674-2.36432,2.67615-3.53278,3.94272-2.73694,2.96686-5.49347,5.91562-8.23724,8.87616-2.46124,2.6557-4.91,5.323-7.37543,7.97491q-4.61755,4.96678-9.25348,9.91638-2.50964,2.68547-5.02576,5.36478a1.18594,1.18594,0,0,0-.16144.29166c.39789.51514.72156,1.0051,1.11432,1.43134q3.99655,4.33676,8.017,8.65143,3.79651,4.09731,7.58752,8.19977c2.64825,2.8591,5.28943,5.72485,7.95215,8.5704,2.28955,2.44675,4.61462,4.8602,6.90338,7.30765.69629.74457,1.3241,1.55316,1.98169,2.3306-.76245.92072-1.45325,1.87469-2.26392,2.71274a57.43266,57.43266,0,0,1-10.63342,8.82806,59.66458,59.66458,0,0,1-7.09558,3.79584,55.02293,55.02293,0,0,1-15.80261,4.01508,36.39909,36.39909,0,0,1-11.3324-.356c-5.03265-.92526-10.05682-1.80014-14.6001-4.322-2.6734-1.48392-5.37811-2.9281-7.94409-4.58344a54.42875,54.42875,0,0,1-5.10388-4.01611,39.00918,39.00918,0,0,1-7.737-8.58344,96.22026,96.22026,0,0,1-5.01978-8.31927,54.24925,54.24925,0,0,1-5.80371-21.36221,58.267,58.267,0,0,1,5.34839-29.16577,55.16254,55.16254,0,0,1,8.19629-12.647,53.61432,53.61432,0,0,1,9.33417-8.6012,46.00326,46.00326,0,0,1,6.30835-3.92645,51.88924,51.88924,0,0,1,14.601-5.0603C590.29663,249.35161,592.35974,249.13757,594.41284,248.86424ZM618.19,269.97137c.09332-4.05807-3.11908-7.90628-7.32355-7.95016a7.85013,7.85013,0,1,0,7.30682,8.35822Q618.18692,270.17563,618.19,269.97137Z"/>
      <path class="cls-10" d="M594.41284,248.86424c-2.0531.27333-4.11627.48737-6.15741.83165a51.88924,51.88924,0,0,0-14.601,5.0603,46.00326,46.00326,0,0,0-6.30835,3.92645,53.61432,53.61432,0,0,0-9.33417,8.6012,55.16254,55.16254,0,0,0-8.19629,12.647,58.267,58.267,0,0,0-5.34839,29.16577,54.24925,54.24925,0,0,0,5.80371,21.36221,96.22078,96.22078,0,0,0,5.01978,8.31931,39.00918,39.00918,0,0,0,7.737,8.58344,54.42875,54.42875,0,0,0,5.10388,4.01611c2.566,1.65533,5.27063,3.09952,7.94409,4.58344,4.54321,2.52179,9.56744,3.3967,14.6001,4.322a36.39909,36.39909,0,0,0,11.3324.356,55.02293,55.02293,0,0,0,15.80261-4.01508,59.66457,59.66457,0,0,0,7.09558-3.79584,57.43266,57.43266,0,0,0,10.63342-8.82806c.81061-.838,1.5014-1.792,2.26392-2.71274-.65759-.77744-1.2854-1.586-1.98169-2.3306-2.28876-2.44745-4.61383-4.86093-6.90338-7.30765-2.66272-2.84555-5.30389-5.7113-7.95215-8.5704q-3.79578-4.098-7.58752-8.19977-4.00827-4.326-8.017-8.65143c-.39276-.42624-.71643-.91617-1.11432-1.43134a1.18594,1.18594,0,0,1,.16144-.29166q2.50854-2.68648,5.02576-5.36478,4.63037-4.95474,9.25348-9.91638c2.46539-2.65186,4.91412-5.31921,7.37543-7.97491,2.74384-2.96054,5.50031-5.90933,8.23724-8.87616,1.1684-1.26657,2.30121-2.566,3.53278-3.94272a16.90758,16.90758,0,0,0-1.50061-1.848c-2.38287-2.24646-4.70776-4.57281-7.25238-6.62357-2.079-1.67554-4.4505-2.9856-6.67291-4.48654-2.89673-1.95636-6.21521-2.91382-9.438-4.12781a42.38192,42.38192,0,0,0-11.62195-2.31323,4.6347,4.6347,0,0,1-.69983-.166h43.85455V361.09866H537.88V248.86426Q566.14645,248.86423,594.41284,248.86424Z"/>
      <path d="M618.19,269.97137a7.4142,7.4142,0,1,1-7.32355-7.95016C615.07086,262.06509,618.28333,265.9133,618.19,269.97137Z"/>
      <circle class="cls-3" cx="614.54919" cy="266.19995" r="2.4127"/>
    </g>
    <g>
      <path class="cls-3" d="M221.91608,295.68417c.45929-7.2915.95711-13.74719,1.24632-20.21674.25964-5.80768.24719-11.63269.438-17.446.11018-3.35782,1.07762-4.2153,3.75323-4.15579,8.07425.17957,16.14987.28134,24.22533.35474,1.73949.01581,3.07719,1.98416,2.68924,4.42407-1.3699,8.61539-2.70628,17.24124-4.23756,25.81467-.63119,3.534-1.97437,6.88617-2.536,10.42908-.54033,3.40869-.27164,7.00131-.7421,10.43488-1.128,8.23254-2.51408,16.4119-3.73463,24.62631-1.27734,8.59659-2.483,17.209-3.76453,26.12405a1.582,1.582,0,0,1-.96115.10587c-3.44164-1.05292-6.77393-.37738-10.14642.58563-.6463.18457-1.85474-.63629-2.25565-1.414-2.37462-4.60641-4.50116-9.40335-6.87926-14.0069-2.39713-4.64041-5.01146-9.113-7.49168-13.69049-2.87231-5.30112-5.61942-10.7067-8.59155-15.92212a58.92608,58.92608,0,0,0-4.65408-6.12039c-.71927,4.01254-1.47893,7.39578-1.91414,10.84006q-1.88342,14.90561-3.52274,29.85629a55.34036,55.34036,0,0,0-.24643,8.54837c.15367,3.27875-1.18536,5.17044-3.89592,4.48389a24.65274,24.65274,0,0,0-11.42332.19232c-2.056.44348-2.55762-.64163-2.57037-2.72144-.04532-7.39038.04195-14.78571-.15094-22.17023-.46565-17.82721-1.06306-35.64932-1.60321-53.47366q-.338-11.15428-.65945-22.30933c-.009-.30707.00626-.61691-.0213-.92123-.411-4.53992-.40836-4.70007,3.50751-4.5593,5.08846.18292,10.16766.73163,15.25581.95486,1.73952.07632,3.49586-.51346,5.24081-.48291a3.04711,3.04711,0,0,1,2.36285,1.25574c4.41946,7.6669,8.71384,15.441,13.06841,23.16385,2.984,5.29224,6.00623,10.55252,9.0188,15.82074C220.90132,294.40613,221.14862,294.66708,221.91608,295.68417Z"/>
      <path class="cls-3" d="M326.19058,475.27048c8.18588-5.13959,15.83093-9.93961,23.476-14.73959l.68231.707c-.48532,5.53037-.98712,11.05865-1.45026,16.59177-.3132,3.74176-.63574,7.48566-.821,11.23837a33.24425,33.24425,0,0,0,.48145,4.64246,25.492,25.492,0,0,1-4.09351.97635c-6.74615.57779-13.49615,1.11935-20.25131,1.50131-5.38739.30463-10.79477.16788-16.17233.60818a33.35029,33.35029,0,0,0-7.82941,2.02985c-2.35309.80249-2.49332-.98853-2.64062-2.68408a14.73527,14.73527,0,0,0,2.09283-3.24109c2.86984-8.93066,5.82275-17.83337,8.3689-26.9039,2.78772-9.93118,5.214-20.01569,7.701-30.069.91962-3.71744-.60907-7.96365-3.25589-9.809-2.89746-2.02008-7.58911-1.466-9.57779,1.42181-3.769,5.47308-6.72791,11.42761-7.09769,18.87289-.21942,4.41748-.98108,5.60941-2.60547,6.06949-2.51971-4.25989-4.743-8.36536-7.26-12.18256a113.84865,113.84865,0,0,0-9.119-12.59741c-2.86133-3.25156-1.259-6.33679-.20154-8.96a216.74037,216.74037,0,0,1,9.60245-21.09009c3.57071-6.68188,9.48468-10.03149,15.37231-12.66425,11.34674-5.07385,21.45111-1.21014,30.03641,8.34976,3.948,4.39618,5.35706,10.76331,5.31744,17.34821q-.0488,8.10956-.3815,16.21573c-.45666,10.79227-2.99722,21.04443-5.67557,31.243C329.4649,463.5675,327.93011,468.946,326.19058,475.27048Z"/>
      <path class="cls-3" d="M346.72809,302.38415c-5.45645,1.43158-10.593,2.83817-15.75525,4.05054a2.14418,2.14418,0,0,1-1.87708-1.33093c-1.2699-4.63474-2.18439-9.449-3.54309-14.03223-2.28717-7.71512-4.87732-15.27017-7.21689-22.959a76.77789,76.77789,0,0,1-1.94843-8.60965c-.38293-2.11328,1.33771-4.39175,2.99289-4.3085,4.92325.24765,9.85062.73843,14.77051.63507,11.40665-.23962,22.81088-.72589,34.214-1.201,9.38312-.391,18.76315-.91281,28.14484-1.36694.80606-.039,1.61407-.00516,2.512-.00516-1.06027,4.97675-2.08554,9.49081-2.97815,14.0509-1.25562,6.41461-2.39072,12.87091-3.62332,19.29373a34.84309,34.84309,0,0,1-1.70389,7.14,4.71011,4.71011,0,0,1-3.25906,2.22266,68.65018,68.65018,0,0,1-8.25189,1.00992c-1.417.12421-2.138.88467-2.18069,2.86261-.15881,7.34879-.6727,14.70941-.48535,22.03986.26,10.17172-.0062,20.32346-.01083,30.48367a7.19444,7.19444,0,0,0,.22522,1.95071c.84406,2.90817.50568,3.30273-1.93576,3.39676q-10.786.41547-21.56342,1.17615c-1.60132.11368-2.5094.07455-2.59659-2.57538-.249-7.56784-.569-15.13879-1.07974-22.68228-.63709-9.4101-1.47958-18.796-2.27045-28.18674A26.10251,26.10251,0,0,0,346.72809,302.38415Z"/>
      <path class="cls-3" d="M255.69447,326.6022c3.46819,2.83688,6.49721,5.4151,9.625,7.83627,1.95767,1.51541,3.93478,1.2258,5.7677-.488,2.42984-2.27191,3.46658-7.08655,2.55847-10.37427-1.37094-4.96313-4.60858-8.46634-7.19565-12.53394a133.7287,133.7287,0,0,1-8.0968-15.50439,39.79455,39.79455,0,0,1-3.09727-21.92838c1.19966-9.9837,9.96471-19.21149,18.626-20.92764a47.63367,47.63367,0,0,1,10.88-1.32144,29.46609,29.46609,0,0,1,14.97339,4.84122c4.07932,2.63925,8.82159,4.22964,11.75793,8.744a4.68571,4.68571,0,0,1,.91751,2.4278c-.26471,7.40384-.70084,14.80026-.94974,22.20453-.08661,2.57648.34491,5.17438.258,7.75082a3.22918,3.22918,0,0,1-1.45776,2.45038c-.82983.294-2.43927.02786-2.82492-.63315-2.4722-4.23761-6.88837-5.93558-9.79123-9.56479a37.04917,37.04917,0,0,0-2.91772-3.0448,6.952,6.952,0,0,0-8.29144-1.62146c-2.89105,1.35785-4.31192,4.30539-4.609,7.75162-.54541,6.32718,2.73621,10.757,6.23547,15.05109,4.47842,5.4957,9.12558,10.8129,11.94574,17.72949a21.481,21.481,0,0,1-.999,19.39279c-2.19266,4.076-4.764,7.69843-8.31622,10.22742a22.859,22.859,0,0,1-7.4295,3.57709,45.682,45.682,0,0,1-9.2395.89709c-4.95779.21756-8.68765-2.93253-12.41794-5.93549-2.22894-1.79434-4.31091-3.8129-6.53273-5.61893-1.691-1.37457-2.89609-2.5116-2.2159-5.41342.93265-3.97891,1.02531-8.19333,1.61176-12.28323A21.1669,21.1669,0,0,1,255.69447,326.6022Z"/>
      <path class="cls-3" d="M560.40137,477.40948c-.321,3.26916-.57214,6.80136-1.09589,10.27231-.0957.63434-1.28815,1.42429-1.99713,1.45959-14.211.70712-28.42615,1.28723-42.63824,1.96124-3.31635.15729-6.63461.45572-9.9328.90079-1.81219.24457-2.15894-1.07205-2.33453-2.64636-.7218-6.47025-1.47223-12.9386-2.03851-19.43021a49.93819,49.93819,0,0,1,.23749-6.47925l23.45941,5.3219c-1.33563-15.29825-2.891-29.65869-5.61035-44.70807a83.99021,83.99021,0,0,0-4.473,7.77008c-1.95917,4.46542-5.27072,8.00626-5.92761,13.40234-.20844,1.71234-1.54334,1.98486-2.62564.64713q-8.59854-10.62753-17.14813-21.3139c-1.28943-1.6095-2.44312-3.3902-3.79321-4.91559-1.47076-1.66171-1.284-3.18213-.01208-4.71368a21.48319,21.48319,0,0,1,2.15546-2.08719c4.14389-3.778,8.3667-7.43341,12.42386-11.345q8.85384-8.53606,17.50269-17.387c2.72034-2.77518,5.63019-1.50854,8.558-1.17783,6.3277.71478,12.6568,1.42728,18.99487,1.97641,1.73627.15042,2.39453.8316,2.2406,2.98526-.93677,13.11-1.98022,26.2132-2.66876,39.34357-.648,12.358-.88873,24.74753-1.34125,37.1214-.082,2.24338-.31421,4.479-.49042,6.71664-.12311,1.563.29663,2.40686,1.70715,2.69171C549.13257,474.90274,554.69342,476.16617,560.40137,477.40948Z"/>
      <path class="cls-3" d="M121.14924,249.58011l45.5388,4.03183c-.16731,2.74313-.24013,5.12112-.4688,7.47656-.89651,9.23468-1.92155,18.45193-2.73148,27.69748-.33463,3.81992-.1705,7.70093-.373,11.54318-.20309,3.85367-.60149,7.69141-.87653,11.54013-.46748,6.54141-.89655,13.08688-1.35828,19.62891-.42763,6.05893-1.02274,12.10742-1.25124,18.17694a41.89912,41.89912,0,0,0,.82339,8.37213c.28052,1.67618.14522,2.95166-1.35469,2.59833-5.66545-1.33456-11.27988-.10065-16.91089.1983-4.4393.23566-8.87642.54926-13.31076.89886-1.851.14594-2.86323-.639-2.89285-3.04306-.05248-4.25882-.063-8.5242-.27826-12.77271-.2409-4.75558-.66538-9.49847-1.05792-14.241-.20751-2.50708-.67209-4.99609-.73191-7.50354-.04914-2.06.43477-4.13257.46779-6.20468.01493-.9368-.67185-1.86911-.73219-2.83221-.47117-7.52072-.8106-15.05392-1.301-22.57257-.62474-9.57812-1.42882-19.13953-1.9985-28.722-.22281-3.74789-.08612-7.53656.03089-11.3A12.24566,12.24566,0,0,1,121.14924,249.58011Z"/>
      <path class="cls-3" d="M405.57742,251.02049l45.53879,4.03185c-.16733,2.74313-.24014,5.12112-.46881,7.47656-.89651,9.23468-1.92154,18.45193-2.73148,27.69748-.33463,3.81992-.1705,7.70093-.373,11.54318-.20309,3.85367-.60147,7.69141-.87653,11.54013-.46747,6.54141-.89655,13.08688-1.35828,19.62891-.42764,6.05893-1.02274,12.10742-1.25125,18.17694a41.89912,41.89912,0,0,0,.82339,8.37213c.28052,1.67618.14523,2.95166-1.35468,2.59833-5.66544-1.33456-11.27988-.10065-16.91089.1983-4.4393.23566-8.87643.54926-13.31076.89886-1.851.14594-2.86322-.639-2.89285-3.04306-.05249-4.25882-.063-8.5242-.27826-12.7727-.24091-4.75558-.66537-9.49847-1.05792-14.241-.20752-2.50708-.67209-4.99609-.7319-7.50354-.04913-2.06.43478-4.13257.4678-6.20468.01492-.9368-.67184-1.86911-.73218-2.83221-.47116-7.52072-.81061-15.05392-1.301-22.57257-.62473-9.57816-1.42883-19.13953-1.9985-28.722-.22281-3.74789-.08612-7.53656.03088-11.3A12.246,12.246,0,0,1,405.57742,251.02049Z"/>
      <path class="cls-3" d="M513.055,295.74756c.45929-7.2915.95709-13.74719,1.24634-20.21674.25964-5.80768.24719-11.63269.438-17.446.11017-3.35782,1.07764-4.2153,3.75323-4.15579,8.07428.17957,16.14984.28134,24.22534.35474,1.7395.01581,3.07721,1.98416,2.68927,4.42407-1.36993,8.61539-2.7063,17.24124-4.23755,25.81467-.63123,3.534-1.97437,6.88617-2.536,10.42908-.54034,3.40869-.27161,7.00131-.74207,10.43488-1.128,8.23254-2.5141,16.4119-3.73462,24.62631-1.27734,8.59659-2.483,17.209-3.76453,26.12405a1.58239,1.58239,0,0,1-.96112.10587c-3.44165-1.05292-6.77393-.37738-10.14642.58563-.6463.18457-1.85474-.63629-2.25568-1.414-2.37463-4.60641-4.50116-9.40335-6.87924-14.0069-2.39713-4.64041-5.01147-9.113-7.4917-13.69049-2.87231-5.30112-5.61942-10.7067-8.59155-15.92212a58.92823,58.92823,0,0,0-4.65408-6.12039c-.71927,4.01254-1.47894,7.39578-1.91415,10.84006q-1.88342,14.90561-3.52274,29.85629a55.33848,55.33848,0,0,0-.24643,8.54837c.15366,3.27875-1.18536,5.17044-3.89594,4.48389a24.65268,24.65268,0,0,0-11.42331.19232c-2.056.44348-2.55762-.64163-2.57037-2.72144-.04532-7.39038.04193-14.78571-.15094-22.17023-.46564-17.82721-1.063-35.64932-1.60321-53.47366q-.338-11.15428-.65945-22.30933c-.009-.30707.00626-.61691-.0213-.92123-.411-4.53992-.40836-4.70007,3.50751-4.5593,5.08847.18292,10.16766.73163,15.2558.95486,1.73953.07632,3.49588-.51346,5.24081-.48291a3.04711,3.04711,0,0,1,2.36285,1.25574c4.41946,7.6669,8.71384,15.441,13.06842,23.16385,2.984,5.29224,6.00623,10.55252,9.0188,15.82074C512.04028,294.46954,512.2876,294.73047,513.055,295.74756Z"/>
      <g>
        <path class="cls-3" d="M724.89,324.995c3.4682,2.97525,6.49719,5.67923,9.625,8.21851,1.95764,1.58933,3.93481,1.28558,5.7677-.51181,2.42981-2.38272,3.46661-7.43222,2.55847-10.88028-1.37091-5.2052-4.60858-8.8793-7.19562-13.14529a142.80986,142.80986,0,0,1-8.0968-16.26062,43.5778,43.5778,0,0,1-3.09729-22.99792c1.19965-10.47064,9.96472-20.14854,18.626-21.94843a45.53253,45.53253,0,0,1,10.88-1.38589,28.53368,28.53368,0,0,1,14.97339,5.07736c4.07935,2.768,8.82159,4.436,11.75793,9.17053a5.06048,5.06048,0,0,1,.91748,2.5462c-.26471,7.765-.70087,15.52216-.94971,23.2876-.08661,2.70215.34491,5.42679.258,8.12888a3.41452,3.41452,0,0,1-1.45776,2.56989c-.82983.30835-2.43927.02921-2.82489-.664-2.47223-4.44431-6.88837-6.22507-9.79126-10.03131a38.1265,38.1265,0,0,0-2.91772-3.19333c-2.45691-2.562-5.40179-3.124-8.29144-1.70056-2.89105,1.42407-4.31189,4.51541-4.609,8.1297-.54541,6.6358,2.73621,11.28168,6.23547,15.78522,4.47839,5.76373,9.12555,11.3403,11.94574,18.59427a23.50382,23.50382,0,0,1-.999,20.33871c-2.19269,4.27478-4.764,8.07394-8.31622,10.72629a22.42342,22.42342,0,0,1-7.4295,3.75156,43.62888,43.62888,0,0,1-9.2395.94083c-4.95776.22815-8.68762-3.07556-12.41791-6.225-2.22894-1.88187-4.31091-3.99887-6.53271-5.893-1.691-1.44162-2.89612-2.63409-2.21588-5.67746.93268-4.173,1.02533-8.593,1.61176-12.88235A22.96475,22.96475,0,0,1,724.89,324.995Z"/>
        <path class="cls-3" d="M724.89,324.995c3.4682,2.97525,6.49719,5.67923,9.625,8.21851,1.95764,1.58933,3.93481,1.28558,5.7677-.51181,2.42981-2.38272,3.46661-7.43222,2.55847-10.88028-1.37091-5.2052-4.60858-8.8793-7.19562-13.14529a142.80986,142.80986,0,0,1-8.0968-16.26062,43.5778,43.5778,0,0,1-3.09729-22.99792c1.19965-10.47064,9.96472-20.14854,18.626-21.94843a45.53253,45.53253,0,0,1,10.88-1.38589,28.53368,28.53368,0,0,1,14.97339,5.07736c4.07935,2.768,8.82159,4.436,11.75793,9.17053a5.06048,5.06048,0,0,1,.91748,2.5462c-.26471,7.765-.70087,15.52216-.94971,23.2876-.08661,2.70215.34491,5.42679.258,8.12888a3.41452,3.41452,0,0,1-1.45776,2.56989c-.82983.30835-2.43927.02921-2.82489-.664-2.47223-4.44431-6.88837-6.22507-9.79126-10.03131a38.1265,38.1265,0,0,0-2.91772-3.19333c-2.45691-2.562-5.40179-3.124-8.29144-1.70056-2.89105,1.42407-4.31189,4.51541-4.609,8.1297-.54541,6.6358,2.73621,11.28168,6.23547,15.78522,4.47839,5.76373,9.12555,11.3403,11.94574,18.59427a23.50382,23.50382,0,0,1-.999,20.33871c-2.19269,4.27478-4.764,8.07394-8.31622,10.72629a22.42342,22.42342,0,0,1-7.4295,3.75156,43.62888,43.62888,0,0,1-9.2395.94083c-4.95776.22815-8.68762-3.07556-12.41791-6.225-2.22894-1.88187-4.31091-3.99887-6.53271-5.893-1.691-1.44162-2.89612-2.63409-2.21588-5.67746.93268-4.173,1.02533-8.593,1.61176-12.88235A22.96475,22.96475,0,0,1,724.89,324.995Z"/>
      </g>
      <path class="cls-3" d="M670.59253,298.3406c-5.45642,1.43158-10.593,2.83817-15.75525,4.05054a2.14418,2.14418,0,0,1-1.87708-1.33093c-1.2699-4.63474-2.18439-9.449-3.54309-14.03223-2.28717-7.71512-4.87732-15.27017-7.21692-22.959a76.77115,76.77115,0,0,1-1.94843-8.60965c-.38293-2.11328,1.33771-4.39175,2.99292-4.3085,4.92322.24767,9.85065.73843,14.77051.63507,11.40668-.23962,22.81085-.72588,34.214-1.20106,9.38312-.391,18.76312-.91281,28.14484-1.36694.806-.039,1.61407-.00517,2.512-.00517-1.06024,4.97675-2.08557,9.49078-2.97815,14.0509-1.25562,6.41461-2.39075,12.87091-3.62329,19.29373a34.84316,34.84316,0,0,1-1.70392,7.14,4.71006,4.71006,0,0,1-3.259,2.22266,68.65094,68.65094,0,0,1-8.25189,1.00992c-1.417.12421-2.138.88467-2.18073,2.86261-.15881,7.34879-.67273,14.70941-.48535,22.03986.26,10.17172-.00616,20.32346-.0108,30.48367a7.19324,7.19324,0,0,0,.22522,1.95071c.84406,2.90817.50568,3.30273-1.93573,3.39676q-10.786.41547-21.56342,1.17615c-1.60132.11368-2.5094.07455-2.59656-2.57538-.249-7.56784-.569-15.13879-1.07971-22.68228-.63708-9.4101-1.47955-18.796-2.27045-28.18674A26.10246,26.10246,0,0,0,670.59253,298.3406Z"/>
      <path class="cls-3" d="M613.40454,373.6293c4.06537-.44183,7.78394,1.11322,11.60492,2.06235,4.08557,1.01486,6.88184,3.89572,9.48364,7.14a53.15665,53.15665,0,0,1,3.61682,4.65677c2.023,3.19113,3.66907,6.548,3.87677,10.59293.23468,4.57062.85083,9.11868,1.07275,13.68954a101.06982,101.06982,0,0,1,.007,11.8848,55.34758,55.34758,0,0,1-1.65216,8.80713c-.714,3.01483-1.52875,6.01456-2.51355,8.93631a44.335,44.335,0,0,1-2.30493,4.59036c-1.04285,2.2038-1.99622,4.45715-3.03058,6.66589-.392.837-.9046,1.60745-1.35876,2.41058-.95612,1.69092-1.816,3.45786-2.89459,5.05142a37.45738,37.45738,0,0,1-2.96094,3.427c-3.007,3.45551-5.96857,6.959-9.03845,10.3475a24.75006,24.75006,0,0,1-3.38513,2.7829c-2.29211,1.76743-4.53973,3.61661-6.92487,5.225-2.83942,1.91483-5.65094,4.05579-8.74738,5.30771a44.65013,44.65013,0,0,1-17.85724,3.59085c-.50311-.01236-1.30011-1.22824-1.413-1.98111-.47485-3.168-.44965-6.37183-1.31543-9.54062-.69867-2.55707-.5174-5.40414-.6394-8.12711a1.36244,1.36244,0,0,1,.78955-1.01144,30.64928,30.64928,0,0,1,5.14465-1.02451c2.02026-.14862,3.49573-1.33163,5.02856-2.489.91345-.68973,1.8172-1.39615,2.70068-2.12988.24493-.2034.55389-.53308.55121-.80148-.0022-.21915-.39349-.51926-.6662-.63638a20.53331,20.53331,0,0,1-6.88507-4.46262c-3.22937-3.36206-6.7489-6.57025-8.36139-11.29547a66.05263,66.05263,0,0,1-2.93994-10.52783,47.82325,47.82325,0,0,1,1.3255-22.26529c1.01971-3.25345,2.30933-6.41431,3.21124-9.70245a25.4804,25.4804,0,0,1,3.08716-7.44272c3.44513-5.21121,6.90637-10.42847,11.73407-14.30417a35.22412,35.22412,0,0,1,3.9541-2.65118c2.7569-1.65668,5.5191-3.30951,8.34167-4.8277a10.73339,10.73339,0,0,1,3.04767-.81064C609.192,374.35635,611.30029,374.005,613.40454,373.6293Zm3.04193,43.59818c-.26691-1.8125-.39679-3.66806-.825-5.4299-1.65247-6.79843-7.89972-7.03821-11.47729-4.2341-3.14429,2.46451-5.36237,6.32672-6.77161,10.55545a49.70195,49.70195,0,0,0-2.51764,11.20328c-.35986,3.8544.00708,7.26419,1.87372,10.52975,1.56671,2.74088,5.418,4.23172,7.62183,2.71335a22.35792,22.35792,0,0,0,7.12012-7.52206,37.197,37.197,0,0,0,4.97589-17.8158Z"/>
    </g>
    <path class="cls-11" d="M644.37018,450.28674H753.61279c31.41925,0,56.88977-24.87653,56.88977-55.5744v-112.703c0-30.68871-25.47046-55.5744-56.88977-55.5744H146.38719c-31.41926,0-56.88976,24.88571-56.88976,55.5744v112.703c0,30.69791,25.47049,55.5744,56.88976,55.5744l120.00368.00391"/>
  </g>
</svg>
