<?xml version="1.0" encoding="utf-8"?>
<!-- Generator: Adobe Illustrator 16.0.0, SVG Export Plug-In . SVG Version: 6.00 Build 0)  -->
<!DOCTYPE svg PUBLIC "-//W3C//DTD SVG 1.1//EN" "http://www.w3.org/Graphics/SVG/1.1/DTD/svg11.dtd">
<svg version="1.1" id="Layer_1" xmlns="http://www.w3.org/2000/svg" xmlns:xlink="http://www.w3.org/1999/xlink" x="0px" y="0px"
	 width="40px" height="115px" viewBox="0 0 40 115" enable-background="new 0 0 40 115" xml:space="preserve">
<g>
	<g opacity="0.5">
		<g>
			<defs>
				<rect id="SVGID_1_" x="1.086" y="4.63" width="37.828" height="107.67"/>
			</defs>
			<clipPath id="SVGID_2_">
				<use xlink:href="#SVGID_1_"  overflow="visible"/>
			</clipPath>
			<path clip-path="url(#SVGID_2_)" fill="#452919" d="M22.896,4.63c1.475,0.579,2.499,1.714,3.514,2.856
				c0.995,1.121,1.941,2.273,2.477,3.708c0.985,2.647,0.707,5.204-0.483,7.712c-0.648,1.367-1.586,2.524-2.559,3.666
				c-2.368,2.782-4.849,5.459-7.389,8.081c-1.607,1.66-2.702,3.585-3.042,5.894c-0.261,1.769-0.06,3.49,0.581,5.16
				c0.022,0.059,0.044,0.118,0.064,0.178c0.003,0.007-0.005,0.018-0.015,0.051c-0.654-0.167-1.284-0.406-1.901-0.676
				c-1.719-0.753-3.3-1.707-4.505-3.182c-0.993-1.218-1.558-2.599-1.446-4.197c0.091-1.297,0.624-2.432,1.353-3.486
				c0.982-1.418,2.276-2.5,3.664-3.498c2.775-1.993,5.551-3.982,8.336-5.96c1.618-1.15,3.092-2.458,4.199-4.128
				c1.151-1.737,1.24-3.584,0.51-5.5c-0.045-0.117-0.108-0.227-0.195-0.406c-0.092,0.278-0.166,0.498-0.238,0.719
				c-0.535,1.63-1.177,3.205-2.34,4.512c-0.993,1.117-2.142,2.06-3.333,2.947c-2.733,2.034-5.565,3.919-8.622,5.443
				c-0.428,0.212-0.87,0.391-1.336,0.504c-0.123,0.031-0.25,0.056-0.376,0.06c-0.219,0.005-0.471,0.052-0.572-0.222
				c-0.09-0.245,0.006-0.45,0.186-0.63c0.897-0.889,1.781-1.792,2.687-2.671c2.132-2.071,4.36-4.037,6.574-6.019
				c1.859-1.665,3.146-3.689,3.6-6.182c0.257-1.409,0.211-2.811-0.19-4.191c-0.069-0.24-0.03-0.402,0.16-0.543H22.896z"/>
			<path clip-path="url(#SVGID_2_)" fill="#452919" d="M14.68,109.503c0.065-1.581,0.115-3.104,0.198-4.625
				c0.047-0.846,0.085-1.691,0.126-2.536c0.067-1.384,0.14-2.769,0.196-4.153c0.034-0.855,0.083-1.711,0.124-2.567
				c0.064-1.374,0.142-2.747,0.195-4.121c0.032-0.856,0.088-1.712,0.123-2.567c0.036-0.846,0.1-1.689,0.127-2.535
				c0.011-0.328-0.104-0.529-0.372-0.705c-0.889-0.578-1.714-1.237-2.464-1.992c-1.519-1.529-2.518-3.321-2.909-5.459
				c-0.33-1.805-0.749-3.596-1.17-5.383c-0.402-1.709-0.836-3.406-1.363-5.08c-0.754-2.392-1.885-4.6-3.233-6.704
				c-0.981-1.533-1.96-3.07-2.929-4.612c-0.122-0.194-0.366-0.453-0.168-0.653c0.183-0.186,0.419,0.067,0.607,0.18
				c0.846,0.509,1.599,1.144,2.358,1.768c0.892,0.731,1.773,1.476,2.655,2.216c1.626,1.368,2.894,2.992,3.629,5.01
				c0.631,1.731,1.109,3.509,1.653,5.268c0.655,2.116,1.34,4.219,2.37,6.188c0.641,1.225,1.387,2.375,2.403,3.336
				c0.719,0.678,1.536,1.082,2.53,1.188c0.957,0.103,1.88,0.036,2.767-0.329c0.72-0.296,1.28-0.816,1.78-1.402
				c1.787-2.094,2.732-4.606,3.57-7.172c0.674-2.062,1.199-4.166,1.839-6.237c0.566-1.834,1.37-3.521,2.735-4.914
				c0.847-0.863,1.782-1.623,2.683-2.424c0.907-0.811,1.829-1.604,2.799-2.338c0.306-0.23,0.617-0.451,0.965-0.614
				c0.086-0.04,0.184-0.103,0.268-0.034c0.094,0.077,0.075,0.208,0.033,0.297c-0.117,0.25-0.247,0.494-0.391,0.728
				c-1.145,1.881-2.338,3.732-3.442,5.637c-1.089,1.879-1.917,3.867-2.519,5.952c-0.838,2.904-1.415,5.867-2.026,8.824
				c-0.183,0.877-0.301,1.769-0.559,2.631c-0.355,1.185-0.972,2.226-1.737,3.186c-0.932,1.171-2.055,2.129-3.297,2.954
				c-0.213,0.142-0.284,0.315-0.244,0.563c0.064,0.385,0.039,0.779,0.074,1.17c0.081,0.896,0.085,1.797,0.148,2.692
				c0.098,1.394,0.18,2.786,0.263,4.179c0.058,0.981,0.125,1.963,0.18,2.943c0.081,1.414,0.155,2.829,0.262,4.242
				c0.074,0.98,0.127,1.961,0.185,2.943c0.083,1.424,0.157,2.85,0.267,4.272c0.025,0.338,0.048,0.675,0.048,1.015
				c0.001,0.711-0.328,1.238-0.947,1.57c-0.841,0.451-1.758,0.663-2.692,0.799c-0.584,0.086-1.174,0.131-1.761,0.189
				c-0.49,0.048-0.975-0.037-1.458-0.071c-0.895-0.063-1.786-0.198-2.639-0.494c-0.359-0.124-0.73-0.233-1.045-0.454
				C14.836,110.825,14.599,110.202,14.68,109.503"/>
			<path clip-path="url(#SVGID_2_)" fill="#452919" d="M24.354,57.647c0.622-0.434,1.253-0.855,1.864-1.303
				c2.781-2.041,5.51-4.151,8.148-6.372c1.42-1.196,2.596-2.592,3.202-4.397c0.229-0.689,0.321-1.402,0.427-2.115
				c0.051-0.344,0.15-0.675,0.463-0.939c0.209,0.558,0.279,1.116,0.344,1.665c0.436,3.739-0.385,7.15-2.765,10.116
				c-1.515,1.889-3.424,3.314-5.525,4.491c-2.24,1.255-4.637,2.079-7.151,2.574c-0.416,0.082-0.838,0.117-1.266,0.054
				c-0.727-0.106-1.114-0.563-1.299-1.229c-0.179-0.649-0.186-1.319-0.205-1.988c-0.067-2.389,0.233-4.72,1.104-6.959
				c0.851-2.185,2.193-4.027,3.869-5.655c1.615-1.569,3.359-2.99,5.03-4.496c1.78-1.603,3.171-3.504,4.083-5.734
				c0.031-0.079,0.067-0.156,0.107-0.231c0.09-0.166,0.205-0.212,0.352-0.066c1.043,1.039,1.812,2.236,1.959,3.729
				c0.297,2.992-0.719,5.534-2.721,7.732c-2.061,2.261-4.202,4.443-6.331,6.637c-1.318,1.359-2.498,2.831-3.662,4.319
				c-0.029,0.038-0.048,0.082-0.073,0.123C24.324,57.617,24.339,57.632,24.354,57.647"/>
			<path clip-path="url(#SVGID_2_)" fill="#452919" d="M1.492,42.779c0.337,0.263,0.459,0.614,0.489,0.966
				c0.247,2.856,1.809,4.935,3.956,6.638c3.209,2.545,6.444,5.059,9.869,7.312c0.025,0.016,0.054,0.024,0.17,0.076
				c-0.593-0.728-1.126-1.391-1.669-2.045c-1.619-1.947-3.482-3.659-5.248-5.464c-1.329-1.358-2.697-2.68-3.933-4.124
				c-1.642-1.917-2.439-4.151-2.355-6.681c0.055-1.646,0.791-2.99,1.916-4.146c0.193-0.198,0.298-0.165,0.432,0.137
				c0.524,1.189,1.151,2.316,1.944,3.349c1.14,1.484,2.535,2.697,3.976,3.881c1.925,1.583,3.846,3.185,5.385,5.172
				c1.747,2.255,2.697,4.835,3.03,7.655c0.16,1.353,0.19,2.709,0.067,4.065c-0.02,0.231-0.068,0.463-0.131,0.687
				c-0.218,0.791-0.686,1.165-1.508,1.214c-0.883,0.053-1.726-0.182-2.57-0.389c-3.636-0.889-6.918-2.485-9.72-4.992
				c-3.309-2.96-4.728-6.701-4.472-11.099C1.163,44.256,1.278,43.52,1.492,42.779"/>
			<path clip-path="url(#SVGID_2_)" fill="#452919" d="M16.873,35.143c0.363,0.302,0.72,0.6,1.104,0.86
				c1.087,0.735,2.254,1.273,3.57,1.428c1.676,0.199,3.139-0.318,4.431-1.372c0.114-0.094,0.226-0.193,0.337-0.291
				c0.023-0.02,0.043-0.045,0.128-0.139c-0.584,0.22-1.104,0.358-1.646,0.374c-1.923,0.057-3.567-0.614-4.961-1.924
				c-0.334-0.314-0.444-0.71-0.387-1.16c0.173-1.374,0.81-2.533,1.666-3.588c0.471-0.581,0.478-0.576,0.966-0.03
				c0.521,0.581,1.106,1.083,1.795,1.456c1.353,0.732,2.696,0.726,4.03-0.044c0.937-0.541,1.659-1.312,2.31-2.16
				c0.261-0.34,0.312-0.338,0.521,0.032c1.598,2.827,1.772,5.728,0.313,8.644c-1.392,2.782-3.767,4.255-6.771,4.789
				c-1.123,0.2-2.257,0.268-3.386,0.046c-2.059-0.406-3.282-1.705-3.849-3.674c-0.275-0.957-0.356-1.938-0.259-2.931
				c0.008-0.074,0.02-0.148,0.035-0.22C16.823,35.212,16.847,35.188,16.873,35.143"/>
			<path clip-path="url(#SVGID_2_)" fill="#452919" d="M20.074,66.485c3.006-0.061,5.667,2.373,5.662,5.633
				c-0.004,3.115-2.445,5.645-5.696,5.645c-3.084,0.002-5.63-2.557-5.614-5.666C14.442,68.958,17.003,66.427,20.074,66.485"/>
		</g>
	</g>
	<path fill="#F09C00" d="M22.896,2.7c1.475,0.579,2.499,1.714,3.514,2.856c0.995,1.121,1.941,2.273,2.477,3.708
		c0.985,2.647,0.707,5.205-0.483,7.712c-0.648,1.367-1.586,2.524-2.559,3.667c-2.368,2.781-4.849,5.458-7.389,8.081
		c-1.607,1.659-2.702,3.584-3.042,5.893c-0.261,1.769-0.06,3.49,0.581,5.16c0.022,0.059,0.044,0.118,0.064,0.178
		c0.003,0.007-0.005,0.018-0.015,0.051c-0.654-0.167-1.284-0.405-1.901-0.676c-1.719-0.752-3.3-1.707-4.505-3.182
		c-0.993-1.217-1.558-2.598-1.446-4.197c0.091-1.296,0.624-2.432,1.353-3.486c0.982-1.418,2.276-2.5,3.664-3.497
		c2.775-1.993,5.551-3.983,8.336-5.961c1.618-1.15,3.092-2.457,4.199-4.128c1.151-1.737,1.24-3.583,0.51-5.5
		c-0.045-0.117-0.108-0.227-0.195-0.406c-0.092,0.279-0.166,0.498-0.238,0.719c-0.535,1.631-1.177,3.205-2.34,4.512
		c-0.993,1.117-2.142,2.06-3.333,2.947c-2.733,2.035-5.565,3.919-8.622,5.443c-0.428,0.212-0.87,0.391-1.336,0.505
		c-0.123,0.03-0.25,0.055-0.376,0.059c-0.219,0.005-0.471,0.052-0.572-0.222c-0.09-0.245,0.006-0.45,0.186-0.63
		c0.897-0.889,1.781-1.791,2.687-2.671c2.132-2.071,4.36-4.037,6.574-6.019c1.859-1.665,3.146-3.689,3.6-6.182
		c0.257-1.409,0.211-2.811-0.19-4.19c-0.069-0.241-0.03-0.403,0.16-0.544H22.896z"/>
	<path fill="#F8F8F9" d="M14.68,107.573c0.065-1.581,0.115-3.104,0.198-4.625c0.047-0.846,0.085-1.691,0.126-2.536
		c0.067-1.384,0.14-2.769,0.196-4.153c0.034-0.855,0.083-1.711,0.124-2.567c0.064-1.373,0.142-2.747,0.195-4.121
		c0.032-0.856,0.088-1.711,0.123-2.567c0.036-0.846,0.1-1.689,0.127-2.535c0.011-0.328-0.104-0.529-0.372-0.705
		c-0.889-0.578-1.714-1.237-2.464-1.992c-1.519-1.529-2.518-3.321-2.909-5.459c-0.33-1.805-0.749-3.594-1.17-5.383
		c-0.402-1.709-0.836-3.406-1.363-5.081c-0.754-2.391-1.885-4.599-3.233-6.703c-0.981-1.533-1.96-3.069-2.929-4.611
		c-0.122-0.195-0.366-0.453-0.168-0.654c0.183-0.185,0.419,0.067,0.607,0.18c0.846,0.51,1.599,1.145,2.358,1.768
		c0.892,0.731,1.773,1.475,2.655,2.218c1.626,1.366,2.894,2.99,3.629,5.008c0.631,1.731,1.109,3.511,1.653,5.269
		c0.655,2.115,1.34,4.219,2.37,6.188c0.641,1.225,1.387,2.375,2.403,3.336c0.719,0.678,1.536,1.082,2.53,1.188
		c0.957,0.103,1.88,0.036,2.767-0.329c0.72-0.296,1.28-0.816,1.78-1.402c1.787-2.094,2.732-4.606,3.57-7.172
		c0.674-2.062,1.199-4.165,1.839-6.237c0.566-1.834,1.37-3.521,2.735-4.914c0.847-0.863,1.782-1.623,2.683-2.424
		c0.907-0.81,1.829-1.603,2.799-2.338c0.306-0.23,0.617-0.45,0.965-0.613c0.086-0.041,0.184-0.104,0.268-0.034
		c0.094,0.076,0.075,0.208,0.033,0.297c-0.117,0.249-0.247,0.493-0.391,0.728c-1.145,1.88-2.338,3.731-3.442,5.638
		c-1.089,1.878-1.917,3.865-2.519,5.95c-0.838,2.904-1.415,5.869-2.026,8.824c-0.183,0.879-0.301,1.769-0.559,2.631
		c-0.355,1.185-0.972,2.226-1.737,3.186c-0.932,1.171-2.055,2.129-3.297,2.954c-0.213,0.142-0.284,0.315-0.244,0.563
		c0.064,0.385,0.039,0.779,0.074,1.17c0.081,0.896,0.085,1.797,0.148,2.693c0.098,1.393,0.18,2.785,0.263,4.178
		c0.058,0.981,0.125,1.963,0.18,2.943c0.081,1.415,0.155,2.829,0.262,4.242c0.074,0.98,0.127,1.962,0.185,2.943
		c0.083,1.424,0.157,2.85,0.267,4.272c0.025,0.338,0.048,0.675,0.048,1.015c0.001,0.711-0.328,1.238-0.947,1.57
		c-0.841,0.451-1.758,0.663-2.692,0.799c-0.584,0.086-1.174,0.131-1.761,0.189c-0.49,0.048-0.975-0.036-1.458-0.071
		c-0.895-0.062-1.786-0.198-2.639-0.494c-0.359-0.124-0.73-0.233-1.045-0.454C14.836,108.896,14.599,108.272,14.68,107.573"/>
	<path fill="#4197D3" d="M24.354,55.717c0.622-0.434,1.253-0.854,1.864-1.303c2.781-2.041,5.51-4.151,8.148-6.372
		c1.42-1.195,2.596-2.592,3.202-4.396c0.229-0.69,0.321-1.403,0.427-2.116c0.051-0.344,0.15-0.675,0.463-0.939
		c0.209,0.558,0.279,1.116,0.344,1.665c0.436,3.739-0.385,7.15-2.765,10.116c-1.515,1.889-3.424,3.314-5.525,4.491
		c-2.24,1.255-4.637,2.08-7.151,2.574c-0.416,0.082-0.838,0.117-1.266,0.055c-0.727-0.107-1.114-0.564-1.299-1.23
		c-0.179-0.649-0.186-1.319-0.205-1.988c-0.067-2.39,0.233-4.72,1.104-6.959c0.851-2.186,2.193-4.028,3.869-5.656
		c1.615-1.569,3.359-2.99,5.03-4.495c1.78-1.604,3.171-3.504,4.083-5.735c0.031-0.079,0.067-0.156,0.107-0.231
		c0.09-0.165,0.205-0.212,0.352-0.065c1.043,1.038,1.812,2.236,1.959,3.728c0.297,2.993-0.719,5.534-2.721,7.733
		c-2.061,2.261-4.202,4.442-6.331,6.636c-1.318,1.359-2.498,2.831-3.662,4.32c-0.029,0.037-0.048,0.081-0.073,0.122
		C24.324,55.687,24.339,55.702,24.354,55.717"/>
	<path fill="#52B162" d="M1.492,40.85c0.337,0.263,0.459,0.613,0.489,0.966c0.247,2.855,1.809,4.934,3.956,6.638
		c3.209,2.544,6.444,5.059,9.869,7.312c0.025,0.016,0.054,0.024,0.17,0.076c-0.593-0.728-1.126-1.392-1.669-2.046
		c-1.619-1.946-3.482-3.658-5.248-5.464c-1.329-1.357-2.697-2.68-3.933-4.123c-1.642-1.917-2.439-4.152-2.355-6.681
		c0.055-1.646,0.791-2.99,1.916-4.146c0.193-0.198,0.298-0.165,0.432,0.137c0.524,1.189,1.151,2.316,1.944,3.349
		c1.14,1.484,2.535,2.697,3.976,3.881c1.925,1.583,3.846,3.185,5.385,5.172c1.747,2.255,2.697,4.835,3.03,7.654
		c0.16,1.353,0.19,2.71,0.067,4.067c-0.02,0.23-0.068,0.462-0.131,0.687c-0.218,0.791-0.686,1.164-1.508,1.213
		c-0.883,0.053-1.726-0.182-2.57-0.389c-3.636-0.889-6.918-2.485-9.72-4.992C2.283,51.2,0.864,47.459,1.12,43.062
		C1.163,42.327,1.278,41.591,1.492,40.85"/>
	<path fill="#E14030" d="M16.873,33.213c0.363,0.303,0.72,0.6,1.104,0.86c1.087,0.735,2.254,1.273,3.57,1.429
		c1.676,0.198,3.139-0.318,4.431-1.373c0.114-0.094,0.226-0.192,0.337-0.29c0.023-0.021,0.043-0.046,0.128-0.14
		c-0.584,0.22-1.104,0.358-1.646,0.374c-1.923,0.057-3.567-0.613-4.961-1.923c-0.334-0.314-0.444-0.71-0.387-1.161
		c0.173-1.374,0.81-2.533,1.666-3.588c0.471-0.581,0.478-0.576,0.966-0.03c0.521,0.582,1.106,1.083,1.795,1.457
		c1.353,0.73,2.696,0.725,4.03-0.045c0.937-0.54,1.659-1.311,2.31-2.16c0.261-0.339,0.312-0.337,0.521,0.032
		c1.598,2.828,1.772,5.728,0.313,8.644c-1.392,2.782-3.767,4.256-6.771,4.79c-1.123,0.2-2.257,0.268-3.386,0.045
		c-2.059-0.405-3.282-1.705-3.849-3.674c-0.275-0.957-0.356-1.938-0.259-2.931c0.008-0.074,0.02-0.147,0.035-0.22
		C16.823,33.282,16.847,33.258,16.873,33.213"/>
	<path fill="#F8F8F9" d="M20.074,64.557c3.006-0.062,5.667,2.372,5.662,5.632c-0.004,3.115-2.445,5.645-5.696,5.646
		c-3.084,0.001-5.63-2.56-5.614-5.668C14.442,67.029,17.003,64.497,20.074,64.557"/>
</g>
</svg>
