<svg id="Layer_2" data-name="Layer 2" xmlns="http://www.w3.org/2000/svg" viewBox="0 0 225.43 334.2"><title>jackson-2</title><path d="M698.5,91.5c-2-1-14-2-17-2s-11,3-21,3-27,3-27,3-2-2-4-1-5,1-7,1-2,1-2,1h-3c-2,0-7,2-7,4s-3,2-3,2c-5-1-6.5,1.5-6.5,1.5-2,3-10,2-10,2a4.9,4.9,0,0,1-3.5-.5c-2-1-3-1-5,1a17.27,17.27,0,0,1-4,3,4.94,4.94,0,0,0-3-1s2-3,2-4,2-5,3-7a13.38,13.38,0,0,0,1-5s2,2,8,4-2-12-2-12l4-5,1-6c1-6-5-9-5-9s-9-8-11-8a4.38,4.38,0,0,0-3,1s-11-1-17-2-14,2-19,3-3,1-18,6-23,8-29,13,1,13,1,13c0,7,2,7,6,10s8,12,14,17,9,13,9,13c-3,4-9,70-9,73s-1,5-1,7v8c10-7,21-10,23-11s5,1,5,1-2,8-1,10,2,6,2,12,8,33,10,41,8,20,8,20l-4,22s-4,21-5,25,1,7-1,10a91.43,91.43,0,0,0-7,14,2.05,2.05,0,0,0,2,3,17.27,17.27,0,0,1-2,7c-2,4,0,17,0,17h19a15.77,15.77,0,0,0-1-4c-1-3-4-12-4-14s4,1,5,1,1-5,1-5c5-8,9-29,9-29,1,4,10,20,10,20a83.76,83.76,0,0,0,2,10c1,3,2,2,3,3s-4,6-7,11-1,7-1,7h24c2-11-2-17-3-19s1-5,1-5c-4-8-7-32-9-37s-3-12-5-17-2-9-3-11-1-10-1-10c2-16,12-50,14-64s-2-25-1-26,3,7,2,12,3,9,3,9c8-29-3-93-3-93s0-1,9-2,23-13,23-13c3,1,4,0,4,0,3,1,8-1,8-1l-1-5c21,0,40-7,43-8s4,1,8,5,7,1,7,1c3,0,4-1,4-1,6,0,2-4,2-4s5,4,8,6,3,1,3,1C712.5,103.5,700.5,92.5,698.5,91.5Zm-151-15c-2,2,1,4-1,5s-1,8-1,10-1,2-4,6,3,4,3,4v-2c0-2,4,0,4,0,0,3-6,6-8,6s-2-2-3-4-4-4-6-4-2,0-6-1-6-5-8-5-2-4-4-5a7.47,7.47,0,0,1-3-3,195.75,195.75,0,0,1,26-16c1,1,5,1,5,1,8,1,10,4,10,4Z" transform="translate(-488.07 -55.3)"/></svg>