<svg xmlns="http://www.w3.org/2000/svg" viewBox="0 0 165.86 404"><defs><style>.cls-1,.cls-2{fill:#fff;}.cls-2{stroke:#000;stroke-miterlimit:10;}</style></defs><title>jackson-1</title><g id="Layer_2" data-name="Layer 2"><path class="cls-1" d="M449.49,414.58s2-8.08,14-21.08l-19-15-17,18,8,21Z" transform="translate(-369.5 -31.5)"/><polygon class="cls-1" points="121 375 130.47 365.92 108 357 99 378 113 379 121 375"/><path d="M517,105s-.5-5.5,1.5-6.5,2-7,4-11a78.38,78.38,0,0,0,5-14,28.05,28.05,0,0,0,1-5s4,0,4-2,1-7-4-9c0,0,1-7-3-8a43.31,43.31,0,0,1,1,5s-3-1-3-5-5-3-7-10-11-7-11-7l3,3a44.17,44.17,0,0,1-8-3,7.81,7.81,0,0,0-5,2s-1-3-4-3-6,6-16,13a89,89,0,0,1-26,15s-11,4-12,9c0,0,6-7,13-6,0,0,1,2-3,1s-10,9-7,12c0,0,6-7,5-3a5.28,5.28,0,0,1-5,4s-10,0-11,3a28,28,0,0,0,12-1,91.53,91.53,0,0,1-13,7,2.19,2.19,0,0,0-1,3s5-2,3,2c0,0-19-2-23,16l-2,3-14,13s-13,5-17,12-5,5-5,10,2,32,34,68c0,0,7,8,7,13s3,22,20,34,22,14,28,20,18,16,26,20c0,0-2,3,3,8,0,0,3,0-6,12s-7,15-20,23c0,0-10,20-18,28,0,0,1,2-7,3a125.3,125.3,0,0,1-14,1s-6,9-1,24v25s0,10,5,11c0,0,8-10,18-14,0,0,11-10,3-11s-9,4-10,1,3-8,3-14a62.68,62.68,0,0,1,1-11l3-3,17,16,10-9s0,2-3,6-4,11-4,11-19,14-14,25l3,4h5s3-4,10-7,13-13,16-16l6-6s-8,4-12,2l-4-2s2-13,4-12,7,5,10,5h9a17.8,17.8,0,0,0,7-10s6-10,9-16,11-27,14-39,5-11,6-16,3-15,1-20-9-15-11-20-24-33-36-50c0,0,1-12-6-20s-8-9-6-14,10-17,11-24-1-32-1-32-3-19-2-22-2-16-1-17,5,5,7,5c0,0,1,1,6-2,0,0,1,2-1,5s-7,7-2,11c0,0-2-6,3-9,0,0,0,6,2,7v-10s4-6,3-9c0,0,3,2,4,0l1-2s-3,7-3,10v4s4-12,7-15,3-7,4-6-1,3-3,7a76,76,0,0,0-4,11c-1,3-6,6-6,6s4-1,12-9a44.17,44.17,0,0,1-3,8s4-2,5-8C514.5,103.5,514.5,100.5,517,105Z" transform="translate(-369.5 -31.5)"/><path class="cls-2" d="M404.5,109.5l14,7,6,14-19,12-2-13-14-9A65.08,65.08,0,0,0,404.5,109.5Z" transform="translate(-369.5 -31.5)"/><path class="cls-2" d="M477.5,103.5l4,5s1,9-1,14c0,0,0-9-3-10v11s6,7,3,14-4,10-4,12,3,10,2,15,1,5,1,5,0-6,2-9,2-18,2-18,2,14,1,20-6,24-15,33l-13-1s15-19,15-32-3-28-2-34,3-12,5-15S477.5,103.5,477.5,103.5Z" transform="translate(-369.5 -31.5)"/></g></svg>