<?xml version="1.0" encoding="UTF-8"?>
<svg width="775px" height="844px" viewBox="0 0 775 844" version="1.1" xmlns="http://www.w3.org/2000/svg" xmlns:xlink="http://www.w3.org/1999/xlink">
    <!-- Generator: Sketch 52.6 (67491) - http://www.bohemiancoding.com/sketch -->
    <title>film copy</title>
    <desc>Created with Sketch.</desc>
    <defs>
        <path d="M2.432,3.128 C2.14,2.596 1.868,2.056 1.596,1.512 C1.868,2.056 2.148,2.592 2.432,3.128" id="path-1"></path>
        <linearGradient x1="1131.15%" y1="1507%" x2="1131.15%" y2="-469.56%" id="linearGradient-3">
            <stop stop-color="#F6EEDA" offset="0%"></stop>
            <stop stop-color="#A09470" offset="100%"></stop>
        </linearGradient>
        <path d="M2.508,20.1041667 C2.504,20.1 2.5,20.0958333 2.496,20.0875 L2.496,3.1125 C2.496,2.33333333 2.568,1.575 2.704,0.841666667 C2.576,1.56666667 2.508,2.3125 2.508,3.075 L2.508,20.1041667" id="path-4"></path>
        <linearGradient x1="1502.6%" y1="135.539693%" x2="1502.6%" y2="-51.3454467%" id="linearGradient-6">
            <stop stop-color="#449D95" offset="0%"></stop>
            <stop stop-color="#2F6451" offset="100%"></stop>
        </linearGradient>
        <path d="M0.1625,6.364 C0.529166667,6.264 0.9,6.164 1.2625,6.06 C0.9,6.168 0.533333333,6.268 0.1625,6.364 M12.2166667,1.996 C13.2625,1.512 14.2916667,1 15.3083333,0.468 C15.3041667,0.472 15.3,0.476 15.2958333,0.48 L15.2916667,0.48 L15.1666667,0.56 C14.1916667,1.064 13.2125,1.544 12.2166667,1.996" id="path-7"></path>
        <linearGradient x1="-46.3791267%" y1="167.620427%" x2="-46.3791267%" y2="-145.298805%" id="linearGradient-9">
            <stop stop-color="#F6EEDA" offset="0%"></stop>
            <stop stop-color="#A09470" offset="100%"></stop>
        </linearGradient>
        <path d="M91.1033043,2.832 L0.575304348,2.832 C0.558608696,2.82 0.541913043,2.804 0.525217391,2.792 L91.1533913,2.792 C91.1366957,2.804 91.12,2.82 91.1033043,2.832" id="path-10"></path>
        <linearGradient x1="59.0475752%" y1="50.5%" x2="59.0475752%" y2="-813.47%" id="linearGradient-12">
            <stop stop-color="#A78561" offset="0%"></stop>
            <stop stop-color="#6E5436" offset="100%"></stop>
        </linearGradient>
        <path d="M48.5071429,99.0464 L54.1828571,99.0464 L54.1828571,78.2048 L48.5071429,78.2048 L48.5071429,99.0464 Z M36.5342857,99.0464 L42.21,99.0464 L42.21,78.2048 L36.5342857,78.2048 L36.5342857,99.0464 Z M24.5614286,99.0464 L30.2371429,99.0464 L30.2371429,78.2048 L24.5614286,78.2048 L24.5614286,99.0464 Z M12.5885714,99.0464 L18.2642857,99.0464 L18.2642857,78.2048 L12.5885714,78.2048 L12.5885714,99.0464 Z M0.615714286,99.0464 L6.29142857,99.0464 L6.29142857,78.2048 L0.615714286,78.2048 L0.615714286,99.0464 Z M48.5071429,21.504 L54.1828571,21.504 L54.1828571,0.6624 L48.5071429,0.6624 L48.5071429,21.504 Z M36.5342857,21.504 L42.21,21.504 L42.21,0.6624 L36.5342857,0.6624 L36.5342857,21.504 Z M24.5614286,21.504 L30.2371429,21.504 L30.2371429,0.6624 L24.5614286,0.6624 L24.5614286,21.504 Z M12.5885714,21.504 L18.2642857,21.504 L18.2642857,0.6624 L12.5885714,0.6624 L12.5885714,21.504 Z M0.615714286,21.504 L6.29142857,21.504 L6.29142857,0.6624 L0.615714286,0.6624 L0.615714286,21.504 Z" id="path-13"></path>
        <linearGradient x1="-0.00531443756%" y1="49.9955207%" x2="90.4106997%" y2="49.9955207%" id="linearGradient-15">
            <stop stop-color="#FFFFFF" offset="0%"></stop>
            <stop stop-color="#FFFFFF" stop-opacity="0.133" offset="72%"></stop>
            <stop stop-color="#FFFFFF" stop-opacity="0" offset="100%"></stop>
        </linearGradient>
    </defs>
    <g id="Page-2" stroke="none" stroke-width="1" fill="none" fill-rule="evenodd">
        <g id="Desktop-HD" transform="translate(0.000000, -4956.000000)">
            <g id="film-copy" transform="translate(0.000000, 4956.000000)">
                <g id="Group-30" transform="translate(384.500000, 217.500000) scale(-1, 1) translate(-384.500000, -217.500000) translate(189.000000, 0.000000)">
                    <path d="M123.101036,113 L340.89482,113 C347.583543,113 353,118.405853 353,125.069072 L353,273 L111,273 L111,125.069072 C111,118.405853 116.420601,113 123.101036,113" id="Fill-534" fill="#222222"></path>
                    <path d="M374,103.004161 C374,132.273377 350.275239,156 321.004161,156 C291.728921,156 268,132.273377 268,103.004161 C268,73.7266232 291.728921,50 321.004161,50 C350.275239,50 374,73.7266232 374,103.004161" id="Fill-535" fill="#222222"></path>
                    <path d="M334.991474,52.5059361 C337.144945,55.486758 338.428745,59.2127854 338.428745,63.1872146 C338.428745,73.3716895 330.187576,81.6103501 320,81.6103501 C309.812424,81.6103501 301.571255,73.3716895 301.571255,63.1872146 C301.571255,59.1713851 302.855055,55.486758 305.008526,52.4645358 C308.362972,47.7863014 313.829476,44.7226788 320,44.7226788 C326.211937,44.7226788 331.678441,47.7863014 334.991474,52.5059361 M312.504263,101.9793 C312.504263,97.8806697 315.813155,94.4858447 320,94.4858447 C324.141291,94.4858447 327.495737,97.8806697 327.495737,101.9793 C327.495737,106.160731 324.141291,109.514155 320,109.514155 C315.813155,109.514155 312.504263,106.160731 312.504263,101.9793 M376.818514,91.0496195 C376.818514,95.4794521 375.286236,99.4952816 372.718636,102.641705 C369.322777,106.823135 364.146163,109.514155 358.348356,109.514155 C348.16078,109.514155 339.91961,101.275495 339.91961,91.0496195 C339.91961,80.8651446 348.16078,72.626484 358.348356,72.626484 C360.170524,72.626484 361.951279,72.8748858 363.649208,73.4130898 C371.269184,75.6487062 376.818514,82.686758 376.818514,91.0496195 M276.350792,73.4130898 C278.007308,72.8748858 279.788063,72.626484 281.610231,72.626484 C291.797808,72.626484 300.038977,80.8651446 300.038977,91.0496195 C300.038977,101.234094 291.797808,109.514155 281.610231,109.514155 C275.812424,109.514155 270.63581,106.823135 267.239951,102.600304 C264.672351,99.4538813 263.140073,95.4380518 263.140073,91.0496195 C263.140073,82.686758 268.689403,75.6487062 276.350792,73.4130898 M296.270402,154.599087 C286.082826,154.599087 277.841657,146.360426 277.841657,136.175951 C277.841657,135.720548 277.841657,135.306545 277.883069,134.851142 C278.545676,125.287671 286.538368,117.711416 296.270402,117.711416 C306.457978,117.711416 314.74056,125.991476 314.74056,136.175951 C314.74056,143.793607 310.102314,150.334855 303.476248,153.108676 C301.281364,154.060883 298.838002,154.599087 296.270402,154.599087 M362.158343,136.175951 C362.158343,142.468798 358.969549,148.057839 354.124239,151.369863 C351.183922,153.398478 347.580999,154.599087 343.688185,154.599087 C341.120585,154.599087 338.677223,154.060883 336.482339,153.108676 C329.856273,150.334855 325.25944,143.793607 325.25944,136.175951 C325.25944,125.991476 333.500609,117.711416 343.688185,117.711416 C347.539586,117.711416 351.142509,118.912024 354.082826,120.899239 C358.596833,124.004262 361.661389,129.013699 362.116931,134.768341 C362.158343,135.223744 362.158343,135.720548 362.158343,136.175951 M320,34 C282.43849,34 252,64.470624 252,101.9793 C252,104.546119 252.124239,107.112938 252.414129,109.596956 C256.224117,143.586606 285.00609,170 320,170 C332.423873,170 344.102314,166.646575 354.124239,160.809132 C374.375152,149.051446 388,127.109285 388,101.9793 C388,64.470624 357.56151,34 320,34" id="Fill-536" fill="#E4E4DF"></path>
                    <path d="M353.84416,160.267405 C343.805418,166.223711 332.058841,169.65686 319.520827,169.65686 C285.030877,169.65686 256.664142,143.804835 252.87358,110.590154 C252.581998,108.10836 252.41538,105.543839 252.41538,102.979318 C252.41538,66.2073988 282.448296,36.3845033 319.520827,36.3845033 C356.593359,36.3845033 386.58462,66.2073988 386.58462,102.979318 C386.58462,127.342266 373.463443,148.644334 353.84416,160.267405 M319.520827,32 C280.032333,32 248,63.8083309 248,102.979318 C248,105.543839 248.124964,108.066997 248.416545,110.590154 C248.9164,115.222837 249.874454,119.772793 251.207399,124.115934 C251.58229,125.232741 251.95718,126.308185 252.332071,127.383629 L252.41538,127.631809 C253.123507,129.575881 253.956598,131.437227 254.789688,133.298573 C255.372852,134.498107 255.95185,135.697641 256.622488,136.855811 C258.288669,139.875328 260.163123,142.729391 262.204195,145.459365 C268.285756,153.56656 276.075153,160.308768 285.030877,165.18963 L286.07224,165.768715 C286.738712,166.140985 287.446839,166.47189 288.154967,166.802796 C288.571512,167.050976 289.029712,167.299155 289.529566,167.464608 C290.862511,168.085057 292.195456,168.664142 293.61171,169.160501 C295.319546,169.905039 297.069036,170.484125 298.901835,170.980484 C299.818235,171.270026 300.730469,171.518206 301.651034,171.766385 C307.357705,173.214098 313.355957,174 319.520827,174 C320.562191,174 321.603554,173.958637 322.644917,173.917274 L323.353044,173.917274 C324.519371,173.834547 325.685698,173.751821 326.81037,173.627731 C331.600641,173.131372 336.265948,172.180017 340.764637,170.815031 C341.88931,170.442761 342.972327,170.070492 344.097,169.698223 C345.180017,169.284591 346.263035,168.870958 347.346053,168.415963 C348.387416,167.960967 349.470434,167.505971 350.511797,167.009613 C351.63647,166.47189 352.719487,165.892805 353.84416,165.31372 C375.962715,153.235654 391,129.865424 391,102.979318 C391,63.8083309 358.967667,32 319.520827,32" id="Fill-537" fill="#FFFFFE"></path>
                    <path d="M347,61.493744 C347,65.0805261 349.906962,68 353.502085,68 C357.084697,68 360,65.0805261 360,61.493744 C360,57.9027911 357.084697,55 353.502085,55 C349.906962,55 347,57.9027911 347,61.493744" id="Fill-538" fill="#FFFFFE"></path>
                    <path d="M217,70 C217,99.2627571 193.273377,123 164,123 C134.722462,123 111,99.2627571 111,70 C111,40.7247606 134.722462,17 164,17 C193.273377,17 217,40.7247606 217,70" id="Fill-539" fill="#4B534F"></path>
                    <path d="M200.357382,76.5141553 C190.172907,76.5141553 181.934247,68.2754947 181.934247,58.0910198 C181.934247,47.8651446 190.172907,39.626484 200.357382,39.626484 C202.178995,39.626484 203.959209,39.8748858 205.615221,40.3716895 C213.232877,42.6487062 218.821918,49.686758 218.821918,58.0910198 C218.821918,62.4380518 217.290107,66.4538813 214.764688,69.6003044 C211.369863,73.8231355 206.194825,76.5141553 200.357382,76.5141553 M185.743075,121.640487 C183.134855,121.640487 180.692237,121.102283 178.456621,120.150076 C173.778387,118.121461 170.13516,114.271233 168.396347,109.468798 C167.651142,107.522983 167.278539,105.370167 167.278539,103.175951 C167.278539,92.9914764 175.5586,84.7114155 185.743075,84.7114155 C195.430746,84.7114155 203.462405,92.2876712 204.12481,101.851142 C204.16621,102.306545 204.16621,102.720548 204.16621,103.175951 C204.16621,105.370167 203.793607,107.522983 203.048402,109.468798 C200.481583,116.54825 193.691933,121.640487 185.743075,121.640487 M169.514155,69.0207002 C169.514155,73.1607306 166.160731,76.5141553 162.0207,76.5141553 C157.839269,76.5141553 154.527245,73.1607306 154.527245,69.0207002 C154.527245,64.8806697 157.839269,61.5272451 162.0207,61.5272451 C166.160731,61.5272451 169.514155,64.8806697 169.514155,69.0207002 M177.00761,19.4645358 C179.160426,22.486758 180.443836,26.1713851 180.443836,30.1872146 C180.443836,40.3716895 172.205175,48.6517504 162.0207,48.6517504 C151.836225,48.6517504 143.597565,40.3716895 143.597565,30.1872146 C143.597565,26.1713851 144.880974,22.486758 147.03379,19.4645358 C150.387215,14.7863014 155.852055,11.7640791 162.0207,11.7640791 C168.189346,11.7640791 173.654186,14.7863014 177.00761,19.4645358 M118.42618,40.3716895 C120.082192,39.8748858 121.821005,39.626484 123.642618,39.626484 C133.868493,39.626484 142.107154,47.8651446 142.107154,58.0910198 C142.107154,68.2340944 133.868493,76.5141553 123.642618,76.5141553 C117.846575,76.5141553 112.671537,73.8231355 109.276712,69.6417047 C106.709893,66.4952816 105.178082,62.4794521 105.178082,58.0910198 C105.178082,49.686758 110.767123,42.6487062 118.42618,40.3716895 M138.298326,121.640487 C130.349467,121.640487 123.601218,116.58965 121.034399,109.551598 C120.289193,107.564384 119.87519,105.411568 119.87519,103.175951 C119.87519,102.720548 119.87519,102.306545 119.916591,101.851142 C120.578995,92.2876712 128.569254,84.7114155 138.298326,84.7114155 C148.482801,84.7114155 156.762861,92.9914764 156.762861,103.175951 C156.762861,105.370167 156.390259,107.522983 155.645053,109.468798 C153.90624,114.271233 150.263014,118.121461 145.584779,120.150076 C143.349163,121.102283 140.906545,121.640487 138.298326,121.640487 M162.0207,1 C124.429224,1 94,31.470624 94,69.0207002 C94,86.6986301 100.78965,102.844749 111.843531,114.933638 C124.305023,128.512938 142.148554,137 162.0207,137 C184.418265,137 204.249011,126.194521 216.669102,109.468798 C225.031963,98.1665145 230,84.1732116 230,69.0207002 C230,31.470624 199.570776,1 162.0207,1" id="Fill-540" fill="#E4E4DF"></path>
                    <path d="M162.02018,134 C142.929835,134 125.736417,125.769088 113.910897,112.656114 C103.376902,101.116698 97,85.8249534 97,69 C97,33.0906269 126.099658,4 162.02018,4 C197.940702,4 227,33.0906269 227,69 C227,83.8479205 222.035703,97.4854128 213.721515,108.419615 C201.815275,123.953445 183.088171,134 162.02018,134 M93,69.020099 C93,87.3906204 100.247597,104.113021 112.110982,116.45383 L112.110982,116.494029 C112.596854,117.016604 113.082726,117.49898 113.609088,118.021555 C114.297408,118.704923 115.026216,119.38829 115.795514,120.071657 C116.605301,120.795223 117.455578,121.518788 118.305855,122.242354 C119.156132,122.925721 120.046898,123.609088 120.937664,124.292456 C124.500728,126.945529 128.347218,129.277017 132.396155,131.206525 C133.408389,131.688902 134.420623,132.131081 135.473347,132.57326 C136.52607,133.015438 137.578794,133.417419 138.631518,133.8194 C141.830178,134.985144 145.109816,135.9097 148.510923,136.593067 C149.644626,136.834256 150.778328,137.035246 151.95252,137.196038 C153.086222,137.397029 154.260414,137.517623 155.434605,137.638217 C157.742499,137.879406 160.131372,138 162.520245,138 C163.532479,138 164.544713,137.959802 165.556947,137.919604 L166.245267,137.919604 C167.378969,137.839208 168.512671,137.758812 169.605884,137.638217 C170.780076,137.517623 171.954267,137.397029 173.08797,137.196038 C175.395864,136.874454 177.663268,136.392077 179.849694,135.829304 C180.983396,135.588115 182.076609,135.266531 183.169822,134.904748 C184.222546,134.583163 185.23478,134.221381 186.287504,133.859598 L186.53044,133.779202 C187.461695,133.417419 188.43344,133.055636 189.364696,132.653656 C191.510632,131.769298 193.57559,130.804544 195.600058,129.719196 L195.721526,129.6388 C198.474803,128.151471 201.106612,126.463152 203.616953,124.61404 L204.46723,123.970871 C205.236528,123.408098 205.965336,122.845325 206.694145,122.242354 C207.544422,121.518788 208.394699,120.795223 209.204486,120.071657 C210.054763,119.307894 210.86455,118.54413 211.633848,117.780367 C212.403146,117.016604 213.172444,116.212642 213.941742,115.368482 C214.670551,114.564521 215.399359,113.720361 216.128168,112.876202 C217.342849,111.429071 218.51704,109.901544 219.610253,108.333819 L219.610253,108.293621 C227.424701,97.1587533 232,83.6120012 232,69.020099 C232,30.9123216 200.863676,0 162.520245,0 C124.136324,0 93,30.9123216 93,69.020099 Z" id="Fill-541" fill="#FFFFFE"></path>
                    <path d="M190,28.5020867 C190,32.0953451 192.896308,35 196.502087,35 C200.086998,35 203,32.0953451 203,28.5020867 C203,24.9088283 200.086998,22 196.502087,22 C192.896308,22 190,24.9088283 190,28.5020867" id="Fill-542" fill="#FFFFFE"></path>
                    <polygon id="Fill-543" fill="#222222" points="78 228 110 228 110 166 78 166"></polygon>
                    <polygon id="Fill-544" fill="#4B534F" points="22 222 79 222 79 171 22 171"></polygon>
                    <polygon id="Fill-545" fill="#222222" points="0 217 22 217 22 174 0 174"></polygon>
                    <polygon id="Fill-546" fill="#222222" points="110 252 215 252 215 146 110 146"></polygon>
                    <g id="Group-549" transform="translate(247.000000, 116.000000)" fill="#000000">
                        <path d="M71.786963,82.55 C32.4625185,82.55 0.559111111,50.7494286 0.559111111,11.4668571 C0.559111111,7.78385714 0.857777778,4.20028571 1.3597037,0.666428571 C2.51703704,7.98685714 4.78607407,14.9427143 7.98844444,21.3517143 C8.27051852,21.9151429 8.55259259,22.4744286 8.85540741,23.0254286 C13.8954074,32.467 20.997037,40.6532857 29.5712593,46.967 C30.2142222,56.5701429 38.2367407,64.135 48.0097778,64.135 C50.6023704,64.135 53.0414815,63.5922857 55.2897778,62.6435714 C47.9102222,60.2034286 41.2856296,56.2221429 35.7478519,51.0435714 C46.3173333,57.2164286 58.629037,60.8 71.786963,60.8 C84.1940741,60.8 95.8586667,57.6182857 105.980148,52.0875714 L105.980148,52.6385714 C100.840593,57.0672857 94.8133333,60.4561429 88.2343704,62.6435714 C90.4785185,63.5922857 92.9176296,64.135 95.5143704,64.135 C99.450963,64.135 103.043259,62.9418571 105.980148,60.8497143 L105.980148,73.8375714 C95.8586667,79.3724286 84.1940741,82.55 71.786963,82.55" id="Fill-547"></path>
                    </g>
                    <g id="Group-552" transform="translate(253.000000, 136.000000)">
                        <mask id="mask-2" fill="white">
                            <use xlink:href="#path-1"></use>
                        </mask>
                        <g id="Clip-551"></g>
                        <path d="M2.432,3.128 C2.14,2.596 1.868,2.056 1.596,1.512 C1.868,2.056 2.148,2.592 2.432,3.128" id="Fill-550" fill="url(#linearGradient-3)" mask="url(#mask-2)"></path>
                    </g>
                    <g id="Group-555" transform="translate(108.000000, 122.000000)">
                        <mask id="mask-5" fill="white">
                            <use xlink:href="#path-4"></use>
                        </mask>
                        <g id="Clip-554"></g>
                        <path d="M2.508,20.1041667 C2.504,20.1 2.5,20.0958333 2.496,20.0875 L2.496,3.1125 C2.496,2.33333333 2.568,1.575 2.704,0.841666667 C2.576,1.56666667 2.508,2.3125 2.508,3.075 L2.508,20.1041667" id="Fill-553" fill="url(#linearGradient-6)" mask="url(#mask-5)"></path>
                    </g>
                    <g id="Group-558" transform="translate(109.000000, 113.000000)" fill="#000000">
                        <path d="M98.325,35.7584444 L7.85416667,35.7584444 C5.275,33.6946667 2.8875,31.4376667 0.654166667,29.045 L0.654166667,12.2428889 C0.654166667,11.4905556 0.725,10.7546667 0.858333333,10.0393333 C0.954166667,9.55422222 1.08333333,9.08555556 1.24583333,8.63333333 C4.1,11.6878889 7.35,14.5081111 10.8083333,16.9747778 C11.7541667,26.1672222 19.6208333,33.3781111 29.2291667,33.3781111 C31.8333333,33.3781111 34.3375,32.8313333 36.5416667,31.8446667 C30.0791667,29.7685556 24.1708333,26.4591111 19.0708333,22.2164444 C29.1833333,27.5978889 40.8,30.6606667 53.1125,30.6606667 C59.7041667,30.6606667 66.0916667,29.7767778 72.1625,28.1241111 C72.5333333,28.0254444 72.9,27.9226667 73.2625,27.8116667 C77.0541667,26.714 80.7166667,25.3121111 84.2166667,23.6347778 C85.2125,23.1702222 86.1916667,22.6768889 87.1666667,22.1588889 L87.2916667,22.0766667 L87.2958333,22.0766667 C82.1416667,26.3686667 76.1916667,29.7233333 69.6375,31.8446667 C71.8875,32.8313333 74.3875,33.3781111 76.95,33.3781111 C86.5541667,33.3781111 94.4625,26.122 95.4208333,16.9336667 L95.6375,16.7733333 C101.95,12.2058889 107.429167,6.62711111 111.8875,0.279555556 L121.904167,0.279555556 C117.904167,14.3888889 109.516667,26.7222222 98.325,35.7584444" id="Fill-556"></path>
                    </g>
                    <g id="Group-561" transform="translate(181.000000, 135.000000)">
                        <mask id="mask-8" fill="white">
                            <use xlink:href="#path-7"></use>
                        </mask>
                        <g id="Clip-560"></g>
                        <path d="M0.1625,6.364 C0.529166667,6.264 0.9,6.164 1.2625,6.06 C0.9,6.168 0.533333333,6.268 0.1625,6.364 M12.2166667,1.996 C13.2625,1.512 14.2916667,1 15.3083333,0.468 C15.3041667,0.472 15.3,0.476 15.2958333,0.48 L15.2916667,0.48 L15.1666667,0.56 C14.1916667,1.064 13.2125,1.544 12.2166667,1.996" id="Fill-559" fill="url(#linearGradient-9)" mask="url(#mask-8)"></path>
                    </g>
                    <g id="Group-564" transform="translate(117.000000, 146.000000)">
                        <mask id="mask-11" fill="white">
                            <use xlink:href="#path-10"></use>
                        </mask>
                        <g id="Clip-563"></g>
                        <path d="M91.1033043,2.832 L0.575304348,2.832 C0.558608696,2.82 0.541913043,2.804 0.525217391,2.792 L91.1533913,2.792 C91.1366957,2.804 91.12,2.82 91.1033043,2.832" id="Fill-562" fill="url(#linearGradient-12)" mask="url(#mask-11)"></path>
                    </g>
                    <path d="M256,226.5 C256,238.931507 266.076712,249 278.49589,249 C290.927397,249 301,238.931507 301,226.5 C301,214.076712 290.927397,204 278.49589,204 C266.076712,204 256,214.076712 256,226.5" id="Fill-565" fill="#4B534F"></path>
                    <path d="M331,189.491783 C331,193.078698 333.908976,196 337.504109,196 C341.091024,196 344,193.078698 344,189.491783 C344,185.904867 341.091024,183 337.504109,183 C333.908976,183 331,185.904867 331,189.491783" id="Fill-568" fill="#4B534F"></path>
                    <g id="Group-571" transform="translate(145.000000, 152.000000)">
                        <mask id="mask-14" fill="white">
                            <use xlink:href="#path-13"></use>
                        </mask>
                        <g id="Clip-570"></g>
                        <path d="M48.5071429,99.0464 L54.1828571,99.0464 L54.1828571,78.2048 L48.5071429,78.2048 L48.5071429,99.0464 Z M36.5342857,99.0464 L42.21,99.0464 L42.21,78.2048 L36.5342857,78.2048 L36.5342857,99.0464 Z M24.5614286,99.0464 L30.2371429,99.0464 L30.2371429,78.2048 L24.5614286,78.2048 L24.5614286,99.0464 Z M12.5885714,99.0464 L18.2642857,99.0464 L18.2642857,78.2048 L12.5885714,78.2048 L12.5885714,99.0464 Z M0.615714286,99.0464 L6.29142857,99.0464 L6.29142857,78.2048 L0.615714286,78.2048 L0.615714286,99.0464 Z M48.5071429,21.504 L54.1828571,21.504 L54.1828571,0.6624 L48.5071429,0.6624 L48.5071429,21.504 Z M36.5342857,21.504 L42.21,21.504 L42.21,0.6624 L36.5342857,0.6624 L36.5342857,21.504 Z M24.5614286,21.504 L30.2371429,21.504 L30.2371429,0.6624 L24.5614286,0.6624 L24.5614286,21.504 Z M12.5885714,21.504 L18.2642857,21.504 L18.2642857,0.6624 L12.5885714,0.6624 L12.5885714,21.504 Z M0.615714286,21.504 L6.29142857,21.504 L6.29142857,0.6624 L0.615714286,0.6624 L0.615714286,21.504 Z" id="Fill-569" fill="#4B534F" mask="url(#mask-14)"></path>
                    </g>
                    <polyline id="Fill-572" fill="#000000" points="258 293 250.015123 435 222.026465 435 214 293 258 293"></polyline>
                    <polyline id="Fill-573" fill="#222222" points="309 433 278.317593 433 247.883962 309.649771 226.074575 309.649771 217.616182 344.026745 195.640944 433 165 433 183.202131 309.649771 174.7852 309.649771 174.7852 270 299.878203 270 299.878203 309.649771 290.756407 309.649771 309 433"></polyline>
                </g>
                <ellipse id="Oval" fill="#000000" opacity="0.1" cx="387.5" cy="806.5" rx="387.5" ry="37.5"></ellipse>
                <polygon id="Path" fill="#4D0090" points="659.795734 403 103 411 83 639 660 639"></polygon>
                <polygon id="Path" fill="#FEF6E0" points="79 465 660 465 660 611 79 611"></polygon>
                <g id="Group-29" transform="translate(130.000000, 581.000000)" fill="#F8E71C">
                    <path d="M165.996312,12 C162.692071,12 160,9.3202454 160,6.00736196 C160,2.69447853 162.692071,0 165.996312,0 C169.300553,0 172,2.69447853 172,6.00736196 C172,9.3202454 169.300553,12 165.996312,12" id="Fill-269"></path>
                    <path d="M5.99631223,12 C2.6920713,12 0,9.3202454 0,6.00736196 C0,2.69447853 2.6920713,0 5.99631223,0 C9.30055317,0 12,2.69447853 12,6.00736196 C12,9.3202454 9.30055317,12 5.99631223,12" id="Fill-269-Copy"></path>
                    <path d="M205.014742,12 C201.697789,12 199,9.3202454 199,6.00736196 C199,2.69447853 201.697789,0 205.014742,0 C208.316953,0 211,2.69447853 211,6.00736196 C211,9.3202454 208.316953,12 205.014742,12" id="Fill-270"></path>
                    <path d="M45.014742,12 C41.6977887,12 39,9.3202454 39,6.00736196 C39,2.69447853 41.6977887,0 45.014742,0 C48.3169533,0 51,2.69447853 51,6.00736196 C51,9.3202454 48.3169533,12 45.014742,12" id="Fill-270-Copy"></path>
                    <path d="M243.01105,12 C239.696133,12 237,9.3202454 237,6.00736196 C237,2.69447853 239.696133,0 243.01105,0 C246.311234,0 249,2.69447853 249,6.00736196 C249,9.3202454 246.311234,12 243.01105,12" id="Fill-271"></path>
                    <path d="M83.0110497,12 C79.6961326,12 77,9.3202454 77,6.00736196 C77,2.69447853 79.6961326,0 83.0110497,0 C86.3112339,0 89,2.69447853 89,6.00736196 C89,9.3202454 86.3112339,12 83.0110497,12" id="Fill-271-Copy"></path>
                    <path d="M281.01105,12 C277.703499,12 275,9.3202454 275,6.00736196 C275,2.69447853 277.703499,0 281.01105,0 C284.325967,0 287,2.69447853 287,6.00736196 C287,9.3202454 284.325967,12 281.01105,12" id="Fill-272"></path>
                    <path d="M121.01105,12 C117.703499,12 115,9.3202454 115,6.00736196 C115,2.69447853 117.703499,0 121.01105,0 C124.325967,0 127,2.69447853 127,6.00736196 C127,9.3202454 124.325967,12 121.01105,12" id="Fill-272-Copy"></path>
                    <path d="M327.003683,12 C323.696133,12 321,9.3202454 321,6.00736196 C321,2.69447853 323.696133,0 327.003683,0 C330.303867,0 333,2.69447853 333,6.00736196 C333,9.3202454 330.303867,12 327.003683,12" id="Fill-273"></path>
                    <path d="M365.996312,12 C362.684696,12 360,9.3202454 360,6.00736196 C360,2.69447853 362.684696,0 365.996312,0 C369.315304,0 372,2.69447853 372,6.00736196 C372,9.3202454 369.315304,12 365.996312,12" id="Fill-274"></path>
                    <path d="M410.996312,12 C407.699447,12 405,9.3202454 405,6.00736196 C405,2.69447853 407.699447,0 410.996312,0 C414.307929,0 417,2.69447853 417,6.00736196 C417,9.3202454 414.307929,12 410.996312,12" id="Fill-275"></path>
                    <path d="M450,12 C446.708487,12 444,9.3202454 444,6.00736196 C444,2.69447853 446.708487,0 450,0 C453.321033,0 456,2.69447853 456,6.00736196 C456,9.3202454 453.321033,12 450,12" id="Fill-276"></path>
                    <path d="M496.011063,12 C492.699447,12 490,9.3202454 490,6.00736196 C490,2.69447853 492.699447,0 496.011063,0 C499.315304,0 502,2.69447853 502,6.00736196 C502,9.3202454 499.315304,12 496.011063,12" id="Fill-277"></path>
                </g>
                <g id="Group-29-Copy" transform="translate(130.000000, 479.000000)" fill="#F8E71C">
                    <path d="M165.996312,12 C162.692071,12 160,9.3202454 160,6.00736196 C160,2.69447853 162.692071,0 165.996312,0 C169.300553,0 172,2.69447853 172,6.00736196 C172,9.3202454 169.300553,12 165.996312,12" id="Fill-269"></path>
                    <path d="M5.99631223,12 C2.6920713,12 0,9.3202454 0,6.00736196 C0,2.69447853 2.6920713,0 5.99631223,0 C9.30055317,0 12,2.69447853 12,6.00736196 C12,9.3202454 9.30055317,12 5.99631223,12" id="Fill-269-Copy"></path>
                    <path d="M205.014742,12 C201.697789,12 199,9.3202454 199,6.00736196 C199,2.69447853 201.697789,0 205.014742,0 C208.316953,0 211,2.69447853 211,6.00736196 C211,9.3202454 208.316953,12 205.014742,12" id="Fill-270"></path>
                    <path d="M45.014742,12 C41.6977887,12 39,9.3202454 39,6.00736196 C39,2.69447853 41.6977887,0 45.014742,0 C48.3169533,0 51,2.69447853 51,6.00736196 C51,9.3202454 48.3169533,12 45.014742,12" id="Fill-270-Copy"></path>
                    <path d="M243.01105,12 C239.696133,12 237,9.3202454 237,6.00736196 C237,2.69447853 239.696133,0 243.01105,0 C246.311234,0 249,2.69447853 249,6.00736196 C249,9.3202454 246.311234,12 243.01105,12" id="Fill-271"></path>
                    <path d="M83.0110497,12 C79.6961326,12 77,9.3202454 77,6.00736196 C77,2.69447853 79.6961326,0 83.0110497,0 C86.3112339,0 89,2.69447853 89,6.00736196 C89,9.3202454 86.3112339,12 83.0110497,12" id="Fill-271-Copy"></path>
                    <path d="M281.01105,12 C277.703499,12 275,9.3202454 275,6.00736196 C275,2.69447853 277.703499,0 281.01105,0 C284.325967,0 287,2.69447853 287,6.00736196 C287,9.3202454 284.325967,12 281.01105,12" id="Fill-272"></path>
                    <path d="M121.01105,12 C117.703499,12 115,9.3202454 115,6.00736196 C115,2.69447853 117.703499,0 121.01105,0 C124.325967,0 127,2.69447853 127,6.00736196 C127,9.3202454 124.325967,12 121.01105,12" id="Fill-272-Copy"></path>
                    <path d="M327.003683,12 C323.696133,12 321,9.3202454 321,6.00736196 C321,2.69447853 323.696133,0 327.003683,0 C330.303867,0 333,2.69447853 333,6.00736196 C333,9.3202454 330.303867,12 327.003683,12" id="Fill-273"></path>
                    <path d="M365.996312,12 C362.684696,12 360,9.3202454 360,6.00736196 C360,2.69447853 362.684696,0 365.996312,0 C369.315304,0 372,2.69447853 372,6.00736196 C372,9.3202454 369.315304,12 365.996312,12" id="Fill-274"></path>
                    <path d="M410.996312,12 C407.699447,12 405,9.3202454 405,6.00736196 C405,2.69447853 407.699447,0 410.996312,0 C414.307929,0 417,2.69447853 417,6.00736196 C417,9.3202454 414.307929,12 410.996312,12" id="Fill-275"></path>
                    <path d="M450,12 C446.708487,12 444,9.3202454 444,6.00736196 C444,2.69447853 446.708487,0 450,0 C453.321033,0 456,2.69447853 456,6.00736196 C456,9.3202454 453.321033,12 450,12" id="Fill-276"></path>
                    <path d="M496.011063,12 C492.699447,12 490,9.3202454 490,6.00736196 C490,2.69447853 492.699447,0 496.011063,0 C499.315304,0 502,2.69447853 502,6.00736196 C502,9.3202454 499.315304,12 496.011063,12" id="Fill-277"></path>
                    <path d="M5.99631223,44 C2.6920713,44 0,41.3202454 0,38.007362 C0,34.6944785 2.6920713,32 5.99631223,32 C9.30055317,32 12,34.6944785 12,38.007362 C12,41.3202454 9.30055317,44 5.99631223,44" id="Fill-269-Copy-2"></path>
                    <path d="M5.99631223,77 C2.6920713,77 0,74.3202454 0,71.007362 C0,67.6944785 2.6920713,65 5.99631223,65 C9.30055317,65 12,67.6944785 12,71.007362 C12,74.3202454 9.30055317,77 5.99631223,77" id="Fill-269-Copy-3"></path>
                    <path d="M495.996317,45 C492.710866,45 490,42.3169533 490,38.992629 C490,35.7199017 492.710866,33 495.996317,33 C499.311234,33 502,35.7199017 502,38.992629 C502,42.3169533 499.311234,45 495.996317,45" id="Fill-280"></path>
                    <path d="M495.996317,78 C492.710866,78 490,75.3169533 490,71.992629 C490,68.7199017 492.710866,66 495.996317,66 C499.311234,66 502,68.7199017 502,71.992629 C502,75.3169533 499.311234,78 495.996317,78" id="Fill-280-Copy"></path>
                </g>
                <polygon id="Path" fill="#2A004E" points="2 454 107 410 107 801 2 801"></polygon>
                <polygon id="Path" fill="#4D0090" points="107 631 641 631 641 801 107 801"></polygon>
                <g id="Group-7" transform="translate(332.000000, 633.000000)">
                    <path d="M23,0 L84,0 L84,28.5 C84,45.3446849 70.3446849,59 53.5,59 L53.5,59 C36.6553151,59 23,45.3446849 23,28.5 L23,0 Z" id="Rectangle-2" fill="#E76160"></path>
                    <path d="M57,8 L76,8 L76,33.6333333 C76,43.7769632 67.7769632,52 57.6333333,52 C57.4213644,52 57.2102341,51.9964092 57,51.9892851 L57,8 Z" id="Combined-Shape-Copy" fill="#B73D56"></path>
                    <path d="M47,33 L66,33 C64.8484848,38.3333333 61.6818182,41 56.5,41 C51.3181818,41 48.1515152,38.3333333 47,33 Z" id="Path-9-Copy" fill="#FFFFFF" transform="translate(56.500000, 37.000000) scale(1, -1) translate(-56.500000, -37.000000) "></path>
                    <ellipse id="Oval-Copy-6" fill="#FFFFFF" cx="63.5" cy="19" rx="5.5" ry="4"></ellipse>
                    <path d="M0,0 L61,0 L61,28.5 C61,45.3446849 47.3446849,59 30.5,59 L30.5,59 C13.6553151,59 -1.48983474e-15,45.3446849 -3.55271368e-15,28.5 L0,0 Z" id="Rectangle-Copy-19" fill="#FFC876"></path>
                    <path d="M31,8 L50,8 L50,33.6333333 C50,43.7769632 41.7769632,52 31.6333333,52 C31.4213644,52 31.2102341,51.9964092 31,51.9892851 L31,8 Z" id="Combined-Shape" fill="#FF9065"></path>
                    <ellipse id="Oval" fill="#FFFFFF" cx="39.5" cy="19" rx="5.5" ry="4"></ellipse>
                    <ellipse id="Oval-Copy-5" fill="#FFFFFF" cx="18.5" cy="19" rx="5.5" ry="4"></ellipse>
                    <path d="M18,33 L37,33 C35.8484848,38.3333333 32.6818182,41 27.5,41 C22.3181818,41 19.1515152,38.3333333 18,33 Z" id="Path-9" fill="#FFFFFF"></path>
                </g>
                <path d="M660,604 L107,604 L107,617 L660,617 L660,604 Z M660,460 L107,460 L107,473 L660,473 L660,460 Z" id="Shape" fill="#3E0B49" fill-rule="nonzero"></path>
                <polygon id="Path" fill="#284F7C" opacity="0.45" points="330 714 413 714 413 801 330 801"></polygon>
                <polygon id="Path" fill="#FFFFFF" points="361 749 369 749 369 765 361 765"></polygon>
                <polygon id="Path" fill="#FFFFFF" points="377 749 385 749 385 765 377 765"></polygon>
                <polygon id="Path" fill="url(#linearGradient-15)" opacity="0.27" transform="translate(645.993122, 183.325589) rotate(18.000000) translate(-645.993122, -183.325589) " points="711.993122 227.712487 593.204814 235.825589 579.993122 195.024917 682.06221 130.825589"></polygon>
            </g>
        </g>
    </g>
</svg>