<?xml version="1.0" encoding="utf-8"?>
<!-- Generator: Adobe Illustrator 16.0.0, SVG Export Plug-In . SVG Version: 6.00 Build 0)  -->
<!DOCTYPE svg PUBLIC "-//W3C//DTD SVG 1.1//EN" "http://www.w3.org/Graphics/SVG/1.1/DTD/svg11.dtd">
<svg version="1.1" id="Layer_1" xmlns="http://www.w3.org/2000/svg" xmlns:xlink="http://www.w3.org/1999/xlink" x="0px" y="0px"
	 width="375px" height="300px" viewBox="0 0 375 300" enable-background="new 0 0 375 300" xml:space="preserve">
<rect x="-750" y="300" fill="#29001A" width="1504.502" height="900"/>
<g>
	<rect x="191.585" y="151.896" fill="#C47A38" width="8.148" height="8.145"/>
	<rect x="183.426" y="151.896" fill="#C47A38" width="8.148" height="8.145"/>
	<rect x="175.267" y="151.896" fill="#C47A38" width="8.147" height="8.145"/>
	<rect x="199.744" y="160.063" fill="#C47A38" width="8.148" height="8.146"/>
	<rect x="191.585" y="160.063" fill="#C47A38" width="8.148" height="8.146"/>
	<rect x="183.426" y="160.063" fill="#C47A38" width="8.148" height="8.146"/>
	<rect x="175.267" y="160.063" fill="#C47A38" width="8.147" height="8.146"/>
	<rect x="167.107" y="160.063" fill="#C47A38" width="8.145" height="8.146"/>
	<rect x="207.906" y="168.23" fill="#C47A38" width="8.146" height="8.146"/>
	<rect x="199.744" y="168.23" fill="#C47A38" width="8.148" height="8.146"/>
	<rect x="191.585" y="168.23" fill="#C47A38" width="8.148" height="8.146"/>
	<rect x="183.426" y="168.23" fill="#C47A38" width="8.148" height="8.146"/>
	<rect x="175.267" y="168.23" fill="#C47A38" width="8.147" height="8.146"/>
	<rect x="167.107" y="168.23" fill="#C47A38" width="8.145" height="8.146"/>
	<rect x="158.948" y="168.23" fill="#C47A38" width="8.145" height="8.146"/>
	<rect x="216.066" y="176.395" fill="#C47A38" width="8.148" height="8.146"/>
	<rect x="207.906" y="176.395" fill="#231F20" width="8.146" height="8.146"/>
	<rect x="199.744" y="176.395" fill="#231F20" width="8.148" height="8.146"/>
	<rect x="191.585" y="176.395" fill="#C47A38" width="8.148" height="8.146"/>
	<rect x="183.426" y="176.395" fill="#C47A38" width="8.148" height="8.146"/>
	<rect x="175.267" y="176.395" fill="#C47A38" width="8.147" height="8.146"/>
	<rect x="167.107" y="176.395" fill="#231F20" width="8.145" height="8.146"/>
	<rect x="158.948" y="176.395" fill="#231F20" width="8.145" height="8.146"/>
	<rect x="150.788" y="176.395" fill="#C47A38" width="8.148" height="8.146"/>
	<rect x="224.226" y="184.563" fill="#C47A38" width="8.146" height="8.146"/>
	<rect x="216.066" y="184.563" fill="#C47A38" width="8.148" height="8.146"/>
	<rect x="207.906" y="184.563" fill="#F0E8C3" width="8.146" height="8.146"/>
	<rect x="199.744" y="184.563" fill="#231F20" width="8.148" height="8.146"/>
	<rect x="191.585" y="184.563" fill="#231F20" width="8.148" height="8.146"/>
	<rect x="183.426" y="184.563" fill="#231F20" width="8.148" height="8.146"/>
	<rect x="175.267" y="184.563" fill="#231F20" width="8.147" height="8.146"/>
	<rect x="167.107" y="184.563" fill="#231F20" width="8.145" height="8.146"/>
	<rect x="158.948" y="184.563" fill="#F0E8C3" width="8.145" height="8.146"/>
	<rect x="150.788" y="184.563" fill="#C47A38" width="8.148" height="8.146"/>
	<rect x="142.626" y="184.563" fill="#C47A38" width="8.15" height="8.146"/>
	<rect x="224.226" y="192.729" fill="#C47A38" width="8.146" height="8.146"/>
	<rect x="216.066" y="192.729" fill="#C47A38" width="8.148" height="8.146"/>
	<rect x="207.906" y="192.729" fill="#F0E8C3" width="8.146" height="8.146"/>
	<rect x="199.744" y="192.729" fill="#231F20" width="8.148" height="8.146"/>
	<rect x="191.585" y="192.729" fill="#F0E8C3" width="8.148" height="8.146"/>
	<rect x="183.426" y="192.729" fill="#C47A38" width="8.148" height="8.146"/>
	<rect x="175.267" y="192.729" fill="#F0E8C3" width="8.147" height="8.146"/>
	<rect x="167.107" y="192.729" fill="#231F20" width="8.145" height="8.146"/>
	<rect x="158.948" y="192.729" fill="#F0E8C3" width="8.145" height="8.146"/>
	<rect x="150.788" y="192.729" fill="#C47A38" width="8.148" height="8.146"/>
	<rect x="142.626" y="192.729" fill="#C47A38" width="8.15" height="8.146"/>
	<rect x="232.385" y="200.895" fill="#C47A38" width="8.148" height="8.148"/>
	<rect x="224.226" y="200.895" fill="#C47A38" width="8.146" height="8.148"/>
	<rect x="216.066" y="200.895" fill="#C47A38" width="8.148" height="8.148"/>
	<rect x="207.906" y="200.895" fill="#F0E8C3" width="8.146" height="8.148"/>
	<rect x="199.744" y="200.895" fill="#F0E8C3" width="8.148" height="8.148"/>
	<rect x="191.585" y="200.895" fill="#F0E8C3" width="8.148" height="8.148"/>
	<rect x="183.426" y="200.895" fill="#C47A38" width="8.148" height="8.148"/>
	<rect x="175.267" y="200.895" fill="#F0E8C3" width="8.147" height="8.148"/>
	<rect x="167.107" y="200.895" fill="#F0E8C3" width="8.145" height="8.148"/>
	<rect x="158.948" y="200.895" fill="#F0E8C3" width="8.145" height="8.148"/>
	<rect x="150.788" y="200.895" fill="#C47A38" width="8.148" height="8.148"/>
	<rect x="142.626" y="200.895" fill="#C47A38" width="8.15" height="8.148"/>
	<rect x="134.467" y="200.895" fill="#C47A38" width="8.15" height="8.148"/>
	<rect x="232.385" y="209.061" fill="#C47A38" width="8.148" height="8.148"/>
	<rect x="224.226" y="209.061" fill="#C47A38" width="8.146" height="8.148"/>
	<rect x="216.066" y="209.061" fill="#C47A38" width="8.148" height="8.148"/>
	<rect x="207.906" y="209.061" fill="#C47A38" width="8.146" height="8.148"/>
	<rect x="199.744" y="209.061" fill="#C47A38" width="8.148" height="8.148"/>
	<rect x="191.585" y="209.061" fill="#C47A38" width="8.148" height="8.148"/>
	<rect x="183.426" y="209.061" fill="#C47A38" width="8.148" height="8.148"/>
	<rect x="175.267" y="209.061" fill="#C47A38" width="8.147" height="8.148"/>
	<rect x="167.107" y="209.061" fill="#C47A38" width="8.145" height="8.148"/>
	<rect x="158.948" y="209.061" fill="#C47A38" width="8.145" height="8.148"/>
	<rect x="150.788" y="209.061" fill="#C47A38" width="8.148" height="8.148"/>
	<rect x="142.626" y="209.061" fill="#C47A38" width="8.15" height="8.148"/>
	<rect x="134.467" y="209.061" fill="#C47A38" width="8.15" height="8.148"/>
	<rect x="224.226" y="217.229" fill="#C47A38" width="8.146" height="8.146"/>
	<rect x="216.066" y="217.229" fill="#C47A38" width="8.148" height="8.146"/>
	<rect x="207.906" y="217.229" fill="#C47A38" width="8.146" height="8.146"/>
	<rect x="199.744" y="217.229" fill="#F0E8C3" width="8.148" height="8.146"/>
	<rect x="191.585" y="217.229" fill="#F0E8C3" width="8.148" height="8.146"/>
	<rect x="183.426" y="217.229" fill="#F0E8C3" width="8.148" height="8.146"/>
	<rect x="175.267" y="217.229" fill="#F0E8C3" width="8.147" height="8.146"/>
	<rect x="167.107" y="217.229" fill="#F0E8C3" width="8.145" height="8.146"/>
	<rect x="158.948" y="217.229" fill="#C47A38" width="8.145" height="8.146"/>
	<rect x="150.788" y="217.229" fill="#C47A38" width="8.148" height="8.146"/>
	<rect x="142.626" y="217.229" fill="#C47A38" width="8.15" height="8.146"/>
	<rect x="224.226" y="225.396" fill="#231F20" width="8.146" height="8.146"/>
	<rect x="216.066" y="225.396" fill="#231F20" width="8.148" height="8.146"/>
	<rect x="207.906" y="225.396" fill="#F0E8C3" width="8.146" height="8.146"/>
	<rect x="199.744" y="225.396" fill="#F0E8C3" width="8.148" height="8.146"/>
	<rect x="191.585" y="225.396" fill="#F0E8C3" width="8.148" height="8.146"/>
	<rect x="183.426" y="225.396" fill="#F0E8C3" width="8.148" height="8.146"/>
	<rect x="175.267" y="225.396" fill="#F0E8C3" width="8.147" height="8.146"/>
	<rect x="167.107" y="225.396" fill="#F0E8C3" width="8.145" height="8.146"/>
	<rect x="158.948" y="225.396" fill="#231F20" width="8.145" height="8.146"/>
	<rect x="232.385" y="233.561" fill="#231F20" width="8.148" height="8.148"/>
	<rect x="224.226" y="233.561" fill="#231F20" width="8.146" height="8.148"/>
	<rect x="216.066" y="233.561" fill="#231F20" width="8.148" height="8.148"/>
	<rect x="207.906" y="233.561" fill="#231F20" width="8.146" height="8.148"/>
	<rect x="199.744" y="233.561" fill="#231F20" width="8.148" height="8.148"/>
	<rect x="191.585" y="233.561" fill="#F0E8C3" width="8.148" height="8.148"/>
	<rect x="183.426" y="233.561" fill="#F0E8C3" width="8.148" height="8.148"/>
	<rect x="175.267" y="233.561" fill="#F0E8C3" width="8.147" height="8.148"/>
	<rect x="167.107" y="233.561" fill="#F0E8C3" width="8.145" height="8.148"/>
	<rect x="158.948" y="233.561" fill="#231F20" width="8.145" height="8.148"/>
	<rect x="150.788" y="233.561" fill="#231F20" width="8.148" height="8.148"/>
	<rect x="232.385" y="241.729" fill="#231F20" width="8.148" height="8.146"/>
	<rect x="224.226" y="241.729" fill="#231F20" width="8.146" height="8.146"/>
	<rect x="216.066" y="241.729" fill="#231F20" width="8.148" height="8.146"/>
	<rect x="207.906" y="241.729" fill="#231F20" width="8.146" height="8.146"/>
	<rect x="199.744" y="241.729" fill="#231F20" width="8.148" height="8.146"/>
	<rect x="191.585" y="241.729" fill="#231F20" width="8.148" height="8.146"/>
	<rect x="183.426" y="241.729" fill="#F0E8C3" width="8.148" height="8.146"/>
	<rect x="175.267" y="241.729" fill="#F0E8C3" width="8.147" height="8.146"/>
	<rect x="167.107" y="241.729" fill="#231F20" width="8.145" height="8.146"/>
	<rect x="158.948" y="241.729" fill="#231F20" width="8.145" height="8.146"/>
	<rect x="150.788" y="241.729" fill="#231F20" width="8.148" height="8.146"/>
	<rect x="224.226" y="249.895" fill="#231F20" width="8.146" height="8.148"/>
	<rect x="216.066" y="249.895" fill="#231F20" width="8.148" height="8.148"/>
	<rect x="207.906" y="249.895" fill="#231F20" width="8.146" height="8.148"/>
	<rect x="199.744" y="249.895" fill="#231F20" width="8.148" height="8.148"/>
	<rect x="191.585" y="249.895" fill="#231F20" width="8.148" height="8.148"/>
	<rect x="183.426" y="249.895" fill="#F0E8C3" width="8.148" height="8.148"/>
	<rect x="175.267" y="249.895" fill="#231F20" width="8.147" height="8.148"/>
	<rect x="167.107" y="249.895" fill="#231F20" width="8.145" height="8.148"/>
	<rect x="158.948" y="249.895" fill="#231F20" width="8.145" height="8.148"/>
</g>
</svg>
