<?xml version="1.0" encoding="utf-8"?>
<!-- Generator: Adobe Illustrator 16.0.0, SVG Export Plug-In . SVG Version: 6.00 Build 0)  -->
<!DOCTYPE svg PUBLIC "-//W3C//DTD SVG 1.1//EN" "http://www.w3.org/Graphics/SVG/1.1/DTD/svg11.dtd">
<svg version="1.1" id="Layer_1" xmlns="http://www.w3.org/2000/svg" xmlns:xlink="http://www.w3.org/1999/xlink" x="0px" y="0px"
	 width="375px" height="300px" viewBox="0 0 375 300" enable-background="new 0 0 375 300" xml:space="preserve">
<rect x="-375" y="300" fill="#29001A" width="1504.502" height="900"/>
<g>
	<rect x="269.913" y="203.969" fill="#F7CF97" width="13.687" height="13.572"/>
	<rect x="269.913" y="190.467" fill="#F7CF97" width="13.687" height="13.57"/>
	<rect x="269.913" y="176.969" fill="#F7CF97" width="13.687" height="13.568"/>
	<rect x="269.913" y="163.467" fill="#4C3714" width="13.687" height="13.568"/>
	<rect x="256.18" y="244.473" fill="#4C3714" width="13.686" height="13.57"/>
	<rect x="242.445" y="244.473" fill="#4C3714" width="13.69" height="13.57"/>
	<rect x="228.717" y="244.473" fill="#4C3714" width="13.686" height="13.57"/>
	<rect x="214.982" y="244.473" fill="#4C3714" width="13.69" height="13.57"/>
	<rect x="146.327" y="244.473" fill="#4C3714" width="13.686" height="13.57"/>
	<rect x="132.593" y="244.473" fill="#4C3714" width="13.69" height="13.57"/>
	<rect x="118.864" y="244.473" fill="#4C3714" width="13.685" height="13.57"/>
	<rect x="105.13" y="244.473" fill="#4C3714" width="13.687" height="13.57"/>
	<rect x="242.445" y="230.971" fill="#4C3714" width="13.69" height="13.57"/>
	<rect x="228.717" y="230.971" fill="#4C3714" width="13.686" height="13.57"/>
	<rect x="214.982" y="230.971" fill="#4C3714" width="13.69" height="13.57"/>
	<rect x="146.327" y="230.971" fill="#4C3714" width="13.686" height="13.57"/>
	<rect x="132.593" y="230.971" fill="#4C3714" width="13.69" height="13.57"/>
	<rect x="118.864" y="230.971" fill="#4C3714" width="13.685" height="13.57"/>
	<rect x="228.717" y="217.471" fill="#BD202F" width="13.686" height="13.568"/>
	<rect x="214.982" y="217.471" fill="#BD202F" width="13.69" height="13.568"/>
	<rect x="201.253" y="217.471" fill="#BD202F" width="13.686" height="13.568"/>
	<rect x="160.056" y="217.471" fill="#BD202F" width="13.69" height="13.568"/>
	<rect x="146.327" y="217.471" fill="#BD202F" width="13.686" height="13.568"/>
	<rect x="132.593" y="217.471" fill="#BD202F" width="13.69" height="13.568"/>
	<rect x="256.18" y="203.969" fill="#FAB965" width="13.686" height="13.572"/>
	<rect x="242.445" y="203.969" fill="#FAB965" width="13.69" height="13.572"/>
	<rect x="228.717" y="203.969" fill="#BD202F" width="13.686" height="13.572"/>
	<rect x="214.982" y="203.969" fill="#BD202F" width="13.69" height="13.572"/>
	<rect x="201.253" y="203.969" fill="#BD202F" width="13.686" height="13.572"/>
	<rect x="187.52" y="203.969" fill="#BD202F" width="13.69" height="13.572"/>
	<rect x="173.791" y="203.969" fill="#BD202F" width="13.686" height="13.572"/>
	<rect x="160.056" y="203.969" fill="#BD202F" width="13.69" height="13.572"/>
	<rect x="146.327" y="203.969" fill="#BD202F" width="13.686" height="13.572"/>
	<rect x="132.593" y="203.969" fill="#BD202F" width="13.69" height="13.572"/>
	<rect x="118.864" y="203.969" fill="#FAB965" width="13.685" height="13.572"/>
	<rect x="105.13" y="203.969" fill="#FAB965" width="13.687" height="13.572"/>
	<rect x="91.4" y="203.969" fill="#FAB965" width="13.686" height="13.572"/>
	<rect x="256.18" y="190.467" fill="#FAB965" width="13.686" height="13.57"/>
	<rect x="242.445" y="190.467" fill="#FAB965" width="13.69" height="13.57"/>
	<rect x="228.717" y="190.467" fill="#FAB965" width="13.686" height="13.57"/>
	<rect x="214.982" y="190.467" fill="#BD202F" width="13.69" height="13.57"/>
	<rect x="201.253" y="190.467" fill="#BD202F" width="13.686" height="13.57"/>
	<rect x="187.52" y="190.467" fill="#BD202F" width="13.69" height="13.57"/>
	<rect x="173.791" y="190.467" fill="#BD202F" width="13.686" height="13.57"/>
	<rect x="160.056" y="190.467" fill="#BD202F" width="13.69" height="13.57"/>
	<rect x="146.327" y="190.467" fill="#BD202F" width="13.686" height="13.57"/>
	<rect x="132.593" y="190.467" fill="#FAB965" width="13.69" height="13.57"/>
	<rect x="118.864" y="190.467" fill="#FAB965" width="13.685" height="13.57"/>
	<rect x="105.13" y="190.467" fill="#FAB965" width="13.687" height="13.57"/>
	<rect x="91.4" y="190.467" fill="#FAB965" width="13.686" height="13.57"/>
	<rect x="256.18" y="176.969" fill="#FAB965" width="13.686" height="13.568"/>
	<rect x="242.445" y="176.969" fill="#FAB965" width="13.69" height="13.568"/>
	<rect x="228.717" y="176.969" fill="#4C3714" width="13.686" height="13.568"/>
	<rect x="214.982" y="176.969" fill="#BD202F" width="13.69" height="13.568"/>
	<rect x="201.253" y="176.969" fill="#FAB965" width="13.686" height="13.568"/>
	<rect x="187.52" y="176.969" fill="#BD202F" width="13.69" height="13.568"/>
	<rect x="173.791" y="176.969" fill="#BD202F" width="13.686" height="13.568"/>
	<rect x="160.056" y="176.969" fill="#FAB965" width="13.69" height="13.568"/>
	<rect x="146.327" y="176.969" fill="#BD202F" width="13.686" height="13.568"/>
	<rect x="132.593" y="176.969" fill="#4C3714" width="13.69" height="13.568"/>
	<rect x="118.864" y="176.969" fill="#FAB965" width="13.685" height="13.568"/>
	<rect x="105.13" y="176.969" fill="#FAB965" width="13.687" height="13.568"/>
	<rect x="91.4" y="176.969" fill="#FAB965" width="13.686" height="13.568"/>
	<rect x="256.18" y="163.467" fill="#4C3714" width="13.686" height="13.568"/>
	<rect x="242.445" y="163.467" fill="#4C3714" width="13.69" height="13.568"/>
	<rect x="228.717" y="163.467" fill="#4C3714" width="13.686" height="13.568"/>
	<rect x="214.982" y="163.467" fill="#4C3714" width="13.69" height="13.568"/>
	<rect x="201.253" y="163.467" fill="#BD202F" width="13.686" height="13.568"/>
	<rect x="187.52" y="163.467" fill="#BD202F" width="13.69" height="13.568"/>
	<rect x="173.791" y="163.467" fill="#BD202F" width="13.686" height="13.568"/>
	<rect x="160.056" y="163.467" fill="#BD202F" width="13.69" height="13.568"/>
	<rect x="146.327" y="163.467" fill="#4C3714" width="13.686" height="13.568"/>
	<rect x="132.593" y="163.467" fill="#4C3714" width="13.69" height="13.568"/>
	<rect x="118.864" y="163.467" fill="#4C3714" width="13.685" height="13.568"/>
	<rect x="105.13" y="163.467" fill="#4C3714" width="13.687" height="13.568"/>
	<rect x="91.4" y="163.467" fill="#4C3714" width="13.686" height="13.568"/>
	<rect x="256.18" y="149.964" fill="#4C3714" width="13.686" height="13.571"/>
	<rect x="242.445" y="149.964" fill="#4C3714" width="13.69" height="13.571"/>
	<rect x="228.717" y="149.964" fill="#4C3714" width="13.686" height="13.571"/>
	<rect x="214.982" y="149.964" fill="#4C3714" width="13.69" height="13.571"/>
	<rect x="201.253" y="149.964" fill="#BD202F" width="13.686" height="13.571"/>
	<rect x="187.52" y="149.964" fill="#4C3714" width="13.69" height="13.571"/>
	<rect x="173.791" y="149.964" fill="#4C3714" width="13.686" height="13.571"/>
	<rect x="160.056" y="149.964" fill="#BD202F" width="13.69" height="13.571"/>
	<rect x="146.327" y="149.964" fill="#4C3714" width="13.686" height="13.571"/>
	<rect x="132.593" y="149.964" fill="#4C3714" width="13.69" height="13.571"/>
	<rect x="118.864" y="149.964" fill="#4C3714" width="13.685" height="13.571"/>
	<rect x="105.13" y="149.964" fill="#4C3714" width="13.687" height="13.571"/>
	<rect x="242.445" y="136.463" fill="#4C3714" width="13.69" height="13.569"/>
	<rect x="228.717" y="136.463" fill="#4C3714" width="13.686" height="13.569"/>
	<rect x="214.982" y="136.463" fill="#4C3714" width="13.69" height="13.569"/>
	<rect x="201.253" y="136.463" fill="#BD202F" width="13.686" height="13.569"/>
	<rect x="187.52" y="136.463" fill="#4C3714" width="13.69" height="13.569"/>
	<rect x="173.791" y="136.463" fill="#4C3714" width="13.686" height="13.569"/>
	<rect x="160.056" y="136.463" fill="#4C3714" width="13.69" height="13.569"/>
	<rect x="214.982" y="122.963" fill="#FAB965" width="13.69" height="13.569"/>
	<rect x="201.253" y="122.963" fill="#FAB965" width="13.686" height="13.569"/>
	<rect x="187.52" y="122.963" fill="#FAB965" width="13.69" height="13.569"/>
	<rect x="173.791" y="122.963" fill="#FAB965" width="13.686" height="13.569"/>
	<rect x="160.056" y="122.963" fill="#FAB965" width="13.69" height="13.569"/>
	<rect x="146.327" y="122.963" fill="#FAB965" width="13.686" height="13.569"/>
	<rect x="132.593" y="122.963" fill="#FAB965" width="13.69" height="13.569"/>
	<rect x="242.445" y="109.461" fill="#4C3714" width="13.69" height="13.569"/>
	<rect x="228.717" y="109.461" fill="#4C3714" width="13.686" height="13.569"/>
	<rect x="214.982" y="109.461" fill="#FAB965" width="13.69" height="13.569"/>
	<rect x="201.253" y="109.461" fill="#FAB965" width="13.686" height="13.569"/>
	<rect x="187.52" y="109.461" fill="#FAB965" width="13.69" height="13.569"/>
	<rect x="173.791" y="109.461" fill="#FAB965" width="13.686" height="13.569"/>
	<rect x="160.056" y="109.461" fill="#4C3714" width="13.69" height="13.569"/>
	<rect x="146.327" y="109.461" fill="#4C3714" width="13.686" height="13.569"/>
	<rect x="132.593" y="109.461" fill="#4C3714" width="13.69" height="13.569"/>
	<rect x="118.864" y="109.461" fill="#4C3714" width="13.685" height="13.569"/>
	<rect x="242.445" y="95.959" fill="#4C3714" width="13.69" height="13.57"/>
	<rect x="228.717" y="95.959" fill="#FAB965" width="13.686" height="13.57"/>
	<rect x="214.982" y="95.959" fill="#4C3714" width="13.69" height="13.57"/>
	<rect x="201.253" y="95.959" fill="#4C3714" width="13.686" height="13.57"/>
	<rect x="187.52" y="95.959" fill="#FAB965" width="13.69" height="13.57"/>
	<rect x="173.791" y="95.959" fill="#FAB965" width="13.686" height="13.57"/>
	<rect x="160.056" y="95.959" fill="#FAB965" width="13.69" height="13.57"/>
	<rect x="146.327" y="95.959" fill="#4C3714" width="13.686" height="13.57"/>
	<rect x="132.593" y="95.959" fill="#FAB965" width="13.69" height="13.57"/>
	<rect x="118.864" y="95.959" fill="#FAB965" width="13.685" height="13.57"/>
	<rect x="105.13" y="95.959" fill="#FAB965" width="13.687" height="13.57"/>
	<rect x="242.445" y="82.459" fill="#4C3714" width="13.69" height="13.57"/>
	<rect x="228.717" y="82.459" fill="#FAB965" width="13.686" height="13.57"/>
	<rect x="214.982" y="82.459" fill="#4C3714" width="13.69" height="13.57"/>
	<rect x="201.253" y="82.459" fill="#FAB965" width="13.686" height="13.57"/>
	<rect x="187.52" y="82.459" fill="#FAB965" width="13.69" height="13.57"/>
	<rect x="173.791" y="82.459" fill="#FAB965" width="13.686" height="13.57"/>
	<rect x="160.056" y="82.459" fill="#4C3714" width="13.69" height="13.57"/>
	<rect x="146.327" y="82.459" fill="#FAB965" width="13.686" height="13.57"/>
	<rect x="132.593" y="82.459" fill="#FAB965" width="13.69" height="13.57"/>
	<rect x="118.864" y="82.459" fill="#FAB965" width="13.685" height="13.57"/>
	<rect x="228.717" y="68.959" fill="#4C3714" width="13.686" height="13.568"/>
	<rect x="214.982" y="68.959" fill="#4C3714" width="13.69" height="13.568"/>
	<rect x="201.253" y="68.959" fill="#4C3714" width="13.686" height="13.568"/>
	<rect x="187.52" y="68.959" fill="#FAB965" width="13.69" height="13.568"/>
	<rect x="173.791" y="68.959" fill="#FAB965" width="13.686" height="13.568"/>
	<rect x="160.056" y="68.959" fill="#4C3714" width="13.69" height="13.568"/>
	<rect x="146.327" y="68.959" fill="#FAB965" width="13.686" height="13.568"/>
	<rect x="228.717" y="55.458" fill="#BD202F" width="13.686" height="13.567"/>
	<rect x="214.982" y="55.458" fill="#BD202F" width="13.69" height="13.567"/>
	<rect x="201.253" y="55.458" fill="#BD202F" width="13.686" height="13.567"/>
	<rect x="187.52" y="55.458" fill="#BD202F" width="13.69" height="13.567"/>
	<rect x="173.791" y="55.458" fill="#BD202F" width="13.686" height="13.567"/>
	<rect x="160.056" y="55.458" fill="#BD202F" width="13.69" height="13.567"/>
	<rect x="146.327" y="55.458" fill="#BD202F" width="13.686" height="13.567"/>
	<rect x="132.593" y="55.458" fill="#BD202F" width="13.69" height="13.567"/>
	<rect x="118.864" y="55.458" fill="#BD202F" width="13.685" height="13.567"/>
	<rect x="214.982" y="41.957" fill="#BD202F" width="13.69" height="13.571"/>
	<rect x="201.253" y="41.957" fill="#BD202F" width="13.686" height="13.571"/>
	<rect x="187.52" y="41.957" fill="#BD202F" width="13.69" height="13.571"/>
	<rect x="173.791" y="41.957" fill="#BD202F" width="13.686" height="13.571"/>
	<rect x="160.056" y="41.957" fill="#BD202F" width="13.69" height="13.571"/>
</g>
</svg>
