<?xml version="1.0" encoding="UTF-8"?>
<svg width="528px" height="1020px" viewBox="0 0 528 1020" version="1.1" xmlns="http://www.w3.org/2000/svg" xmlns:xlink="http://www.w3.org/1999/xlink">
    <!-- Generator: Sketch 52.6 (67491) - http://www.bohemiancoding.com/sketch -->
    <title>Group 24</title>
    <desc>Created with Sketch.</desc>
    <defs>
        <polygon id="path-1" points="0.172642354 0.167826264 527.734053 0.167826264 527.734053 497.767123 0.172642354 497.767123"></polygon>
    </defs>
    <g id="Page-2" stroke="none" stroke-width="1" fill="none" fill-rule="evenodd">
        <g id="Desktop-HD" transform="translate(-118.000000, -6700.000000)">
            <g id="Group-24" transform="translate(117.000000, 6700.000000)">
                <polygon id="Fill-12" fill="#286293" points="307 532 223 532 240.922414 129 288.896552 129"></polygon>
                <g id="Group-15" transform="translate(0.901408, 522.232877)">
                    <mask id="mask-2" fill="white">
                        <use xlink:href="#path-1"></use>
                    </mask>
                    <g id="Clip-14"></g>
                    <path d="M527.733183,263.414564 C527.985577,361.862181 473.324169,452.251551 386.031775,497.770729 L141.930366,497.770729 C12.7945915,430.36629 -37.2335775,271.040153 30.1557183,141.909907 C97.5810704,12.7976877 256.896,-37.2463671 386.031775,30.1580712 C472.945577,75.5330301 527.516845,165.363551 527.733183,263.414564" id="Fill-13" fill="#286293" mask="url(#mask-2)"></path>
                </g>
                <path d="M264.875268,595.278126 C370.033577,595.278126 455.252732,680.51166 455.252732,785.647441 C455.252732,890.783222 370.033577,976.016756 264.875268,976.016756 C159.734986,976.016756 74.4978028,890.783222 74.4978028,785.647441 C74.4978028,680.51166 159.734986,595.278126 264.875268,595.278126" id="Fill-16" fill="#32A5BD"></path>
                <path d="M264.875268,854.147945 L264.875268,982.863562" id="Stroke-18" stroke="#072A3D" stroke-width="73" stroke-linecap="round"></path>
                <path d="M264.875268,9.02716712 C294.639775,9.02716712 318.779493,40.6652493 318.779493,79.6945644 C318.779493,118.723879 294.639775,150.361962 264.875268,150.361962 C235.110761,150.361962 210.971042,118.723879 210.971042,79.6945644 C210.971042,40.6652493 235.110761,9.02716712 264.875268,9.02716712" id="Fill-20" fill="#286293"></path>
                <polygon id="Fill-22" fill="#072A3D" points="234.771831 18.2175342 294.805634 18.2175342 294.805634 0.190136986 234.771831 0.190136986"></polygon>
                <path d="M264.788732,813 L265,1017" id="Stroke-26" stroke="#32A5BD" stroke-width="10"></path>
                <rect id="Rectangle" fill="#FFFFFF" x="74" y="629" width="381" height="116" rx="12"></rect>
            </g>
        </g>
    </g>
</svg>