<?xml version="1.0" encoding="utf-8"?>
<!-- Generator: Adobe Illustrator 16.0.0, SVG Export Plug-In . SVG Version: 6.00 Build 0)  -->
<!DOCTYPE svg PUBLIC "-//W3C//DTD SVG 1.1//EN" "http://www.w3.org/Graphics/SVG/1.1/DTD/svg11.dtd">
<svg version="1.1" id="Layer_1" xmlns="http://www.w3.org/2000/svg" xmlns:xlink="http://www.w3.org/1999/xlink" x="0px" y="0px"
	 width="375px" height="300px" viewBox="0 0 375 300" enable-background="new 0 0 375 300" xml:space="preserve">
<rect x="-1125" y="300" fill="#29001A" width="1504.502" height="900"/>
<polygon fill="#FCED1C" points="86.717,195.793 106.855,195.793 106.855,225.084 121.504,225.084 121.504,243.394 156.289,243.394 
	156.289,258.043 236.848,258.043 236.848,243.394 269.807,243.394 269.807,225.084 288.117,225.084 288.117,195.793 
	256.564,195.753 256.594,179.962 202.896,180.629 202.553,164.102 168.469,163.757 168.123,140.347 202.553,140.002 
	202.553,123.133 255.918,122.787 255.918,106.262 288.283,105.916 288.117,80.444 269.807,80.444 269.807,56.642 236.848,56.642 
	236.848,41.997 156.289,41.997 156.289,56.642 121.504,56.642 121.504,80.444 106.855,80.444 106.855,107.91 86.717,107.91 "/>
</svg>
