<?xml version="1.0" encoding="UTF-8"?>
<svg width="887px" height="630px" viewBox="0 0 887 630" version="1.1" xmlns="http://www.w3.org/2000/svg" xmlns:xlink="http://www.w3.org/1999/xlink">
    <!-- Generator: Sketch 52.6 (67491) - http://www.bohemiancoding.com/sketch -->
    <title>santasearch copy</title>
    <desc>Created with Sketch.</desc>
    <g id="Page-2" stroke="none" stroke-width="1" fill="none" fill-rule="evenodd">
        <g id="Desktop-HD" transform="translate(-1033.000000, -2335.000000)">
            <g id="santasearch-copy" transform="translate(1033.000000, 2335.000000)">
                <polygon id="Path" fill="#E53935" points="25 540 819 540 819 611 25 611"></polygon>
                <g id="Group" opacity="0.1" transform="translate(17.000000, 543.000000)" fill="#000000" fill-rule="nonzero">
                    <path d="M0.713856714,22.0969388 L799.276991,22.0969388 L799.276991,26.0816327 L0.713856714,26.0816327 L0.713856714,22.0969388 Z M0.713856714,45.6428571 L799.276991,45.6428571 L799.276991,49.627551 L0.713856714,49.627551 L0.713856714,45.6428571 Z" id="Shape"></path>
                    <path d="M45.9019019,0.362244898 L49.8784499,0.362244898 L49.8784499,23.9081633 L45.9019019,23.9081633 L45.9019019,0.362244898 Z M92.8974689,0.362244898 L96.8740169,0.362244898 L96.8740169,23.9081633 L92.8974689,23.9081633 L92.8974689,0.362244898 Z M139.893036,0.362244898 L143.869584,0.362244898 L143.869584,23.9081633 L139.893036,23.9081633 L139.893036,0.362244898 Z M186.888603,0.362244898 L190.865151,0.362244898 L190.865151,23.9081633 L186.888603,23.9081633 L186.888603,0.362244898 Z M233.88417,0.362244898 L237.860718,0.362244898 L237.860718,23.9081633 L233.88417,23.9081633 L233.88417,0.362244898 Z M280.518233,0.362244898 L284.49478,0.362244898 L284.49478,23.9081633 L280.518233,23.9081633 L280.518233,0.362244898 Z M327.5138,0.362244898 L331.490347,0.362244898 L331.490347,23.9081633 L327.5138,23.9081633 L327.5138,0.362244898 Z M374.509367,0.362244898 L378.485914,0.362244898 L378.485914,23.9081633 L374.509367,23.9081633 L374.509367,0.362244898 Z M421.504934,0.362244898 L425.481481,0.362244898 L425.481481,23.9081633 L421.504934,23.9081633 L421.504934,0.362244898 Z M468.500501,0.362244898 L472.477048,0.362244898 L472.477048,23.9081633 L468.500501,23.9081633 L468.500501,0.362244898 Z M515.496067,0.362244898 L519.472615,0.362244898 L519.472615,23.9081633 L515.496067,23.9081633 L515.496067,0.362244898 Z M562.491634,0.362244898 L566.468182,0.362244898 L566.468182,23.9081633 L562.491634,23.9081633 L562.491634,0.362244898 Z M609.487201,0.362244898 L613.463749,0.362244898 L613.463749,23.9081633 L609.487201,23.9081633 L609.487201,0.362244898 Z M656.482768,0.362244898 L660.459316,0.362244898 L660.459316,23.9081633 L656.482768,23.9081633 L656.482768,0.362244898 Z M703.478335,0.362244898 L707.454883,0.362244898 L707.454883,23.9081633 L703.478335,23.9081633 L703.478335,0.362244898 Z M750.473902,0.362244898 L754.45045,0.362244898 L754.45045,23.9081633 L750.473902,23.9081633 L750.473902,0.362244898 Z M45.9019019,47.4540816 L49.8784499,47.4540816 L49.8784499,71 L45.9019019,71 L45.9019019,47.4540816 Z M92.8974689,47.4540816 L96.8740169,47.4540816 L96.8740169,71 L92.8974689,71 L92.8974689,47.4540816 Z M139.893036,47.4540816 L143.869584,47.4540816 L143.869584,71 L139.893036,71 L139.893036,47.4540816 Z M186.888603,47.4540816 L190.865151,47.4540816 L190.865151,71 L186.888603,71 L186.888603,47.4540816 Z M233.88417,47.4540816 L237.860718,47.4540816 L237.860718,71 L233.88417,71 L233.88417,47.4540816 Z M280.518233,47.4540816 L284.49478,47.4540816 L284.49478,71 L280.518233,71 L280.518233,47.4540816 Z M327.5138,47.4540816 L331.490347,47.4540816 L331.490347,71 L327.5138,71 L327.5138,47.4540816 Z M374.509367,47.4540816 L378.485914,47.4540816 L378.485914,71 L374.509367,71 L374.509367,47.4540816 Z M421.504934,47.4540816 L425.481481,47.4540816 L425.481481,71 L421.504934,71 L421.504934,47.4540816 Z M468.500501,47.4540816 L472.477048,47.4540816 L472.477048,71 L468.500501,71 L468.500501,47.4540816 Z M515.496067,47.4540816 L519.472615,47.4540816 L519.472615,71 L515.496067,71 L515.496067,47.4540816 Z M562.491634,47.4540816 L566.468182,47.4540816 L566.468182,71 L562.491634,71 L562.491634,47.4540816 Z M609.487201,47.4540816 L613.463749,47.4540816 L613.463749,71 L609.487201,71 L609.487201,47.4540816 Z M656.482768,47.4540816 L660.459316,47.4540816 L660.459316,71 L656.482768,71 L656.482768,47.4540816 Z M703.478335,47.4540816 L707.454883,47.4540816 L707.454883,71 L703.478335,71 L703.478335,47.4540816 Z M750.473902,47.4540816 L754.45045,47.4540816 L754.45045,71 L750.473902,71 L750.473902,47.4540816 Z M22.4041184,23.9081633 L26.3806664,23.9081633 L26.3806664,47.4540816 L22.4041184,47.4540816 L22.4041184,23.9081633 Z M69.3996854,23.9081633 L73.3762334,23.9081633 L73.3762334,47.4540816 L69.3996854,47.4540816 L69.3996854,23.9081633 Z M116.395252,23.9081633 L120.3718,23.9081633 L120.3718,47.4540816 L116.395252,47.4540816 L116.395252,23.9081633 Z M163.390819,23.9081633 L167.367367,23.9081633 L167.367367,47.4540816 L163.390819,47.4540816 L163.390819,23.9081633 Z M210.386386,23.9081633 L214.362934,23.9081633 L214.362934,47.4540816 L210.386386,47.4540816 L210.386386,23.9081633 Z M257.381953,23.9081633 L261.358501,23.9081633 L261.358501,47.4540816 L257.381953,47.4540816 L257.381953,23.9081633 Z M304.016016,23.9081633 L307.992564,23.9081633 L307.992564,47.4540816 L304.016016,47.4540816 L304.016016,23.9081633 Z M351.011583,23.9081633 L354.988131,23.9081633 L354.988131,47.4540816 L351.011583,47.4540816 L351.011583,23.9081633 Z M398.00715,23.9081633 L401.983698,23.9081633 L401.983698,47.4540816 L398.00715,47.4540816 L398.00715,23.9081633 Z M445.002717,23.9081633 L448.979265,23.9081633 L448.979265,47.4540816 L445.002717,47.4540816 L445.002717,23.9081633 Z M491.998284,23.9081633 L495.974832,23.9081633 L495.974832,47.4540816 L491.998284,47.4540816 L491.998284,23.9081633 Z M538.993851,23.9081633 L542.970399,23.9081633 L542.970399,47.4540816 L538.993851,47.4540816 L538.993851,23.9081633 Z M585.989418,23.9081633 L589.965966,23.9081633 L589.965966,47.4540816 L585.989418,47.4540816 L585.989418,23.9081633 Z M632.984985,23.9081633 L636.961533,23.9081633 L636.961533,47.4540816 L632.984985,47.4540816 L632.984985,23.9081633 Z M679.980552,23.9081633 L683.9571,23.9081633 L683.9571,47.4540816 L679.980552,47.4540816 L679.980552,23.9081633 Z M726.976119,23.9081633 L730.952667,23.9081633 L730.952667,47.4540816 L726.976119,47.4540816 L726.976119,23.9081633 Z M773.971686,23.9081633 L777.948234,23.9081633 L777.948234,47.4540816 L773.971686,47.4540816 L773.971686,23.9081633 Z" id="Shape"></path>
                </g>
                <g id="Group-4" transform="translate(25.000000, 0.000000)">
                    <rect id="Rectangle" fill="#D0CFD5" x="0" y="100.293103" width="794" height="439.37931"></rect>
                    <rect id="Rectangle" fill="#687E7C" x="0" y="520.568966" width="794" height="19.1034483"></rect>
                    <rect id="Rectangle" fill="#AAAAAA" x="0" y="105.068966" width="38.2650602" height="429.827586"></rect>
                    <rect id="Rectangle-Copy-5" fill="#AAAAAA" x="760.518072" y="105.068966" width="33.4819277" height="429.827586"></rect>
                    <rect id="Rectangle" fill="#1C1E1D" x="0" y="205.362069" width="794" height="286.551724"></rect>
                    <path d="M429.749582,100.293103 L551.31896,100.293103 L568.895256,121.342941 L583.542169,253.12069 L429.749582,253.12069 L277.421687,253.12069 L292.0686,121.342941 L309.644895,100.293103 L429.749582,100.293103 Z" id="Combined-Shape" fill="#DCDCE6"></path>
                    <rect id="Rectangle" fill="#0B0B0B" x="760.518072" y="205.362069" width="33.4819277" height="286.551724"></rect>
                    <rect id="Rectangle-Copy-7" fill="#0B0B0B" x="4.78313253" y="205.362069" width="33.4819277" height="286.551724"></rect>
                    <rect id="Rectangle" fill="#FFFFFF" x="0" y="124.172414" width="794" height="9.55172414"></rect>
                    <rect id="Rectangle" fill="#7B7D7C" x="0" y="124.172414" width="38.2650602" height="9.55172414"></rect>
                    <rect id="Rectangle-Copy-6" fill="#7B7D7C" x="760.518072" y="124.172414" width="33.4819277" height="9.55172414"></rect>
                    <rect id="Rectangle" fill="#D8D8D8" x="373.084337" y="0" width="23.9156627" height="9.55172414"></rect>
                    <rect id="Rectangle-Copy-4" fill="#D8D8D8" x="468.746988" y="0" width="23.9156627" height="9.55172414"></rect>
                    <rect id="Rectangle" fill="#D8D8D8" x="373.084337" y="9.55172414" width="119.578313" height="9.55172414"></rect>
                    <polygon id="Rectangle" fill="#FFFFFF" points="371.262192 19.1034483 492.662651 19.1034483 554.843373 100.293103 306.120482 100.293103"></polygon>
                    <path d="M177.193319,49.4952978 L191.325301,49.4952978 L191.325301,100.293103 L129.144578,100.293103 L129.144578,49.4952978 L143.276561,49.4952978 L143.276561,38.2068966 L177.193319,38.2068966 L177.193319,49.4952978 Z" id="Combined-Shape" fill="#FFFFFF"></path>
                    <rect id="Rectangle" fill="#D0CFD5" x="38.2650602" y="71.637931" width="86.0963855" height="28.6551724"></rect>
                    <path d="M303.197456,79.7201592 L303.197456,100.293103 L203.814592,100.293103 L203.814592,79.7201592 L200.891566,79.7201592 L200.891566,62.0862069 L306.120482,62.0862069 L306.120482,79.7201592 L303.197456,79.7201592 Z" id="Combined-Shape" fill="#000000"></path>
                    <ellipse id="Oval" fill="#0D0D0D" cx="425.698795" cy="362.965517" rx="191.325301" ry="191.034483"></ellipse>
                    <rect id="Rectangle" fill="#D8D8D8" x="645.722892" y="62.0862069" width="100.445783" height="23.8793103"></rect>
                    <rect id="Rectangle" fill="#D8D8D8" x="655.289157" y="52.5344828" width="33.4819277" height="14.3275862"></rect>
                    <rect id="Rectangle-Copy-8" fill="#D8D8D8" x="707.903614" y="52.5344828" width="33.4819277" height="14.3275862"></rect>
                    <rect id="Rectangle" fill="#000000" x="631.373494" y="85.9655172" width="129.144578" height="14.3275862"></rect>
                </g>
                <ellipse id="Oval" fill="#000000" opacity="0.1" cx="456.5" cy="608.5" rx="456.5" ry="21.5"></ellipse>
                <path d="M180.175883,486.224719 C208.151365,486.224719 230.815045,509.523596 230.815045,538.283146 L230.815045,571.411236 L129.182601,571.411236 L129.182601,538.283146 C129.536721,509.523596 152.200402,486.224719 180.175883,486.224719 Z M180.175883,448 C131.661442,448 92,488.773034 92,538.647191 L92,610 L267.997647,610 L267.997647,538.647191 C268.351767,488.408989 228.690325,448 180.175883,448 Z" id="Shape" fill="#414042" fill-rule="nonzero" opacity="0.1"></path>
                <path d="M91,587 L91,536.80236 C91,498.890855 122.204082,468 160.5,468 C198.795918,468 230,498.890855 230,536.80236 L230,587 L91,587 Z" id="Path" fill="#2F4C52"></path>
                <path d="M165.177062,486.224719 C193.152918,486.224719 215.816901,509.523596 215.816901,538.283146 L215.816901,571.411236 L114.183099,571.411236 L114.183099,538.283146 C114.183099,509.523596 136.847082,486.224719 165.177062,486.224719 Z M165.177062,448 C116.661972,448 77,488.773034 77,538.647191 L77,610 L253,610 L253,538.647191 C253,488.408989 213.692153,448 165.177062,448 Z" id="Shape" fill="#455D82" fill-rule="nonzero"></path>
                <path d="M166.317073,492 C137.414634,492 114,514.466077 114,542.19764 L114,611 L219,611 L219,542.19764 C218.634146,514.466077 195.219512,492 166.317073,492 Z" id="Path" fill="#795548"></path>
                <path d="M176,492.702065 C173.047619,492.351032 170.095238,492 166.77381,492 C137.619048,492 114,514.466077 114,542.19764 L114,611 L132.083333,611 L132.083333,542.19764 C132.083333,517.625369 151.27381,496.914454 176,492.702065 Z" id="Path" fill="#000000" opacity="0.2"></path>
                <path d="M163.052314,454 L166.947686,454 L166.947686,490.763224 L163.052314,490.763224 L163.052314,454 Z M77,539.080605 L114.183099,539.080605 L114.183099,542.93199 L77,542.93199 L77,539.080605 Z M77,589.148615 L114.183099,589.148615 L114.183099,593 L77,593 L77,589.148615 Z M77,564.289673 L114.183099,564.289673 L114.183099,568.141058 L77,568.141058 L77,564.289673 Z M215.816901,539.080605 L253,539.080605 L253,542.93199 L215.816901,542.93199 L215.816901,539.080605 Z M212.835171,523.545516 L211.347847,519.988237 L245.697948,505.913174 L247.185272,509.466952 L212.835171,523.545516 Z M186.268732,495.314861 L182.670825,493.83733 L196.90664,459.875113 L200.504547,461.352645 L186.268732,495.314861 Z M143.763139,495.262343 L129.537948,461.300126 L133.135855,459.822594 L147.364588,493.784811 L143.763139,495.262343 Z M117.458753,523.570025 L83.1086519,509.494962 L84.5959759,505.941184 L118.946076,520.009244 L117.458753,523.570025 Z M215.816901,589.148615 L253,589.148615 L253,593 L215.816901,593 L215.816901,589.148615 Z M215.816901,564.289673 L253,564.289673 L253,568.141058 L215.816901,568.141058 L215.816901,564.289673 Z M127.646922,506.746474 L101.3567,480.749622 L104.111791,478.025642 L130.402012,504.025995 L127.646922,506.746474 Z M202.501811,506.928539 L199.74672,504.20806 L226.036942,478.211209 L228.792032,480.935189 L202.501811,506.928539 Z" id="Shape" fill="#2F4C52" fill-rule="nonzero"></path>
                <path d="M159.3625,492 L163.28125,492 L163.28125,611 L159.3625,611 L159.3625,492 Z M133,499.722714 L136.91875,499.722714 L136.91875,611 L133,611 L133,499.722714 Z M186.08125,499.371681 L190,499.371681 L190,611 L186.08125,611 L186.08125,499.371681 Z" id="Shape" fill="#000000" fill-rule="nonzero" opacity="0.1"></path>
                <circle id="Oval" fill="#000000" cx="453.5" cy="152.5" r="9.5"></circle>
                <path d="M583,365.159064 C583,440.237427 529.594203,501 453.207729,501 C376.821256,501 315,440.237427 315,365.159064 C315,290.080702 376.497585,229 452.884058,229 C529.270531,229 583,290.080702 583,365.159064 Z" id="Path" fill="#FFFFFF"></path>
                <path d="M345.044527,297 C335.393321,316.723975 330,339.681388 330,363.932177 C330,440.241325 384.217069,502 451.207792,502 C462.278293,502 472.781076,500.383281 483,497.149842 C458.871985,413.727129 409.480519,342.914826 345.044527,297 Z" id="Path" fill="#29B6F6" opacity="0.25"></path>
                <g id="Group" transform="translate(330.000000, 297.000000)" opacity="0.29">
                    <g>
                        <path d="M29.2808932,7.05424826 C16.7319389,23.1285402 8.36596947,42.6473233 5.37812323,63.888352 C-3.88420011,131.055929 45.7140475,192.769729 115.62965,201.380956 C126.983465,202.816161 138.337281,202.816161 149.392312,201.380956 C134.154296,124.453988 90.8305257,55.851206 29.2808932,7.05424826 Z" id="Path" fill="#FFFFFF"></path>
                        <path d="M132.062804,206.547693 C126.385896,206.547693 120.708988,206.260652 115.03208,205.399529 C80.0742793,201.093915 49.0006783,183.87146 27.4881854,156.889613 C5.97569248,129.907765 -3.28663086,96.6110177 1.1951385,63.0272292 C4.18298474,41.7862005 12.5489542,21.4062946 25.6954777,4.18383898 L28.3845393,0.452306917 L31.9699548,3.32271619 C95.0135105,53.2678376 138.337281,123.305824 153.575297,200.232793 L154.471651,204.825448 L149.691097,205.399529 C144.014189,206.260652 138.038496,206.547693 132.062804,206.547693 Z M30.177247,13.3691487 C19.4210006,28.5823178 12.5489542,46.0918144 9.85989259,64.4624338 C5.67690786,95.7498949 14.341662,126.750315 34.3602318,152.009917 C54.3788016,176.982478 83.3609101,193.056769 116.227219,197.075342 C125.489542,198.223506 134.751865,198.510547 144.014189,197.649424 C128.477388,125.889192 88.4402487,60.7309018 30.177247,13.3691487 Z" id="Shape" fill="#000000" fill-rule="nonzero"></path>
                    </g>
                </g>
                <g id="Group" opacity="0.25" transform="translate(316.000000, 229.000000)" fill="#29B6F6">
                    <circle id="Oval" cx="141" cy="141" r="141"></circle>
                </g>
                <g id="Group" opacity="0.25" transform="translate(321.000000, 233.000000)" fill="#29B6F6">
                    <ellipse id="Oval" cx="136.5" cy="136" rx="136.5" ry="136"></ellipse>
                </g>
                <path d="M454.5,511 C375.559701,511 311,446.901814 311,367.847385 C311,288.792956 375.559701,225 454.5,225 C533.440299,225 598,289.098186 598,368.152615 C598,447.207044 533.746269,511 454.5,511 Z M455.2,248.833333 C388.826036,248.833333 334.916667,302.242228 334.916667,368 C334.916667,433.757772 388.826036,487.166667 455.2,487.166667 C521.573964,487.166667 575.483333,433.757772 575.483333,368 C575.483333,302.242228 521.573964,248.833333 455.2,248.833333 Z" id="Shape" fill="#455D82" fill-rule="nonzero"></path>
                <path d="M231,282 C223.79077,329.883556 222.462754,363.402045 227.015952,382.555468 C233.845749,411.285601 168.497014,425.650668 185.985432,370.584579 C195.557496,352.708051 203.534215,340.737162 209.91559,334.671912 L214.701622,282 L231,282 Z" id="Path-8" fill="#FFFFFF"></path>
                <circle id="Oval" fill="#0D0D0D" cx="205.5" cy="381.5" r="9.5"></circle>
            </g>
        </g>
    </g>
</svg>