<svg xmlns="http://www.w3.org/2000/svg" viewBox="0 0 720 540">
  <defs>
    <style>
      .cls-1 {
        fill: #fcde1f;
      }

      .cls-1, .cls-10, .cls-11, .cls-3, .cls-5, .cls-6, .cls-9 {
        stroke: #231f20;
        stroke-miterlimit: 10;
      }

      .cls-2 {
        fill: #231f20;
      }

      .cls-3 {
        fill: #ff331a;
      }

      .cls-4 {
        fill: #fff;
      }

      .cls-5, .cls-8 {
        fill: #e2a41d;
      }

      .cls-6 {
        fill: #832700;
      }

      .cls-7 {
        fill: #e4a603;
      }

      .cls-9 {
        fill: #800002;
      }

      .cls-10 {
        fill: none;
      }

      .cls-11 {
        fill: #fd548b;
      }

      .cls-12 {
        fill: #a82045;
      }
    </style>
  </defs>
  <title>pikachu</title>
  <g id="Background_Yellow" data-name="Background Yellow">
    <path class="cls-1" d="M627.70833,53.14333l-18.74,31.56a4.42068,4.42068,0,0,1-.62.82l-24.49,26.28-36.67,28-22.73,13.03-29,11-7-9,9,14,3.17,17.67-1.17,15.33v34l4,21.33-.85,10.82a6.22036,6.22036,0,0,1-1.29,3.31l-12.86,16.54-20,14-12,8-16,9,22.6-12.02,5.15,12.02,3.5,13,3.5,16.25.75,14.75.5,14.25-3.75,25-2.58,7.04,5.33,1.04,5,1.67,3.33,3,4.67,4.33,2.67,4.67,2,3.33h2.33l3.33-4.33,2-4.17.49-.45a2.7367,2.7367,0,0,1,3.7,0l.48.45h1.02a1.83109,1.83109,0,0,0,1.52217-.8133l1.12779-1.6867h.37a1.96578,1.96578,0,0,1,1.96,1.96v.54l2.33,1.5.07.04a3.17389,3.17389,0,0,1,1.6,2.75615v2.54384l-1.67,9-1.33,7.33-3,9.67-4.33,11-5.34,11.66-5.83,12-9.17,12.67-7.66,8.33-7.67,5.67-3.33,1.67h0a5.47591,5.47591,0,0,1-5.06493-3.39454l-.93507-2.27545v-1.88h-7.55l-7.79.21h-13.83l-8.67-1-5-.83-6.5-1.17-6.83-1-5-1-6.67-1.16h-28.5l-6.5,1.33-7.83,1.75h-5.33l-2.67.75-2.79167,1.33333L335.5,510.83333,331.16667,510l-2.45833,4.50332-5.75-5.96-1.75-1.71-5.75-.25-5.5-.75-8.5-1.75-10.25-3.08-7.75-3.92-4.25-1.75-4.75-4.25-3.25-4-4-4.5-3.75-6.75-1.5-4.25-1.5-9.25v-32.25l-32.25-19.92,29-37.08-57.5-24,41-61.75-.25-3.25-1.39248-4.7179-80.60752-20.5321-99.5-25.25,12.25-27.25,16-28.75,18.25-27.25,15-20,9.75-11.5,44.25,20,23,12,34.5,17.25,39.5,22.5,17.5,10.5,4.75,2.5.75-3,1.75-6.75,1-4.75.5-6.25,1.5-8.75,2.25-8.25,2.25-6.75,3.75-9.25,3.28-4.7,4.22-6.05-5.75,5.5-10.5-6.75-18.75-12.75-18.25-16-13.75-13.5-11.25-12-8-9.25-11.25-16-11.5-17.25-6.5-11.75-4.25-8.25-3.25-10,11.57385,1.79077,11.92615,4.20923,13.75,6.25,11.25,5.25,13.5,8.5,10.75,7,9.75,7.25,11.5,9,8.75,7.75,8.5,8,9,9,10.75,12.5,6.75,9.75,4.75,10.5L355.121,111.4756a37.13769,37.13769,0,0,1,10.92167-1.64227h31.41569l31.00016,3.64707c2.94232.39624,5.04208.94666,5.77075,1.55524l32.5591,14.12771,7,4,20.34-21,25.33-20.33,43-22,15-6,25.5-7.67Z"/>
  </g>
  <g id="First_Layer_Highlights" data-name="First Layer Highlights">
    <polygon class="cls-2" points="241.167 29.417 238.333 34.167 236.5 40.333 235.833 45 235 53.667 235 63.667 235 72.167 235 79.167 236.06 82.833 230.833 77.333 226.167 71.833 220.833 64.333 216.5 58 211.833 51.167 208.333 45.5 204.5 39.167 200.167 32 196.5 24.833 193.333 17 192.167 11.667 201.07 12.75 213.404 16.75 221.422 20.305 231.997 25.137 241.167 29.417"/>
    <path class="cls-2" d="M578.66667,64.16667l.76781-.32141,6.39886-2.67859,7.83333-2.33333,7.83333-2,7-1.5L617.66667,54h8.16667l-2.66667,7.83333-4.33333,7.33333L613.5,77l-6.33333,9L598,96.83333l-8.66667,9L581.5,113.16667l-2.83333,1.66667S591,76.5,580.5,65.66667Z"/>
    <circle class="cls-2" cx="343.25" cy="191.75" r="19.25"/>
    <circle class="cls-2" cx="459.65654" cy="207.90654" r="19.59346"/>
    <path class="cls-3" d="M308.625,216.31311a22.58543,22.58543,0,0,0-20.64984,31.82227c2.08215,1.02081,3.60229,3.02557,4.9826,4.89795a4.27678,4.27678,0,0,1,.33508.36621,10.75537,10.75537,0,0,1,2.18817,1.864,2.97549,2.97549,0,0,1,.2926.16913,8.7183,8.7183,0,0,1,2.90985,3.22955c.11871.2323.22412.47131.33209.709a22.21171,22.21171,0,0,0,9.60944,2.19189,22.625,22.625,0,0,0,0-45.25Z"/>
    <ellipse class="cls-3" cx="480.51577" cy="265.25842" rx="20.35923" ry="21.75842"/>
    <circle class="cls-4" cx="348.6875" cy="184.4375" r="7.9375"/>
    <circle class="cls-4" cx="457.12486" cy="199.6875" r="7.9375"/>
    <polygon class="cls-5" points="269 229.75 282.333 229.75 285.5 229.75 285.5 235 285.5 241.25 284.869 244.282 279.875 238.375 277.25 235.875 273.75 233.875 269 229.75"/>
    <path class="cls-5" d="M81.61028,238.73092l143.89654-9.09725a2.29954,2.29954,0,0,1,2.4304,2.03949l.16673,1.49155a2.29954,2.29954,0,0,1-2.11056,2.54836h0a2.29954,2.29954,0,0,0-2.1248,2.29289v.49762a2.29954,2.29954,0,0,0,.47288,1.39686l2.35128,3.07475a2.29954,2.29954,0,0,1,.4686,1.25658l1.171,6.43506a17.95771,17.95771,0,0,0,.36285,2.13289l3.19971,9.74051L237.33333,275l.07612.19181a2.29954,2.29954,0,0,1-2.69828,3.07834L81.51765,239.739A.51229.51229,0,0,1,81.61028,238.73092Z"/>
    <polygon class="cls-5" points="241.81 285.056 198.44 349.96 257.75 373.75 239.79 394.841 260.625 404.875 270.25 395.25 273 385.75 275 375.75 278 364.75 279.417 356.833 280.25 353.25 251.5 337 264.325 324.175 261.729 320.35 256.851 313.161 251.25 305 246.971 295.261 243.832 289.167 241.81 285.056"/>
    <path class="cls-6" d="M248.04013,386H251.625l1.25,4.625,8.75-7.75-3.25,10.5,8-5.25-4.625,9,4.625.875-5.75,6.875,5.75,4.5-2.125,8.5-1.875,6.5-1.25,4.75-.875.75-30.375-18.5-1.875-1,17.56889-23.1482A3.1024,3.1024,0,0,1,248.04013,386Z"/>
    <polygon class="cls-7" points="356.625 314.5 364.5 318 373.5 321.25 379.25 322.75 388 324.25 395 324.25 402.25 324.25 407.75 324.25 397.17 331.5 391 335 386.25 336.25 382.187 337.25 376 335.25 370 331.5 362.5 324.25 358.25 318 356.625 314.5"/>
    <polygon class="cls-7" points="281.75 358.5 283 364.75 284.375 366.625 286.5 368 289.375 368.75 292 368.75 295.125 367.5 297.875 365.625 300.75 363.625 303.125 361.125 305.5 358.5 302.375 356.5 298.125 354.25 294.375 351.75 289.875 347.875 286.625 345.946 283.125 342.625 279.5 339.625 277.5 337.25 274 334.25 271.5 332.375 274.75 338.125 280.25 344.375 285.125 349.75 294 356.5 298.375 360.125 297.375 360.375 291.625 356.75 285.5 352.25 283.25 349.25 282.375 353.625 281.75 358.5"/>
    <path class="cls-8" d="M271.07886,478.19638a2.79372,2.79372,0,0,0,.864.137h11.39048L288.5,476.66667l5.16667-5,7.66667-10h0l2.67516-4.34713c.06657-.29844,4.22943-12.19285,4.22943-10.22274,0,1.74146,1.27841-5.884,1.67045-7.94578a2.77691,2.77691,0,0,1,.3483-.91214L312,435.33333h4.33333L320.66667,438l4.66667,7.66667L330.66667,453l5,6.33333L344,466l6,2,4,1.33333,6,.33333,6-1.33333,10-3L382.1875,463,390,461.33333,397.17,461l8.83,1.66667,12.66667,3.66667L431,469l15,5,9,2.66667L462.66667,476l9-4,3.66667-2.66667,5.18244-9L485.33333,450,493,440l4-3,3.875-3.33333h7.45833l2,7.33333-3.66667,15L500.875,470.33333l-10.20833,18L478.33333,505l-9.70833,7.125L464,513.75l-3.665-3.41667-.4098-2.182a2.79372,2.79372,0,0,0-3.63251-2.13356l-2.66769.35718c.19337-.60052-1.07354-.125-1.375-.125l-8.58333.87L433.5,506.125c-.14111,0,.13949.02129,0,0L415.83333,504.5l-16.16667-2.775-10.81215-1.24643-20.68418-.33333L351.5,502.5l-7.5,1-3.66667,1.83333-3.0183,7.436-5.64837,3.89734L326,514l-6-6.88-14.5-2.78667L293.66667,501.725,287.25,498.5l-6-3L275,491l-7-7.33333-1.625-7Z"/>
    <polygon class="cls-9" points="426.67 237.33 426 243.5 425 248.5 423.5 253.67 420.83 259.83 417 267.83 413.5 274.17 408.83 281 403.5 288.67 397.5 293.33 392.83 295.83 384.836 295.285 383 294.17 378.17 289.33 374 281.5 371.33 273.5 369.67 265.26 368.5 256.33 367.67 246.67 367.67 229.75 369.83 230.67 381 230.67 386.33 229.67 392.5 228.25 396.67 227.5 398 226.67 401 228.25 405.5 232 408.83 234.17 411.83 235.67 416.33 237.33 426.67 237.33"/>
    <line class="cls-10" x1="430.67" y1="236.33" x2="426.67" y2="237.33"/>
    <polyline class="cls-10" points="361.33 225.83 364.33 228.33 367.67 229.75"/>
    <path class="cls-2" d="M396,212.83333,396.70833,212h6.28757a.932.932,0,0,1,.59666.216l.74078.61731v1L403.625,215l-1.45833,1.31309h-3.82224a.932.932,0,0,1-.78586-.43095l-1.0413-1.63317a.932.932,0,0,1-.09481-.196Z"/>
    <polygon class="cls-11" points="370.107 266.135 373.061 279.212 377.625 288.563 382.625 293.875 386.937 296.625 392.437 296.625 397.937 293.875 402.937 289.125 408.187 282.625 412.187 276.625 415.187 270.875 418.347 265.085 379.187 256.875 370.107 262.125 370.107 266.135"/>
    <path class="cls-12" d="M367.67,246.67,375.5,245l6.6875-1.5H392.25l10,2.125L409.5,249l6.25,3.5,6.74009,3.5-2.732,6.069-2.13309,4.86848L415.25,268.5l-6.5-3.24158L400.16667,263.5,390.25,261.56309h-10L372.5,263.75h-1.42508a1.61441,1.61441,0,0,1-1.61392-1.57444l-.06134-2.47655A7.78832,7.78832,0,0,1,369,257.23613l-.83963-4.8588Z"/>
    <polygon class="cls-8" points="257.102 103.25 275.727 115.25 291.727 127.75 302.727 134.75 312.75 140.178 309.47 143.763 300.852 139 287.602 129.25 277.977 121.75 268.727 113.875 262.352 108.25 257.102 103.25"/>
    <polygon class="cls-8" points="492.5 157 514.75 153.75 503.625 159.75 495.25 162.25 492.5 157"/>
    <polyline class="cls-4" points="264.179 325.051 251.5 337 280.25 353.25 283.75 347 278.923 342.359 270.418 332.375 264.179 325.051"/>
    <polyline class="cls-4" points="260.625 404.875 270.25 395.25 266.375 409.375 260.625 404.875"/>
  </g>
  <g id="Extra_Black_Lines" data-name="Extra Black Lines">
    <g>
      <polyline class="cls-10" points="297.708 360.417 281.042 344.391 266.298 327.083 254.119 309.135 243.221 287.981 235.529 272.032 229.119 255.288 227.119 243.532 223.869 239.282 223.869 237.532 225.619 235.532 228.369 235.532 227.869 230.282 227.369 228.032 228.869 228.032 232.119 228.032 233.869 228.032 234.369 220.032 243.869 221.782 244.869 214.032 247.869 214.032 251.869 216.189 255.119 219.532 257.119 219.782 257.619 216.189 259.369 214.032 260.788 214.032 264.119 220.282 267.369 226.782 267.619 229.532 275.869 236.282 284.869 244.282 297.708 257.282 313.619 275.282 324.619 290.032 331.869 302.532 336.619 311.782"/>
      <polyline class="cls-10" points="426.416 339.337 421.666 350.587 417.166 361.837 413.666 373.087 411.166 386.837 409.666 398.087 409.666 411.837 409.666 424.587 409.666 426.587 409.666 429.087 407.916 432.587 407.916 436.837 415.666 436.837 415.916 443.337 417.166 446.087 421.916 446.087 424.166 444.837 426.416 446.087 427.666 449.587 431.666 448.087 434.416 446.837 437.416 449.587 440.416 450.837 443.916 448.087 445.666 446.587 449.916 450.837 455.666 450.837 455.666 445.837 455.666 439.837 465.416 423.087 469.416 411.837 470.666 407.837"/>
      <path class="cls-10" d="M307.89451,412.50613c2.10549-3.50613,4.97408-.46987,7.97408-1.46987L318,414c11,4,22,8,29,18,1,3,3,5,4.61859,6.78205"/>
      <path class="cls-10" d="M287.86859,425.28205c4.60369-3.50758,7.26227-6.12026,12.5-8.59364"/>
      <path class="cls-10" d="M317.66844,413.40564l6.5,14.80152L330.83333,443.5l3.78526,11.56321,4,15.25,1.25,16v21.5l-2.34176,4.00908a6.65924,6.65924,0,0,1-4.11479,3.09657l-2.54345.64435-3.75-1.5-4.5-5-7.5-15.25-4.75-13.75-4.5-17.25-3.5-18.75-2-16v-14l2.96474-2.041H305.5l2.74359,1.4827"/>
      <polyline class="cls-10" points="313.369 411.813 315.119 421.563 318.369 430.563"/>
      <polyline class="cls-10" points="308.244 412.282 309.494 423.782 311.994 434.032"/>
      <polyline class="cls-10" points="497.099 425.188 487.599 439.438 481.349 452.188 475.349 463.688"/>
      <polyline class="cls-10" points="507.619 418.377 507.619 424.377 505.869 431.377 502.869 438.127 501.369 440.627"/>
      <polyline class="cls-10" points="511.619 418.752 510.619 427.627 508.369 434.252 505.369 440.252 503.619 440.252"/>
    </g>
    <polyline class="cls-10" points="367.67 246.67 373.554 245.415 379.442 244.116 384.625 243.5 394.227 243.92 404.495 246.67 417.089 253.195 422.49 256"/>
    <polyline class="cls-10" points="285.5 242 285.5 235 285.5 229.75 287 224.5 288.5 217.25 292.5 207.907 295 203.25 296 199.687 296 194 297.5 184.438 298.5 176.5 300.75 166.75 302.75 159.25 307.75 148.75 314.75 139"/>
    <polyline class="cls-10" points="283.083 347 280.25 353.25 251.5 337 264.325 324.175"/>
    <line class="cls-10" x1="265.7132" y1="412.02222" x2="270.25" y2="395.25"/>
    <polyline class="cls-10" points="461 511.75 459.673 507.414 460.337 502.375 461 497.625 463.125 490.125 465.375 482.625 467.5 477.875"/>
  </g>
</svg>
