<?xml version="1.0" encoding="utf-8"?>
<!-- Generator: Adobe Illustrator 16.0.0, SVG Export Plug-In . SVG Version: 6.00 Build 0)  -->
<!DOCTYPE svg PUBLIC "-//W3C//DTD SVG 1.1//EN" "http://www.w3.org/Graphics/SVG/1.1/DTD/svg11.dtd">
<svg version="1.1" id="Layer_1" xmlns="http://www.w3.org/2000/svg" xmlns:xlink="http://www.w3.org/1999/xlink" x="0px" y="0px"
	 width="375px" height="300px" viewBox="0 0 375 300" enable-background="new 0 0 375 300" xml:space="preserve">
<rect y="300" fill="#29001A" width="1504.502" height="900"/>
<g>
	<path fill="#FFFFFF" d="M291.704,150c0,57.551-46.653,104.203-104.204,104.203S83.295,207.551,83.295,150
		c0-57.55,46.654-104.204,104.205-104.204S291.704,92.45,291.704,150"/>
	<path fill="#010101" d="M187.5,261.66c-61.569,0-111.66-50.09-111.66-111.66c0-61.569,50.091-111.66,111.66-111.66
		c61.57,0,111.66,50.091,111.66,111.66C299.16,211.57,249.07,261.66,187.5,261.66 M187.5,53.253
		c-53.347,0-96.748,43.4-96.748,96.747c0,53.348,43.401,96.748,96.748,96.748s96.748-43.4,96.748-96.748
		C284.248,96.653,240.847,53.253,187.5,53.253"/>
	<path fill="#ACC2D1" d="M187.5,233.125c-27.153,0-53.326-9.863-73.695-27.775c-5.262-4.627-10.044-9.705-14.302-15.152
		c15.29,33.34,48.983,56.551,87.997,56.551c39.013,0,72.706-23.211,87.997-56.551c-4.259,5.447-9.04,10.525-14.302,15.152
		C240.825,223.262,214.652,233.125,187.5,233.125"/>
	<path fill="#ED2427" d="M187.5,45.796C129.949,45.796,83.295,92.45,83.295,150h208.409C291.704,92.45,245.051,45.796,187.5,45.796"
		/>
	<path fill="#010101" d="M299.161,157.455H75.84V150c0-61.569,50.091-111.66,111.66-111.66c61.57,0,111.661,50.091,111.661,111.66
		V157.455z M91.037,142.544h192.926c-3.817-49.879-45.623-89.291-96.463-89.291S94.854,92.665,91.037,142.544"/>
	<path fill="#FFFFFF" d="M216.034,150c0,15.76-12.774,28.535-28.534,28.535S158.965,165.76,158.965,150
		c0-15.759,12.775-28.534,28.535-28.534S216.034,134.241,216.034,150"/>
	<path fill="#010101" d="M187.5,185.99c-19.846,0-35.992-16.145-35.992-35.99s16.146-35.991,35.992-35.991
		s35.991,16.146,35.991,35.991S207.346,185.99,187.5,185.99 M187.5,128.923c-11.623,0-21.078,9.455-21.078,21.077
		c0,11.623,9.455,21.078,21.078,21.078s21.078-9.455,21.078-21.078C208.578,138.378,199.123,128.923,187.5,128.923"/>
</g>
</svg>
