<?xml version="1.0" encoding="UTF-8"?>
<svg width="548px" height="1030px" viewBox="0 0 548 1030" version="1.1" xmlns="http://www.w3.org/2000/svg" xmlns:xlink="http://www.w3.org/1999/xlink">
    <!-- Generator: Sketch 52.6 (67491) - http://www.bohemiancoding.com/sketch -->
    <title>Group 22</title>
    <desc>Created with Sketch.</desc>
    <defs>
        <path d="M0.539064516,313.811613 C0.539064516,464.994065 123.104323,587.54129 274.286774,587.54129 C425.451194,587.54129 548.016452,464.994065 548.016452,313.811613 C548.016452,162.629161 425.451194,40.0639032 274.286774,40.0639032 C123.104323,40.0639032 0.539064516,162.629161 0.539064516,313.811613" id="path-1"></path>
    </defs>
    <g id="Page-2" stroke="none" stroke-width="1" fill="none" fill-rule="evenodd">
        <g id="Desktop-HD" transform="translate(-1297.000000, -6696.000000)">
            <g id="Group-22" transform="translate(1296.000000, 6696.000000)">
                <polygon id="Fill-9" fill="#E76D24" points="138.691674 549 1 1030 548 1030 410.470528 549"></polygon>
                <polygon id="Fill-24" fill="#E76D24" points="180.926761 56.979726 370.76338 56.979726 370.76338 0.553972603 180.926761 0.553972603"></polygon>
                <polygon id="Fill-25" fill="#843800" points="138.739042 548.947397 339.212282 615.829041 427.189746 1029.55781 548.158761 1029.73808 410.603831 548.947397"></polygon>
                <path d="M161.820507,362.722581 C191.981634,362.722581 216.445859,387.167732 216.445859,417.345595 C216.445859,447.523458 191.981634,471.968608 161.820507,471.968608 C131.641352,471.968608 107.195155,447.523458 107.195155,417.345595 C107.195155,387.167732 131.641352,362.722581 161.820507,362.722581" id="Fill-42" fill="#99E7FC"></path>
                <path d="M274.673239,40.571189 C425.821408,40.571189 548.340845,163.085381 548.340845,314.227079 C548.340845,465.368778 425.821408,587.88297 274.673239,587.88297 C123.52507,587.88297 1.0056338,465.368778 1.0056338,314.227079 C1.0056338,163.085381 123.52507,40.571189 274.673239,40.571189" id="Fill-43" fill="#99E7FC"></path>
                <polygon id="Path-10" fill="#4FDAFF" points="460 514 549 631 514 662 423 543"></polygon>
                <mask id="mask-2" fill="white">
                    <use xlink:href="#path-1"></use>
                </mask>
                <g id="Clip-46"></g>
                <path d="M369.135044,702.135522 L369.135044,766.141493 L283.328673,766.141493 L283.328673,701.594627 C283.364726,677.903403 302.599053,658.719642 326.303965,658.755701 C349.93677,658.791761 369.098991,677.957493 369.135044,701.594627 L369.135044,702.135522 Z" id="Fill-54" fill="#99564C" mask="url(#mask-2)"></path>
                <path d="M151.372534,517.690149 C28.9181885,432.210627 -1.0779885,263.613493 84.3858788,141.136716 C91.9570292,130.282746 100.303321,120.023761 109.370675,110.395821 L147.767224,142.669254 C89.1989673,196.272 60.4285956,275.044418 70.6135956,353.798806 C76.1297195,416.596776 104.936144,475.067582 151.372534,517.690149" id="Fill-75" fill="#FFFFFF" mask="url(#mask-2)"></path>
                <polygon id="Fill-76" fill="#FFFFFF" mask="url(#mask-2)" points="380.127634 144.82923 380.127634 144.82923 374.719669 140.321767"></polygon>
                <path d="M353.087811,915.060848 L353.087811,1029.56843 L197.698898,1029.56843 L197.698961,915.060848 C197.644881,872.149803 232.400067,837.316131 275.32128,837.280072 C318.224465,837.244012 353.051758,871.987534 353.087811,914.898579 L353.087811,915.060848 Z" id="Fill-89" fill="#99564C" mask="url(#mask-2)"></path>
                <path d="M275.393386,837.359403 L275.393386,1029.73791" id="Stroke-90" stroke="#FFFFFF" stroke-width="0.25" mask="url(#mask-2)"></path>
                <polygon id="Fill-91" fill="#6A5830" mask="url(#mask-2)" points="500.368319 1027.57433 521.639646 1027.57433 521.639646 689.514627 500.368319 689.514627"></polygon>
                <path d="M411.138705,795.894352 L608.168882,795.894352 C627.385183,795.894352 642.960121,811.472143 642.960121,830.691964 L642.960121,830.872263 C642.960121,850.092084 627.385183,865.669875 608.168882,865.669875 L411.138705,865.669875 C391.922404,865.669875 376.347466,850.092084 376.347466,830.872263 L376.347466,830.691964 C376.347466,811.472143 391.922404,795.894352 411.138705,795.894352" id="Fill-92" fill="#6CAC43" mask="url(#mask-2)"></path>
                <path d="M462.330498,782.732561 L659.360675,782.732561 C678.576976,782.732561 694.151914,798.310352 694.151914,817.530173 L694.151914,817.710472 C694.151914,836.930293 678.576976,852.508084 659.360675,852.508084 L462.330498,852.508084 C443.114197,852.508084 427.539259,836.930293 427.539259,817.710472 L427.539259,817.530173 C427.539259,798.310352 443.114197,782.732561 462.330498,782.732561" id="Fill-93" fill="#6CAC43" mask="url(#mask-2)"></path>
                <path d="M361.019492,742.525994 L623.486041,742.525994 C642.702342,742.525994 658.27728,758.103785 658.27728,777.323606 L658.27728,777.503904 C658.27728,796.723725 642.702342,812.301516 623.486041,812.301516 L361.019492,812.301516 C341.803191,812.301516 326.228253,796.723725 326.228253,777.503904 L326.228253,777.323606 C326.228253,758.103785 341.803191,742.525994 361.019492,742.525994" id="Fill-94" fill="#6CAC43" mask="url(#mask-2)"></path>
                <path d="M418.708053,684.826866 L615.73823,684.826866 C634.954531,684.826866 650.529469,700.404657 650.529469,719.624478 L650.529469,719.804776 C650.529469,739.024597 634.954531,754.602388 615.73823,754.602388 L418.708053,754.602388 C399.491752,754.602388 383.916814,739.024597 383.916814,719.804776 L383.916814,719.624478 C383.916814,700.404657 399.491752,684.826866 418.708053,684.826866" id="Fill-95" fill="#6CAC43" mask="url(#mask-2)"></path>
                <path d="M456.926139,635.782066 L577.52375,635.782066 C596.74005,635.782066 612.314988,651.359857 612.314988,670.579678 L612.314988,670.759976 C612.314988,689.979797 596.74005,705.557588 577.52375,705.557588 L456.926139,705.557588 C437.709838,705.557588 422.1349,689.979797 422.1349,670.759976 L422.1349,670.579678 C422.1349,651.359857 437.709838,635.782066 456.926139,635.782066" id="Fill-96" fill="#6CAC43" mask="url(#mask-2)"></path>
                <path d="M467.558197,607.118209 L558.952799,607.118209 C569.912941,607.118209 578.782003,616.006925 578.782003,626.951045 C578.782003,637.913194 569.912941,646.783881 558.952799,646.783881 L467.558197,646.783881 C456.616082,646.783881 447.728994,637.913194 447.728994,626.951045 C447.728994,616.006925 456.616082,607.118209 467.558197,607.118209" id="Fill-97" fill="#6CAC43" mask="url(#mask-2)"></path>
            </g>
        </g>
    </g>
</svg>