<?xml version="1.0" encoding="utf-8"?>
<!-- Generator: Adobe Illustrator 16.0.0, SVG Export Plug-In . SVG Version: 6.00 Build 0)  -->
<!DOCTYPE svg PUBLIC "-//W3C//DTD SVG 1.1//EN" "http://www.w3.org/Graphics/SVG/1.1/DTD/svg11.dtd">
<svg version="1.1" id="Layer_1" xmlns="http://www.w3.org/2000/svg" xmlns:xlink="http://www.w3.org/1999/xlink" x="0px" y="0px"
	 width="375px" height="300px" viewBox="0 0 375 300" enable-background="new 0 0 375 300" xml:space="preserve">
<rect x="-1500" y="300" fill="#29001A" width="1504.502" height="900"/>
<g>
	<polygon fill="#EB1D25" points="261.591,257.738 261.558,257.191 261.558,185.382 249.971,185.564 249.765,155.491 
		239.688,155.491 239.482,145.832 228.993,145.832 228.993,136.537 207.809,136.354 207.397,131.799 164.618,131.799 
		164.414,136.171 144.258,136.354 144.258,145.648 133.151,145.468 133.151,154.943 121.635,154.943 121.43,184.106 
		113.409,183.924 113.613,257.555 121.635,257.555 121.688,249.901 132.947,249.901 132.947,239.512 144.327,239.452 
		144.327,249.171 155.022,249.293 155.158,257.919 175.04,258.043 175.04,239.452 195.881,239.33 195.743,257.919 219.737,258.043 
		219.875,248.686 229.61,248.686 229.507,239.33 239.38,239.33 239.482,248.625 249.765,248.441 249.765,257.828 	"/>
	<polygon fill="#FFFFFF" points="230.227,164.583 218.298,164.583 218.298,155.627 196.498,155.627 196.498,164.583 
		187.037,164.583 187.037,191.994 196.498,191.994 196.498,201.668 218.298,201.668 218.298,191.994 230.227,191.994 	"/>
	<polygon fill="#FFFFFF" points="166.058,165.207 154.13,165.207 154.13,156.342 132.33,156.342 132.33,165.207 122.869,165.207 
		122.869,192.333 132.33,192.333 132.33,201.906 154.13,201.906 154.13,192.333 166.058,192.333 	"/>
	<rect x="187.038" y="174.914" fill="#3157A4" width="20.566" height="17.02"/>
	<rect x="122.869" y="175.43" fill="#3157A4" width="20.567" height="16.844"/>
</g>
</svg>
