<?xml version="1.0" encoding="UTF-8"?>
<svg width="1920px" height="2488px" viewBox="0 0 1920 2488" version="1.1" xmlns="http://www.w3.org/2000/svg" xmlns:xlink="http://www.w3.org/1999/xlink">
    <!-- Generator: Sketch 52.6 (67491) - http://www.bohemiancoding.com/sketch -->
    <title>Group 10</title>
    <desc>Created with Sketch.</desc>
    <g id="Page-2" stroke="none" stroke-width="1" fill="none" fill-rule="evenodd">
        <g id="Desktop-HD" transform="translate(0.000000, -3042.000000)">
            <g id="Group-10" transform="translate(0.000000, 3042.000000)">
                <path d="M964.035582,568.620493 L960,569.041081 C540.219793,503.209212 385.88646,407.790167 497,282.783946 C608.11354,157.777725 1082.44687,63.5164097 1920,-2.27373675e-13 L1920,468.98996 L1920,1620.96678 C1446.86691,1903.96163 806.86691,2192.97271 0,2488 L2.27373675e-13,1295.97226 C1522.81503,993.811757 1844.16018,751.361174 964.03545,568.620507 Z" id="Combined-Shape" fill="#914347"></path>
                <path d="M0,924 C193.860168,1095.93959 1084,1492 1920,1687.89649 L1920,1909 C867.381595,1525.80756 227.381595,1243.14089 0,1061 L0,924 Z" id="Path-6" fill="#A04B49" transform="translate(960.000000, 1416.500000) scale(-1, 1) translate(-960.000000, -1416.500000) "></path>
            </g>
        </g>
    </g>
</svg>