<?xml version="1.0" encoding="UTF-8"?>
<svg width="1920px" height="2061px" viewBox="0 0 1920 2061" version="1.1" xmlns="http://www.w3.org/2000/svg" xmlns:xlink="http://www.w3.org/1999/xlink">
    <!-- Generator: Sketch 52.6 (67491) - http://www.bohemiancoding.com/sketch -->
    <title>Group 13 Copy</title>
    <desc>Created with Sketch.</desc>
    <g id="Page-2" stroke="none" stroke-width="1" fill="none" fill-rule="evenodd">
        <g id="Desktop-HD" transform="translate(0.000000, -468.000000)">
            <g id="Group-13-Copy" transform="translate(0.000000, 468.000000)">
                <path d="M960,601.800917 C193.760014,776.551477 513.760014,985.490882 1920,1228.61913 L1920,2345 L1920,2060.91337 C1302.62736,1836.73943 662.627362,1617.13686 2.66453526e-14,1402.10566 L0,466 L960,601.800917 Z" id="Path-5" fill="#914347"></path>
                <path d="M38.2713763,892.966258 C186.603104,1023.61028 1267.67197,1419.71954 1906.01942,1542.44506 L1920,1714 C813.980583,1353.94349 173.980583,1104.71762 3.12638804e-13,966.322402 L-1.13686838e-13,860 L38.2713763,892.966258 Z" id="Path-6" fill="#A04B49"></path>
                <path d="M1132.42718,4.82391904e-14 C837.281553,4.05003455 723.883495,12.6385341 792.23301,25.7654987 C894.757282,45.4559455 1933.98058,98.962938 1724.27184,170.989218 C1584.46602,219.006739 1009.70874,298.645553 0,409.90566 L0,869 C1115.33981,557.9477 1755.33981,370.562255 1920,306.843666 L1920,90.4603235 C1848.54369,73.5066467 1522.3301,51.1609324 941.359223,23.4231806 C904.07767,17.1769991 1015.92233,9.36927224 1276.8932,0 L1132.42718,4.82391904e-14 Z" id="Path-2" fill="#914347"></path>
                <path d="M1151.39174,0 C865.4861,10.0795793 773.809834,18.6745694 876.362945,25.7849703 C1030.19261,36.4505716 1953.17061,85.1685383 1892.57104,154.709822 C1852.17133,201.070677 1221.31432,340.934607 1.11577414e-13,574.301611 L0,684 C1000.66975,436.067788 1640.66975,270.185916 1920,186.354383 L1920,129.161529 C1824.02228,98.8142598 1671.92647,76.5739763 1463.71258,62.4406782 C1151.39174,41.2407311 848.393915,25.0821771 857.716925,18.7527057 C863.932265,14.533058 961.82387,8.28215615 1151.39174,0 Z" id="Path-3" fill="#A04B49"></path>
            </g>
        </g>
    </g>
</svg>