<?xml version="1.0" encoding="UTF-8"?>
<svg width="731px" height="831px" viewBox="0 0 731 831" version="1.1" xmlns="http://www.w3.org/2000/svg" xmlns:xlink="http://www.w3.org/1999/xlink">
    <!-- Generator: Sketch 52.6 (67491) - http://www.bohemiancoding.com/sketch -->
    <title>Group 10 Copy</title>
    <desc>Created with Sketch.</desc>
    <defs>
        <polygon id="path-1" points="0.000145434382 0.0463859031 313.414918 0.0463859031 313.414918 266.400298 0.000145434382 266.400298"></polygon>
        <polygon id="path-3" points="0.0469554471 0.297238817 93.804359 0.297238817 93.804359 30.7813184 0.0469554471 30.7813184"></polygon>
    </defs>
    <g id="Page-2" stroke="none" stroke-width="1" fill="none" fill-rule="evenodd">
        <g id="Desktop-HD" transform="translate(-1189.000000, -5554.000000)">
            <g id="Group-10-Copy" transform="translate(1189.000000, 5554.000000)">
                <polygon id="Rectangle" fill="#4A90E2" points="214 62 731 62 731 831 214 831"></polygon>
                <polygon id="Rectangle-Copy-22" fill="#E3E3E3" points="589 88.6971072 721 66 721 821 589 821"></polygon>
                <polygon id="Rectangle-Copy-23" fill="#FFFFFF" points="557 75.1179807 689 52 689 821 557 821"></polygon>
                <polygon id="Rectangle-Copy-21" fill="#E3E3E3" points="527 51.8394782 665 28 665 821 527 821"></polygon>
                <polygon id="Rectangle" fill="#FFFFFF" points="496 38.2603517 634 14 634 821 496 821"></polygon>
                <path d="M5.56423005,43.7969369 L607,0 L607,831 L5,831 C2.23857625,831 3.38176876e-16,828.761424 0,826 L-8.8817842e-16,49.7810913 C2.91620893e-15,46.6364574 2.42790091,44.0253264 5.56423005,43.7969369 Z" id="Rectangle" fill="#4A90E2"></path>
                <path d="M305.5,658 L305.5,658 C336.151804,658 361,682.848196 361,713.5 L361,831 L250,831 L250,713.5 C250,682.848196 274.848196,658 305.5,658 Z" id="Rectangle" fill="#2478CC"></path>
                <circle id="Oval" fill="#FFFFFF" cx="341" cy="760" r="9"></circle>
                <g id="Group-7" transform="translate(146.000000, 79.000000)">
                    <g id="Group-3">
                        <mask id="mask-2" fill="white">
                            <use xlink:href="#path-1"></use>
                        </mask>
                        <g id="Clip-2"></g>
                        <path d="M54.4494996,266.400298 C49.0216773,259.299389 44.4573136,253.285972 39.8479112,247.306056 C26.9243408,230.534975 13.9634526,213.793529 1.10164976,196.974774 C0.344997432,195.982631 0.047741159,194.406799 0.0451675116,193.101551 C-0.0140263783,166.850995 -0.0294682626,140.599151 0.0902063409,114.349884 C0.0966404594,112.897748 1.01157211,111.079678 2.09250401,110.0579 C36.9100927,77.1896217 71.7675729,44.3664413 106.753735,11.6811301 C108.76118,9.80507797 111.803232,8.4006159 114.530011,8.03854816 C136.126773,5.17937263 157.755706,2.57918506 179.397507,0.0717693001 C180.95585,-0.108620323 183.028923,0.667055057 184.251406,1.71460337 C188.326776,5.20514258 192.236147,8.90957234 196.007827,12.7325439 C221.245013,38.3156579 251.632068,57.3802641 279.839243,79.200966 C289.83529,86.9332384 300.033367,94.4078113 310.248174,101.848883 C312.529712,103.511045 313.426628,105.268555 313.415047,108.112269 C313.308241,133.731461 313.376442,159.349364 313.30052,184.967268 C313.295372,186.595928 312.978814,188.569906 312.04458,189.800421 C294.842321,212.440607 277.522961,234.990599 259.544747,258.451558 C259.544747,255.884871 259.475258,254.25621 259.555041,252.633992 C260.769803,227.999212 261.960115,203.363144 263.284256,178.734806 C263.469559,175.300961 262.839015,172.919818 259.70946,170.796374 C228.600497,149.683057 197.572604,128.451199 166.641223,107.077605 C163.47049,104.88716 161.428301,105.026318 158.350218,107.148473 C124.143871,130.731839 89.8641745,154.213414 55.4931136,177.554543 C51.9389066,179.967898 50.5620053,182.463717 50.8129359,186.802088 C52.1898372,210.636711 53.2772032,234.488085 54.4353446,258.335593 C54.5408641,260.51573 54.4494996,262.704887 54.4494996,266.400298" id="Fill-1" fill="#2C4AB3" mask="url(#mask-2)"></path>
                    </g>
                    <g id="Group-6" transform="translate(118.405126, 287.933922)">
                        <mask id="mask-4" fill="white">
                            <use xlink:href="#path-3"></use>
                        </mask>
                        <g id="Clip-5"></g>
                        <path d="M0.162944173,8.71016599 C1.78518255,11.0140293 2.48469173,12.1482025 3.32955348,13.1852961 C7.18009848,17.9054929 12.0429202,19.029011 17.5208948,15.9769249 C20.6018499,14.2590906 23.434927,12.0203416 25.9617255,9.6466284 C38.0973663,-1.75193057 52.3873397,-2.80796657 66.1413255,6.91893003 C68.2735956,8.42839853 70.1774546,10.2077955 72.2162837,11.8332859 C80.2119722,18.21449 86.8683407,17.583473 93.7933519,8.91024455 C93.8699216,15.9674537 93.6804441,21.9402134 88.7423505,26.7018466 C84.0508371,31.2290682 78.0277905,31.4871577 71.8931339,29.8888969 C67.7739462,28.8139186 63.6910966,27.4808507 59.7938312,25.8612798 C50.8974759,22.1639699 42.3554176,22.678965 33.5083784,26.272092 C28.5053952,28.3048429 23.0274207,30.0285968 17.6299092,30.4476962 C7.09444429,31.2669529 1.60738522,26.7148694 0.213558011,17.1430633 C-0.129058734,14.7882925 0.162944173,12.3565683 0.162944173,8.71016599" id="Fill-4" fill="#2C4AB3" mask="url(#mask-4)"></path>
                    </g>
                </g>
            </g>
        </g>
    </g>
</svg>