<?xml version="1.0" encoding="utf-8"?>
<!-- Generator: Adobe Illustrator 16.0.0, SVG Export Plug-In . SVG Version: 6.00 Build 0)  -->
<!DOCTYPE svg PUBLIC "-//W3C//DTD SVG 1.1//EN" "http://www.w3.org/Graphics/SVG/1.1/DTD/svg11.dtd">
<svg version="1.1" id="Layer_1" xmlns="http://www.w3.org/2000/svg" xmlns:xlink="http://www.w3.org/1999/xlink" x="0px" y="0px"
	 width="841.89px" height="708.66px" viewBox="0 0 841.89 708.66" enable-background="new 0 0 841.89 708.66" xml:space="preserve">
<g>
	<defs>
		<rect id="SVGID_1_" width="841.89" height="708.66"/>
	</defs>
	<clipPath id="SVGID_2_">
		<use xlink:href="#SVGID_1_"  overflow="visible"/>
	</clipPath>
	<g clip-path="url(#SVGID_2_)">
		<defs>
			<rect id="SVGID_3_" width="841.89" height="708.66"/>
		</defs>
		<clipPath id="SVGID_4_">
			<use xlink:href="#SVGID_3_"  overflow="visible"/>
		</clipPath>
		<g opacity="0.69" clip-path="url(#SVGID_4_)">
			<g>
				<defs>
					<rect id="SVGID_5_" x="-102.769" y="33.72" width="1043.428" height="619.88"/>
				</defs>
				<clipPath id="SVGID_6_">
					<use xlink:href="#SVGID_5_"  overflow="visible"/>
				</clipPath>
			</g>
		</g>
	</g>
	<g clip-path="url(#SVGID_2_)">
		<defs>
			<rect id="SVGID_7_" width="841.89" height="708.66"/>
		</defs>
		<clipPath id="SVGID_8_">
			<use xlink:href="#SVGID_7_"  overflow="visible"/>
		</clipPath>
	</g>
	<g clip-path="url(#SVGID_2_)">
		<defs>
			<path id="SVGID_9_" d="M620.842,508.137c0,2.171,1.759,3.932,3.93,3.932c2.172,0,3.931-1.761,3.931-3.932
				c0-2.17-1.759-3.93-3.931-3.93C622.601,504.207,620.842,505.967,620.842,508.137 M676.896,553.337h0.056
				c0.014,0.015,0.014,0.015,0.014,0.027C676.952,553.352,676.925,553.352,676.896,553.337 M405.779,519.955h34.983l-9.334,20.845
				h-16.315L405.779,519.955z M614.213,555.116c-0.013-1.998-0.082-3.983-0.301-5.926c-0.164-1.972-0.493-3.901-0.809-5.817
				l-0.561-2.86l-0.671-2.819c-0.465-1.874-0.958-3.751-1.533-5.584c-0.547-1.834-1.177-3.655-1.819-5.461
				c-0.672-1.793-1.328-3.587-2.067-5.352c-0.697-1.766-1.464-3.518-2.231-5.269c-1.546-3.478-3.188-6.912-4.939-10.28
				c-1.752-3.366-3.601-6.679-5.489-9.964c-1.916-3.256-3.914-6.474-5.967-9.648c-1.026-1.602-2.093-3.147-3.176-4.709
				c-0.409-0.602-0.834-1.203-1.259-1.807l15.192-15.507l1.711,1.328c1.382,1.013,2.806,1.958,4.214,2.941
				c1.424,0.973,2.915,1.794,4.381,2.711c1.45,0.916,2.983,1.684,4.489,2.519c1.506,0.863,3.065,1.575,4.612,2.327l2.328,1.108
				l2.38,1.027c1.573,0.684,3.162,1.368,4.791,1.956c1.601,0.617,3.202,1.259,4.857,1.766c1.645,0.52,3.272,1.137,4.941,1.574
				c1.67,0.451,3.312,0.986,5.01,1.382c1.685,0.397,3.354,0.862,5.064,1.19c1.695,0.33,3.394,0.739,5.118,0.973
				c1.726,0.232,3.436,0.574,5.188,0.711c1.739,0.178,3.476,0.384,5.242,0.439l2.628,0.123l2.669-0.028h0.547
				c-0.451,1.341-0.794,2.696-1.094,4.024c-0.315,1.424-0.548,2.847-0.768,4.257c-0.178,1.424-0.355,2.832-0.451,4.242
				c-0.479,5.625-0.466,11.21-0.261,16.752c0.233,5.543,0.739,11.046,1.343,16.534c0.271,2.395,0.573,4.776,0.901,7.157
				l-33.669-29.166l-4.475,5.174l33.478,29.002l-2.601,0.027c-1.369,0-2.724,0.095-4.092,0.164l-4.079,0.26L648.908,547
				c-1.354,0.109-2.696,0.314-4.051,0.506c-1.343,0.221-2.711,0.37-4.038,0.63l-4.023,0.739c-1.342,0.26-2.67,0.588-3.996,0.903
				c-1.342,0.288-2.642,0.671-3.97,1.026c-1.313,0.343-2.628,0.739-3.928,1.149c-2.614,0.794-5.188,1.725-7.747,2.71
				c-0.985,0.398-1.984,0.78-2.955,1.219C614.2,555.622,614.2,555.376,614.213,555.116 M182.865,543.277
				c1.396-2.832,2.765-5.681,3.955-8.623c1.246-2.929,2.286-5.953,3.189-9.005c0.93-3.053,1.656-6.159,2.259-9.28
				c0.588-3.093,1.039-6.296,1.451-9.251l0.342-2.287l0.369-2.176c0.273-1.465,0.561-2.942,0.903-4.394
				c0.671-2.915,1.493-5.788,2.477-8.595c1.971-5.64,4.626-11.005,7.938-15.946c3.354-4.926,7.474-9.334,12.168-13.083
				c4.681-3.765,10.005-6.747,15.63-9.061c2.82-1.15,5.721-2.094,8.692-2.861c0.739-0.191,1.491-0.368,2.244-0.547l29.303,34.298
				c-0.547,0.493-1.205,1.123-1.971,1.862c-1.135,1.095-2.464,2.437-3.969,3.997c-1.52,1.532-3.381,3.134-5.242,4.995
				c-0.944,0.931-1.916,1.889-2.929,2.888c-1.054,0.945-2.149,1.929-3.258,2.956c-2.244,1.998-4.447,4.284-6.952,6.419
				c-2.437,2.191-4.791,4.653-7.418,6.899c-1.301,1.148-2.601,2.298-3.915,3.463c-1.314,1.163-2.737,2.188-4.106,3.297
				c-1.396,1.081-2.778,2.177-4.188,3.217c-1.437,1.012-2.874,2.011-4.298,3.01c-2.805,2.054-5.734,3.819-8.513,5.653
				c-2.819,1.752-5.584,3.381-8.225,4.901c-2.655,1.477-5.173,2.9-7.555,4.078c-2.368,1.244-4.585,2.259-6.543,3.188
				c-1.97,0.903-3.695,1.67-5.131,2.285c-0.877,0.384-1.643,0.684-2.273,0.945c0.383-0.22,0.767-0.438,1.164-0.657
				c2.381-1.368,4.954-2.833,7.636-4.502c2.697-1.644,5.448-3.519,8.268-5.53c2.806-2.04,5.652-4.229,8.376-6.68
				c2.723-2.464,5.42-5.09,7.842-8.021c1.273-1.394,2.382-2.955,3.531-4.474c0.561-0.766,1.041-1.601,1.574-2.396
				c0.534-0.794,1.054-1.588,1.492-2.45c1.984-3.271,3.285-6.926,4.243-10.512c0.684-3.668,1.04-7.309,0.616-10.688
				c-0.097-0.85-0.178-1.671-0.26-2.492c-0.178-0.808-0.356-1.602-0.521-2.368c-0.191-0.781-0.355-1.532-0.56-2.258
				c-0.247-0.725-0.507-1.423-0.739-2.108c-0.247-0.683-0.48-1.354-0.727-1.998c-0.232-0.644-0.602-1.23-0.875-1.82
				c-0.602-1.163-1.108-2.285-1.697-3.284c-1.287-1.931-2.341-3.613-3.381-4.886c-2.12-2.52-3.407-3.832-3.407-3.832l-0.561,0.369
				c0,0,0.615,1.778,1.833,4.68c0.342,0.699,0.547,1.575,0.862,2.45c0.315,0.89,0.644,1.834,0.999,2.859
				c0.521,2.082,1.301,4.354,1.67,6.899c0.11,0.63,0.233,1.272,0.356,1.916c0.055,0.657,0.109,1.329,0.179,2.012
				c0.054,0.671,0.136,1.355,0.205,2.053c-0.014,0.698-0.014,1.41-0.014,2.122c0.069,2.847-0.397,5.804-0.945,8.828
				c-0.192,0.753-0.383,1.505-0.574,2.271l-0.288,1.15l-0.383,1.136c-0.261,0.767-0.52,1.532-0.781,2.313
				c-0.314,0.753-0.642,1.521-0.957,2.286c-0.301,0.781-0.698,1.52-1.095,2.272c-0.411,0.738-0.78,1.506-1.218,2.23
				c-0.931,1.45-1.807,2.942-2.874,4.326c-2.04,2.818-4.407,5.446-6.83,7.937c-2.45,2.478-5.009,4.806-7.569,6.98
				c-5.132,4.325-10.265,8.034-14.713,11.141c-2.669,1.849-5.105,3.462-7.185,4.887C180.99,546.904,181.948,545.099,182.865,543.277
				 M566.063,479.114l-3.217-3.983c-0.697-0.889-1.436-1.751-2.121-2.668l-2.011-2.737c-1.329-1.849-2.71-3.655-3.997-5.517
				l-3.777-5.68c-1.3-1.861-2.45-3.832-3.641-5.775c-1.164-1.942-2.423-3.846-3.518-5.845c-2.23-3.955-4.503-7.91-6.528-11.989
				c-2.147-4.01-4.038-8.171-6.009-12.275c-0.944-2.081-1.834-4.176-2.766-6.27l-1.367-3.121l-1.287-3.175
				c-3.504-8.431-6.529-17.053-9.39-25.731c-2.846-8.69-5.296-17.505-7.581-26.359c-2.285-8.855-4.229-17.807-5.981-26.799
				c-1.752-8.978-3.271-18.011-4.53-27.073c-0.917-6.582-1.725-13.179-2.354-19.791l0.889,2.601l4.422,12.756l5.091,12.496
				c0.863,2.08,1.685,4.175,2.588,6.241l2.86,6.105c1.943,4.064,3.75,8.198,5.802,12.208l6.27,11.976l1.574,2.983l1.684,2.93
				l3.367,5.871l3.367,5.858c1.162,1.93,2.381,3.818,3.571,5.734l3.6,5.734c1.19,1.916,2.396,3.818,3.668,5.68l7.583,11.196
				l7.896,10.991l8.185,10.784c2.834,3.519,5.612,7.075,8.501,10.552c2.899,3.463,5.788,6.939,8.812,10.307
				c2.821,3.202,5.668,6.31,8.693,9.416l2.969,8.911l-24.006,23.54L566.063,479.114z M250.449,445.13
				c2.45-2.587,4.818-5.16,7.145-7.814c3.011-3.366,5.913-6.843,8.8-10.307c2.902-3.476,5.666-7.034,8.513-10.552l8.184-10.771
				l7.898-10.991l7.582-11.209c1.273-1.849,2.478-3.764,3.669-5.68l3.599-5.722c1.191-1.916,2.409-3.805,3.572-5.734l3.367-5.871
				l3.367-5.858l1.684-2.93l1.574-2.983l6.268-11.976c2.053-4.01,3.859-8.144,5.803-12.208l2.861-6.118
				c0.903-2.053,1.724-4.148,2.586-6.228l5.092-12.496l4.42-12.769l0.972-2.833c-1.519,15.78-3.887,31.519-6.87,47.136
				c-1.752,8.979-3.696,17.93-5.982,26.799c-2.285,8.854-4.735,17.669-7.582,26.359c-2.86,8.678-5.885,17.314-9.402,25.732
				l-1.286,3.174l-1.369,3.135c-0.918,2.08-1.807,4.188-2.765,6.27c-1.971,4.104-3.846,8.267-6.009,12.275
				c-4.12,8.13-8.718,16-13.659,23.638l-3.777,5.68c-1.301,1.862-2.683,3.668-4.011,5.516l-2.012,2.751
				c-0.684,0.904-1.409,1.767-2.121,2.655l-1.588,1.971L250.449,445.13z M405.93,517.464l0.013-1.82l0.042-3.612l0.081-7.254
				l0.164-14.495l0.329-29.001l0.643-57.991l1.301-115.967l1.299-115.98l0.494-53.241h26.127l1.821,169.221l1.259,115.967
				l0.616,57.991l0.314,29.001l0.15,14.495l0.082,7.254l0.041,3.612l0.014,1.82c0.027,0.138-0.027,0.904,0.027,1.122h0.603
				c-0.041,0.028-0.355,0.192-0.589,0.042c0-0.014-0.014-0.026-0.014-0.042h-34.955C405.957,518.216,405.916,517.847,405.93,517.464
				 M410.829,61.508v-0.015h4.271l20.721-0.04v0.04l0.506,47.822h-25.949L410.829,61.508z M415.1,49.231l-16.589,0.013
				l-44.413,0.069l-6.063,0.013l0.014,6.037l0.177,110.984l0.247,55.499l0.123,27.744l0.055,13.877l0.013,3.463l-0.15,3.135
				c-0.137,2.258-0.288,4.53-0.465,6.802c-0.11,1.314-0.22,2.628-0.342,3.942l-2.245,5.789l-4.859,12.51l-5.529,12.262
				c-0.918,2.026-1.793,4.093-2.765,6.105l-3.039,5.995c-2.053,3.969-3.982,8.02-6.145,11.934l-6.583,11.689l-1.655,2.915
				l-1.766,2.86l-7.036,11.415c-1.204,1.889-2.463,3.737-3.695,5.598l-3.709,5.584c-1.232,1.861-2.464,3.725-3.792,5.53
				l-7.787,10.908l-8.103,10.675l-8.375,10.457c-2.888,3.395-5.722,6.843-8.664,10.196c-2.956,3.34-5.899,6.693-8.951,9.937
				c-2.998,3.272-6.105,6.515-9.197,9.567l-2.149,2.122l2.271,2.654c-0.629,0.068-1.272,0.164-1.901,0.261
				c-3.067,0.479-6.105,1.205-9.089,2.122c-5.981,1.833-11.702,4.611-16.917,8.197c-5.242,3.572-9.841,8.075-13.727,13.125
				c-3.888,5.064-6.953,10.73-9.294,16.644c-1.176,2.957-2.175,5.98-3.011,9.047c-0.423,1.533-0.793,3.066-1.149,4.626l-0.493,2.354
				l-0.411,2.286c-0.506,3.12-0.999,6.022-1.656,8.965c-0.656,2.915-1.423,5.789-2.367,8.608c-0.931,2.833-1.985,5.612-3.162,8.363
				c-1.149,2.75-2.477,5.447-3.832,8.13c-1.396,2.668-2.861,5.324-4.394,7.938c-1.533,2.614-3.147,5.175-4.762,7.761l-4.257,6.789
				l7.842-1.616l17.081-3.53c5.708-1.177,11.456-2.327,17.163-3.765c2.861-0.71,5.721-1.478,8.554-2.285
				c2.847-0.821,5.68-1.724,8.486-2.682c2.806-1.014,5.598-2.054,8.335-3.272c2.724-1.217,5.434-2.518,8.048-4.01l1.957-1.108
				l1.917-1.19c1.286-0.767,2.518-1.643,3.736-2.505c2.463-1.725,4.79-3.641,7.007-5.668c1.109-1.012,2.149-2.093,3.217-3.146
				l3.011-3.34c0.931-1.163,1.888-2.313,2.792-3.503c0.862-1.219,1.766-2.396,2.573-3.642c0.78-1.272,1.587-2.519,2.34-3.791
				l2.149-3.887l1.943-3.983c0.617-1.341,1.15-2.71,1.725-4.064c0.588-1.342,1.026-2.751,1.547-4.12
				c0.533-1.368,0.985-2.765,1.409-4.174c0.644-1.984,1.164-3.983,1.698-5.995l-0.233-0.246c-0.767,1.998-1.547,3.969-2.436,5.899
				c-0.562,1.326-1.122,2.668-1.779,3.969c-0.644,1.286-1.205,2.628-1.916,3.887l-2.053,3.804l-2.19,3.725l-2.368,3.585
				c-0.835,1.165-1.711,2.3-2.546,3.45l-2.696,3.324c-0.931,1.068-1.903,2.096-2.861,3.148l-3.025,2.971
				c-1.081,0.931-2.121,1.89-3.216,2.778c-2.217,1.752-4.461,3.434-6.843,4.954c-1.191,0.753-2.382,1.52-3.613,2.19l-1.848,1.04
				l-1.889,0.945c-2.518,1.286-5.119,2.395-7.746,3.447c-1.314,0.521-2.67,0.987-3.997,1.493c-1.328,0.479-2.682,0.902-4.038,1.368
				c-2.723,0.849-5.46,1.643-8.239,2.354c-2.779,0.712-5.57,1.383-8.377,1.998c-5.625,1.233-11.304,2.409-17.012,3.504l-9.526,1.875
				c0.274-0.437,0.534-0.89,0.794-1.341c0.028-0.041,0.055-0.082,0.068-0.123v-0.013c1.848-1.041,4.106-2.286,6.679-3.709
				l-0.109-0.344c0,0,0.794-0.273,2.231-0.849c-0.739,0.411-1.437,0.808-2.122,1.192l0.097,0.313c0,0,1.751-0.41,4.749-1.327
				c1.506-0.453,3.325-1.055,5.392-1.778c2.054-0.753,4.38-1.59,6.871-2.615c2.532-0.973,5.187-2.177,8.034-3.421
				c1.423-0.589,2.833-1.342,4.298-2.054c1.45-0.726,2.97-1.424,4.448-2.23c2.956-1.644,6.117-3.189,9.115-5.119
				c1.519-0.917,3.052-1.861,4.585-2.792c1.519-0.986,3.011-2.013,4.517-3.025c1.491-1.013,3.052-1.957,4.502-3.039
				c1.451-1.08,2.916-2.135,4.353-3.188c2.97-2.025,5.611-4.38,8.184-6.61c2.601-2.231,4.791-4.721,6.885-7.049
				c1.053-1.164,2.066-2.298,3.011-3.422c0.877-1.19,1.724-2.34,2.545-3.434c0.822-1.097,1.561-2.164,2.286-3.19
				c0.685-1.026,1.437-1.929,1.958-2.928c1.122-1.916,2.066-3.614,2.819-5.011c0.424-0.78,0.781-1.478,1.081-2.066l2.861,3.354
				l0.082,0.109c0.287-0.725,0.574-1.465,0.862-2.204c-0.219,0.821-0.424,1.629-0.629,2.45l1.095,1.287l2.805-3.34l4.544-5.406
				c0.754-0.903,1.519-1.793,2.258-2.71l2.136-2.805c1.423-1.875,2.887-3.724,4.256-5.64l4.037-5.775
				c5.257-7.802,10.197-15.809,14.55-24.129c2.272-4.107,4.269-8.351,6.364-12.552c0.999-2.107,1.943-4.257,2.929-6.378l1.451-3.203
				l1.368-3.244c3.737-8.595,6.953-17.382,10.019-26.223c3.052-8.854,5.694-17.834,8.158-26.84c2.463-9.019,4.584-18.135,6.5-27.278
				c1.916-9.142,3.559-18.339,4.928-27.592c1.368-9.238,2.518-18.517,3.325-27.866c0.205-2.326,0.384-4.681,0.548-7.035l0.109-1.765
				l0.042-0.904l0.027-0.451l0.027-0.671l0.014-3.463l0.054-13.877l0.124-27.744l0.246-55.499l0.165-104.922l38.5,0.055
				l1.027,109.863l1.299,115.98l1.301,115.967l0.657,57.991l0.315,29.001l0.164,14.495l0.081,7.254l0.042,3.612l0.027,1.82
				c0,0.37-0.041,0.752,0.138,1.122c0.013,0.056,0.04,0.11,0.082,0.165l19.518,43.605l19.612-43.771c0,0,0.014-0.396,0-0.67
				c0.041-0.164,0.027-0.302,0.041-0.452l0.015-1.82l0.039-3.612l0.084-7.254l0.149-14.495l0.314-29.001l0.63-57.991l1.246-115.967
				l2.436-225.843l35.325-0.041l0.151,104.908l0.232,55.499l0.123,27.744l0.055,13.877l0.014,3.463l0.026,0.657l0.028,0.452
				l0.041,0.917l0.109,1.779c0.164,2.355,0.342,4.695,0.549,7.035c0.807,9.335,1.97,18.614,3.324,27.866
				c1.383,9.239,3.012,18.45,4.9,27.606c1.916,9.143,4.037,18.244,6.5,27.264c2.465,9.021,5.106,17.998,8.158,26.854
				c3.065,8.841,6.295,17.628,10.019,26.238l1.369,3.229l1.463,3.203c0.973,2.135,1.916,4.283,2.931,6.392
				c2.094,4.201,4.092,8.445,6.362,12.55c4.366,8.309,9.253,16.37,14.522,24.157l4.038,5.777c1.382,1.916,2.847,3.763,4.257,5.638
				l2.149,2.806c0.725,0.917,1.505,1.807,2.257,2.71l4.545,5.421l1.136,1.354l1.779-0.026l10.676-0.109l1.586-0.015l1.068-1.081
				l5.585-5.693c1.259,2.258,2.464,4.544,3.668,6.829c1.752,3.34,3.436,6.707,5.05,10.087c1.629,3.381,3.203,6.803,4.681,10.239
				c1.466,3.448,2.875,6.911,4.188,10.4c2.615,6.994,4.803,14.125,6.296,21.324l0.521,2.696l0.408,2.71
				c0.221,1.807,0.453,3.614,0.521,5.421c0.137,1.792,0.108,3.585,0.055,5.365c-0.068,0.889-0.096,1.778-0.179,2.641l-0.328,2.615
				l-0.698,5.488l4.996-2.451c1.013-0.507,2.244-1.054,3.408-1.533c1.177-0.492,2.394-0.944,3.599-1.382
				c2.437-0.862,4.9-1.684,7.392-2.368c1.246-0.355,2.505-0.712,3.764-0.999c1.259-0.3,2.518-0.643,3.791-0.889l3.818-0.78
				l3.834-0.686c1.271-0.231,2.571-0.368,3.858-0.547c1.286-0.19,2.573-0.37,3.859-0.466l3.887-0.354l3.887-0.205
				c1.302-0.069,2.602-0.152,3.901-0.125l3.887-0.014c1.301-0.042,2.601,0.083,3.901,0.124l3.9,0.138l1.479,0.054
				c0.903,0.863,1.943,1.56,2.778,1.56c0.273,0,0.534-0.082,0.752-0.273c0.165-0.136,0.356-0.396,0.384-0.821
				c0.055-0.903-0.739-2.189-1.574-3.175l-0.247-1.355c-0.479-2.601-0.916-5.297-1.313-7.95c-0.397-2.669-0.752-5.353-1.081-8.034
				c-0.657-5.353-1.149-10.731-1.479-16.082c-0.328-5.365-0.479-10.718-0.164-15.987c0.068-1.313,0.191-2.614,0.328-3.914
				c0.151-1.287,0.329-2.573,0.574-3.832c0.248-1.246,0.535-2.464,0.904-3.627c0.355-1.178,0.807-2.259,1.314-3.286l2.313-4.652
				l-5.132,0.479c-1.602,0.165-3.177,0.466-4.818,0.48l-2.449,0.136l-2.478-0.027c-1.656,0.027-3.313-0.096-4.969-0.191
				c-1.655-0.055-3.312-0.314-4.968-0.466c-1.67-0.164-3.313-0.451-4.969-0.671c-1.669-0.219-3.312-0.574-4.954-0.861
				c-1.656-0.274-3.285-0.698-4.927-1.056c-1.656-0.326-3.271-0.833-4.9-1.244c-1.629-0.396-3.229-0.931-4.858-1.396
				c-1.615-0.452-3.217-1.014-4.806-1.561l-2.406-0.821l-2.356-0.917c-1.574-0.616-3.16-1.231-4.693-1.916
				c-1.547-0.698-3.134-1.3-4.64-2.08c-1.506-0.767-3.065-1.45-4.558-2.272c-1.479-0.835-2.997-1.602-4.477-2.449l-1.778-1.096
				l4.804-4.913l1.506-1.532l-0.698-1.944l-4.12-11.51l-0.26-0.727l-0.534-0.532c-3.079-3.054-6.2-6.282-9.196-9.567
				c-3.039-3.244-5.995-6.584-8.938-9.938c-2.944-3.354-5.777-6.802-8.678-10.195l-8.376-10.457l-8.104-10.675l-7.787-10.896
				c-1.327-1.806-2.56-3.669-3.792-5.53l-3.709-5.584c-1.23-1.875-2.49-3.723-3.694-5.598l-7.035-11.415l-1.765-2.86l-1.656-2.915
				l-6.584-11.689c-2.162-3.914-4.091-7.965-6.146-11.934l-3.038-5.995c-0.973-2.012-1.848-4.079-2.765-6.118l-5.529-12.249
				l-4.873-12.524l-2.189-5.653l-0.328-4.064c-0.192-2.272-0.343-4.544-0.466-6.802l-0.164-3.135l0.026-3.463l0.056-13.877
				l0.123-27.744l0.219-55.499l0.165-110.984l0.013-6.064l-6.076-0.014l-67.571-0.068L415.1,49.231z"/>
		</defs>
		<clipPath id="SVGID_10_">
			<use xlink:href="#SVGID_9_"  overflow="visible"/>
		</clipPath>
		
			<linearGradient id="SVGID_11_" gradientUnits="userSpaceOnUse" x1="0" y1="708.666" x2="1" y2="708.666" gradientTransform="matrix(512.6052 29.8159 29.8159 -512.6052 -20950.3145 363560)">
			<stop  offset="0" style="stop-color:#EFC73B"/>
			<stop  offset="0.1124" style="stop-color:#EFC73B"/>
			<stop  offset="0.2416" style="stop-color:#F0563C"/>
			<stop  offset="0.2685" style="stop-color:#E55352"/>
			<stop  offset="0.323" style="stop-color:#D24E79"/>
			<stop  offset="0.3665" style="stop-color:#C64B91"/>
			<stop  offset="0.3933" style="stop-color:#C24A9A"/>
			<stop  offset="0.7865" style="stop-color:#00B2C0"/>
			<stop  offset="0.8146" style="stop-color:#00B26C"/>
			<stop  offset="1" style="stop-color:#00B2C0"/>
		</linearGradient>
		<polygon clip-path="url(#SVGID_10_)" fill="url(#SVGID_11_)" points="165.248,19.368 708.372,50.959 676.694,595.573 
			133.57,563.982 		"/>
	</g>
	<g clip-path="url(#SVGID_2_)">
		<defs>
			<rect id="SVGID_12_" width="841.89" height="708.66"/>
		</defs>
		<clipPath id="SVGID_13_">
			<use xlink:href="#SVGID_12_"  overflow="visible"/>
		</clipPath>
		<path clip-path="url(#SVGID_13_)" fill="#A14F67" d="M199.269,546.534c-0.739,0.411-1.437,0.809-2.121,1.191l-0.11-0.342
			C197.038,547.384,197.832,547.109,199.269,546.534"/>
		<path clip-path="url(#SVGID_13_)" fill="#A14F67" d="M199.269,546.534c-0.739,0.411-1.437,0.809-2.121,1.191l-0.11-0.342
			C197.038,547.384,197.832,547.109,199.269,546.534"/>
	</g>
</g>
</svg>
