<?xml version="1.0" encoding="utf-8"?>
<!-- Generator: Adobe Illustrator 21.0.0, SVG Export Plug-In . SVG Version: 6.00 Build 0)  -->
<svg version="1.1" id="Layer_1" xmlns="http://www.w3.org/2000/svg" xmlns:xlink="http://www.w3.org/1999/xlink" x="0px" y="0px"
	 viewBox="0 0 500 500" style="enable-background:new 0 0 500 500;" xml:space="preserve">
<style type="text/css">
	.st0{fill:#0E67B0;}
</style>
<g id="XMLID_1384_">
	<g id="XMLID_1394_">
		<path id="XMLID_1395_" class="st0" d="M417.1,236.3l-22.5,74.5h-49.8l21.4-69.5c3.5-11.3,3.5-19.8,0-24.6c-3-4.1-7.7-4.4-9.1-4.4
			c-0.2,0-0.3,0-0.3,0l-0.1,0c-23.5,0-31.2,26.8-31.3,27.1l-21.8,71.3h-38.8c0.1,0,0.1,0,0.2-0.1l0.1,0l0.1,0
			c0.4-0.1,9-3.7,16.5-11.4c7.1-7.3,14.4-19.8,9.3-37.7c-0.3-1.2-2.2-7.1-11-13.6c-0.8-0.6-1.7-1.2-2.7-1.8
			c-0.7-0.4-1.5-0.8-2.3-1.2l0.2-1l4.1-14.7h24.7l0.7-2.4c0,0,0.1-0.3,0.2-0.9c0-0.1,0-0.2,0.1-0.3c0-0.1,0.1-0.3,0.1-0.4
			c0-0.2,0.1-0.4,0.1-0.6c0-0.2,0.1-0.4,0.1-0.6c0-0.1,0-0.3,0.1-0.5c0,0,0,0,0-0.1c0-0.1,0-0.3,0-0.4c0.2-2,0.3-4.6-0.2-7.6
			c-0.4-2.3-1.1-5.1-2.5-7.9c-0.3-0.7-0.7-1.3-1.1-2c-0.1-0.1-0.1-0.2-0.2-0.3c-0.1-0.2-0.3-0.5-0.4-0.7c-1.1-1.7-2.5-3.1-4.1-5
			c0,0,0,0,0,0c-0.3,0-0.7-0.6-1-0.9c-1.3-1.2-2.8-2.2-4.5-3.3c-0.7-0.5-1.6-0.9-2.3-1.3v0l0,0l1.6-5.5l48.4,0.4l-4.9,17.6
			c10.1-9.6,21.7-14.8,30.1-17.4c10.5-3.3,18.4-3.8,18.7-3.8h0.1c15,0,25.7,4.4,31.7,12.9C424.9,213.1,417.5,234.9,417.1,236.3z"/>
	</g>
	<g id="XMLID_1392_">
		<path id="XMLID_1393_" class="st0" d="M300.7,225.8l-0.3,1.1h-42.6l0.2-1.7c0.5-5-0.5-8.9-2.9-11.6c-3.7-4.1-9.9-4.3-10.6-4.3
			l-0.2,0c-6.5,0-11.1,1.5-13.7,4.4c-2.5,2.8-2.1,6.1-2.1,6.2l0,0.2l0,0.2c-0.5,6.1,14.2,15.3,37.6,23.3c3.3,1.1,5.8,2.2,8.1,3.5
			c0.9,0.5,1.8,1.1,2.5,1.7c8.6,6.3,10.2,12,10.4,12.8c5,17.2-2.1,29.2-8.9,36.2c-7.3,7.5-15.6,10.9-15.9,11.1l0,0l0,0
			c-0.8,0.3-1.6,0.5-2.4,0.8c-11.3,3.5-23.8,5.2-37,5.2c-16.2,0-27.7-2.7-28.7-2.9c-4.7-0.9-8.9-2.3-12.4-4.4
			c7.2-4.2,20-13.9,22-30.3c0.1-0.7,0.1-1.3,0.2-2c0,0,0,0,0,0h7.7l-0.3,1.9c-0.7,4-0.1,7.3,1.9,10c3.9,5.3,11.9,6.2,12,6.2
			c1.2,0.1,2.4,0.2,3.5,0.2c16.1,0,16.7-14.3,16.7-14.9c0.2-6.5-6.4-10-6.9-10.2l-24.4-10.8c-1.2-0.5-2.6-1.1-4.2-1.7
			c-19.4-7.3-24.1-20.1-25.1-26.9h30.4l0.7-2.4c0.1-0.2,1.5-5.2,0.5-11.6c-0.9-5.5-3.9-13.2-12.9-19.2c15.3-7.7,35.1-8.3,40.9-8.3
			c0.7,0,1.2,0,1.3,0c18.7,0,32.9,3,42.4,9c9.3,5.9,12.3,13.5,13.1,18.9C302,221.2,300.7,225.7,300.7,225.8z"/>
	</g>
	<g id="XMLID_1390_">
		<path id="XMLID_1391_" class="st0" d="M134.9,314.4c-16.2,0-27.7-2.7-28.7-2.9c-9.8-1.8-17-6.1-21.5-12.7
			c-7-10.2-4.8-22.2-4.7-22.7l0.3-1.3h43.4l-0.3,1.9c-0.7,4-0.1,7.3,1.9,9.9c3.9,5.3,11.9,6.2,12,6.2c1.2,0.1,2.4,0.2,3.5,0.2
			c16.1,0,16.7-14.3,16.7-15c0.2-6.5-6.4-10-6.8-10.2l-24.8-11c-1.1-0.5-2.2-0.9-3.2-1.3c-14.7-5.4-21-13.9-23.7-20.1
			c-2.7-6.3-2.4-11.5-2.3-12.3c0-14.5,9.4-25.3,26.9-31.3c13.7-4.6,28.6-5,32.8-5c0.7,0,1.2,0,1.3,0c18.1,0,32.1,2.9,41.6,8.5
			c9.8,5.9,13,13.7,13.9,19.2c1,6-0.4,10.6-0.4,10.8l-0.3,1.1h-42.6l0.2-1.8c0.5-5-0.5-8.9-2.9-11.6c-3.7-4.1-9.9-4.3-10.6-4.3
			l-0.2,0c-6.5,0-11.1,1.5-13.7,4.3c-2.5,2.8-2.2,6.1-2.2,6.2l0,0.2l0,0.2c-0.5,6.1,14.2,15.3,37.6,23.3c4.6,1.6,7.9,3.2,10.6,5.2
			c8.6,6.3,10.2,12,10.4,12.8c1.6,5.4,2,10.6,1.4,15.5c-2.1,17.3-16.9,26.9-23.1,30.2c-1.9,1-3,1.5-3.1,1.5l0,0l0,0
			C162.3,312.4,149,314.4,134.9,314.4z"/>
	</g>
</g>
</svg>
